<svg width="36" height="34" viewBox="0 0 36 34" fill="none" xmlns="http://www.w3.org/2000/svg">
<g id="Black">
<path id="Vector" d="M14.6608 0.415752C13.2592 1.07534 12.1599 2.36705 11.7751 3.76868C11.6102 4.37331 11.3629 4.868 11.2254 4.868C10.6483 4.868 8.66952 6.95671 8.00992 8.24841C7.54271 9.21032 7.29536 10.2547 7.18543 11.7113C7.0755 13.0579 6.88312 13.9924 6.58081 14.3222C6.1136 14.8443 6.05863 16.2735 6.41591 19.379C6.60829 21.0005 6.58081 21.1379 5.89373 21.7701C5.50897 22.1273 5.17917 22.7045 5.17917 23.0343C5.17917 23.3916 4.18978 24.6833 2.5408 26.4422C0.204746 28.9981 -0.0700844 29.3829 0.0123647 30.2073C0.0948137 31.0044 0.204746 31.1143 0.919304 31.1967C1.63386 31.2517 2.18352 30.8669 4.62951 28.6683C7.46026 26.0849 9.35659 24.9306 6.99305 27.1842C5.59142 28.5584 5.12421 29.9325 5.23414 32.2961L5.31659 33.8626H16.8595H28.4023L28.4848 32.8182C28.5397 32.2686 28.6772 31.8014 28.7871 31.8014C28.897 31.8014 29.4742 32.2961 30.0513 32.9007C30.6284 33.5053 31.3705 34 31.7003 34C32.4423 34 35.1357 31.2792 35.1357 30.5097C35.1357 30.2073 34.9433 29.7951 34.7234 29.6027C34.1463 29.1355 33.3768 29.4928 33.5691 30.1249C33.6516 30.4822 33.3768 30.9769 32.6897 31.6365L31.6728 32.6258L30.601 31.5265C29.7215 30.6196 29.3367 30.4272 28.4848 30.4272C27.6053 30.4272 27.1931 30.2073 26.0388 29.163C24.7196 27.9263 24.6921 27.8713 25.2418 27.4865C25.5441 27.2667 25.7914 26.8544 25.7914 26.5796C25.7914 26.2498 26.0113 26.0299 26.4235 25.975C26.8083 25.92 27.0557 25.6726 27.1106 25.2604C27.1656 24.8756 27.3855 24.6558 27.7152 24.6558C27.9901 24.6558 28.4023 24.4084 28.6222 24.0786C28.8695 23.7214 29.0894 23.6389 29.2268 23.8038C29.3093 23.9687 29.6391 24.1061 29.9414 24.1061C30.3536 24.1061 30.4636 23.9137 30.4636 23.1717C30.4636 21.3303 30.9582 21.9075 31.1231 23.8863C31.3705 27.4316 31.5904 28.5034 32.1125 28.7782C32.9095 29.218 33.2119 28.5584 32.8821 27.1292C32.7446 26.4422 32.5523 24.8756 32.4698 23.6114C32.3324 21.6052 32.2499 21.2754 31.6728 20.8906C30.8483 20.3684 29.749 20.6158 29.5016 21.3853C29.3093 21.9624 29.3093 21.9624 28.6222 21.2754C27.9901 20.6707 27.9076 20.3409 27.7702 17.6476C27.6603 15.2566 27.5229 14.5695 27.1106 14.1573C26.7259 13.7725 26.6159 13.2503 26.6159 11.9037C26.6159 8.96297 25.4891 6.68188 23.2905 5.22528C22.7133 4.84052 22.2186 4.31834 22.2186 4.09848C22.2186 3.30147 20.8445 1.35018 19.8826 0.745552C18.5084 -0.106422 16.0899 -0.243839 14.6608 0.415752ZM18.6184 1.70745C19.3879 2.09222 20.9544 3.7412 20.762 3.93358C20.7071 3.98855 20.2399 3.9061 19.7177 3.76868C18.5634 3.43889 15.5678 3.4114 14.1936 3.7412C13.0118 4.01603 12.9569 3.9061 13.6439 2.99916C14.8807 1.40514 16.9969 0.855484 18.6184 1.70745ZM20.1849 5.28025C23.2905 6.18719 25.1593 8.60569 25.3792 11.9311C25.4342 13.0854 25.4067 13.4152 25.2967 12.8381L25.1044 11.8762L23.1531 11.7113C21.2842 11.5739 19.7452 10.9692 19.7452 10.3646C19.7452 10.2272 19.4978 10.0348 19.168 9.95236C18.7558 9.81495 18.371 9.95236 17.8763 10.4471C16.9694 11.299 15.8975 11.7388 14.6333 11.7388C13.8638 11.7388 13.6989 11.8487 13.6989 12.3159C13.6989 12.8656 13.8088 12.893 15.6227 12.7831C17.1343 12.7007 17.6839 12.5632 18.1237 12.096L18.7008 11.5189L19.6902 12.1785C20.4322 12.7007 21.0094 12.8381 22.2461 12.8381H23.8676V14.6245C23.8676 16.0811 23.7852 16.4109 23.4279 16.4109C22.7133 16.4109 21.5041 17.2628 21.0094 18.0599C20.7071 18.6095 20.5697 19.434 20.5971 20.7532C20.6246 21.825 20.5422 22.8144 20.4597 22.9793C19.8001 24.0511 13.6714 24.0786 13.9188 23.0068C13.9737 22.8144 13.8638 21.9899 13.6989 21.1654C13.3416 19.489 11.995 17.9499 10.6483 17.6476L9.85128 17.4552V15.1741V12.8656L11.1705 12.7831C12.1049 12.7281 12.4622 12.5907 12.4622 12.2884C12.4622 11.9586 12.0774 11.8762 10.6758 11.8762H8.88938L8.697 12.8381C8.58707 13.4702 8.5321 13.1404 8.58707 11.8762C8.72448 8.66066 10.236 6.59943 13.2867 5.41766C14.9906 4.78555 18.2611 4.7031 20.1849 5.28025ZM8.697 16.0536C8.61455 17.1804 8.5321 17.3728 8.00992 17.4552C7.43278 17.5377 7.37781 17.4277 7.37781 16.4384C7.37781 15.6688 7.51523 15.2566 7.87251 15.0642C8.66952 14.597 8.77945 14.7069 8.697 16.0536ZM26.3411 16.0536C26.3411 16.9056 26.2861 16.9605 25.7914 16.6857C25.4342 16.4933 25.2418 16.1086 25.2418 15.6139C25.2418 14.9543 25.3242 14.8443 25.7914 14.9543C26.2037 15.0642 26.3411 15.339 26.3411 16.0536ZM25.4616 18.0599C25.9289 18.3622 26.3411 18.7469 26.3411 18.8843C26.3411 19.0492 26.2037 19.1042 26.0663 19.0218C25.9014 18.9118 25.4616 19.0492 25.1044 19.2691C24.6921 19.5439 24.1699 19.6539 23.7577 19.5439C23.2905 19.434 22.9332 19.5439 22.521 19.9562C21.8614 20.6158 21.5591 20.3135 21.9163 19.379C22.2736 18.4446 23.3454 17.5926 24.2799 17.5377C24.4448 17.5102 24.9669 17.7575 25.4616 18.0599ZM10.8407 19.2966C11.8026 19.9287 12.4072 20.9731 12.4347 22.1273L12.4622 23.1442L11.2254 23.2267L9.9887 23.2816L10.7582 22.8144C12.1873 21.88 11.2804 20.8906 9.79632 21.7701L8.94435 22.2648L9.43904 21.4128C10.3185 19.9287 9.32911 18.9943 8.42217 20.4509L7.95496 21.2204L7.92747 20.0936C7.92747 19.489 8.00992 18.8843 8.14734 18.7744C8.42217 18.4721 10.0711 18.7744 10.8407 19.2966ZM13.534 24.6558C14.7982 25.123 14.331 25.4803 12.3797 25.4803C11.3629 25.4803 10.1261 25.5902 9.60394 25.7551L8.66952 26.0024L9.30163 25.3428C9.6589 24.9581 10.3185 24.6558 10.9231 24.5733C11.4728 24.5184 12.1324 24.4634 12.3797 24.4359C12.6271 24.4084 13.1492 24.4909 13.534 24.6558ZM6.55332 24.8756C6.55332 24.9856 5.59142 25.9475 4.43713 26.9918C2.43087 28.7507 2.62325 28.4484 5.15169 25.6726C6.08611 24.6833 6.55332 24.4084 6.55332 24.8756ZM18.371 25.5902C18.371 25.8925 18.5634 26.3322 18.7833 26.5796C19.1405 26.9643 19.0581 27.2117 18.0687 28.7507L16.9419 30.5097L15.8426 28.8332C14.7982 27.2392 14.7707 27.1292 15.183 26.5246C15.4303 26.1948 15.6227 25.7276 15.6227 25.4803C15.6227 25.178 15.9525 25.068 16.9969 25.068C18.1786 25.068 18.371 25.1505 18.371 25.5902ZM12.8469 29.8775L14.7707 32.9007H10.6483H6.49836L6.60829 31.3067C6.7457 29.3554 7.54271 28.0912 9.13673 27.3766C9.76884 27.1018 10.4009 26.8544 10.5658 26.8544C10.7582 26.8544 11.7751 28.2011 12.8469 29.8775ZM14.7982 29.7401C15.7876 31.2517 16.6946 32.351 16.9694 32.351C17.2167 32.351 18.1512 31.2242 19.1955 29.6027C20.1574 28.0912 21.0644 26.8544 21.2018 26.8544C21.3117 26.8544 21.1743 27.2117 20.872 27.6514C19.7177 29.2454 20.4872 30.2623 21.6965 28.7782L22.466 27.8713L24.2799 29.5478C25.2693 30.4822 26.3961 31.3341 26.7533 31.4166C27.248 31.5265 27.4404 31.7739 27.4404 32.2411V32.9007H23.2905H19.1405L19.7452 31.8838C20.2948 30.9494 20.2948 30.8669 19.8826 30.4547C19.4429 30.0424 19.3604 30.0699 18.8382 30.812C17.519 32.5984 17.1343 32.9282 16.6671 32.7633C16.4197 32.6533 15.4853 31.4716 14.6058 30.0699C12.4897 26.772 12.4897 26.7445 12.792 26.9369C12.9294 27.0468 13.8363 28.2835 14.7982 29.7401Z" fill="#EE3764"/>
<path id="Vector_2" d="M10.7582 14.8986C10.4834 15.6681 11.4728 16.4102 12.792 16.4102C14.2761 16.4102 15.0731 16.0254 15.0731 15.3108C15.0731 14.5413 14.6334 14.4039 13.8363 14.9261C13.1493 15.3658 13.0393 15.3658 12.1599 14.9536C11.0056 14.3764 10.9781 14.3764 10.7582 14.8986Z" fill="#EE3764"/>
<path id="Vector_3" d="M19.0031 14.6788C18.4535 14.8712 18.5909 15.5033 19.2505 15.9706C20.1299 16.5752 21.9988 16.5202 22.7958 15.8881C23.4004 15.3934 23.4279 15.311 23.0156 14.8987C22.5759 14.459 22.5209 14.459 21.8339 14.8987C21.2018 15.3384 21.0094 15.3384 20.3498 15.0086C19.3329 14.514 19.3879 14.514 19.0031 14.6788Z" fill="#EE3764"/>
<path id="Vector_4" d="M15.8151 16.0265C15.4853 16.3563 15.5952 18.1977 15.9525 18.555C16.1449 18.7474 16.6945 18.8848 17.1892 18.8848C17.9313 18.8848 18.0962 18.7748 18.0962 18.3076C18.0962 17.9778 17.8763 17.6755 17.574 17.5931C17.2442 17.5106 16.9968 17.1808 16.9419 16.7411C16.8594 16.0265 16.2273 15.6418 15.8151 16.0265Z" fill="#EE3764"/>
<path id="Vector_5" d="M14.0287 20.2848C14.1661 21.1918 15.7876 21.9613 17.2442 21.8239C18.3985 21.6865 19.7452 20.9444 19.965 20.3123C20.1574 19.7352 19.168 19.5978 18.371 20.0924C17.4366 20.6421 16.5297 20.6421 15.6227 20.1199C14.5784 19.5153 13.9188 19.5978 14.0287 20.2848Z" fill="#EE3764"/>
<path id="Vector_6" d="M6.33347 1.68084C6.16858 2.03812 5.78381 2.42288 5.4815 2.53281C5.15171 2.61526 4.90436 2.89009 4.90436 3.13744C4.90436 3.54968 6.85565 5.69336 7.24041 5.69336C7.4328 5.69336 9.57647 3.46723 9.57647 3.27485C9.57647 2.97254 7.32286 1.02125 7.02055 1.02125C6.80069 1.02125 6.49837 1.32356 6.33347 1.68084Z" fill="#EE3764"/>
<path id="Vector_7" d="M2.78814 9.67763C1.46896 11.0243 1.33154 11.6289 2.23848 12.0412C2.56828 12.1786 3.06297 12.6733 3.31032 13.1405C3.55766 13.5802 3.96991 13.9375 4.21726 13.9375C4.4646 13.9375 4.87685 13.5802 5.1242 13.1405C5.37154 12.6733 5.86624 12.1786 6.19603 12.0412C6.55331 11.8763 6.82814 11.5465 6.82814 11.2991C6.82814 10.8594 4.57454 8.4409 4.16229 8.46838C4.05236 8.46838 3.42025 9.01804 2.78814 9.67763ZM4.57454 11.464C4.27222 11.9312 4.21726 11.9312 3.91494 11.519C3.47522 10.9144 3.96991 10.1998 4.51957 10.667C4.7944 10.8869 4.7944 11.0793 4.57454 11.464Z" fill="#EE3764"/>
<path id="Vector_8" d="M29.1718 9.67683C27.8252 11.051 27.7152 11.6281 28.6771 12.0679C29.0344 12.2328 29.4192 12.59 29.5016 12.8923C29.8039 13.7718 30.6559 14.0191 31.288 13.387C31.5903 13.0847 31.8377 12.7274 31.8377 12.6175C31.8377 12.4801 32.14 12.2328 32.5248 12.0679C32.9095 11.903 33.2118 11.5457 33.2118 11.2983C33.2118 10.8586 30.9582 8.44009 30.546 8.46758C30.4361 8.46758 29.8039 9.01724 29.1718 9.67683ZM30.9857 11.3533C30.7384 11.6556 30.5735 11.6831 30.2986 11.4357C29.9963 11.1884 29.9688 11.0235 30.2162 10.7487C30.4635 10.4464 30.6284 10.4189 30.9033 10.6662C31.2056 10.9136 31.2331 11.0785 30.9857 11.3533Z" fill="#EE3764"/>
</g>
</svg>
