<svg width="29" height="33" viewBox="0 0 29 33" fill="none" xmlns="http://www.w3.org/2000/svg">
<g id="Black">
<path id="Vector" d="M13.7205 10.2061C13.6968 10.1655 13.5411 9.91162 13.3685 9.64084C13.2717 9.48899 13.1451 9.28817 13.0245 9.09689C12.93 8.94708 12.8392 8.80312 12.7694 8.69311C12.6103 8.44263 12.2007 7.79276 11.8623 7.25459C10.9401 5.79421 10.685 5.38719 10.0982 4.45079C10.0281 4.33893 9.9533 4.21951 9.87203 4.08985L14.367 10.1959V13.8955V17.595M13.7205 10.2061C13.7476 10.2602 13.7577 11.2554 13.7577 13.9158V17.551M13.7205 10.2061L13.5863 10.2732C13.5806 10.2617 13.5777 10.2515 13.5766 10.2466M13.7205 10.2061L13.5909 10.2817C13.5884 10.2773 13.5841 10.2702 13.5783 10.2605M13.7577 17.551L13.5817 17.5781M13.7577 17.551L13.7349 17.4027L13.6077 17.4223M13.7577 17.551H13.6077V17.4223M13.5817 17.5781C13.4836 17.5916 12.634 17.6119 11.693 17.6255C9.91265 17.6525 9.82464 17.6593 9.78064 17.7981M13.5817 17.5781L13.5612 17.4295C13.5609 17.4295 13.5607 17.4296 13.5604 17.4296M13.5817 17.5781L13.5589 17.4298L13.5604 17.4296M9.78064 17.7981C9.75695 17.8725 9.80772 18.0079 9.88218 18.0689M9.78064 17.7981L9.63766 17.7527C9.64494 17.7298 9.65721 17.6957 9.68223 17.6622C9.70869 17.6268 9.74264 17.6007 9.78199 17.5815C9.85161 17.5476 9.94757 17.5317 10.0723 17.5205C10.3295 17.4974 10.8042 17.489 11.6907 17.4755L11.6909 17.4755C12.161 17.4687 12.6081 17.4603 12.9497 17.4518C13.1206 17.4476 13.2647 17.4434 13.3719 17.4394C13.4818 17.4353 13.5438 17.4317 13.5604 17.4296M9.78064 17.7981L14.517 10.2393M9.88218 18.0689C9.97696 18.1467 12.81 18.1873 15.7243 18.1501M9.88218 18.0689L9.78697 18.1848C9.78705 18.1848 9.78712 18.1849 9.7872 18.185M9.88218 18.0689L9.7872 18.185M15.7243 18.1501C17.6942 18.1264 18.1579 18.1095 18.2019 18.0722M15.7243 18.1501L15.7261 18.3001C15.7261 18.3001 15.7261 18.3001 15.7261 18.3001M15.7243 18.1501L15.7262 18.3001C16.7108 18.2882 17.3207 18.2781 17.6901 18.2662C17.8744 18.2602 18.0016 18.2538 18.0866 18.2462C18.1287 18.2424 18.1641 18.2381 18.1925 18.2325C18.2066 18.2297 18.2222 18.226 18.2374 18.2208C18.2504 18.2163 18.2752 18.2067 18.2988 18.1868L18.2019 18.0722M18.2019 18.0722C18.2831 18.0045 18.2764 17.7913 18.1917 17.7135C18.1274 17.6559 18.0259 17.6491 17.1492 17.6255C16.6144 17.6119 15.7716 17.5984 15.2741 17.5984M18.2019 18.0722L18.2979 18.1875C18.3479 18.1458 18.3751 18.0904 18.3898 18.0427C18.4049 17.9937 18.4104 17.9415 18.4089 17.8922C18.4063 17.8019 18.3781 17.6811 18.2933 17.6031L18.2918 17.6017L18.2918 17.6017C18.2187 17.5363 18.1301 17.5191 17.9875 17.5073C17.8393 17.495 17.5895 17.4873 17.1533 17.4755L17.153 17.4755C16.6176 17.4619 15.7737 17.4484 15.2744 17.4484L15.2746 17.4484L15.2741 17.5984M15.2741 17.5984L14.367 17.595M15.2741 17.5984V17.4484L14.517 17.4456M14.367 17.595H14.517V17.4456M14.367 17.595L14.3675 17.445L14.517 17.4456M14.517 10.2393L14.7714 9.83594L14.772 9.83494C14.9205 9.5954 15.2281 9.10865 15.4515 8.75656L15.4519 8.75601C15.4917 8.69256 15.5338 8.62569 15.5766 8.55744C15.7742 8.24303 15.9903 7.89913 16.1014 7.72423L16.1023 7.72279L16.1023 7.72279C16.2339 7.51023 16.5314 7.03691 16.7614 6.67502L16.7616 6.67466C18.6269 3.72116 20.0477 1.42075 20.2584 1.00279L20.2586 1.00235C20.3162 0.887199 20.3627 0.781427 20.3662 0.68277C20.3703 0.562309 20.3123 0.479437 20.2442 0.413027C20.222 0.390039 20.1973 0.364904 20.1723 0.345263C20.1447 0.32366 20.1055 0.299334 20.0532 0.292704C20.0021 0.286232 19.9586 0.299252 19.9278 0.311527C19.8981 0.323332 19.8662 0.340471 19.8365 0.356522C19.7799 0.387108 19.7224 0.443876 19.668 0.505213C19.6098 0.570837 19.5417 0.657579 19.4642 0.763994C19.3089 0.977049 19.1097 1.27731 18.8671 1.66417C18.7572 1.83825 18.6525 2.00292 18.5724 2.12775C18.5323 2.1902 18.4985 2.24244 18.4734 2.28081C18.4662 2.29178 18.4598 2.30152 18.4542 2.30996C18.4401 2.3118 18.4206 2.31386 18.3938 2.31594C18.2939 2.32369 18.1191 2.33 17.8133 2.3355C17.2035 2.34648 16.0877 2.35409 14.0446 2.36594L9.66123 2.38919L9.52289 2.16375C9.52284 2.16367 9.5228 2.1636 9.52275 2.16352C9.29498 1.78958 9.02669 1.36848 8.80714 1.03511C8.69739 0.868469 8.5993 0.722961 8.52424 0.615883C8.48682 0.562502 8.45434 0.517536 8.42859 0.483896C8.41581 0.467196 8.40366 0.451929 8.39275 0.439304L8.39256 0.439085C8.38531 0.430689 8.36765 0.410233 8.34559 0.395144L8.26089 0.51894L8.34833 0.397058C8.21565 0.301876 8.04963 0.312635 7.92865 0.366077C7.80895 0.418955 7.68441 0.53706 7.68441 0.708487C7.68441 0.750847 7.69819 0.791204 7.71066 0.822355C7.72464 0.857252 7.74527 0.9 7.77311 0.952736C7.82902 1.05861 7.92092 1.21763 8.06595 1.45856C8.35654 1.94132 8.86666 2.76327 9.7448 4.16931L9.74493 4.16951C9.82619 4.29917 9.90102 4.41858 9.97112 4.53043C10.5579 5.46687 10.8131 5.87405 11.7353 7.33445C12.0737 7.87257 12.4835 8.52273 12.6428 8.77353C12.7119 8.88232 12.8025 9.02606 12.897 9.17593C13.018 9.3679 13.1454 9.56993 13.242 9.72147C13.3947 9.96101 13.5332 10.1858 13.5783 10.2605M14.517 10.2393V13.8955V17.4456M14.517 10.2393L15.7261 18.3001M13.5783 10.2605C13.5778 10.2555 13.5773 10.2516 13.5769 10.2487C13.5768 10.2479 13.5767 10.2472 13.5766 10.2466M13.5783 10.2605C13.5789 10.2664 13.5796 10.274 13.5803 10.2833C13.5829 10.3177 13.5855 10.3689 13.5878 10.4395C13.5925 10.5801 13.5963 10.7913 13.5993 11.0851C13.6052 11.6724 13.6077 12.5856 13.6077 13.9158V17.4223M13.5766 10.2466C13.5761 10.2447 13.5759 10.2436 13.576 10.2434C13.576 10.2433 13.5762 10.2443 13.5766 10.2466ZM13.6077 17.4223L13.5604 17.4296M9.7872 18.185C9.81562 18.2082 9.84737 18.2173 9.85717 18.2201L9.85768 18.2202C9.87334 18.2247 9.89014 18.2281 9.90609 18.2309C9.9384 18.2364 9.97958 18.2412 10.0271 18.2456C10.123 18.2544 10.2556 18.2624 10.4186 18.2695C10.7452 18.2838 11.201 18.295 11.7438 18.3026C12.8297 18.3179 14.2679 18.3187 15.7261 18.3001M9.7872 18.185L15.7261 18.3001M18.4848 2.30427C18.4847 2.30423 18.4833 2.30458 18.4809 2.30546C18.4838 2.30476 18.485 2.30432 18.4848 2.30427ZM10.2841 3.32518C10.3209 3.38644 10.3676 3.46348 10.4223 3.55307C10.5624 3.78267 10.7542 4.09351 10.9637 4.42983C11.3871 5.10039 11.8441 5.83503 11.9829 6.05847C12.1215 6.28151 12.351 6.64601 12.4957 6.86807L12.4965 6.86943C12.6386 7.09262 12.9566 7.59001 13.2037 7.97588L13.2039 7.97611C13.4775 8.40509 13.7105 8.7567 13.8817 9.00034C13.9561 9.10618 14.0177 9.19007 14.0653 9.25056C14.0917 9.21304 14.1246 9.16493 14.1652 9.10407C14.3062 8.89253 14.5329 8.53863 14.8935 7.96969L14.8936 7.96962C15.9651 6.28156 17.6333 3.62317 17.8059 3.33124C17.7986 3.33092 17.7909 3.33061 17.783 3.33029C17.6522 3.32509 17.4502 3.32088 17.1602 3.31749C16.5806 3.31074 15.6548 3.30735 14.2551 3.30566H14.255C12.221 3.30227 10.4567 3.31251 10.3173 3.32211C10.3055 3.32316 10.2945 3.32418 10.2841 3.32518ZM17.9471 3.34141C17.9475 3.3415 17.9476 3.3415 17.9472 3.34143L17.9471 3.34141Z" fill="#EE3764" stroke="#EE3764" stroke-width="0.3"/>
<path id="Vector_2" d="M1.15308 19.3939L1.15308 19.3939C1.01408 19.4329 0.91878 19.5413 0.876464 19.6583C0.834141 19.7753 0.837989 19.9201 0.922538 20.0385L0.926097 20.0435L0.926195 20.0434C0.94341 20.0655 0.968423 20.0903 1.0093 20.1086C1.04199 20.1232 1.07864 20.1307 1.11601 20.136C1.19159 20.1466 1.31704 20.1536 1.53271 20.1592C1.96821 20.1707 2.80282 20.1775 4.42148 20.1893L4.42174 20.1893C6.24991 20.1995 12.0618 20.213 17.3353 20.213C17.3354 20.213 17.3354 20.213 17.3354 20.213L26.9209 20.2164L26.9997 20.2164L27.0445 20.1516L27.1112 20.0548C27.1114 20.0545 27.1115 20.0543 27.1117 20.0541C27.2192 19.9013 27.2483 19.6783 27.1344 19.5189L27.1334 19.5174C27.0869 19.454 27.0233 19.4235 26.9542 19.4055C26.8902 19.3888 26.8047 19.3787 26.6943 19.3687L26.6932 19.3686C26.6352 19.3637 26.249 19.3597 25.6306 19.3559C25.0062 19.3521 24.1341 19.3485 23.0927 19.3453C21.0099 19.3388 18.2495 19.3336 15.4384 19.3304C9.81741 19.3241 3.99062 19.3258 2.97511 19.341L1.15308 19.3939ZM1.15308 19.3939L1.15488 19.3935M1.15308 19.3939L1.15488 19.3935M1.15488 19.3935C1.17124 19.3891 1.18879 19.3873 1.19644 19.3865M1.15488 19.3935L1.19644 19.3865M1.19644 19.3865L1.19666 19.3865M1.19644 19.3865L1.19666 19.3865M1.19666 19.3865C1.20803 19.3854 1.22165 19.3843 1.23675 19.3833M1.19666 19.3865L1.23675 19.3833M1.23675 19.3833C1.26713 19.3813 1.30765 19.3793 1.35655 19.3773M1.23675 19.3833L1.35655 19.3773M1.35655 19.3773C1.45456 19.3732 1.58956 19.369 1.75147 19.3647M1.35655 19.3773L1.75147 19.3647M1.75147 19.3647C2.07545 19.3563 2.50928 19.3478 2.97504 19.341L1.75147 19.3647Z" fill="#EE3764" stroke="#EE3764" stroke-width="0.3"/>
<path id="Vector_3" d="M11.6679 22.0877L11.6676 22.0878C11.4793 22.1246 11.2401 22.2552 11.062 22.4043C10.8571 22.5757 10.7307 22.8812 10.7307 23.1624C10.7307 23.3491 10.7602 23.5199 10.8358 23.6748C10.9117 23.8305 11.0292 23.96 11.1896 24.071C11.5027 24.2878 11.9934 24.443 12.7038 24.5952C12.9345 24.6454 13.131 24.6888 13.296 24.7261C13.2344 24.7326 13.1708 24.7393 13.1058 24.7462C12.4396 24.8135 12.0657 24.8368 11.473 24.8368C11.3897 24.8368 11.3169 24.8372 11.252 24.8376C10.9588 24.8392 10.8296 24.84 10.6405 24.7977C10.4411 24.7531 10.1834 24.6622 9.6427 24.4715C9.53166 24.4324 9.40869 24.389 9.27184 24.341L11.6679 22.0877ZM11.6679 22.0877C11.7876 22.0646 11.9054 22.0545 12.2483 22.0541C12.5916 22.0537 13.1704 22.063 14.2173 22.0816L14.2174 22.0816M11.6679 22.0877L14.2174 22.0816M3.36639 22.8256L3.36553 22.826C3.17822 22.9225 3.03451 23.047 2.9403 23.2177C2.84724 23.3864 2.81036 23.5859 2.81036 23.8191C2.81036 23.9953 2.82842 24.1594 2.90728 24.3257C2.98537 24.4903 3.11644 24.6433 3.31795 24.8123C3.71583 25.146 4.4319 25.5764 5.69453 26.3047C5.85123 26.3957 6.1006 26.5397 6.34976 26.6836C6.49916 26.7699 6.64849 26.8561 6.77771 26.9309L6.85282 26.801M3.36639 22.8256L18.0747 29.1173C17.1058 29.1274 15.1625 29.1342 13.7577 29.1342C12.584 29.1342 11.9372 29.1334 11.5511 29.1253C11.1642 29.1172 11.029 29.1017 10.8826 29.0698L10.8824 29.0698C10.2202 28.9246 10.1156 28.8662 6.77758 26.9308L6.85282 26.801M3.36639 22.8256C3.91175 22.549 4.46963 22.6378 5.72912 23.0924C6.06719 23.2141 6.77082 23.4644 7.2917 23.6471C7.49533 23.7185 7.7554 23.8095 8.03064 23.9059M3.36639 22.8256L8.03064 23.9059M6.85282 26.801C6.72331 26.7261 6.5738 26.6398 6.42429 26.5534C6.17524 26.4096 5.92621 26.2658 5.7697 26.1748L6.85282 26.801ZM24.94 31.7389L24.9407 31.739C25.6747 31.8405 26.6152 31.9758 27.0313 32.0367L27.7858 32.1484L27.8671 32.1604L27.921 32.0984L27.9856 32.0241C28.0418 31.9664 28.0708 31.9022 28.0892 31.8066C28.1061 31.7187 28.1167 31.5893 28.1301 31.3907M24.94 31.7389L28.1009 23.8083C28.1011 23.8089 28.1013 23.8095 28.1014 23.8101C28.1073 23.8315 28.1091 23.8576 28.11 23.8698L28.1101 23.8714C28.1115 23.8908 28.1128 23.9159 28.114 23.9455C28.1164 24.0051 28.1187 24.0874 28.1209 24.1888C28.1253 24.3917 28.1293 24.6738 28.1328 25.0095C28.1398 25.6809 28.145 26.5681 28.1478 27.4674C28.1532 29.2601 28.1492 31.1149 28.1301 31.3907M24.94 31.7389C23.6583 31.5561 22.6669 31.4009 21.9773 31.2751C21.6328 31.2123 21.3615 31.1564 21.1661 31.1077C21.0686 31.0834 20.9874 31.0602 20.9243 31.038C20.8695 31.0187 20.8056 30.9928 20.7628 30.9546M24.94 31.7389L20.7628 30.9546M28.1301 31.3907L27.9804 31.3806L28.13 31.391C28.1301 31.3909 28.1301 31.3908 28.1301 31.3907ZM14.2174 22.0816C16.6322 22.1255 17.9261 22.1729 18.3908 22.2352L14.2174 22.0816ZM15.7177 22.9942L15.7181 22.9942C17.3523 23.0247 17.9707 23.0587 18.3848 23.1244C18.8307 23.196 19.3988 23.3763 20.676 23.8675C20.6761 23.8676 20.6763 23.8676 20.6764 23.8677L20.7303 23.7277L15.7177 22.9942ZM15.7177 22.9942C14.5247 22.9688 13.6112 22.9519 12.9793 22.9435C12.6633 22.9392 12.4181 22.9371 12.2438 22.9371C12.0635 22.9371 11.9707 22.9396 11.9485 22.9423L11.9472 22.9425C11.846 22.9542 11.7728 22.9654 11.7185 22.9786C11.6635 22.992 11.6398 23.0047 11.6298 23.0122C11.6296 23.0124 11.6293 23.0125 11.629 23.0127C11.6235 23.0165 11.6061 23.0284 11.6061 23.1489C11.6061 23.228 11.6109 23.2458 11.6151 23.2557C11.6199 23.2669 11.6313 23.2846 11.6908 23.3441C11.8221 23.4754 12.0157 23.5546 12.7892 23.7127M15.7177 22.9942L16.2795 24.5655M16.2795 24.5655L16.2786 24.5651C16.204 24.5324 16.0163 24.4777 15.7758 24.4131C15.5291 24.3468 15.2121 24.2665 14.8671 24.1823C14.1773 24.0141 13.3724 23.83 12.7892 23.7127M16.2795 24.5655C16.4127 24.6249 16.523 24.7205 16.5647 24.8499C16.6093 24.9882 16.5628 25.1254 16.4599 25.2283C16.363 25.3251 16.233 25.3641 15.9675 25.3995C15.6954 25.4358 15.239 25.4716 14.4456 25.529C13.6739 25.5866 12.7783 25.6542 12.4573 25.6812C11.6871 25.749 10.926 25.7475 10.5489 25.6759L16.2795 24.5655ZM12.7892 23.7127C12.789 23.7127 12.7889 23.7127 12.7888 23.7126L12.7592 23.8597L12.7892 23.7127C12.7892 23.7127 12.7892 23.7127 12.7892 23.7127ZM8.03064 23.9059C8.45962 24.0562 8.92544 24.2193 9.27183 24.3409L8.03064 23.9059ZM20.7628 30.9546C20.7281 30.9242 20.6971 30.8857 20.6766 30.8329C20.6573 30.7831 20.651 30.7296 20.6505 30.6741C20.6495 30.5673 20.6707 30.4129 20.7073 30.183L20.7628 30.9546ZM18.3711 22.3839C17.9176 22.323 16.6347 22.2756 14.2146 22.2316C12.1195 22.1944 11.9062 22.1944 11.6964 22.235L18.3711 22.3839ZM19.7951 29.1007L18.0748 29.1173L20.7074 30.1825L20.7528 29.8911L20.4537 29.6034L20.4535 29.6032C20.3584 29.5114 20.2514 29.4168 20.1563 29.3389C20.0579 29.2582 19.9818 29.2036 19.9455 29.1842L19.9455 29.1843L19.9433 29.183L19.7951 29.1007ZM25.1726 23.1885C26.326 23.345 27.513 23.5168 27.8043 23.5774L22.6758 22.8838C22.6759 22.8838 22.6759 22.8838 22.676 22.8838C22.7811 22.8858 23.1221 22.9239 23.5685 22.979C24.0208 23.0349 24.5939 23.11 25.1726 23.1885ZM21.8199 24.4554C21.8314 24.3842 21.8398 24.3275 21.8451 24.2851L5.31276 23.7209L5.26045 23.8615C5.2603 23.8614 5.26015 23.8614 5.26 23.8613C4.68402 23.647 4.33159 23.5663 3.99271 23.5663C3.90472 23.5663 3.84196 23.5676 3.79479 23.572C3.74678 23.5764 3.72718 23.5831 3.71985 23.5867C3.71959 23.5868 3.71935 23.5869 3.71913 23.587C3.71766 23.5876 3.71676 23.588 3.71332 23.594C3.70625 23.6063 3.69716 23.6293 3.68408 23.6783L3.6841 23.6783L3.68357 23.6802C3.6473 23.8094 3.70513 24.0028 3.83518 24.1199C3.9235 24.1976 4.13875 24.3429 4.57507 24.6087C5.00764 24.8722 5.64696 25.248 6.57263 25.7844L6.573 25.7847C6.62131 25.8128 6.67634 25.845 6.73563 25.8796C6.97594 26.0199 7.28623 26.2011 7.503 26.3257L7.50361 26.3261C8.68001 27.0099 9.4436 27.4453 9.96849 27.7256C10.4949 28.0067 10.7725 28.1271 10.9797 28.1868L10.9806 28.1871L11.2234 28.2586L13.9429 28.2419C13.9429 28.2419 13.9429 28.2419 13.9429 28.2419C15.4528 28.2317 17.423 28.2249 18.3271 28.2249H19.9687H20.0028L20.0336 28.2397L20.2871 28.3614C20.443 28.4356 20.6764 28.5919 20.8209 28.7083L20.821 28.7082L20.824 28.7108C20.8698 28.7497 20.9146 28.7857 20.9543 28.8159C20.9663 28.7592 20.9946 28.6211 21.0308 28.4448C21.0635 28.2853 21.1026 28.0946 21.1419 27.9046L21.1419 27.9045C21.3788 26.7624 21.5639 25.841 21.6859 25.1991C21.747 24.878 21.7921 24.6278 21.8199 24.4554ZM23.2367 23.8219L23.2367 23.8219L23.234 23.8215C23.0447 23.7899 22.9474 23.776 22.894 23.7739C22.8892 23.7928 22.8829 23.8186 22.8754 23.8508C22.8595 23.9185 22.8386 24.0119 22.8138 24.125C22.7644 24.351 22.7002 24.6534 22.6321 24.9802C22.496 25.6339 22.3448 26.3829 22.2656 26.8111C22.2079 27.1269 22.0689 27.8454 21.9607 28.4035L21.9606 28.404C21.8167 29.1334 21.7222 29.6271 21.6662 29.9444C21.6382 30.1034 21.6202 30.2162 21.6104 30.2915C21.6095 30.2982 21.6088 30.3045 21.608 30.3104C21.653 30.3235 21.7116 30.3379 21.7762 30.3518C21.9176 30.382 22.0665 30.4049 22.1461 30.4078C22.1478 30.4033 22.1497 30.3981 22.1517 30.3922C22.1871 30.2891 22.2321 30.0757 22.3266 29.6205L22.3266 29.6201C22.4113 29.2171 22.5637 28.5025 22.6654 28.0382C22.7668 27.5715 22.9494 26.7127 23.0677 26.1282L23.0678 26.1274C23.1896 25.542 23.3419 24.8009 23.4062 24.4863L23.4064 24.4853C23.4749 24.1615 23.5082 23.9951 23.5178 23.9027C23.5187 23.8933 23.5194 23.8855 23.5198 23.8789C23.5059 23.875 23.4891 23.8706 23.4696 23.866C23.4071 23.851 23.3243 23.8349 23.2367 23.8219ZM23.0891 30.5467C23.0889 30.5477 23.0888 30.5488 23.0886 30.5498C23.1089 30.5538 23.1317 30.5581 23.1568 30.5628C23.2792 30.5855 23.4518 30.6149 23.6587 30.6484C24.0723 30.7156 24.6191 30.799 25.1666 30.8793C25.7141 30.9596 26.2614 31.0367 26.6758 31.0912C26.8831 31.1184 27.0563 31.1399 27.1793 31.1532C27.1968 31.1552 27.2132 31.1569 27.2285 31.1584C27.2294 31.1214 27.2302 31.0778 27.2311 31.0278C27.2343 30.847 27.2372 30.5861 27.2398 30.2646C27.2449 29.6215 27.2482 28.7368 27.2482 27.7657V24.3571C27.0809 24.33 26.5233 24.2597 25.4004 24.1237C25.1315 24.0916 24.878 24.062 24.6868 24.0405C24.5911 24.0297 24.5114 24.021 24.4532 24.015C24.4354 24.0131 24.4197 24.0116 24.4064 24.0103C24.3864 24.0873 24.3592 24.2299 24.3079 24.5L24.2962 24.5613L24.296 24.5624C24.2351 24.8704 24.1063 25.5112 24.001 25.9867C23.8218 26.82 23.5826 27.9901 23.3914 28.9549C23.2959 29.4375 23.2124 29.8681 23.1546 30.1794C23.1257 30.3352 23.1033 30.4603 23.0891 30.5467ZM24.4229 23.9584C24.4229 23.9584 24.4227 23.9588 24.4222 23.9598L24.4229 23.9584ZM22.0625 23.3148C22.066 23.3014 22.07 23.2864 22.0747 23.2691L20.9701 23.0223C21.025 23.0434 21.0774 23.0635 21.1274 23.0826C21.3678 23.1748 21.5518 23.2454 21.6948 23.2967C21.8714 23.3601 21.9701 23.3881 22.0276 23.3946C22.032 23.395 22.0357 23.3954 22.0389 23.3956C22.041 23.3899 22.0434 23.3829 22.0461 23.3741C22.0516 23.3561 22.0564 23.3377 22.0625 23.3148Z" fill="#EE3764" stroke="#EE3764" stroke-width="0.3"/>
<path id="Vector_4" d="M23.7145 29.7816L23.7145 29.7816L23.7151 29.7792C23.7275 29.7261 23.7568 29.676 23.7843 29.6365C23.8138 29.594 23.8506 29.5508 23.8902 29.51C23.9679 29.4299 24.0675 29.3484 24.1636 29.2981C24.2348 29.2606 24.3087 29.2305 24.3907 29.2276C24.4752 29.2247 24.5485 29.2512 24.6178 29.2878C24.7365 29.3494 24.8401 29.4461 24.9146 29.5518C24.9879 29.6557 25.0435 29.7838 25.0435 29.9115C25.0435 29.9748 25.0218 30.0368 24.9984 30.0869C24.9736 30.1398 24.9402 30.1935 24.903 30.2435C24.8305 30.341 24.7311 30.4412 24.6288 30.499L24.6289 30.4991L24.6256 30.5008C24.5719 30.5295 24.5148 30.5564 24.4459 30.5627C24.3795 30.5687 24.3169 30.554 24.2553 30.5369C24.1556 30.5107 24.029 30.4431 23.9595 30.3867L23.9595 30.3867L23.9578 30.3852C23.8718 30.3133 23.8045 30.2081 23.7622 30.1076C23.7216 30.011 23.6914 29.8885 23.7145 29.7816ZM24.4129 29.8878C24.4261 29.901 24.4359 29.9132 24.4423 29.924C24.4379 29.9409 24.4291 29.9585 24.414 29.9736C24.4125 29.975 24.409 29.9783 24.4034 29.9821C24.399 29.9824 24.3942 29.9826 24.3892 29.9826C24.3698 29.9826 24.3514 29.9755 24.336 29.9646C24.3219 29.9546 24.3105 29.9413 24.3035 29.9273C24.3037 29.9259 24.304 29.9245 24.3044 29.923C24.3081 29.9067 24.3145 29.893 24.322 29.8816C24.3315 29.8674 24.3428 29.8568 24.3533 29.8494C24.3644 29.8511 24.3762 29.8569 24.3892 29.8668C24.3966 29.8724 24.4045 29.8794 24.4129 29.8878Z" fill="#EE3764" stroke="#EE3764" stroke-width="0.3"/>
<path id="Vector_5" d="M26.2379 30.7664L26.2379 30.7664C26.3525 30.7337 26.4605 30.6588 26.5426 30.5747C26.6238 30.4915 26.6968 30.3817 26.7196 30.2651L26.7198 30.2637L26.7198 30.2637C26.7679 30.0053 26.6406 29.7727 26.4605 29.6368C26.2803 29.5009 26.0219 29.4429 25.7886 29.5653M26.2379 30.7664L25.8582 29.6982M26.2379 30.7664L26.2361 30.7669C25.9883 30.8345 25.7634 30.755 25.5687 30.5685M26.2379 30.7664L25.672 30.4597M25.7886 29.5653C25.7885 29.5653 25.7885 29.5653 25.7885 29.5653L25.8582 29.6982M25.7886 29.5653C25.7886 29.5653 25.7886 29.5653 25.7886 29.5652L25.8582 29.6982M25.7886 29.5653C25.6633 29.6308 25.5604 29.7129 25.4896 29.8205C25.4179 29.9295 25.3866 30.0533 25.3866 30.189C25.3866 30.2567 25.3917 30.3258 25.427 30.3965C25.4595 30.4615 25.5114 30.5146 25.5687 30.5685M25.8582 29.6982C25.6382 29.8132 25.5366 29.9656 25.5366 30.189C25.5366 30.3108 25.5569 30.3514 25.672 30.4597M25.5687 30.5685C25.5685 30.5683 25.5684 30.5682 25.5682 30.568L25.672 30.4597M25.5687 30.5685C25.5689 30.5686 25.569 30.5688 25.5692 30.569L25.672 30.4597" fill="#EE3764" stroke="#EE3764" stroke-width="0.3"/>
</g>
</svg>
