<svg width="93" height="94" viewBox="0 0 93 94" fill="none" xmlns="http://www.w3.org/2000/svg">
<g id="Black">
<path id="Vector" d="M10.6097 1.10795C9.88319 1.68917 9.08401 3.21487 8.7934 4.52261C8.35748 6.62953 7.92157 6.9928 5.45139 7.35606C-0.288152 8.30054 0.00245726 6.12096 0.00245726 50.2936V89.4533L1.81877 91.1969L3.56243 93.0132H46.5H89.4376L91.1812 91.1969L92.9975 89.4533V50.2936C92.9975 6.12096 93.2882 8.30054 87.5486 7.35606C85.0784 6.9928 84.6425 6.62953 84.2066 4.52261C82.9715 -1.50754 75.4157 -1.50754 74.1806 4.52261L73.672 6.92014H68.2957H62.9194L62.4109 4.52261C61.8297 1.76182 59.9407 0.0908127 57.3979 0.0908127C54.855 0.0908127 52.9661 1.76182 52.3848 4.52261L51.8763 6.92014H46.5H41.1237L40.6152 4.52261C39.3801 -1.50754 31.8242 -1.50754 30.5891 4.52261L30.0806 6.92014H24.7043H19.328L18.8194 4.52261C18.0203 0.454079 13.8064 -1.28958 10.6097 1.10795ZM15.2595 5.10383C15.9133 6.26627 15.8407 6.70219 14.8962 6.9928C14.315 7.21075 13.2978 7.21075 12.7166 6.9928C11.7721 6.70219 11.6995 6.26627 12.3534 5.10383C12.7893 4.30466 13.4432 3.65079 13.8064 3.65079C14.1697 3.65079 14.8236 4.30466 15.2595 5.10383ZM37.0552 5.10383C37.7091 6.26627 37.6364 6.70219 36.6919 6.9928C36.1107 7.21075 35.0936 7.21075 34.5124 6.9928C33.5679 6.70219 33.4952 6.26627 34.1491 5.10383C34.585 4.30466 35.2389 3.65079 35.6021 3.65079C35.9654 3.65079 36.6193 4.30466 37.0552 5.10383ZM58.8509 5.10383C59.5048 6.26627 59.4321 6.70219 58.4877 6.9928C57.9064 7.21075 56.8893 7.21075 56.3081 6.9928C55.3636 6.70219 55.2909 6.26627 55.9448 5.10383C56.3807 4.30466 57.0346 3.65079 57.3979 3.65079C57.7611 3.65079 58.415 4.30466 58.8509 5.10383ZM80.6466 5.10383C81.3005 6.26627 81.2279 6.70219 80.2834 6.9928C79.7022 7.21075 78.685 7.21075 78.1038 6.9928C77.1593 6.70219 77.0867 6.26627 77.7405 5.10383C78.1765 4.30466 78.8303 3.65079 79.1936 3.65079C79.5569 3.65079 80.2107 4.30466 80.6466 5.10383ZM8.50279 13.4589C8.7934 15.929 11.9175 19.1257 13.7338 18.7625C15.2595 18.4719 15.768 15.2752 14.2423 15.2752C12.7893 15.2752 11.2636 12.4417 12.1354 11.5699C12.4987 11.2066 16.7125 10.9887 21.4349 11.0613L30.0079 11.2793L30.2985 13.4589C30.5891 15.929 33.7132 19.1257 35.5295 18.7625C37.0552 18.4719 37.5638 15.2752 36.0381 15.2752C34.585 15.2752 33.0593 12.4417 33.9311 11.5699C34.2944 11.2066 38.5082 10.9887 43.2306 11.0613L51.8036 11.2793L52.0942 13.4589C52.3848 15.929 55.5089 19.1257 57.3252 18.7625C58.8509 18.4719 59.3595 15.2752 57.8338 15.2752C56.3807 15.2752 54.855 12.4417 55.7269 11.5699C56.0901 11.2066 60.304 10.9887 65.0264 11.0613L73.5993 11.2793L73.89 13.4589C74.1806 15.929 77.3046 19.1257 79.1209 18.7625C80.6466 18.4719 81.1552 15.2752 79.6295 15.2752C78.1765 15.2752 76.6508 12.4417 77.5952 11.4972C77.9585 11.134 80.6466 10.916 83.6254 11.0613L89.0017 11.2793V17.0915V22.9037H46.5H3.99834L3.78038 17.8907C3.48977 11.6425 3.85304 10.7707 6.32322 11.0613C7.84892 11.2066 8.28483 11.7152 8.50279 13.4589ZM89.0017 57.7768V89.0174H46.5H3.99834L3.78038 58.5034C3.70773 41.7206 3.78038 27.5534 3.99834 27.0449C4.2163 26.3183 13.1525 26.173 46.6453 26.3183L89.0017 26.5363V57.7768Z" fill="#D3D3D3"/>
<path id="Vector_2" d="M19.6187 31.9852C19.6187 32.9297 20.1272 33.4383 21.0717 33.4383C22.0162 33.4383 22.5247 32.9297 22.5247 31.9852C22.5247 31.0407 22.0162 30.5322 21.0717 30.5322C20.1272 30.5322 19.6187 31.0407 19.6187 31.9852Z" fill="#D3D3D3"/>
<path id="Vector_3" d="M26.884 31.9852C26.884 33.4383 27.3926 33.4383 50.1328 33.4383C72.873 33.4383 73.3816 33.4383 73.3816 31.9852C73.3816 30.5322 72.873 30.5322 50.1328 30.5322C27.3926 30.5322 26.884 30.5322 26.884 31.9852Z" fill="#D3D3D3"/>
<path id="Vector_4" d="M12.3532 42.1566C12.2805 42.5198 12.2805 46.1524 12.2805 50.1483C12.2805 54.1442 12.2805 57.7042 12.3532 58.1401C12.3532 58.576 15.7678 58.8666 21.0715 58.8666C26.3751 58.8666 29.7897 58.576 29.7897 58.1401C29.8624 57.7042 29.8624 54.1442 29.8624 50.1483C29.8624 46.1524 29.8624 42.5198 29.7897 42.1566C29.7897 41.7206 26.3751 41.43 21.0715 41.43C15.7678 41.43 12.3532 41.7206 12.3532 42.1566ZM26.5204 50.1483V55.5973H21.0715H15.6225L15.4772 50.5116C15.4772 47.6781 15.5499 45.208 15.6952 44.9173C15.8405 44.6994 18.3833 44.4814 21.2894 44.5541L26.5204 44.6994V50.1483Z" fill="#D3D3D3"/>
<path id="Vector_5" d="M37.7819 42.1566C37.7092 42.5198 37.7092 46.1524 37.7092 50.1483C37.7092 54.1442 37.7092 57.7042 37.7819 58.1401C37.7819 58.576 41.1965 58.8666 46.5002 58.8666C51.8038 58.8666 55.2185 58.576 55.2185 58.1401C55.2911 57.7042 55.2911 54.1442 55.2911 50.1483C55.2911 46.1524 55.2911 42.5198 55.2185 42.1566C55.2185 41.7206 51.8038 41.43 46.5002 41.43C41.1965 41.43 37.7819 41.7206 37.7819 42.1566ZM51.9491 50.1483V55.5973H46.5002H41.0512L40.9059 50.5116C40.9059 47.6781 40.9786 45.208 41.1239 44.9173C41.2692 44.6994 43.812 44.4814 46.7181 44.5541L51.9491 44.6994V50.1483Z" fill="#D3D3D3"/>
<path id="Vector_6" d="M63.2101 42.1566C63.1375 42.5198 63.1375 46.1524 63.1375 50.1483C63.1375 54.1442 63.1375 57.7042 63.2101 58.1401C63.2101 58.576 66.6248 58.8666 71.9284 58.8666C77.232 58.8666 80.6467 58.576 80.6467 58.1401C80.7193 57.7042 80.7193 54.1442 80.7193 50.1483C80.7193 46.1524 80.7193 42.5198 80.6467 42.1566C80.6467 41.7206 77.232 41.43 71.9284 41.43C66.6248 41.43 63.2101 41.7206 63.2101 42.1566ZM77.3773 50.1483V55.5973H71.9284H66.4795L66.3342 50.5116C66.3342 47.6781 66.4068 45.208 66.5521 44.9173C66.6974 44.6994 69.2403 44.4814 72.1464 44.5541L77.3773 44.6994V50.1483Z" fill="#D3D3D3"/>
<path id="Vector_7" d="M12.3532 63.9523C12.2805 64.3156 12.2805 67.9482 12.2805 71.9441C12.2805 75.9399 12.2805 79.4999 12.3532 79.9358C12.3532 80.3717 15.7678 80.6623 21.0715 80.6623C26.3751 80.6623 29.7897 80.3717 29.7897 79.9358C29.8624 79.4999 29.8624 75.9399 29.8624 71.9441C29.8624 67.9482 29.8624 64.3156 29.7897 63.9523C29.7897 63.5164 26.3751 63.2258 21.0715 63.2258C15.7678 63.2258 12.3532 63.5164 12.3532 63.9523ZM26.5204 71.9441V77.393H21.0715H15.6225L15.4772 72.3073C15.4772 69.4739 15.5499 67.0037 15.6952 66.7131C15.8405 66.4951 18.3833 66.2772 21.2894 66.3498L26.5204 66.4951V71.9441Z" fill="#D3D3D3"/>
<path id="Vector_8" d="M37.7819 63.9523C37.7092 64.3156 37.7092 67.9482 37.7092 71.9441C37.7092 75.9399 37.7092 79.4999 37.7819 79.9358C37.7819 80.3717 41.1965 80.6623 46.5002 80.6623C51.8038 80.6623 55.2185 80.3717 55.2185 79.9358C55.2911 79.4999 55.2911 75.9399 55.2911 71.9441C55.2911 67.9482 55.2911 64.3156 55.2185 63.9523C55.2185 63.5164 51.8038 63.2258 46.5002 63.2258C41.1965 63.2258 37.7819 63.5164 37.7819 63.9523ZM51.9491 71.9441V77.393H46.5002H41.0512L40.9059 72.3073C40.9059 69.4739 40.9786 67.0037 41.1239 66.7131C41.2692 66.4951 43.812 66.2772 46.7181 66.3498L51.9491 66.4951V71.9441Z" fill="#D3D3D3"/>
<path id="Vector_9" d="M63.2101 63.9523C63.1375 64.3156 63.1375 67.9482 63.1375 71.9441C63.1375 75.9399 63.1375 79.4999 63.2101 79.9358C63.2101 80.3717 66.6248 80.6623 71.9284 80.6623C77.232 80.6623 80.6467 80.3717 80.6467 79.9358C80.7193 79.4999 80.7193 75.9399 80.7193 71.9441C80.7193 67.9482 80.7193 64.3156 80.6467 63.9523C80.6467 63.5164 77.232 63.2258 71.9284 63.2258C66.6248 63.2258 63.2101 63.5164 63.2101 63.9523ZM77.3773 71.9441V77.393H71.9284H66.4795L66.3342 72.3073C66.3342 69.4739 66.4068 67.0037 66.5521 66.7131C66.6974 66.4951 69.2403 66.2772 72.1464 66.3498L77.3773 66.4951V71.9441Z" fill="#D3D3D3"/>
</g>
</svg>
