<svg width="35" height="37" viewBox="0 0 35 37" fill="none" xmlns="http://www.w3.org/2000/svg">
<g id="Black">
<g id="Vector">
<mask id="path-1-outside-1_567_2454" maskUnits="userSpaceOnUse" x="0.483521" y="0" width="34" height="37" fill="black">
<rect fill="white" x="0.483521" width="34" height="37"/>
<path d="M17.304 0.64415C17.1225 0.909454 17.0526 1.30043 17.0526 1.9567V2.90621L15.014 2.9481C13.0591 2.98999 12.9614 3.00396 12.3889 3.38097C11.3835 4.0512 11.2579 4.48407 11.2579 7.69563V10.4604H10.2944C9.76378 10.4604 9.14939 10.5302 8.92598 10.614C7.90666 10.991 7.36209 11.9963 7.34812 13.4904V14.4958L6.83148 14.5377C5.86801 14.6215 5.53289 15.6268 6.23106 16.325C6.53825 16.6322 6.5941 16.8835 6.37069 16.8835C6.28691 16.8835 6.11935 17.1069 5.99368 17.3722C5.79819 17.7632 5.79819 17.9168 5.93783 18.224C6.02161 18.4334 6.07746 18.615 6.0635 18.6289C6.03557 18.6429 5.81216 18.7686 5.56082 18.8942C4.94643 19.2154 4.33204 20.109 4.15052 20.9468C4.06674 21.3239 3.99692 23.0553 3.99692 24.7728V27.9146H2.74022C2.05602 27.9146 1.48352 27.9704 1.48352 28.0402C1.48352 28.1799 3.55009 30.8608 3.77351 31.0144C3.85729 31.0703 6.67788 31.1261 10.043 31.1261H16.159L16.1171 32.5504L16.0752 33.9886L14.9581 34.0584C13.7014 34.1422 13.1708 34.3796 12.6682 35.1196C12.0258 36.0412 11.9141 36.0273 17.8486 35.9854C23.8388 35.9435 23.7132 35.9714 22.8335 34.98C22.2051 34.2539 21.9398 34.1422 20.6831 34.0584L19.566 33.9886L19.5242 32.5504L19.4823 31.1261H25.6401H31.784L32.9709 29.632C34.3951 27.8447 34.3812 27.7749 32.6776 27.7749H31.5047V24.298V20.8212L31.1137 20.0811C30.6669 19.2154 29.7872 18.587 28.8656 18.4614L28.2931 18.3776V15.571C28.2931 12.5409 28.2094 11.9684 27.6369 11.2842C27.1202 10.6838 26.5198 10.4604 25.3608 10.4604H24.3834V9.56672C24.3834 8.75685 24.4253 8.63118 24.8023 8.25417C25.0397 8.01679 25.2212 7.7096 25.2212 7.556C25.2212 7.31862 25.305 7.2907 25.9054 7.36052C26.4639 7.40241 26.6315 7.37448 26.8828 7.12314C27.0364 6.96954 27.1761 6.70424 27.1761 6.55064C27.1761 6.1876 26.813 5.47547 26.6036 5.40565C26.5058 5.37772 26.5896 5.15431 26.813 4.81919C27.2738 4.12102 27.2738 3.71608 26.7991 3.33907C26.4919 3.08773 26.2964 3.04585 25.8216 3.11566C25.2631 3.18548 25.2352 3.17151 25.1514 2.78054C25.0536 2.33371 24.4951 1.80311 24.1041 1.80311C23.7132 1.80311 23.1546 2.33371 23.0569 2.7945C22.9731 3.15755 22.9172 3.21341 22.6659 3.12962C22.4983 3.07377 21.6466 2.98999 20.7948 2.96206C19.3566 2.89225 19.217 2.86432 19.217 2.62695C19.217 1.9567 18.449 0.741894 17.7927 0.392811C17.6112 0.295067 17.4995 0.350918 17.304 0.64415ZM18.2535 1.55177C18.5746 1.99859 18.7841 3.24133 18.6026 3.70212C18.5188 3.91157 18.4909 3.91157 18.2116 3.67419C17.8067 3.29718 17.5414 2.61298 17.5414 1.90085C17.5414 0.965305 17.7648 0.8536 18.2535 1.55177ZM24.537 2.65487C24.6906 2.9481 24.6487 3.71608 24.4532 4.2048C24.2857 4.6237 24.8442 4.512 25.291 4.03724C25.9892 3.31115 26.8828 3.56249 26.5058 4.38633C26.4081 4.60974 26.1428 4.7773 25.696 4.90297C24.8302 5.14034 24.7744 5.37772 25.5284 5.57321C26.5058 5.83851 26.9108 6.41101 26.4081 6.82991C26.1428 7.05332 25.668 6.88576 25.1095 6.36912C24.551 5.82455 24.3415 5.97815 24.5649 6.78802C24.7464 7.47222 24.551 8.08661 24.1321 8.08661C23.5735 8.08661 23.378 7.41637 23.6852 6.6065C23.9226 5.97815 23.6294 5.86644 23.0988 6.36912C22.3308 7.06729 21.5907 7.1371 21.5907 6.49479C21.5907 6.08985 21.9677 5.74077 22.5402 5.62906C23.001 5.53132 23.3641 5.23809 23.1686 5.11242C23.1127 5.07053 22.7916 4.97279 22.4565 4.88901C22.0515 4.7773 21.8141 4.60974 21.7024 4.38633C21.2975 3.50663 22.1912 3.32511 23.015 4.13498C23.406 4.512 23.5875 4.60974 23.6992 4.49803C23.8249 4.37236 23.8249 4.21877 23.6992 3.88364C23.4897 3.26926 23.5037 2.8364 23.769 2.58505C24.0622 2.27786 24.3415 2.30579 24.537 2.65487ZM17.8206 4.0512C18.4629 4.72145 18.7841 4.72145 19.0075 4.03724L19.1751 3.54852L20.1665 3.50663L21.1718 3.46474L21.0881 3.85572C21.0322 4.13498 21.116 4.40029 21.3813 4.79126C21.6885 5.25205 21.7164 5.36376 21.5488 5.44754C21.1718 5.67095 20.9763 6.36912 21.1718 6.82991C21.3673 7.30466 21.7723 7.45826 22.4983 7.34655C22.9312 7.27674 22.9731 7.30466 23.0569 7.68167C23.1127 7.90508 23.2943 8.19831 23.4897 8.35191C23.783 8.58929 23.8249 8.72892 23.8249 9.5388V10.4604H23.3641C23.0708 10.4604 22.7916 10.3487 22.638 10.1811C22.3866 9.90184 22.3866 9.88788 22.7078 9.55276C22.9312 9.31538 23.0429 9.03612 23.0429 8.701C23.0429 8.01679 22.6938 7.76545 21.8421 7.84923C21.2416 7.90508 21.1858 7.87716 21.102 7.54204C20.7809 6.27137 19.2449 6.24345 18.9935 7.51411C18.9098 7.89112 18.8818 7.90508 18.2395 7.83527C17.1644 7.73752 16.7036 8.3938 17.1923 9.34331C17.304 9.55276 17.4715 9.76221 17.5693 9.8041C17.7089 9.84599 17.681 9.94373 17.4855 10.1671C17.2342 10.4464 17.1085 10.4604 14.5113 10.4604H11.8024L11.8443 7.54204L11.8862 4.60974L12.3051 4.17687C12.5425 3.92553 12.8497 3.67419 13.0033 3.61834C13.1569 3.54852 14.1762 3.49267 15.2793 3.49267L17.2761 3.47871L17.8206 4.0512ZM20.4876 7.48619C20.5854 7.76545 20.5854 8.03076 20.4876 8.37984C20.1944 9.37124 20.3759 9.45502 21.1858 8.71496C21.7723 8.19831 22.1493 8.10057 22.4285 8.43569C22.7916 8.86856 22.3029 9.42709 21.3813 9.62258C20.725 9.74825 20.7809 10.0973 21.507 10.2928C22.261 10.4883 22.7078 11.0329 22.4285 11.368C22.1353 11.7171 21.6187 11.6054 21.0462 11.0887C20.739 10.8095 20.4597 10.6559 20.4178 10.7257C20.362 10.8095 20.4038 11.1446 20.4876 11.4937C20.6273 12.0382 20.6133 12.1918 20.4178 12.4851C19.9012 13.267 19.4264 12.7643 19.5381 11.5774C19.594 11.1306 19.58 10.7257 19.5102 10.6838C19.4543 10.6419 19.189 10.8234 18.9377 11.0887C18.4211 11.6193 17.8486 11.731 17.5414 11.368C17.2621 11.0329 17.7089 10.5023 18.4071 10.3068C18.7422 10.209 19.0634 10.0834 19.1471 10.0135C19.3287 9.85995 18.9796 9.62258 18.5467 9.62258C18.1278 9.62258 17.3738 8.88252 17.4855 8.58929C17.681 8.07265 18.7422 8.29606 19.0773 8.92441C19.1611 9.078 19.3147 9.20368 19.4264 9.20368C19.6778 9.20368 19.6917 8.85459 19.4823 8.24021C19.1751 7.37448 20.1665 6.63442 20.4876 7.48619ZM16.9549 11.2563C16.9828 11.4378 17.1644 11.7031 17.3738 11.8707C17.681 12.1081 17.8625 12.136 18.3373 12.0662C18.8539 11.9963 18.9377 12.0103 18.9377 12.2337C18.9377 12.5828 19.3287 13.1134 19.6917 13.2391C20.2921 13.4625 20.8088 13.0994 21.0881 12.2337C21.1439 12.0382 21.2696 12.0103 21.7304 12.0801C22.4285 12.1918 22.9312 11.8986 23.0569 11.2982L23.1546 10.8793H24.5789C25.7797 10.8793 26.1009 10.9351 26.6175 11.1865C27.6648 11.731 27.7346 12.0103 27.7346 15.4453V18.4195H24.2996H20.8786L20.9763 17.7911C21.1579 16.5624 20.8227 16.1993 19.9291 16.6601C19.4683 16.9114 18.7282 17.7213 18.5886 18.1263C18.5188 18.3636 18.3792 18.4195 17.9184 18.4195C17.4576 18.4195 17.2761 18.3497 17.0387 18.0425C16.6756 17.5956 16.0333 17.5538 15.4748 17.9587L15.0978 18.238L14.7906 17.847C14.1902 17.1349 13.2407 17.2466 12.9335 18.0844C12.8357 18.3357 12.6961 18.4195 12.3749 18.4195C11.984 18.4195 11.956 18.3776 11.956 17.9447C11.956 17.6375 11.8304 17.3164 11.6209 17.065L11.2858 16.6741L11.6209 16.2831C12.0398 15.7944 12.0538 15.166 11.6628 14.775C11.4115 14.5237 11.2579 14.4818 10.6854 14.5516C10.071 14.6354 10.0012 14.6075 10.0012 14.3561C10.0012 14.2026 9.80567 13.8814 9.58226 13.644C9.23317 13.3089 9.07958 13.2391 8.77238 13.3229C8.56293 13.3648 8.28367 13.5183 8.158 13.6301C7.92062 13.8395 7.90666 13.8116 7.90666 13.1693C7.90666 12.2058 8.25574 11.5774 9.02372 11.1865C9.63811 10.8793 9.74982 10.8793 13.2825 10.9072L16.913 10.9491L16.9549 11.2563ZM9.27506 13.9791C9.48452 14.1886 9.49848 14.9147 9.30299 15.4174C9.09354 15.9759 9.48452 16.0178 10.0151 15.5011C10.7412 14.7611 11.6628 14.9985 11.2858 15.8363C11.188 16.0597 10.9367 16.2133 10.434 16.3389C9.5264 16.5624 9.51244 17.0231 10.4061 17.0231C10.7691 17.0231 11.3975 17.5538 11.3975 17.8609C11.3975 18.5452 10.6295 18.5312 9.97323 17.833C9.48452 17.3164 9.09354 17.3862 9.30299 17.9308C9.62415 18.7686 9.40073 19.5365 8.85616 19.5365C8.35348 19.5365 8.22781 18.8384 8.54897 17.7492C8.67464 17.3164 8.39537 17.3583 7.80891 17.8749C7.44587 18.1821 7.20849 18.2798 6.88733 18.2519C5.96575 18.1681 6.37069 17.2745 7.44587 16.9952C8.17196 16.8137 8.22781 16.5065 7.55757 16.3808C6.62203 16.2133 6.07746 15.4872 6.56618 15.0822C6.84544 14.8449 7.39001 15.0264 7.8508 15.5011C8.24178 15.92 8.60482 16.0317 8.60482 15.7525C8.60482 15.6547 8.53501 15.3475 8.43726 15.0543C8.17196 14.1467 8.73049 13.4346 9.27506 13.9791ZM20.348 18.1542C20.1665 18.7546 19.1192 19.7739 18.9098 19.5645C18.7422 19.3969 18.9935 18.3916 19.3287 17.8889C19.4543 17.6934 19.7476 17.4281 19.9849 17.2885C20.4038 17.0231 20.4038 17.0231 20.4457 17.3303C20.4737 17.4979 20.4318 17.8749 20.348 18.1542ZM14.1902 18.0006C14.4694 18.1542 14.7487 18.8244 14.7487 19.355C14.7487 19.8717 15.1816 19.7041 15.377 19.1316C15.6982 18.1681 16.7036 17.847 16.7036 18.6987C16.7036 18.992 16.55 19.2294 16.1311 19.5924C15.8099 19.8577 15.6005 20.137 15.6423 20.2208C15.6982 20.3045 16.0054 20.3325 16.4103 20.2766C17.1644 20.1928 17.681 20.3883 17.681 20.7653C17.681 21.3518 17.0666 21.5054 16.1869 21.1423C15.4469 20.8351 15.3072 21.0725 15.8518 21.7288C16.4522 22.4549 16.4243 23.167 15.7959 23.167C15.3631 23.167 15.1257 22.8319 15.028 22.0779C14.9302 21.2401 14.6789 21.1842 14.3438 21.9382C14.0366 22.6643 13.7573 22.9296 13.3244 22.8598C12.7659 22.79 12.8357 22.2454 13.478 21.631C13.7992 21.3239 14.0505 21.0167 14.0505 20.9468C14.0505 20.8631 13.7014 20.8072 13.1988 20.8351C12.5006 20.8631 12.3191 20.8212 12.1515 20.5978C11.8862 20.2208 11.9002 20.137 12.3051 19.8717C12.6402 19.6622 12.71 19.6622 13.2546 19.8717C13.5758 19.9973 13.9249 20.0951 14.0226 20.0951C14.26 20.0951 14.2321 19.746 13.9528 19.5226C13.5758 19.2014 13.3244 18.4614 13.492 18.1402C13.6596 17.833 13.8132 17.7911 14.1902 18.0006ZM7.94855 19.3271C8.40934 20.2906 9.33092 20.2906 9.86152 19.3271C10.0989 18.9082 10.0989 18.9082 11.5092 18.8663C12.71 18.8384 12.9335 18.8663 12.9335 19.0478C12.9335 19.1875 12.7938 19.2573 12.5285 19.2573C12.0258 19.2573 11.579 19.6203 11.4533 20.123C11.3835 20.4302 11.4533 20.5838 11.7885 20.9329C12.0258 21.1563 12.3191 21.3518 12.4447 21.3518C12.6263 21.3518 12.6682 21.4216 12.5844 21.659C12.3191 22.4968 12.347 22.7342 12.6961 23.0832C13.1289 23.5161 13.6037 23.544 14.1064 23.1531L14.4694 22.8738L14.9023 23.2927C15.7261 24.1305 16.7036 23.7116 16.7036 22.5387C16.7036 21.9662 16.7315 21.9103 17.0387 21.9103C17.4157 21.9103 18.044 21.4495 18.1697 21.0865C18.3093 20.6536 17.9882 20.109 17.4715 19.8577C17.1504 19.7041 16.9968 19.5505 17.0526 19.4248C17.0945 19.3271 17.1225 19.1735 17.1225 19.1037C17.1225 19.0339 17.4017 18.978 17.7508 18.978H18.3792V19.5924C18.3792 19.9415 18.449 20.2626 18.5188 20.3045C18.7562 20.4442 19.9012 19.8158 20.2223 19.383L20.5295 18.978H24.7883C28.9494 18.978 29.0751 18.992 29.6197 19.2992C29.9129 19.4667 30.3597 19.8856 30.5971 20.2068L31.016 20.8212V24.326V27.8447H17.8206H4.62527L4.58338 24.5634C4.55546 21.8405 4.58338 21.1842 4.76491 20.6955C5.03021 20.0253 5.9099 19.1595 6.46843 19.0339C6.69185 18.992 6.92922 18.9361 6.99904 18.9082C7.47379 18.7546 7.72513 18.8663 7.94855 19.3271ZM33.1803 28.4312C33.1803 28.501 33.0686 28.6825 32.929 28.8501C32.6916 29.1573 32.6218 29.1713 29.2706 29.1992C26.3383 29.2411 25.8496 29.269 25.8496 29.4505C25.8496 29.632 26.3103 29.66 29.0332 29.7019L32.2168 29.7298L31.9236 30.1487L31.6304 30.5676H17.8206H4.01089L3.71765 30.1487L3.42442 29.7298H11.8862C19.8732 29.7298 20.348 29.7158 20.3061 29.4784C20.2642 29.255 19.7196 29.2411 11.6069 29.2131C2.9776 29.1713 2.94967 29.1713 2.71229 28.878C2.57266 28.7105 2.46095 28.5289 2.46095 28.4591C2.46095 28.3893 8.95391 28.3335 17.8206 28.3335C26.2684 28.3335 33.1803 28.3753 33.1803 28.4312ZM18.9377 32.5923V34.0584H17.8206H16.7036V32.5923V31.1261H17.8206H18.9377V32.5923ZM21.9817 34.8683C22.2191 35.0498 22.4285 35.2593 22.4285 35.3291C22.4285 35.3989 20.5435 35.4548 17.7229 35.4548H13.0312L13.3524 35.1057C13.5339 34.9102 13.883 34.6868 14.1064 34.617C14.3438 34.5471 16.1171 34.5052 18.0301 34.5192C21.4371 34.5471 21.5349 34.5611 21.9817 34.8683Z"/>
</mask>
<path d="M17.304 0.64415C17.1225 0.909454 17.0526 1.30043 17.0526 1.9567V2.90621L15.014 2.9481C13.0591 2.98999 12.9614 3.00396 12.3889 3.38097C11.3835 4.0512 11.2579 4.48407 11.2579 7.69563V10.4604H10.2944C9.76378 10.4604 9.14939 10.5302 8.92598 10.614C7.90666 10.991 7.36209 11.9963 7.34812 13.4904V14.4958L6.83148 14.5377C5.86801 14.6215 5.53289 15.6268 6.23106 16.325C6.53825 16.6322 6.5941 16.8835 6.37069 16.8835C6.28691 16.8835 6.11935 17.1069 5.99368 17.3722C5.79819 17.7632 5.79819 17.9168 5.93783 18.224C6.02161 18.4334 6.07746 18.615 6.0635 18.6289C6.03557 18.6429 5.81216 18.7686 5.56082 18.8942C4.94643 19.2154 4.33204 20.109 4.15052 20.9468C4.06674 21.3239 3.99692 23.0553 3.99692 24.7728V27.9146H2.74022C2.05602 27.9146 1.48352 27.9704 1.48352 28.0402C1.48352 28.1799 3.55009 30.8608 3.77351 31.0144C3.85729 31.0703 6.67788 31.1261 10.043 31.1261H16.159L16.1171 32.5504L16.0752 33.9886L14.9581 34.0584C13.7014 34.1422 13.1708 34.3796 12.6682 35.1196C12.0258 36.0412 11.9141 36.0273 17.8486 35.9854C23.8388 35.9435 23.7132 35.9714 22.8335 34.98C22.2051 34.2539 21.9398 34.1422 20.6831 34.0584L19.566 33.9886L19.5242 32.5504L19.4823 31.1261H25.6401H31.784L32.9709 29.632C34.3951 27.8447 34.3812 27.7749 32.6776 27.7749H31.5047V24.298V20.8212L31.1137 20.0811C30.6669 19.2154 29.7872 18.587 28.8656 18.4614L28.2931 18.3776V15.571C28.2931 12.5409 28.2094 11.9684 27.6369 11.2842C27.1202 10.6838 26.5198 10.4604 25.3608 10.4604H24.3834V9.56672C24.3834 8.75685 24.4253 8.63118 24.8023 8.25417C25.0397 8.01679 25.2212 7.7096 25.2212 7.556C25.2212 7.31862 25.305 7.2907 25.9054 7.36052C26.4639 7.40241 26.6315 7.37448 26.8828 7.12314C27.0364 6.96954 27.1761 6.70424 27.1761 6.55064C27.1761 6.1876 26.813 5.47547 26.6036 5.40565C26.5058 5.37772 26.5896 5.15431 26.813 4.81919C27.2738 4.12102 27.2738 3.71608 26.7991 3.33907C26.4919 3.08773 26.2964 3.04585 25.8216 3.11566C25.2631 3.18548 25.2352 3.17151 25.1514 2.78054C25.0536 2.33371 24.4951 1.80311 24.1041 1.80311C23.7132 1.80311 23.1546 2.33371 23.0569 2.7945C22.9731 3.15755 22.9172 3.21341 22.6659 3.12962C22.4983 3.07377 21.6466 2.98999 20.7948 2.96206C19.3566 2.89225 19.217 2.86432 19.217 2.62695C19.217 1.9567 18.449 0.741894 17.7927 0.392811C17.6112 0.295067 17.4995 0.350918 17.304 0.64415ZM18.2535 1.55177C18.5746 1.99859 18.7841 3.24133 18.6026 3.70212C18.5188 3.91157 18.4909 3.91157 18.2116 3.67419C17.8067 3.29718 17.5414 2.61298 17.5414 1.90085C17.5414 0.965305 17.7648 0.8536 18.2535 1.55177ZM24.537 2.65487C24.6906 2.9481 24.6487 3.71608 24.4532 4.2048C24.2857 4.6237 24.8442 4.512 25.291 4.03724C25.9892 3.31115 26.8828 3.56249 26.5058 4.38633C26.4081 4.60974 26.1428 4.7773 25.696 4.90297C24.8302 5.14034 24.7744 5.37772 25.5284 5.57321C26.5058 5.83851 26.9108 6.41101 26.4081 6.82991C26.1428 7.05332 25.668 6.88576 25.1095 6.36912C24.551 5.82455 24.3415 5.97815 24.5649 6.78802C24.7464 7.47222 24.551 8.08661 24.1321 8.08661C23.5735 8.08661 23.378 7.41637 23.6852 6.6065C23.9226 5.97815 23.6294 5.86644 23.0988 6.36912C22.3308 7.06729 21.5907 7.1371 21.5907 6.49479C21.5907 6.08985 21.9677 5.74077 22.5402 5.62906C23.001 5.53132 23.3641 5.23809 23.1686 5.11242C23.1127 5.07053 22.7916 4.97279 22.4565 4.88901C22.0515 4.7773 21.8141 4.60974 21.7024 4.38633C21.2975 3.50663 22.1912 3.32511 23.015 4.13498C23.406 4.512 23.5875 4.60974 23.6992 4.49803C23.8249 4.37236 23.8249 4.21877 23.6992 3.88364C23.4897 3.26926 23.5037 2.8364 23.769 2.58505C24.0622 2.27786 24.3415 2.30579 24.537 2.65487ZM17.8206 4.0512C18.4629 4.72145 18.7841 4.72145 19.0075 4.03724L19.1751 3.54852L20.1665 3.50663L21.1718 3.46474L21.0881 3.85572C21.0322 4.13498 21.116 4.40029 21.3813 4.79126C21.6885 5.25205 21.7164 5.36376 21.5488 5.44754C21.1718 5.67095 20.9763 6.36912 21.1718 6.82991C21.3673 7.30466 21.7723 7.45826 22.4983 7.34655C22.9312 7.27674 22.9731 7.30466 23.0569 7.68167C23.1127 7.90508 23.2943 8.19831 23.4897 8.35191C23.783 8.58929 23.8249 8.72892 23.8249 9.5388V10.4604H23.3641C23.0708 10.4604 22.7916 10.3487 22.638 10.1811C22.3866 9.90184 22.3866 9.88788 22.7078 9.55276C22.9312 9.31538 23.0429 9.03612 23.0429 8.701C23.0429 8.01679 22.6938 7.76545 21.8421 7.84923C21.2416 7.90508 21.1858 7.87716 21.102 7.54204C20.7809 6.27137 19.2449 6.24345 18.9935 7.51411C18.9098 7.89112 18.8818 7.90508 18.2395 7.83527C17.1644 7.73752 16.7036 8.3938 17.1923 9.34331C17.304 9.55276 17.4715 9.76221 17.5693 9.8041C17.7089 9.84599 17.681 9.94373 17.4855 10.1671C17.2342 10.4464 17.1085 10.4604 14.5113 10.4604H11.8024L11.8443 7.54204L11.8862 4.60974L12.3051 4.17687C12.5425 3.92553 12.8497 3.67419 13.0033 3.61834C13.1569 3.54852 14.1762 3.49267 15.2793 3.49267L17.2761 3.47871L17.8206 4.0512ZM20.4876 7.48619C20.5854 7.76545 20.5854 8.03076 20.4876 8.37984C20.1944 9.37124 20.3759 9.45502 21.1858 8.71496C21.7723 8.19831 22.1493 8.10057 22.4285 8.43569C22.7916 8.86856 22.3029 9.42709 21.3813 9.62258C20.725 9.74825 20.7809 10.0973 21.507 10.2928C22.261 10.4883 22.7078 11.0329 22.4285 11.368C22.1353 11.7171 21.6187 11.6054 21.0462 11.0887C20.739 10.8095 20.4597 10.6559 20.4178 10.7257C20.362 10.8095 20.4038 11.1446 20.4876 11.4937C20.6273 12.0382 20.6133 12.1918 20.4178 12.4851C19.9012 13.267 19.4264 12.7643 19.5381 11.5774C19.594 11.1306 19.58 10.7257 19.5102 10.6838C19.4543 10.6419 19.189 10.8234 18.9377 11.0887C18.4211 11.6193 17.8486 11.731 17.5414 11.368C17.2621 11.0329 17.7089 10.5023 18.4071 10.3068C18.7422 10.209 19.0634 10.0834 19.1471 10.0135C19.3287 9.85995 18.9796 9.62258 18.5467 9.62258C18.1278 9.62258 17.3738 8.88252 17.4855 8.58929C17.681 8.07265 18.7422 8.29606 19.0773 8.92441C19.1611 9.078 19.3147 9.20368 19.4264 9.20368C19.6778 9.20368 19.6917 8.85459 19.4823 8.24021C19.1751 7.37448 20.1665 6.63442 20.4876 7.48619ZM16.9549 11.2563C16.9828 11.4378 17.1644 11.7031 17.3738 11.8707C17.681 12.1081 17.8625 12.136 18.3373 12.0662C18.8539 11.9963 18.9377 12.0103 18.9377 12.2337C18.9377 12.5828 19.3287 13.1134 19.6917 13.2391C20.2921 13.4625 20.8088 13.0994 21.0881 12.2337C21.1439 12.0382 21.2696 12.0103 21.7304 12.0801C22.4285 12.1918 22.9312 11.8986 23.0569 11.2982L23.1546 10.8793H24.5789C25.7797 10.8793 26.1009 10.9351 26.6175 11.1865C27.6648 11.731 27.7346 12.0103 27.7346 15.4453V18.4195H24.2996H20.8786L20.9763 17.7911C21.1579 16.5624 20.8227 16.1993 19.9291 16.6601C19.4683 16.9114 18.7282 17.7213 18.5886 18.1263C18.5188 18.3636 18.3792 18.4195 17.9184 18.4195C17.4576 18.4195 17.2761 18.3497 17.0387 18.0425C16.6756 17.5956 16.0333 17.5538 15.4748 17.9587L15.0978 18.238L14.7906 17.847C14.1902 17.1349 13.2407 17.2466 12.9335 18.0844C12.8357 18.3357 12.6961 18.4195 12.3749 18.4195C11.984 18.4195 11.956 18.3776 11.956 17.9447C11.956 17.6375 11.8304 17.3164 11.6209 17.065L11.2858 16.6741L11.6209 16.2831C12.0398 15.7944 12.0538 15.166 11.6628 14.775C11.4115 14.5237 11.2579 14.4818 10.6854 14.5516C10.071 14.6354 10.0012 14.6075 10.0012 14.3561C10.0012 14.2026 9.80567 13.8814 9.58226 13.644C9.23317 13.3089 9.07958 13.2391 8.77238 13.3229C8.56293 13.3648 8.28367 13.5183 8.158 13.6301C7.92062 13.8395 7.90666 13.8116 7.90666 13.1693C7.90666 12.2058 8.25574 11.5774 9.02372 11.1865C9.63811 10.8793 9.74982 10.8793 13.2825 10.9072L16.913 10.9491L16.9549 11.2563ZM9.27506 13.9791C9.48452 14.1886 9.49848 14.9147 9.30299 15.4174C9.09354 15.9759 9.48452 16.0178 10.0151 15.5011C10.7412 14.7611 11.6628 14.9985 11.2858 15.8363C11.188 16.0597 10.9367 16.2133 10.434 16.3389C9.5264 16.5624 9.51244 17.0231 10.4061 17.0231C10.7691 17.0231 11.3975 17.5538 11.3975 17.8609C11.3975 18.5452 10.6295 18.5312 9.97323 17.833C9.48452 17.3164 9.09354 17.3862 9.30299 17.9308C9.62415 18.7686 9.40073 19.5365 8.85616 19.5365C8.35348 19.5365 8.22781 18.8384 8.54897 17.7492C8.67464 17.3164 8.39537 17.3583 7.80891 17.8749C7.44587 18.1821 7.20849 18.2798 6.88733 18.2519C5.96575 18.1681 6.37069 17.2745 7.44587 16.9952C8.17196 16.8137 8.22781 16.5065 7.55757 16.3808C6.62203 16.2133 6.07746 15.4872 6.56618 15.0822C6.84544 14.8449 7.39001 15.0264 7.8508 15.5011C8.24178 15.92 8.60482 16.0317 8.60482 15.7525C8.60482 15.6547 8.53501 15.3475 8.43726 15.0543C8.17196 14.1467 8.73049 13.4346 9.27506 13.9791ZM20.348 18.1542C20.1665 18.7546 19.1192 19.7739 18.9098 19.5645C18.7422 19.3969 18.9935 18.3916 19.3287 17.8889C19.4543 17.6934 19.7476 17.4281 19.9849 17.2885C20.4038 17.0231 20.4038 17.0231 20.4457 17.3303C20.4737 17.4979 20.4318 17.8749 20.348 18.1542ZM14.1902 18.0006C14.4694 18.1542 14.7487 18.8244 14.7487 19.355C14.7487 19.8717 15.1816 19.7041 15.377 19.1316C15.6982 18.1681 16.7036 17.847 16.7036 18.6987C16.7036 18.992 16.55 19.2294 16.1311 19.5924C15.8099 19.8577 15.6005 20.137 15.6423 20.2208C15.6982 20.3045 16.0054 20.3325 16.4103 20.2766C17.1644 20.1928 17.681 20.3883 17.681 20.7653C17.681 21.3518 17.0666 21.5054 16.1869 21.1423C15.4469 20.8351 15.3072 21.0725 15.8518 21.7288C16.4522 22.4549 16.4243 23.167 15.7959 23.167C15.3631 23.167 15.1257 22.8319 15.028 22.0779C14.9302 21.2401 14.6789 21.1842 14.3438 21.9382C14.0366 22.6643 13.7573 22.9296 13.3244 22.8598C12.7659 22.79 12.8357 22.2454 13.478 21.631C13.7992 21.3239 14.0505 21.0167 14.0505 20.9468C14.0505 20.8631 13.7014 20.8072 13.1988 20.8351C12.5006 20.8631 12.3191 20.8212 12.1515 20.5978C11.8862 20.2208 11.9002 20.137 12.3051 19.8717C12.6402 19.6622 12.71 19.6622 13.2546 19.8717C13.5758 19.9973 13.9249 20.0951 14.0226 20.0951C14.26 20.0951 14.2321 19.746 13.9528 19.5226C13.5758 19.2014 13.3244 18.4614 13.492 18.1402C13.6596 17.833 13.8132 17.7911 14.1902 18.0006ZM7.94855 19.3271C8.40934 20.2906 9.33092 20.2906 9.86152 19.3271C10.0989 18.9082 10.0989 18.9082 11.5092 18.8663C12.71 18.8384 12.9335 18.8663 12.9335 19.0478C12.9335 19.1875 12.7938 19.2573 12.5285 19.2573C12.0258 19.2573 11.579 19.6203 11.4533 20.123C11.3835 20.4302 11.4533 20.5838 11.7885 20.9329C12.0258 21.1563 12.3191 21.3518 12.4447 21.3518C12.6263 21.3518 12.6682 21.4216 12.5844 21.659C12.3191 22.4968 12.347 22.7342 12.6961 23.0832C13.1289 23.5161 13.6037 23.544 14.1064 23.1531L14.4694 22.8738L14.9023 23.2927C15.7261 24.1305 16.7036 23.7116 16.7036 22.5387C16.7036 21.9662 16.7315 21.9103 17.0387 21.9103C17.4157 21.9103 18.044 21.4495 18.1697 21.0865C18.3093 20.6536 17.9882 20.109 17.4715 19.8577C17.1504 19.7041 16.9968 19.5505 17.0526 19.4248C17.0945 19.3271 17.1225 19.1735 17.1225 19.1037C17.1225 19.0339 17.4017 18.978 17.7508 18.978H18.3792V19.5924C18.3792 19.9415 18.449 20.2626 18.5188 20.3045C18.7562 20.4442 19.9012 19.8158 20.2223 19.383L20.5295 18.978H24.7883C28.9494 18.978 29.0751 18.992 29.6197 19.2992C29.9129 19.4667 30.3597 19.8856 30.5971 20.2068L31.016 20.8212V24.326V27.8447H17.8206H4.62527L4.58338 24.5634C4.55546 21.8405 4.58338 21.1842 4.76491 20.6955C5.03021 20.0253 5.9099 19.1595 6.46843 19.0339C6.69185 18.992 6.92922 18.9361 6.99904 18.9082C7.47379 18.7546 7.72513 18.8663 7.94855 19.3271ZM33.1803 28.4312C33.1803 28.501 33.0686 28.6825 32.929 28.8501C32.6916 29.1573 32.6218 29.1713 29.2706 29.1992C26.3383 29.2411 25.8496 29.269 25.8496 29.4505C25.8496 29.632 26.3103 29.66 29.0332 29.7019L32.2168 29.7298L31.9236 30.1487L31.6304 30.5676H17.8206H4.01089L3.71765 30.1487L3.42442 29.7298H11.8862C19.8732 29.7298 20.348 29.7158 20.3061 29.4784C20.2642 29.255 19.7196 29.2411 11.6069 29.2131C2.9776 29.1713 2.94967 29.1713 2.71229 28.878C2.57266 28.7105 2.46095 28.5289 2.46095 28.4591C2.46095 28.3893 8.95391 28.3335 17.8206 28.3335C26.2684 28.3335 33.1803 28.3753 33.1803 28.4312ZM18.9377 32.5923V34.0584H17.8206H16.7036V32.5923V31.1261H17.8206H18.9377V32.5923ZM21.9817 34.8683C22.2191 35.0498 22.4285 35.2593 22.4285 35.3291C22.4285 35.3989 20.5435 35.4548 17.7229 35.4548H13.0312L13.3524 35.1057C13.5339 34.9102 13.883 34.6868 14.1064 34.617C14.3438 34.5471 16.1171 34.5052 18.0301 34.5192C21.4371 34.5471 21.5349 34.5611 21.9817 34.8683Z" fill="#EE3764"/>
<path d="M17.304 0.64415C17.1225 0.909454 17.0526 1.30043 17.0526 1.9567V2.90621L15.014 2.9481C13.0591 2.98999 12.9614 3.00396 12.3889 3.38097C11.3835 4.0512 11.2579 4.48407 11.2579 7.69563V10.4604H10.2944C9.76378 10.4604 9.14939 10.5302 8.92598 10.614C7.90666 10.991 7.36209 11.9963 7.34812 13.4904V14.4958L6.83148 14.5377C5.86801 14.6215 5.53289 15.6268 6.23106 16.325C6.53825 16.6322 6.5941 16.8835 6.37069 16.8835C6.28691 16.8835 6.11935 17.1069 5.99368 17.3722C5.79819 17.7632 5.79819 17.9168 5.93783 18.224C6.02161 18.4334 6.07746 18.615 6.0635 18.6289C6.03557 18.6429 5.81216 18.7686 5.56082 18.8942C4.94643 19.2154 4.33204 20.109 4.15052 20.9468C4.06674 21.3239 3.99692 23.0553 3.99692 24.7728V27.9146H2.74022C2.05602 27.9146 1.48352 27.9704 1.48352 28.0402C1.48352 28.1799 3.55009 30.8608 3.77351 31.0144C3.85729 31.0703 6.67788 31.1261 10.043 31.1261H16.159L16.1171 32.5504L16.0752 33.9886L14.9581 34.0584C13.7014 34.1422 13.1708 34.3796 12.6682 35.1196C12.0258 36.0412 11.9141 36.0273 17.8486 35.9854C23.8388 35.9435 23.7132 35.9714 22.8335 34.98C22.2051 34.2539 21.9398 34.1422 20.6831 34.0584L19.566 33.9886L19.5242 32.5504L19.4823 31.1261H25.6401H31.784L32.9709 29.632C34.3951 27.8447 34.3812 27.7749 32.6776 27.7749H31.5047V24.298V20.8212L31.1137 20.0811C30.6669 19.2154 29.7872 18.587 28.8656 18.4614L28.2931 18.3776V15.571C28.2931 12.5409 28.2094 11.9684 27.6369 11.2842C27.1202 10.6838 26.5198 10.4604 25.3608 10.4604H24.3834V9.56672C24.3834 8.75685 24.4253 8.63118 24.8023 8.25417C25.0397 8.01679 25.2212 7.7096 25.2212 7.556C25.2212 7.31862 25.305 7.2907 25.9054 7.36052C26.4639 7.40241 26.6315 7.37448 26.8828 7.12314C27.0364 6.96954 27.1761 6.70424 27.1761 6.55064C27.1761 6.1876 26.813 5.47547 26.6036 5.40565C26.5058 5.37772 26.5896 5.15431 26.813 4.81919C27.2738 4.12102 27.2738 3.71608 26.7991 3.33907C26.4919 3.08773 26.2964 3.04585 25.8216 3.11566C25.2631 3.18548 25.2352 3.17151 25.1514 2.78054C25.0536 2.33371 24.4951 1.80311 24.1041 1.80311C23.7132 1.80311 23.1546 2.33371 23.0569 2.7945C22.9731 3.15755 22.9172 3.21341 22.6659 3.12962C22.4983 3.07377 21.6466 2.98999 20.7948 2.96206C19.3566 2.89225 19.217 2.86432 19.217 2.62695C19.217 1.9567 18.449 0.741894 17.7927 0.392811C17.6112 0.295067 17.4995 0.350918 17.304 0.64415ZM18.2535 1.55177C18.5746 1.99859 18.7841 3.24133 18.6026 3.70212C18.5188 3.91157 18.4909 3.91157 18.2116 3.67419C17.8067 3.29718 17.5414 2.61298 17.5414 1.90085C17.5414 0.965305 17.7648 0.8536 18.2535 1.55177ZM24.537 2.65487C24.6906 2.9481 24.6487 3.71608 24.4532 4.2048C24.2857 4.6237 24.8442 4.512 25.291 4.03724C25.9892 3.31115 26.8828 3.56249 26.5058 4.38633C26.4081 4.60974 26.1428 4.7773 25.696 4.90297C24.8302 5.14034 24.7744 5.37772 25.5284 5.57321C26.5058 5.83851 26.9108 6.41101 26.4081 6.82991C26.1428 7.05332 25.668 6.88576 25.1095 6.36912C24.551 5.82455 24.3415 5.97815 24.5649 6.78802C24.7464 7.47222 24.551 8.08661 24.1321 8.08661C23.5735 8.08661 23.378 7.41637 23.6852 6.6065C23.9226 5.97815 23.6294 5.86644 23.0988 6.36912C22.3308 7.06729 21.5907 7.1371 21.5907 6.49479C21.5907 6.08985 21.9677 5.74077 22.5402 5.62906C23.001 5.53132 23.3641 5.23809 23.1686 5.11242C23.1127 5.07053 22.7916 4.97279 22.4565 4.88901C22.0515 4.7773 21.8141 4.60974 21.7024 4.38633C21.2975 3.50663 22.1912 3.32511 23.015 4.13498C23.406 4.512 23.5875 4.60974 23.6992 4.49803C23.8249 4.37236 23.8249 4.21877 23.6992 3.88364C23.4897 3.26926 23.5037 2.8364 23.769 2.58505C24.0622 2.27786 24.3415 2.30579 24.537 2.65487ZM17.8206 4.0512C18.4629 4.72145 18.7841 4.72145 19.0075 4.03724L19.1751 3.54852L20.1665 3.50663L21.1718 3.46474L21.0881 3.85572C21.0322 4.13498 21.116 4.40029 21.3813 4.79126C21.6885 5.25205 21.7164 5.36376 21.5488 5.44754C21.1718 5.67095 20.9763 6.36912 21.1718 6.82991C21.3673 7.30466 21.7723 7.45826 22.4983 7.34655C22.9312 7.27674 22.9731 7.30466 23.0569 7.68167C23.1127 7.90508 23.2943 8.19831 23.4897 8.35191C23.783 8.58929 23.8249 8.72892 23.8249 9.5388V10.4604H23.3641C23.0708 10.4604 22.7916 10.3487 22.638 10.1811C22.3866 9.90184 22.3866 9.88788 22.7078 9.55276C22.9312 9.31538 23.0429 9.03612 23.0429 8.701C23.0429 8.01679 22.6938 7.76545 21.8421 7.84923C21.2416 7.90508 21.1858 7.87716 21.102 7.54204C20.7809 6.27137 19.2449 6.24345 18.9935 7.51411C18.9098 7.89112 18.8818 7.90508 18.2395 7.83527C17.1644 7.73752 16.7036 8.3938 17.1923 9.34331C17.304 9.55276 17.4715 9.76221 17.5693 9.8041C17.7089 9.84599 17.681 9.94373 17.4855 10.1671C17.2342 10.4464 17.1085 10.4604 14.5113 10.4604H11.8024L11.8443 7.54204L11.8862 4.60974L12.3051 4.17687C12.5425 3.92553 12.8497 3.67419 13.0033 3.61834C13.1569 3.54852 14.1762 3.49267 15.2793 3.49267L17.2761 3.47871L17.8206 4.0512ZM20.4876 7.48619C20.5854 7.76545 20.5854 8.03076 20.4876 8.37984C20.1944 9.37124 20.3759 9.45502 21.1858 8.71496C21.7723 8.19831 22.1493 8.10057 22.4285 8.43569C22.7916 8.86856 22.3029 9.42709 21.3813 9.62258C20.725 9.74825 20.7809 10.0973 21.507 10.2928C22.261 10.4883 22.7078 11.0329 22.4285 11.368C22.1353 11.7171 21.6187 11.6054 21.0462 11.0887C20.739 10.8095 20.4597 10.6559 20.4178 10.7257C20.362 10.8095 20.4038 11.1446 20.4876 11.4937C20.6273 12.0382 20.6133 12.1918 20.4178 12.4851C19.9012 13.267 19.4264 12.7643 19.5381 11.5774C19.594 11.1306 19.58 10.7257 19.5102 10.6838C19.4543 10.6419 19.189 10.8234 18.9377 11.0887C18.4211 11.6193 17.8486 11.731 17.5414 11.368C17.2621 11.0329 17.7089 10.5023 18.4071 10.3068C18.7422 10.209 19.0634 10.0834 19.1471 10.0135C19.3287 9.85995 18.9796 9.62258 18.5467 9.62258C18.1278 9.62258 17.3738 8.88252 17.4855 8.58929C17.681 8.07265 18.7422 8.29606 19.0773 8.92441C19.1611 9.078 19.3147 9.20368 19.4264 9.20368C19.6778 9.20368 19.6917 8.85459 19.4823 8.24021C19.1751 7.37448 20.1665 6.63442 20.4876 7.48619ZM16.9549 11.2563C16.9828 11.4378 17.1644 11.7031 17.3738 11.8707C17.681 12.1081 17.8625 12.136 18.3373 12.0662C18.8539 11.9963 18.9377 12.0103 18.9377 12.2337C18.9377 12.5828 19.3287 13.1134 19.6917 13.2391C20.2921 13.4625 20.8088 13.0994 21.0881 12.2337C21.1439 12.0382 21.2696 12.0103 21.7304 12.0801C22.4285 12.1918 22.9312 11.8986 23.0569 11.2982L23.1546 10.8793H24.5789C25.7797 10.8793 26.1009 10.9351 26.6175 11.1865C27.6648 11.731 27.7346 12.0103 27.7346 15.4453V18.4195H24.2996H20.8786L20.9763 17.7911C21.1579 16.5624 20.8227 16.1993 19.9291 16.6601C19.4683 16.9114 18.7282 17.7213 18.5886 18.1263C18.5188 18.3636 18.3792 18.4195 17.9184 18.4195C17.4576 18.4195 17.2761 18.3497 17.0387 18.0425C16.6756 17.5956 16.0333 17.5538 15.4748 17.9587L15.0978 18.238L14.7906 17.847C14.1902 17.1349 13.2407 17.2466 12.9335 18.0844C12.8357 18.3357 12.6961 18.4195 12.3749 18.4195C11.984 18.4195 11.956 18.3776 11.956 17.9447C11.956 17.6375 11.8304 17.3164 11.6209 17.065L11.2858 16.6741L11.6209 16.2831C12.0398 15.7944 12.0538 15.166 11.6628 14.775C11.4115 14.5237 11.2579 14.4818 10.6854 14.5516C10.071 14.6354 10.0012 14.6075 10.0012 14.3561C10.0012 14.2026 9.80567 13.8814 9.58226 13.644C9.23317 13.3089 9.07958 13.2391 8.77238 13.3229C8.56293 13.3648 8.28367 13.5183 8.158 13.6301C7.92062 13.8395 7.90666 13.8116 7.90666 13.1693C7.90666 12.2058 8.25574 11.5774 9.02372 11.1865C9.63811 10.8793 9.74982 10.8793 13.2825 10.9072L16.913 10.9491L16.9549 11.2563ZM9.27506 13.9791C9.48452 14.1886 9.49848 14.9147 9.30299 15.4174C9.09354 15.9759 9.48452 16.0178 10.0151 15.5011C10.7412 14.7611 11.6628 14.9985 11.2858 15.8363C11.188 16.0597 10.9367 16.2133 10.434 16.3389C9.5264 16.5624 9.51244 17.0231 10.4061 17.0231C10.7691 17.0231 11.3975 17.5538 11.3975 17.8609C11.3975 18.5452 10.6295 18.5312 9.97323 17.833C9.48452 17.3164 9.09354 17.3862 9.30299 17.9308C9.62415 18.7686 9.40073 19.5365 8.85616 19.5365C8.35348 19.5365 8.22781 18.8384 8.54897 17.7492C8.67464 17.3164 8.39537 17.3583 7.80891 17.8749C7.44587 18.1821 7.20849 18.2798 6.88733 18.2519C5.96575 18.1681 6.37069 17.2745 7.44587 16.9952C8.17196 16.8137 8.22781 16.5065 7.55757 16.3808C6.62203 16.2133 6.07746 15.4872 6.56618 15.0822C6.84544 14.8449 7.39001 15.0264 7.8508 15.5011C8.24178 15.92 8.60482 16.0317 8.60482 15.7525C8.60482 15.6547 8.53501 15.3475 8.43726 15.0543C8.17196 14.1467 8.73049 13.4346 9.27506 13.9791ZM20.348 18.1542C20.1665 18.7546 19.1192 19.7739 18.9098 19.5645C18.7422 19.3969 18.9935 18.3916 19.3287 17.8889C19.4543 17.6934 19.7476 17.4281 19.9849 17.2885C20.4038 17.0231 20.4038 17.0231 20.4457 17.3303C20.4737 17.4979 20.4318 17.8749 20.348 18.1542ZM14.1902 18.0006C14.4694 18.1542 14.7487 18.8244 14.7487 19.355C14.7487 19.8717 15.1816 19.7041 15.377 19.1316C15.6982 18.1681 16.7036 17.847 16.7036 18.6987C16.7036 18.992 16.55 19.2294 16.1311 19.5924C15.8099 19.8577 15.6005 20.137 15.6423 20.2208C15.6982 20.3045 16.0054 20.3325 16.4103 20.2766C17.1644 20.1928 17.681 20.3883 17.681 20.7653C17.681 21.3518 17.0666 21.5054 16.1869 21.1423C15.4469 20.8351 15.3072 21.0725 15.8518 21.7288C16.4522 22.4549 16.4243 23.167 15.7959 23.167C15.3631 23.167 15.1257 22.8319 15.028 22.0779C14.9302 21.2401 14.6789 21.1842 14.3438 21.9382C14.0366 22.6643 13.7573 22.9296 13.3244 22.8598C12.7659 22.79 12.8357 22.2454 13.478 21.631C13.7992 21.3239 14.0505 21.0167 14.0505 20.9468C14.0505 20.8631 13.7014 20.8072 13.1988 20.8351C12.5006 20.8631 12.3191 20.8212 12.1515 20.5978C11.8862 20.2208 11.9002 20.137 12.3051 19.8717C12.6402 19.6622 12.71 19.6622 13.2546 19.8717C13.5758 19.9973 13.9249 20.0951 14.0226 20.0951C14.26 20.0951 14.2321 19.746 13.9528 19.5226C13.5758 19.2014 13.3244 18.4614 13.492 18.1402C13.6596 17.833 13.8132 17.7911 14.1902 18.0006ZM7.94855 19.3271C8.40934 20.2906 9.33092 20.2906 9.86152 19.3271C10.0989 18.9082 10.0989 18.9082 11.5092 18.8663C12.71 18.8384 12.9335 18.8663 12.9335 19.0478C12.9335 19.1875 12.7938 19.2573 12.5285 19.2573C12.0258 19.2573 11.579 19.6203 11.4533 20.123C11.3835 20.4302 11.4533 20.5838 11.7885 20.9329C12.0258 21.1563 12.3191 21.3518 12.4447 21.3518C12.6263 21.3518 12.6682 21.4216 12.5844 21.659C12.3191 22.4968 12.347 22.7342 12.6961 23.0832C13.1289 23.5161 13.6037 23.544 14.1064 23.1531L14.4694 22.8738L14.9023 23.2927C15.7261 24.1305 16.7036 23.7116 16.7036 22.5387C16.7036 21.9662 16.7315 21.9103 17.0387 21.9103C17.4157 21.9103 18.044 21.4495 18.1697 21.0865C18.3093 20.6536 17.9882 20.109 17.4715 19.8577C17.1504 19.7041 16.9968 19.5505 17.0526 19.4248C17.0945 19.3271 17.1225 19.1735 17.1225 19.1037C17.1225 19.0339 17.4017 18.978 17.7508 18.978H18.3792V19.5924C18.3792 19.9415 18.449 20.2626 18.5188 20.3045C18.7562 20.4442 19.9012 19.8158 20.2223 19.383L20.5295 18.978H24.7883C28.9494 18.978 29.0751 18.992 29.6197 19.2992C29.9129 19.4667 30.3597 19.8856 30.5971 20.2068L31.016 20.8212V24.326V27.8447H17.8206H4.62527L4.58338 24.5634C4.55546 21.8405 4.58338 21.1842 4.76491 20.6955C5.03021 20.0253 5.9099 19.1595 6.46843 19.0339C6.69185 18.992 6.92922 18.9361 6.99904 18.9082C7.47379 18.7546 7.72513 18.8663 7.94855 19.3271ZM33.1803 28.4312C33.1803 28.501 33.0686 28.6825 32.929 28.8501C32.6916 29.1573 32.6218 29.1713 29.2706 29.1992C26.3383 29.2411 25.8496 29.269 25.8496 29.4505C25.8496 29.632 26.3103 29.66 29.0332 29.7019L32.2168 29.7298L31.9236 30.1487L31.6304 30.5676H17.8206H4.01089L3.71765 30.1487L3.42442 29.7298H11.8862C19.8732 29.7298 20.348 29.7158 20.3061 29.4784C20.2642 29.255 19.7196 29.2411 11.6069 29.2131C2.9776 29.1713 2.94967 29.1713 2.71229 28.878C2.57266 28.7105 2.46095 28.5289 2.46095 28.4591C2.46095 28.3893 8.95391 28.3335 17.8206 28.3335C26.2684 28.3335 33.1803 28.3753 33.1803 28.4312ZM18.9377 32.5923V34.0584H17.8206H16.7036V32.5923V31.1261H17.8206H18.9377V32.5923ZM21.9817 34.8683C22.2191 35.0498 22.4285 35.2593 22.4285 35.3291C22.4285 35.3989 20.5435 35.4548 17.7229 35.4548H13.0312L13.3524 35.1057C13.5339 34.9102 13.883 34.6868 14.1064 34.617C14.3438 34.5471 16.1171 34.5052 18.0301 34.5192C21.4371 34.5471 21.5349 34.5611 21.9817 34.8683Z" stroke="#EE3764" stroke-width="0.4" mask="url(#path-1-outside-1_567_2454)"/>
</g>
<path id="Vector_2" d="M24.5939 5.22237L24.5939 5.22237L24.594 5.22292C24.6284 5.45481 24.5148 5.63888 24.3395 5.71504C24.1663 5.79024 23.9485 5.75394 23.7821 5.58755C23.7124 5.51789 23.6624 5.42499 23.6375 5.33141C23.6131 5.23995 23.6096 5.13588 23.6485 5.04617C23.736 4.81734 23.972 4.76051 24.1649 4.80111C24.3587 4.84192 24.5579 4.98819 24.5939 5.22237Z" fill="#EE3764" stroke="#EE3764" stroke-width="0.2"/>
<path id="Vector_3" d="M17.0127 4.95318L17.0127 4.95322L17.0102 4.95208C16.6886 4.80154 16.4045 4.72284 16.2066 4.70996C16.1063 4.70344 16.039 4.71461 16.0011 4.73225C15.9834 4.7405 15.9755 4.74856 15.9719 4.75369C15.9688 4.75812 15.9658 4.76484 15.9658 4.77773C15.9658 4.79386 15.9718 4.82302 15.9919 4.86694C16.0114 4.90949 16.041 4.95945 16.0802 5.01516C16.1585 5.1265 16.2701 5.25357 16.3998 5.37982C16.661 5.63418 16.9815 5.87165 17.229 5.96935L17.229 5.96929L17.2322 5.97069C17.4947 6.08511 17.7803 6.15194 17.9968 6.16681C18.1062 6.17433 18.1901 6.16798 18.2425 6.15283C18.2628 6.14698 18.2734 6.14171 18.2787 6.13823C18.277 6.12297 18.2704 6.0982 18.2538 6.06272C18.2348 6.02178 18.2057 5.97334 18.167 5.91896C18.0897 5.8103 17.9793 5.68528 17.8504 5.55977C17.5911 5.30736 17.2694 5.0651 17.0127 4.95318ZM18.2832 6.13395C18.2829 6.13387 18.282 6.13466 18.281 6.13651C18.283 6.13494 18.2834 6.13402 18.2832 6.13395ZM15.3576 5.18589C15.2726 5.01944 15.2096 4.87403 15.1712 4.74768C15.133 4.6221 15.1169 4.50795 15.1335 4.40715C15.1508 4.30206 15.2029 4.21751 15.2873 4.15513C15.3681 4.09541 15.474 4.05934 15.5962 4.03709C16.1031 3.94168 16.7134 4.04888 17.2661 4.28243C17.819 4.51606 18.3289 4.88234 18.629 5.32136C18.7668 5.51927 18.8739 5.69606 18.9482 5.85285C19.0222 6.00892 19.0664 6.15079 19.0725 6.27745C19.0788 6.40711 19.0449 6.52208 18.9634 6.61458C18.8842 6.70447 18.7685 6.7634 18.6288 6.80117C18.0868 6.9496 17.4044 6.81424 16.7972 6.51511C16.1889 6.21542 15.6355 5.74135 15.3576 5.18589Z" fill="#EE3764" stroke="#EE3764" stroke-width="0.2"/>
<path id="Vector_4" d="M19.6993 9.6272L19.6993 9.62719L19.7002 9.62611C19.7531 9.56569 19.8138 9.50858 19.8704 9.46568C19.8986 9.44429 19.9276 9.42503 19.9555 9.41064C19.9805 9.39777 20.0163 9.38251 20.0547 9.38251C20.1399 9.38251 20.2163 9.4243 20.2761 9.47482C20.3373 9.52644 20.391 9.59513 20.433 9.6684C20.4751 9.74185 20.5078 9.82395 20.5239 9.90471C20.5397 9.98375 20.5414 10.0703 20.511 10.147C20.4788 10.2319 20.4056 10.2993 20.3283 10.344C20.2489 10.39 20.1515 10.4203 20.0547 10.4203C19.8452 10.4203 19.678 10.3138 19.6042 10.1524C19.5303 9.99071 19.5586 9.79268 19.6993 9.6272Z" fill="#EE3764" stroke="#EE3764" stroke-width="0.2"/>
<path id="Vector_5" d="M8.65168 16.252L8.65156 16.2518L8.65783 16.2486C8.75071 16.2022 8.84403 16.1747 8.93545 16.177C9.02881 16.1794 9.11347 16.2126 9.18611 16.2757C9.42004 16.4688 9.4379 16.7472 9.31839 16.9419C9.25921 17.0384 9.16603 17.1146 9.0505 17.1473C8.93391 17.1803 8.80197 17.1669 8.66993 17.0968C8.48689 17.0012 8.37632 16.8504 8.37392 16.6799C8.37153 16.5101 8.47685 16.3553 8.65168 16.252Z" fill="#EE3764" stroke="#EE3764" stroke-width="0.2"/>
<path id="Vector_6" d="M14.8743 21.0336C14.6839 21.0336 14.5319 20.9366 14.4499 20.7882C14.3692 20.642 14.36 20.4538 14.4318 20.2697C14.4951 20.0989 14.6363 20.0069 14.7961 20.0045C14.9508 20.0023 15.1105 20.0833 15.2304 20.2273C15.4881 20.5365 15.2896 21.0336 14.8743 21.0336Z" fill="#EE3764" stroke="#EE3764" stroke-width="0.2"/>
<path id="Vector_7" d="M20.5714 23.6566L20.5331 23.5642C20.7206 23.4864 20.8764 23.4382 20.9963 23.4262C21.1095 23.4149 21.2386 23.4334 21.2926 23.5525C21.3164 23.6049 21.3174 23.6631 21.3085 23.7183C21.2994 23.7743 21.2789 23.8357 21.25 23.9012C21.1922 24.0322 21.0945 24.1938 20.9604 24.3844C20.6998 24.7547 20.5892 25.0706 20.5997 25.2818C20.6049 25.3845 20.6379 25.4556 20.6887 25.5017C20.74 25.5484 20.8223 25.5813 20.9484 25.5813C21.131 25.5813 21.2579 25.5262 21.3677 25.3885C21.4846 25.2421 21.585 24.9984 21.6892 24.6098C21.7323 24.4235 21.79 24.2536 21.8471 24.1283C21.8755 24.0659 21.9054 24.0111 21.9352 23.9703C21.95 23.95 21.9672 23.9298 21.9869 23.9137C22.0039 23.8998 22.0336 23.8799 22.073 23.8779C22.1189 23.8737 22.1723 23.8767 22.2265 23.9117C22.2759 23.9436 22.3148 23.9954 22.3525 24.0599C22.4282 24.1891 22.5291 24.424 22.7021 24.8324C22.8145 25.0966 22.9755 25.2746 23.133 25.3571C23.2865 25.4375 23.4328 25.4276 23.5501 25.3263L23.5501 25.3263L23.5511 25.3255C23.6269 25.2618 23.6729 25.1947 23.6952 25.1254C23.7176 25.0563 23.7189 24.9775 23.6936 24.8858C23.6417 24.6982 23.4802 24.4659 23.1843 24.1906L23.1843 24.1906L23.1833 24.1897C23.0202 24.0337 22.8833 23.8828 22.7933 23.7616C22.7489 23.7017 22.7126 23.6448 22.6913 23.5955C22.6808 23.5713 22.6713 23.5429 22.6691 23.5135C22.6669 23.484 22.6716 23.4397 22.7069 23.4044C22.7301 23.3812 22.7601 23.3684 22.7805 23.361C22.8042 23.3523 22.8318 23.3449 22.8614 23.3385C22.9208 23.3256 22.9968 23.3147 23.0833 23.3058C23.2567 23.2879 23.4802 23.2773 23.7132 23.2773C24.0413 23.2773 24.2502 23.2631 24.3906 23.228C24.5241 23.1946 24.5877 23.1445 24.6344 23.0719L24.6347 23.0714C24.7207 22.9394 24.7291 22.8353 24.7027 22.7583C24.6755 22.679 24.6033 22.6046 24.481 22.5508C24.2349 22.4424 23.8244 22.4369 23.3885 22.6179L23.3878 22.6182C23.2756 22.6638 23.1837 22.699 23.1083 22.7231C23.0343 22.7469 22.969 22.7623 22.9124 22.7634C22.8521 22.7647 22.795 22.7498 22.7486 22.7074C22.7082 22.6706 22.6861 22.6216 22.6708 22.5769C22.6462 22.5222 22.6485 22.4604 22.6581 22.4076C22.6686 22.3497 22.6908 22.2868 22.72 22.2235C22.7783 22.0975 22.8705 21.9578 22.9799 21.8333C23.2207 21.525 23.3032 21.2989 23.2785 21.0266L23.2784 21.0262C23.265 20.8714 23.2356 20.7816 23.1975 20.7287C23.1635 20.6816 23.115 20.6533 23.0297 20.6419L23.0295 20.6419C22.9162 20.6266 22.8208 20.6401 22.739 20.6783C22.6569 20.7167 22.5814 20.7831 22.5134 20.8846C22.3752 21.0911 22.2761 21.4309 22.2208 21.9221C22.2059 22.0589 22.1715 22.1715 22.112 22.247C22.0813 22.2861 22.0422 22.3173 21.9945 22.3337C21.9464 22.3502 21.8968 22.3491 21.8501 22.3351C21.7608 22.3085 21.6813 22.2355 21.6142 22.1425C21.5453 22.0471 21.4811 21.9191 21.4265 21.7626L21.4263 21.7621C21.2626 21.2847 21.0219 20.9597 20.8011 20.8213C20.6919 20.7528 20.5962 20.7349 20.5187 20.753C20.4428 20.7707 20.3639 20.8277 20.2968 20.9526C20.2349 21.0717 20.2481 21.2615 20.3547 21.4881C20.4592 21.7102 20.6445 21.9463 20.8852 22.1402C21.037 22.2603 21.1503 22.368 21.216 22.4631C21.2488 22.5107 21.2746 22.5619 21.2827 22.6152C21.2914 22.6723 21.2791 22.7289 21.2413 22.7764C21.2064 22.8203 21.1562 22.8479 21.1041 22.8661C21.0511 22.8846 20.9878 22.8963 20.9166 22.9031C20.7743 22.9166 20.5857 22.9116 20.3531 22.8905C20.0316 22.8625 19.8263 22.8569 19.6808 22.8792C19.5428 22.9005 19.4625 22.9463 19.388 23.0265L19.3881 23.0266L19.3837 23.0309C19.3122 23.099 19.2635 23.1531 19.2328 23.1993C19.2027 23.2445 19.1935 23.2767 19.193 23.3023C19.1921 23.3564 19.2295 23.4299 19.3715 23.5719L19.3715 23.5719L19.3733 23.5738C19.487 23.6935 19.6181 23.7523 19.7956 23.7538C19.9795 23.7554 20.2159 23.6953 20.5332 23.5642L20.5714 23.6566ZM20.5714 23.6566C19.9291 23.9219 19.5661 23.9219 19.3008 23.6426M20.5714 23.6566C21.3115 23.3494 21.4092 23.5728 20.8786 24.3268C20.348 25.0809 20.3759 25.6813 20.9484 25.6813C21.3673 25.6813 21.5768 25.416 21.7862 24.634C21.87 24.271 22.0096 23.9778 22.0795 23.9778L19.3008 23.6426M19.3008 23.6426C19.0215 23.3634 19.0215 23.2377 19.3147 22.9584L19.3008 23.6426ZM21.4913 20.4417L21.4913 20.4417L21.4922 20.4424L21.7147 20.6544L22.064 20.3051C22.0641 20.305 22.0642 20.3049 22.0643 20.3048C22.4981 19.8639 23.0192 19.7535 23.4254 19.9329C23.8333 20.1131 24.0884 20.5691 24.0221 21.1815C24.008 21.3222 23.9991 21.4222 23.9995 21.4972C23.9999 21.5731 24.0102 21.6078 24.0219 21.6268C24.0317 21.6429 24.0502 21.6605 24.1031 21.6803C24.1578 21.7009 24.234 21.7185 24.3466 21.7432C24.6243 21.7902 24.8999 21.9647 25.1049 22.1789C25.309 22.3921 25.4609 22.6635 25.4609 22.9165C25.4609 23.0268 25.4018 23.1556 25.3275 23.275C25.2503 23.3991 25.1455 23.5305 25.032 23.6503C24.9185 23.7701 24.7938 23.881 24.6755 23.9629C24.6164 24.0038 24.5572 24.0387 24.5004 24.0636C24.4446 24.0881 24.3852 24.1057 24.3276 24.1057C24.2728 24.1057 24.2393 24.1066 24.2179 24.1094C24.2182 24.1119 24.2186 24.1147 24.2192 24.1178C24.2223 24.1365 24.2285 24.1613 24.2386 24.1944C24.2589 24.2608 24.2916 24.3499 24.3371 24.4724C24.3838 24.5896 24.4129 24.7432 24.4238 24.8939C24.4347 25.0442 24.4281 25.2014 24.3971 25.3266C24.3082 25.75 23.9243 26.0031 23.5141 26.0681C23.1019 26.1333 22.6304 26.0157 22.3376 25.6614C22.3062 25.6237 22.2868 25.6102 22.2748 25.6054C22.2675 25.6024 22.2556 25.5993 22.2267 25.6096C22.1944 25.6212 22.1492 25.6469 22.0832 25.6956C22.0183 25.7436 21.9388 25.8094 21.8381 25.8962C21.3831 26.3004 20.9028 26.4263 20.5233 26.2637C20.1424 26.1004 19.9129 25.6682 19.9129 25.0669C19.9129 24.9206 19.9102 24.8105 19.9018 24.7257C19.8933 24.6402 19.8797 24.5888 19.8627 24.5555C19.8353 24.5016 19.7901 24.4736 19.6286 24.4385L19.6286 24.4385L19.6274 24.4382C19.2581 24.353 18.987 24.2357 18.8096 24.0504C18.6286 23.8613 18.5584 23.6161 18.5584 23.3075C18.5584 23.0928 18.5796 22.9262 18.6439 22.7817C18.7088 22.6356 18.813 22.5224 18.959 22.4056C19.0713 22.3158 19.2044 22.2383 19.328 22.183C19.448 22.1292 19.5721 22.0905 19.6638 22.0905C19.7132 22.0905 19.7453 22.087 19.7655 22.0818C19.7704 22.0805 19.774 22.0793 19.7765 22.0784C19.7766 22.076 19.7765 22.0729 19.7762 22.0688C19.7747 22.0497 19.768 22.0204 19.7526 21.9768C19.6223 21.6928 19.5602 21.3902 19.5621 21.1216C19.5639 20.8549 19.6291 20.6066 19.7707 20.4483C19.9643 20.2306 20.2902 20.1321 20.6081 20.1321C20.9274 20.1321 21.2653 20.2312 21.4913 20.4417Z" fill="#EE3764" stroke="#EE3764" stroke-width="0.2"/>
<path id="Vector_8" d="M21.9678 23.418L21.9807 23.5172C21.8995 23.5278 21.828 23.5341 21.7678 23.5307C21.7073 23.5273 21.6462 23.5136 21.5961 23.4732C21.5449 23.4319 21.5199 23.3748 21.5069 23.3158C21.4941 23.2582 21.4908 23.1889 21.4908 23.1108C21.4908 23.0056 21.5148 22.9008 21.5538 22.8148C21.5908 22.7329 21.6499 22.6495 21.7329 22.614L21.7328 22.6138L21.7377 22.612C21.9123 22.5477 22.1178 22.6099 22.2631 22.7087C22.4043 22.8047 22.5394 22.9723 22.4985 23.1594C22.477 23.265 22.4009 23.3476 22.3112 23.4046C22.2199 23.4627 22.104 23.5018 21.9802 23.5172L21.9678 23.418ZM21.9678 23.418C22.1912 23.3901 22.3727 23.2784 22.4006 23.1387C22.4565 22.8874 22.0376 22.6081 21.7723 22.7059C21.6745 22.7478 21.5908 22.9293 21.5908 23.1108C21.5908 23.418 21.6466 23.4599 21.9678 23.418Z" fill="#EE3764" stroke="#EE3764" stroke-width="0.2"/>
<path id="Vector_9" d="M25.8888 8.19992L25.8888 8.1999L26.5058 8.08736L26.4825 7.99012C26.4828 7.99005 26.483 7.98999 26.4833 7.98992C27.0307 7.85878 27.6551 7.93277 28.2223 8.14927C28.7899 8.36594 29.3099 8.72897 29.6446 9.18735L29.6446 9.18733L29.6459 9.18921C29.7603 9.35369 29.8608 9.52582 29.9314 9.67245C29.9667 9.74565 29.9953 9.81422 30.0144 9.87343C30.0321 9.92836 30.0465 9.9893 30.04 10.0407L30.0403 10.0407L30.0387 10.0484C30.0028 10.2229 29.8326 10.3319 29.6452 10.3989C29.4495 10.4688 29.1954 10.5076 28.9233 10.5174C28.3808 10.537 27.7371 10.4419 27.2977 10.2148L27.2977 10.2149L27.297 10.2145C26.8826 9.99638 26.4565 9.59398 26.1692 9.21026C26.0255 9.01831 25.9121 8.82536 25.8531 8.65691C25.7975 8.49801 25.7761 8.31824 25.8888 8.19992ZM27.834 8.74237L27.8339 8.74238L27.8323 8.74189C27.5036 8.64604 27.2038 8.60314 26.9906 8.6097C26.8828 8.61302 26.8058 8.62879 26.7594 8.65025C26.7168 8.66999 26.7174 8.68445 26.7175 8.68745C26.7175 8.68758 26.7175 8.68769 26.7175 8.68778C26.7175 8.71604 26.7346 8.76843 26.7873 8.84475C26.8378 8.9179 26.913 9.00135 27.0081 9.08896C27.1981 9.26377 27.4589 9.44697 27.7373 9.58966C27.951 9.69296 28.33 9.76833 28.6617 9.79238C28.8268 9.80436 28.9728 9.80303 29.0745 9.78834C29.1153 9.78246 29.1443 9.77507 29.1631 9.76796C29.1587 9.75773 29.1523 9.74525 29.1433 9.7305C29.1207 9.69318 29.086 9.64765 29.0401 9.59581C28.9486 9.49241 28.8198 9.37221 28.675 9.25396C28.5304 9.13592 28.3721 9.02164 28.2226 8.92959C28.0715 8.83657 27.9354 8.77002 27.834 8.74237ZM29.1837 9.75794C29.1837 9.75794 29.1834 9.7581 29.183 9.75842L29.1837 9.75794Z" fill="#EE3764" stroke="#EE3764" stroke-width="0.2"/>
<path id="Vector_10" d="M4.44319 17.1717C4.44411 17.1677 4.44502 17.1613 4.44517 17.1518C4.44555 17.1257 4.43966 17.0878 4.42445 17.0378C4.3942 16.9384 4.33327 16.8111 4.24998 16.6734C4.08316 16.3976 3.83953 16.1013 3.61503 15.9296L3.67577 15.8501C3.14517 15.4452 2.32133 15.2218 2.32133 15.4731C2.32133 15.7803 2.72627 16.4366 3.08931 16.7298M4.44319 17.1717L3.61511 15.9296C3.36074 15.7355 3.0339 15.5839 2.773 15.5119C2.64122 15.4756 2.53541 15.4622 2.46774 15.4686C2.44248 15.471 2.4283 15.4756 2.42139 15.4788M4.44319 17.1717C4.43941 17.1724 4.43395 17.1732 4.4264 17.1738C4.40033 17.1756 4.36253 17.1733 4.31307 17.1652C4.2148 17.1492 4.08639 17.1129 3.94558 17.0617C3.66367 16.9592 3.34979 16.8032 3.15116 16.6512M4.44319 17.1717L3.15116 16.6512M3.08931 16.7298L3.15016 16.6505C3.15049 16.6507 3.15083 16.651 3.15116 16.6512M3.08931 16.7298L3.15215 16.652C3.15182 16.6518 3.15149 16.6515 3.15116 16.6512M3.08931 16.7298L3.15116 16.6512M3.15116 16.6512C2.98161 16.514 2.79706 16.2871 2.65443 16.0544C2.58338 15.9386 2.52423 15.8237 2.48315 15.7208C2.44264 15.6193 2.42263 15.5367 2.42139 15.4788M2.42139 15.4788C2.41894 15.4799 2.41741 15.4808 2.41662 15.4814C2.41655 15.4815 2.41652 15.4815 2.41652 15.4815C2.41651 15.4815 2.4182 15.4801 2.41977 15.477C2.42066 15.4752 2.42105 15.4739 2.42122 15.4731C2.42129 15.4728 2.42132 15.4726 2.42133 15.4725C2.42135 15.4725 2.42133 15.4726 2.42133 15.4731C2.42133 15.475 2.42135 15.4769 2.42139 15.4788ZM2.92119 17.493C2.94123 17.4845 2.95958 17.4766 2.97602 17.4694C2.95547 17.4435 2.92949 17.4123 2.89851 17.3765C2.7992 17.2618 2.6543 17.1065 2.488 16.9402L2.48798 16.9402L2.48633 16.9385C2.19105 16.6288 1.92328 16.2069 1.75185 15.8247C1.66609 15.6336 1.60273 15.4486 1.57288 15.2895C1.54458 15.1388 1.54149 14.9867 1.60581 14.8794C1.6288 14.8364 1.66685 14.8063 1.70232 14.7853C1.74048 14.7628 1.78549 14.7451 1.83254 14.7313C1.92679 14.7038 2.04112 14.6889 2.15377 14.6889C3.03817 14.6889 3.88385 15.1302 4.46478 15.7578C5.04485 16.3844 5.37456 17.2125 5.19761 17.9945C5.12225 18.3333 4.89257 18.6913 4.59189 18.9974C4.29033 19.3043 3.90862 19.568 3.51606 19.7136C3.16327 19.853 2.65286 19.9089 2.19085 19.8947C1.9584 19.8876 1.73412 19.8627 1.54387 19.8199C1.35779 19.7781 1.19156 19.7166 1.0854 19.6281C0.987758 19.5513 0.9029 19.4697 0.900072 19.3397C0.898786 19.2805 0.914872 19.22 0.939304 19.1569C0.963891 19.0934 1.0001 19.0195 1.04562 18.932C1.30986 18.4184 1.94491 17.8728 2.57852 17.628L2.57852 17.6279L2.57999 17.6274C2.71116 17.5791 2.83187 17.5308 2.92119 17.493ZM4.26521 18.2847C4.26939 18.2762 4.27214 18.2695 4.27391 18.2644C4.27041 18.2613 4.26496 18.2569 4.2567 18.2515C4.23278 18.2358 4.19606 18.2185 4.14637 18.2017C4.04788 18.1683 3.9134 18.1416 3.76575 18.1281C3.46812 18.1091 3.0744 18.2102 2.7077 18.3825C2.34104 18.5547 2.021 18.7888 1.86024 19.0191L1.75689 19.1844L2.48134 19.1296L2.48133 19.1295L2.48324 19.1294C2.85181 19.1086 3.09636 19.0776 3.29695 19.0151C3.49462 18.9535 3.65482 18.8597 3.85101 18.7041L3.85093 18.704L3.85503 18.7011C3.99541 18.6008 4.11097 18.4914 4.18683 18.3994C4.22499 18.3531 4.25085 18.314 4.26521 18.2847Z" fill="#EE3764" stroke="#EE3764" stroke-width="0.2"/>
</g>
</svg>
