<svg width="37" height="34" viewBox="0 0 37 34" fill="none" xmlns="http://www.w3.org/2000/svg">
<g id="Group 1000003240">
<path id="Vector" d="M18.964 0.138273C19.1031 0.114389 19.3335 0.110485 19.5593 0.119339C19.7864 0.128242 20.0218 0.150589 20.1717 0.183372L20.1726 0.18359C20.4809 0.254187 20.8199 0.439707 21.1137 0.673538C21.4075 0.907341 21.6663 1.19745 21.8073 1.48631C22.069 2.01452 22.1163 2.45838 21.9777 2.99888L21.9776 2.99928C21.8383 3.53349 21.4113 4.10888 20.8955 4.46047C20.7908 4.5323 20.7298 4.60341 20.7061 4.65589C20.6945 4.68137 20.6943 4.69659 20.6955 4.70331C20.6961 4.70672 20.6973 4.71097 20.7028 4.71642C20.704 4.71682 20.7054 4.71729 20.707 4.71781C20.7168 4.72097 20.7311 4.72491 20.7501 4.72952C20.7879 4.73868 20.8397 4.74933 20.9022 4.76075C21.027 4.78353 21.1906 4.80863 21.3634 4.83051C23.4963 5.08883 25.7943 6.01853 27.7223 7.39567L27.7224 7.39578C30.3155 9.25499 32.2983 12.1891 33.0501 15.285C33.2103 15.9393 33.2994 16.4918 33.3616 17.2161C33.3882 17.5213 33.4187 17.8348 33.4314 17.9201C33.4315 17.9203 33.4315 17.9205 33.4315 17.9207L33.4444 18.0002L34.7205 18.0209L34.7209 18.0209C35.1627 18.0298 35.5116 18.0408 35.7582 18.0536C35.8813 18.06 35.98 18.0668 36.0525 18.0742C36.0887 18.0779 36.1196 18.0818 36.1444 18.0861C36.1651 18.0896 36.1935 18.0953 36.216 18.1065L36.216 18.1065L36.2192 18.1082C36.3602 18.1851 36.4137 18.3436 36.4069 18.477C36.4002 18.609 36.3302 18.7631 36.17 18.8048L36.1696 18.8049C36.1586 18.8078 36.1467 18.8086 36.1434 18.8088L36.1429 18.8088C36.1367 18.8093 36.1291 18.8097 36.1206 18.81C36.1034 18.8108 36.0798 18.8115 36.0503 18.8121C35.9912 18.8135 35.9064 18.8149 35.7977 18.8162C35.5804 18.8188 35.2665 18.8214 34.8692 18.8239C34.0747 18.8289 32.9461 18.8336 31.5883 18.8378C28.8726 18.8463 25.2395 18.853 21.5267 18.8572C14.1018 18.8655 6.35611 18.8633 4.99315 18.8434L4.993 18.8434C4.8646 18.8413 4.74317 18.8394 4.62833 18.8376C3.64634 18.8221 3.14621 18.8142 2.89436 18.7807C2.82301 18.7712 2.76472 18.7589 2.71852 18.741C2.67126 18.7227 2.62943 18.6957 2.60142 18.6528C2.57403 18.6108 2.56841 18.5663 2.56706 18.5323C2.56637 18.5149 2.56696 18.4898 2.56748 18.4676C2.56778 18.4549 2.56806 18.4432 2.56806 18.4344C2.56806 18.372 2.56877 18.2888 2.61866 18.2199C2.67003 18.149 2.7557 18.1151 2.86104 18.0936C3.07202 18.0505 3.47057 18.0385 4.21084 18.0209L4.21097 18.0209C4.80585 18.0077 5.13705 17.9978 5.3257 17.9831C5.42089 17.9758 5.47307 17.9676 5.50256 17.9594C5.51079 17.9571 5.51599 17.9552 5.51909 17.9538C5.52161 17.9471 5.52485 17.9367 5.52852 17.9219C5.53586 17.8924 5.54343 17.8515 5.55063 17.8007C5.56496 17.6992 5.57688 17.5646 5.5834 17.4146L5.58339 17.4146L5.58346 17.4134C5.73045 14.7897 6.91402 11.9089 8.74979 9.71306C10.9643 7.05834 14.3912 5.18652 17.7332 4.81272C17.8793 4.79612 17.9876 4.78361 18.0689 4.77182C18.1519 4.75977 18.1989 4.74946 18.2261 4.73939C18.2321 4.73719 18.2361 4.73536 18.2388 4.734C18.2394 4.72847 18.2403 4.71638 18.2403 4.69136C18.2403 4.66296 18.236 4.64202 18.2045 4.60357C18.167 4.5579 18.0981 4.49679 17.9691 4.39446L17.969 4.3944C17.7942 4.25546 17.567 4.0384 17.4666 3.905C17.346 3.75401 17.2256 3.55101 17.1287 3.34761C17.0319 3.14456 16.9549 2.9334 16.9262 2.76618C16.8717 2.4621 16.9187 2.10975 17.0381 1.77547C17.1578 1.44045 17.3529 1.11596 17.6031 0.867985C17.7564 0.714796 18.0031 0.548326 18.2532 0.413744C18.5022 0.279743 18.7686 0.169758 18.964 0.138273ZM18.964 0.138273C18.9638 0.138308 18.9636 0.138342 18.9634 0.138376L18.9804 0.236921L18.9646 0.138186C18.9644 0.138214 18.9642 0.138245 18.964 0.138273ZM19.8738 1.04116L19.874 1.0412C20.2405 1.11703 20.5913 1.31092 20.7958 1.53578C21.0323 1.7967 21.1275 2.06704 21.1275 2.48381C21.1253 2.77172 21.0579 3.00734 20.9171 3.21273C20.7752 3.4198 20.5536 3.60354 20.2308 3.77782L20.2304 3.77807C20.1482 3.82299 20.0832 3.85872 20.0329 3.8895C19.983 3.92003 19.9414 3.94931 19.909 3.98286C19.8372 4.05715 19.8259 4.13842 19.8132 4.22904L19.8129 4.23166L19.8127 4.23308C19.7987 4.34509 19.7854 4.62358 19.7854 4.85029C19.7854 4.98934 19.7886 5.10439 19.803 5.19774C19.8175 5.29182 19.8448 5.37411 19.9007 5.4402C19.957 5.50689 20.0328 5.54569 20.1215 5.57196C20.2086 5.59778 20.3171 5.61398 20.4471 5.62941M19.8738 1.04116L20.4593 5.53016M19.8738 1.04116C19.1069 0.881035 18.2636 1.24294 17.9477 1.84613L17.9475 1.84644C17.9249 1.88922 17.9028 1.96977 17.8863 2.08047C17.8703 2.18817 17.8611 2.31485 17.8592 2.44298C17.8573 2.57111 17.8628 2.69862 17.8758 2.80796C17.8891 2.92006 17.9092 3.00353 17.9315 3.0498L17.9321 3.05104C17.9836 3.16178 18.0952 3.29916 18.2442 3.43482C18.3918 3.56913 18.5691 3.69529 18.7439 3.78585L19.079 3.95785L19.1298 3.98388L19.1332 4.04079L19.1641 4.5529L19.1641 4.55309C19.1817 4.85426 19.1849 5.0589 19.1625 5.2013C19.1511 5.27396 19.1324 5.33608 19.1017 5.38887C19.0707 5.44234 19.0304 5.48129 18.983 5.51176C18.953 5.53242 18.9121 5.54698 18.8738 5.55823C18.8311 5.57079 18.7785 5.58281 18.7188 5.59418C18.5992 5.61695 18.4451 5.63826 18.2713 5.65609C15.1051 6.00262 12.2882 7.31342 10.1776 9.42835L10.1068 9.35771L10.1776 9.42835C8.01325 11.5971 6.63829 14.6203 6.48953 17.5256L6.46807 17.9583L7.13477 17.9812L7.13529 17.9813C8.13479 18.0209 30.8414 18.0209 31.8409 17.9813L31.8414 17.9812L32.5061 17.9583M19.8738 1.04116L32.513 18.0581M20.4471 5.62941C20.4473 5.62943 20.4474 5.62945 20.4476 5.62946L20.4593 5.53016M20.4471 5.62941C20.447 5.62939 20.4468 5.62937 20.4467 5.62935L20.4593 5.53016M20.4471 5.62941C20.5697 5.64505 20.7424 5.66542 20.9073 5.68488C21.0216 5.69835 21.1321 5.71139 21.2198 5.72213L21.22 5.72216C23.452 5.98912 25.8938 7.03193 27.7697 8.52217L27.7699 8.5223C28.3554 8.98547 29.277 9.90711 29.7314 10.4794M20.4593 5.53016C20.5817 5.54578 20.7533 5.56602 20.9178 5.58542C21.0322 5.59891 21.1432 5.612 21.2319 5.62287C23.4834 5.89217 25.9424 6.94287 27.8319 8.44387C28.4235 8.91183 29.3506 9.83892 29.8097 10.4172M29.7314 10.4794C29.7313 10.4794 29.7313 10.4793 29.7312 10.4792L29.8097 10.4172M29.7314 10.4794L29.8097 10.4172M29.7314 10.4794C30.8703 11.9207 31.7115 13.6382 32.1451 15.3988M29.8097 10.4172C30.9575 11.8697 31.8051 13.6003 32.2422 15.375M32.2422 15.375L32.145 15.3984C32.145 15.3985 32.1451 15.3987 32.1451 15.3988M32.2422 15.375C32.3967 16.0151 32.5424 16.9731 32.5821 17.6088L32.6061 17.9549L32.5061 17.9583M32.2422 15.375L32.1451 15.3989C32.1451 15.3988 32.1451 15.3988 32.1451 15.3988M32.1451 15.3988C32.2982 16.0334 32.443 16.9854 32.4823 17.615L32.4824 17.6157L32.5061 17.9583M32.5061 17.9583L32.513 18.0581M32.513 18.0581L31.8449 18.0812L32.513 18.0581ZM5.52299 17.9517C5.52295 17.9517 5.52258 17.9519 5.52201 17.9524L5.52299 17.9517ZM18.2432 4.73132C18.2432 4.73133 18.2429 4.7315 18.2426 4.73184L18.2432 4.73132Z" fill="#EE3764" stroke="#EE3764" stroke-width="0.2"/>
<path id="Vector_2" d="M30.3265 16.0343C30.2632 16.1577 30.1642 16.2443 30.0405 16.2652C29.917 16.2861 29.7936 16.2373 29.6895 16.1413C29.6329 16.0906 29.5907 16.0174 29.5507 15.9172C29.5103 15.8158 29.4682 15.6762 29.4173 15.4836L29.4172 15.4833C28.9453 13.6743 28.072 12.1885 26.6352 10.7385C25.5889 9.68349 24.512 8.92114 22.8902 8.08609L22.89 8.08594C22.7144 7.99483 22.5397 7.89914 22.3996 7.81764C22.3296 7.77691 22.2676 7.73937 22.2181 7.70747C22.1709 7.67696 22.1289 7.64774 22.1039 7.62425L22.1723 7.5513L22.1048 7.6251C22.011 7.53936 21.955 7.42986 21.9483 7.31542C21.9415 7.19986 21.9858 7.08741 22.0774 7.00155L22.0782 7.00079C22.1141 6.96792 22.159 6.94034 22.2027 6.92083C22.2451 6.9019 22.2962 6.88621 22.3444 6.88621C22.3638 6.88621 22.384 6.89029 22.3993 6.89385C22.4165 6.89789 22.4363 6.90349 22.4576 6.91014C22.5003 6.92347 22.5534 6.94233 22.613 6.96509C22.7323 7.01067 22.8811 7.07335 23.0308 7.14259C26.5443 8.7506 29.4784 11.9725 30.2731 15.1246L30.1761 15.149M30.3265 16.0343C30.3516 15.9876 30.3726 15.9408 30.3852 15.8871C30.398 15.8327 30.4012 15.776 30.3962 15.7099C30.3865 15.5823 30.3452 15.4063 30.273 15.1242L30.1761 15.149M30.3265 16.0343C30.3267 16.0339 30.3268 16.0336 30.327 16.0333L30.2379 15.9878M30.3265 16.0343C30.3263 16.0346 30.3262 16.0349 30.326 16.0352L30.2379 15.9878M30.1761 15.149C29.3903 12.0322 26.481 8.83156 22.989 7.23344L30.2379 15.9878M30.1761 15.149C30.3218 15.7185 30.3307 15.8156 30.2379 15.9878" fill="#EE3764" stroke="#EE3764" stroke-width="0.2"/>
<path id="Vector_3" d="M14.8556 21.8515L14.8551 21.8515C13.4212 21.8802 12.5555 21.9144 11.8671 22.0108C11.1753 22.1077 10.6642 22.2672 9.93907 22.5422M14.8556 21.8515L9.97438 22.6358M14.8556 21.8515C15.7386 21.8383 17.1296 21.8206 17.9468 21.8162C18.7988 21.8118 19.257 21.8114 19.5453 21.8542C19.6928 21.8761 19.8018 21.91 19.8992 21.9631C19.9951 22.0153 20.0747 22.0835 20.1643 22.1642L20.1645 22.1643C20.4632 22.4351 20.6035 22.7077 20.6035 23.064C20.6035 23.267 20.5699 23.4483 20.4821 23.6109C20.3942 23.7738 20.2564 23.9095 20.0619 24.0289C19.6782 24.2643 19.0548 24.4468 18.0964 24.6495C17.7703 24.7197 17.5349 24.7717 17.367 24.8117M14.8556 21.8515L17.367 24.8117M9.93907 22.5422C9.93902 22.5422 9.93897 22.5422 9.93893 22.5423L9.97438 22.6358M9.93907 22.5422C9.93909 22.5422 9.93911 22.5422 9.93914 22.5422L9.97438 22.6358M9.93907 22.5422C9.82244 22.5861 9.67485 22.6419 9.51506 22.7023C9.20845 22.8182 8.85691 22.9511 8.5929 23.0498C8.39293 23.1245 8.19774 23.1936 8.04363 23.2444C7.9665 23.2698 7.90038 23.2905 7.84945 23.3049C7.82394 23.3121 7.80301 23.3176 7.78683 23.3213C7.78297 23.3221 7.77949 23.3229 7.7764 23.3235C7.77303 23.3242 7.7701 23.3248 7.7676 23.3252C7.76422 23.3258 7.76227 23.326 7.76149 23.3261M9.97438 22.6358C9.85795 22.6796 9.71045 22.7354 9.55067 22.7958C9.24396 22.9117 8.89204 23.0448 8.6279 23.1435C8.22616 23.2936 7.84208 23.4216 7.76703 23.426M7.76149 23.3261C7.76218 23.3261 7.76287 23.3261 7.76358 23.3261L7.76703 23.426M7.76149 23.3261C7.74574 23.3267 7.73462 23.3268 7.72662 23.3267C7.72584 23.3235 7.72498 23.3197 7.72406 23.3153C7.71885 23.2899 7.71408 23.2546 7.70736 23.2019L7.76703 23.426M7.76149 23.3261C7.76121 23.3262 7.76107 23.3262 7.76107 23.3262L7.76116 23.3262L7.76703 23.426M17.367 24.8117C17.5992 24.821 18.0701 24.8566 18.5043 24.8981M17.367 24.8117L18.5043 24.8981M18.5043 24.8981C18.5043 24.8981 18.5042 24.8981 18.5042 24.8981L18.4948 24.9976L18.5043 24.8981ZM19.6275 22.8152L19.6278 22.8158C19.6812 22.9036 19.7011 22.9847 19.6963 23.0542C19.6915 23.1225 19.6624 23.1871 19.6039 23.2439L19.6018 23.2458L19.6019 23.2459C19.536 23.3135 19.4304 23.3767 19.2372 23.4442C19.0442 23.5115 18.7735 23.58 18.3856 23.6637C17.044 23.9462 15.026 24.4327 14.5213 24.598L14.5211 24.5981C14.3189 24.6647 14.1608 24.7623 14.0866 24.8916C14.0479 24.959 14.0329 25.0342 14.0476 25.1115C14.0619 25.1868 14.1028 25.2559 14.1614 25.3175C14.1617 25.3178 14.162 25.3181 14.1623 25.3184L14.2346 25.2493L19.6275 22.8152ZM19.6275 22.8152C19.5936 22.7587 19.5325 22.7125 19.4022 22.6857C19.2689 22.6582 19.0762 22.654 18.798 22.6737M19.6275 22.8152L9.28127 29.4124C9.45345 29.2667 9.68301 29.1033 9.79779 29.0548M9.79779 29.0548L9.75743 28.9633C9.75766 28.9632 9.75789 28.9631 9.75813 28.963M9.79779 29.0548L9.75883 28.9627C9.7586 28.9628 9.75836 28.9629 9.75813 28.963M9.79779 29.0548C10.098 28.9223 10.9191 28.8738 12.248 28.9047C17.6913 29.0327 19.5808 29.0194 20.349 28.8649L9.75813 28.963M9.75813 28.963C9.69042 28.9917 9.59734 29.0498 9.50381 29.1151C9.40803 29.182 9.30515 29.2612 9.21668 29.336L9.21565 29.3369L9.21566 29.3369C9.12028 29.4198 9.04555 29.4785 8.99228 29.514M9.75813 28.963C9.92671 28.8888 10.2236 28.8434 10.6311 28.8186C11.044 28.7936 11.5846 28.7892 12.2503 28.8047L12.2503 28.8047C14.972 28.8687 16.8039 28.8974 18.0511 28.8907C19.3007 28.8841 19.9557 28.842 20.329 28.7669C20.5277 28.7259 20.8648 28.5846 21.4197 28.2961C21.9715 28.0092 22.7291 27.582 23.7641 26.9774L23.7643 26.9772C24.156 26.75 24.61 26.4853 25.0528 26.2273C25.6669 25.8693 26.2594 25.5239 26.634 25.3084C27.5859 24.7572 28.0973 24.4521 28.3764 24.235C28.5149 24.1272 28.5884 24.0469 28.6304 23.9754C28.6709 23.9065 28.6864 23.8386 28.6946 23.745C28.7013 23.6437 28.7006 23.5974 28.6937 23.5684C28.6892 23.5493 28.6819 23.5351 28.6481 23.5049L28.6477 23.5045C28.6289 23.4875 28.5931 23.4682 28.5346 23.4527C28.4775 23.4377 28.4057 23.4281 28.3221 23.4255C28.155 23.4203 27.9503 23.4432 27.7418 23.4964C27.5657 23.5416 26.5837 23.8716 25.4264 24.27C24.2722 24.6672 22.9516 25.1295 22.1047 25.436C21.5459 25.6384 20.985 25.8142 20.7796 25.8469L20.7796 25.8469C20.533 25.8861 20.1724 25.8955 19.578 25.8723C18.9821 25.8491 18.1449 25.7927 16.9418 25.6977L9.75813 28.963ZM8.99228 29.514C8.99543 29.5262 8.99837 29.5373 9.00109 29.5472C9.00643 29.5666 9.01055 29.5803 9.01348 29.5889C9.01484 29.5928 9.0155 29.5944 9.0155 29.5944L9.01547 29.5944L9.01547 29.5944C9.01536 29.5941 9.01449 29.5922 9.01285 29.5893C9.01175 29.5874 9.00726 29.5797 8.99881 29.5712C8.97755 29.55 8.95326 29.5469 8.94282 29.5469C8.93326 29.5469 8.92898 29.549 8.9328 29.5477C8.94007 29.5451 8.9565 29.5372 8.98407 29.5194C8.98675 29.5176 8.98948 29.5158 8.99228 29.514ZM8.99228 29.514C8.98321 29.4789 8.97241 29.4346 8.96003 29.3818C8.92671 29.2398 8.88281 29.0397 8.83195 28.8C8.73026 28.3208 8.60123 27.6853 8.47436 27.0432C8.34749 26.4012 8.22286 25.7529 8.12998 25.2483C8.08353 24.9959 8.04509 24.7798 8.01829 24.6185C8.00489 24.5378 7.99448 24.4713 7.98745 24.4211C7.98004 24.3682 7.9774 24.3399 7.9774 24.331C7.9774 24.3125 7.98012 24.3077 7.98431 24.3021C7.99221 24.2917 8.01289 24.2724 8.06857 24.2426C8.18032 24.1829 8.38734 24.1039 8.772 23.966L8.77244 23.9659C9.06452 23.8597 9.6655 23.6343 10.1029 23.4664L10.1034 23.4662C10.9014 23.1554 11.3131 23.0016 12.0481 22.9122C12.7901 22.8219 13.8586 22.7976 15.9672 22.7534C17.2894 22.727 18.5643 22.6916 18.798 22.6737M18.798 22.6737C18.7981 22.6737 18.7982 22.6737 18.7982 22.6737L18.7906 22.574M18.798 22.6737C18.7979 22.6737 18.7978 22.6737 18.7976 22.6737L18.7906 22.574M18.7906 22.574C19.3512 22.5342 19.6073 22.5872 19.7132 22.7638L10.0671 23.373C11.6652 22.7506 11.7535 22.7417 15.9651 22.6534C17.2896 22.6269 18.561 22.5916 18.7906 22.574ZM28.6695 25.1157C28.0163 25.56 25.4694 27.0588 22.328 28.8501C22.0431 29.0148 21.7188 29.1847 21.4333 29.323C21.1504 29.46 20.8986 29.5695 20.7615 29.6097C20.446 29.7048 19.9102 29.7574 18.8124 29.7794C17.7102 29.8015 16.0299 29.7927 13.4166 29.7596C13.4166 29.7596 13.4166 29.7596 13.4166 29.7596L10.229 29.7203L10.0139 29.8885L10.0138 29.8886C9.8465 30.0189 9.68486 30.16 9.55636 30.2852C9.42487 30.4134 9.33768 30.5159 9.30808 30.5712C9.28082 30.6245 9.26194 30.7115 9.25985 30.8334C9.2578 30.9537 9.2722 31.0998 9.30431 31.2647C9.32952 31.3897 9.34654 31.5073 9.32282 31.6111C9.29677 31.725 9.22578 31.8087 9.1106 31.8744C9.00049 31.9371 8.84381 31.9871 8.63264 32.0371C8.41968 32.0875 8.14202 32.1398 7.78465 32.2038L7.78454 32.2038C6.66573 32.4028 2.76967 32.9682 1.86645 33.0656L1.86645 33.0656L1.86612 33.0657C1.5725 33.0963 1.37676 33.109 1.24498 33.0931C1.17743 33.0849 1.11823 33.0684 1.06875 33.0368C1.01727 33.004 0.984459 32.9601 0.961707 32.9115L0.961682 32.9115L0.960722 32.9093C0.9538 32.8936 0.951593 32.877 0.95101 32.8726C0.950977 32.8723 0.950949 32.8721 0.950926 32.8719C0.949816 32.8639 0.948898 32.8545 0.948098 32.8447C0.946477 32.8248 0.944963 32.7982 0.94352 32.7661C0.940622 32.7014 0.937851 32.6105 0.935208 32.4973C0.929917 32.2708 0.925083 31.9529 0.920805 31.5729C0.912247 30.8127 0.9059 29.8027 0.902588 28.7753C0.895976 26.7239 0.901389 24.5936 0.926026 24.2532L0.926034 24.2531C0.937115 24.1024 0.949364 23.9619 0.961156 23.8569C0.967023 23.8046 0.972942 23.7596 0.97877 23.7261C0.981631 23.7097 0.984859 23.6936 0.988617 23.6801C0.990443 23.6735 0.993101 23.6649 0.996941 23.6561L0.99713 23.6557C0.999051 23.6513 1.00683 23.6333 1.02423 23.6173C1.04377 23.5992 1.06785 23.5894 1.07898 23.585C1.09546 23.5784 1.11508 23.5722 1.13644 23.5661C1.17945 23.5539 1.23708 23.5405 1.3069 23.5259C1.44697 23.4968 1.64251 23.462 1.88228 23.4233C2.36217 23.3458 3.02332 23.2518 3.78106 23.1546L3.78116 23.1546C4.26624 23.0929 5.14873 22.9738 5.7444 22.8899L5.74466 22.8899C6.46164 22.7909 6.85837 22.7381 7.09556 22.7279C7.21462 22.7228 7.3024 22.7278 7.37418 22.7471C7.44973 22.7674 7.50081 22.8016 7.54819 22.8412C7.54837 22.8414 7.54854 22.8415 7.54871 22.8417L28.6695 25.1157ZM7.72319 31.2777L7.72333 31.2777C7.99903 31.2421 8.1575 31.2155 8.24674 31.1872C8.28326 31.1756 8.30015 31.1661 8.30713 31.1611C8.30622 31.1081 8.2875 30.9643 8.25153 30.7407C8.21535 30.5158 8.16337 30.2194 8.10027 29.875C7.9741 29.1864 7.80384 28.3076 7.62759 27.4288C7.45135 26.5501 7.26922 25.6719 7.11935 24.9843C7.04439 24.6405 6.97761 24.3447 6.92371 24.1206C6.86941 23.8949 6.83012 23.7504 6.80968 23.6991C6.79542 23.6674 6.78377 23.6539 6.77736 23.6487C6.77468 23.6465 6.77308 23.6459 6.77215 23.6456C6.77114 23.6453 6.7684 23.6446 6.76271 23.645C6.70338 23.6489 6.51092 23.6797 6.32422 23.7137C6.23232 23.7304 6.14445 23.7474 6.0786 23.7616C6.06583 23.7643 6.05405 23.7669 6.04335 23.7693C6.04488 23.7814 6.0467 23.7949 6.04882 23.8097C6.05902 23.8812 6.07528 23.9778 6.09495 24.0827C6.23204 24.7857 7.44497 30.5944 7.53767 30.9919C7.53769 30.992 7.5377 30.9921 7.53772 30.9922L7.60941 31.2926L7.72319 31.2777ZM5.39999 25.2389L5.39997 25.2388C5.26946 24.6128 5.19511 24.2687 5.14367 24.0797C5.11925 23.99 5.10196 23.9431 5.08964 23.9191C5.08085 23.9195 5.07011 23.9201 5.05738 23.9211C5.02553 23.9233 4.98333 23.9271 4.93191 23.9322C4.82919 23.9424 4.69193 23.9577 4.53167 23.9768C4.21127 24.0148 3.80066 24.0673 3.39426 24.1217C2.98784 24.176 2.5861 24.2321 2.28342 24.2773C2.13197 24.2999 2.00592 24.3197 1.91666 24.3352C1.88803 24.3401 1.86361 24.3446 1.8436 24.3485C1.84343 24.3524 1.84326 24.3564 1.84309 24.3607C1.84094 24.4149 1.83878 24.4945 1.83665 24.5971C1.83238 24.8021 1.82825 25.0968 1.82439 25.4595C1.81666 26.1849 1.81004 27.1812 1.80563 28.2738L1.79275 32.1432L2.03784 32.1248C2.03789 32.1248 2.03793 32.1248 2.03797 32.1248C2.37563 32.0987 3.51558 31.9372 4.58984 31.7725C5.12593 31.6903 5.64379 31.6076 6.0343 31.5411C6.22965 31.5079 6.39254 31.4787 6.50971 31.4558C6.56842 31.4443 6.61472 31.4346 6.64754 31.4268C6.65787 31.4243 6.66641 31.4222 6.6733 31.4203C6.67334 31.4201 6.67338 31.4199 6.67341 31.4197C6.67333 31.4191 6.67323 31.4185 6.67313 31.4178C6.6721 31.4113 6.67046 31.4017 6.66815 31.3888C6.66355 31.3632 6.65664 31.3267 6.64752 31.2796C6.6293 31.1855 6.60249 31.0508 6.56822 30.8808C6.4997 30.5408 6.4015 30.0608 6.28287 29.485C6.0456 28.3334 5.72666 26.7994 5.39999 25.2389Z" fill="#EE3764" stroke="#EE3764" stroke-width="0.2"/>
<path id="Vector_4" d="M4.82899 30.0612L4.82899 30.0612L4.83007 30.0607C5.13783 29.9042 5.54546 30.0189 5.74 30.3107L5.74002 30.3107L5.74107 30.3123C5.80625 30.4143 5.83111 30.5513 5.82682 30.6791C5.82253 30.8073 5.78834 30.9439 5.71654 31.0461L5.71654 31.0461L5.71624 31.0465C5.64254 31.1503 5.52003 31.234 5.3955 31.2866C5.27222 31.3386 5.12852 31.3679 5.00642 31.3428C4.84576 31.3135 4.70099 31.2188 4.59692 31.0973C4.49268 30.9755 4.42222 30.8186 4.42222 30.6575C4.42222 30.5428 4.47616 30.4201 4.54728 30.3183C4.61952 30.2148 4.7192 30.1187 4.82899 30.0612Z" fill="#EE3764" stroke="#EE3764" stroke-width="0.2"/>
<path id="Vector_5" d="M2.78282 31.3096L2.70889 31.377C2.59598 31.253 2.51633 31.1437 2.49895 31.0213C2.48103 30.895 2.53227 30.7794 2.60905 30.6529L2.60903 30.6529L2.6103 30.6509C2.65031 30.5884 2.70481 30.5234 2.75975 30.4678C2.81389 30.4131 2.87404 30.362 2.92697 30.3313L2.92696 30.3313L2.92881 30.3303C3.05335 30.2616 3.181 30.2348 3.31113 30.2607C3.43914 30.2862 3.55735 30.3602 3.66949 30.47L3.66976 30.4703C3.83313 30.6314 3.93833 30.7902 3.94124 30.9608C3.9442 31.1349 3.84077 31.2854 3.67909 31.4286L3.6791 31.4286L3.67806 31.4295C3.52173 31.5642 3.35289 31.6375 3.17945 31.6286C3.00553 31.6197 2.84666 31.5292 2.70867 31.3767L2.78282 31.3096ZM2.78282 31.3096C3.03446 31.5878 3.32583 31.601 3.61279 31.3538M2.78282 31.3096C2.55767 31.0624 2.54443 30.952 2.69453 30.7048C2.76517 30.5944 2.89319 30.4664 2.97707 30.4179C3.19339 30.2987 3.39205 30.3384 3.59955 30.5415C3.91741 30.8549 3.92182 31.0801 3.61279 31.3538M3.61279 31.3538L3.61279 31.3538L3.61279 31.3538ZM3.21939 30.9009C3.21839 30.9007 3.21782 30.9006 3.21782 30.9006C3.21782 30.9005 3.21846 30.9006 3.21988 30.9006C3.22057 30.9006 3.22092 30.9005 3.22092 30.9005C3.22092 30.9005 3.22058 30.9005 3.21988 30.9008C3.21973 30.9008 3.21957 30.9009 3.21939 30.9009ZM3.21939 30.9009C3.21847 30.9013 3.21713 30.9019 3.21536 30.9029C3.21402 30.9037 3.20645 30.9085 3.19934 30.9183C3.19251 30.9276 3.1861 30.9416 3.1861 30.9609C3.1861 30.9744 3.19359 30.9802 3.19652 30.9819C3.19874 30.9832 3.2047 30.986 3.21458 30.9857C3.21629 30.9857 3.21806 30.9855 3.21988 30.9852C3.22941 30.9839 3.24014 30.9796 3.24911 30.9714C3.24942 30.971 3.24985 30.9702 3.25034 30.9693C3.25129 30.9674 3.25244 30.9645 3.25323 30.9609C3.25475 30.9538 3.25493 30.9437 3.24982 30.9309C3.24083 30.9084 3.22542 30.9025 3.21988 30.9011C3.21971 30.901 3.21955 30.901 3.21939 30.9009Z" fill="#EE3764" stroke="#EE3764" stroke-width="0.2"/>
</g>
</svg>
