<svg width="37" height="36" viewBox="0 0 37 36" fill="none" xmlns="http://www.w3.org/2000/svg">
<g id="Black">
<path id="Vector" d="M0 0.690434C0 1.25494 0.260542 1.81945 0.660039 2.14078C0.816364 2.27105 2.91807 3.51297 5.31505 4.90252C8.39813 6.68289 9.70952 7.48189 9.78769 7.63821C9.86585 7.80322 9.85716 8.18535 9.77032 9.36647C9.31871 14.916 9.37082 14.6294 8.32865 17.3564L7.61651 19.2236L7.60782 20.1355C7.59914 21.0387 7.60782 21.0648 8.37208 23.6268C9.06685 25.9369 9.17107 26.2148 9.3274 26.2148C9.61399 26.2062 13.9911 25.7111 14.0258 25.6764C14.0432 25.659 13.7653 24.3997 13.4092 22.8712C13.0358 21.2472 12.7318 19.71 12.6797 19.1802C12.5755 18.0686 12.6797 16.7572 12.975 15.6021C13.2182 14.6294 14.6946 11.2163 14.9551 10.9905C15.0767 10.8863 15.2504 10.8429 15.4154 10.8602C15.563 10.8776 17.3347 11.8416 19.3583 13.0141C22.6671 14.916 23.084 15.1331 23.5009 15.1679C24.0827 15.22 24.4562 15.1505 24.8296 14.916L25.1249 14.7423L24.8644 14.586C24.7254 14.4991 23.8309 13.9781 22.8756 13.4309C21.2776 12.5103 9.52714 5.72757 7.03463 4.28591C3.36099 2.15815 0.364759 0.438576 0.199749 0.343044C0.00868473 0.247511 0 0.247511 0 0.690434Z" fill="#EE3764"/>
<path id="Vector_2" d="M31.2824 3.49616L25.6894 6.72688L25.4375 7.20454C25.2899 7.45639 25.0728 7.77773 24.9425 7.91669C24.3433 8.54199 23.3185 8.95885 22.4326 8.92411C21.9463 8.90674 21.8768 8.9328 20.9041 9.4973L19.888 10.0879L20.1572 10.2529C20.3136 10.3484 21.7292 11.1735 23.3098 12.0767C24.8904 12.9886 26.2973 13.8136 26.4276 13.9091C26.5666 13.996 26.6881 14.0655 26.6968 14.0481C26.7142 14.0307 26.8705 12.5804 27.0442 10.8174C27.2092 9.06307 27.3916 7.55193 27.4437 7.46508C27.5479 7.26533 27.6869 7.17848 31.3518 5.0681C32.9064 4.17357 34.6086 3.19219 35.1384 2.88823C36.2587 2.23687 36.6756 1.86343 36.858 1.30761C37.0056 0.899426 37.049 0.239388 36.9361 0.256757C36.8927 0.256757 34.3568 1.71579 31.2824 3.49616Z" fill="#EE3764"/>
<path id="Vector_3" d="M13.5742 3.75647C13.2876 3.88674 13.027 4.10386 12.8707 4.32098C12.5928 4.7031 12.3757 5.43262 12.4539 5.69316C12.532 5.92765 15.1027 7.38668 15.3372 7.33458C15.4414 7.30852 15.6846 7.12614 15.8843 6.92639C16.3186 6.49216 16.5444 5.81475 16.4662 5.24156C16.388 4.74653 15.9799 4.12991 15.5369 3.83463C15.0158 3.48724 14.1995 3.4525 13.5742 3.75647Z" fill="#EE3764"/>
<path id="Vector_4" d="M21.6684 3.71103C20.3831 4.31027 20.0965 5.93432 21.0865 6.92438C21.7292 7.56705 22.5195 7.706 23.3272 7.33256C24.8644 6.61173 24.8644 4.41449 23.3185 3.71103C22.8669 3.50259 22.12 3.50259 21.6684 3.71103Z" fill="#EE3764"/>
<path id="Vector_5" d="M15.5109 12.9521C15.398 13.204 15.1895 13.673 15.0419 13.9943C14.8943 14.3156 14.7987 14.5762 14.8248 14.5762C14.9637 14.5762 17.0133 13.3343 16.9786 13.2735C16.9525 13.23 16.6572 13.039 16.3185 12.8479L15.7106 12.4918L15.5109 12.9521Z" fill="#EE3764"/>
<path id="Vector_6" d="M26.1323 15.6087C25.5591 16.1906 24.8644 16.5033 24.0393 16.5554C23.4488 16.5901 22.9103 16.5206 22.4587 16.3469C22.3545 16.3035 22.3197 16.3469 22.3197 16.4859C22.3197 16.5901 21.4339 18.5963 20.357 20.9325C18.62 24.6929 18.3856 25.2575 18.3508 25.7264C18.3161 26.1867 18.4377 26.7686 19.3669 30.4683C19.9401 32.7871 20.4525 34.828 20.5046 35.0017C20.687 35.7052 21.3992 35.9223 21.8334 35.4099C21.955 35.2623 22.0592 35.0972 22.0592 35.0451C22.0592 34.993 21.651 32.8913 21.1473 30.3641C20.6436 27.8455 20.2354 25.6917 20.2354 25.5962C20.2354 25.4485 22.9364 19.2216 23.0493 19.1087C23.0666 19.0913 23.3619 19.2129 23.7006 19.3692L24.3172 19.6558L23.2751 21.992C22.5976 23.5118 22.2329 24.4237 22.2329 24.6235C22.2329 25.2227 22.9016 25.6048 23.4227 25.3182C23.7006 25.1619 26.2973 21.4883 26.3929 21.1062C26.4363 20.9325 26.4884 19.5255 26.5058 17.9797C26.5231 16.4425 26.5318 15.1832 26.5318 15.1919C26.5318 15.2005 26.3494 15.3829 26.1323 15.6087Z" fill="#EE3764"/>
<path id="Vector_7" d="M4.73317 25.1197C4.44657 25.4063 4.44657 25.8058 4.73317 26.0837C4.9416 26.2921 4.96765 26.3008 6.33984 26.3008C7.63386 26.3008 7.73808 26.2921 7.69466 26.1445C7.6686 26.0663 7.57307 25.7623 7.48622 25.4757L7.3299 24.9546L6.14009 24.9286C4.96765 24.9025 4.9416 24.9112 4.73317 25.1197Z" fill="#EE3764"/>
<path id="Vector_8" d="M13.3571 27.1608C13.0879 27.1869 12.8447 27.239 12.8186 27.2564C12.7926 27.2824 12.6536 29.1496 12.4973 31.4077C12.2455 35.2289 12.2368 35.5155 12.367 35.724C12.6449 36.1408 13.3571 36.0714 13.5395 35.6111C13.609 35.4287 14.1648 27.9338 14.1561 27.2303C14.1561 27.1435 14.0953 27.0914 14.0085 27.0914C13.9216 27.1 13.6263 27.1348 13.3571 27.1608Z" fill="#EE3764"/>
</g>
</svg>
