<svg width="31" height="31" viewBox="0 0 31 31" fill="none" xmlns="http://www.w3.org/2000/svg">
<g id="Black">
<path id="Vector" d="M12.7991 0.211109C12.2935 0.472923 11.9053 0.942385 11.7067 1.54727C11.5532 1.99867 11.5261 2.02576 11.1018 2.13409C10.5059 2.28757 9.42256 2.72092 8.51975 3.17233C6.32592 4.27376 4.25849 6.2148 2.98552 8.36349C2.14591 9.7809 1.50491 11.5594 1.50491 12.4532C1.50491 12.9588 1.48686 12.9859 1.23407 13.0942C0.791694 13.2748 0.268064 13.9248 0.105558 14.4936C-0.165285 15.3964 0.141671 16.4707 0.881975 17.2833L1.33338 17.7798L1.23407 19.6576C1.17087 20.741 1.14379 23.4043 1.16185 25.9683L1.18893 30.4101L0.76461 30.4553C0.529879 30.4823 0.250008 30.5546 0.141671 30.6087C-0.0388913 30.708 -0.0388913 30.7261 0.0965303 30.8615C0.231952 31.006 1.38755 31.015 15.0742 30.9879C23.2265 30.9789 29.9525 30.9699 30.0157 30.9699C30.0789 30.9699 30.1691 30.8705 30.2323 30.7442C30.3136 30.5726 30.3046 30.4823 30.1782 30.2927C30.0518 30.0941 29.9615 30.067 29.5462 30.067H29.0587L29.0226 23.8106L28.9865 17.5631L29.2754 17.202C29.7809 16.561 29.9705 16.0825 30.0157 15.3422C30.0428 14.7915 30.0157 14.5748 29.8802 14.2588C29.6275 13.6991 29.2844 13.3199 28.8149 13.0942C28.4177 12.9046 28.4087 12.8866 28.4087 12.4713C28.4087 11.4421 27.5239 9.2663 26.4767 7.67735C24.8787 5.27588 22.098 3.19038 19.3354 2.31466C18.1166 1.92645 18.1166 1.92645 18.1166 1.70075C18.1166 1.59241 18.0354 1.33059 17.927 1.11392C17.7284 0.698626 17.2319 0.346531 16.6992 0.229164C16.3291 0.15694 15.7513 0.310417 15.4263 0.590288L15.1644 0.806963L14.9026 0.527092C14.379 -0.03265 13.5213 -0.159044 12.7991 0.211109ZM14.1262 0.960442C14.4332 1.13198 14.8665 1.73686 14.8665 1.97159C14.8665 2.0709 14.9297 2.19729 15.0019 2.26049C15.1554 2.38688 15.1374 2.41397 15.3179 1.69172C15.4714 1.09586 15.8235 0.815992 16.4013 0.815992C16.7353 0.815992 16.8978 0.870161 17.1145 1.05072C17.4305 1.31254 17.6291 1.86325 17.5388 2.21535C17.4756 2.45008 17.4666 2.45911 17.3492 2.2966C17.2228 2.14312 17.2228 2.16118 17.268 2.50425C17.3131 2.8112 17.286 2.9376 17.1235 3.1633L16.9159 3.4522L16.7985 3.19941C16.6902 2.9376 16.6902 2.9376 16.6812 3.35289C16.6721 3.68693 16.618 3.81332 16.4013 4.02097L16.1304 4.28278L16.1214 3.9668C16.1124 3.6779 16.1034 3.68693 16.0041 4.09319C15.8686 4.68905 15.3992 5.0592 15.4804 4.51751C15.5075 4.35501 15.4804 4.24667 15.4172 4.24667C15.3631 4.24667 15.3179 4.34598 15.3179 4.46334C15.3179 4.86961 15.2276 4.96892 14.8665 4.96892C14.4693 4.96892 13.6116 4.44529 13.1421 3.91263C12.7449 3.4522 12.4289 2.73898 12.4289 2.27854C12.4289 1.25837 13.3859 0.518064 14.1262 0.960442ZM19.1278 3.08205C20.5181 3.46123 22.3869 4.53557 23.7773 5.75436C24.9419 6.77454 26.2871 8.58919 26.9371 9.99757C27.1718 10.5302 27.9573 12.7241 27.9573 12.8685C27.9573 12.8866 27.8128 12.9137 27.6413 12.9317C27.3524 12.9678 27.3163 12.9407 27.2711 12.7421C27.1357 12.056 26.9281 11.3879 26.7204 10.9546C26.3412 10.1872 26.2058 10.2052 26.5669 10.9726C26.7385 11.3518 26.9551 11.9657 27.0364 12.3359L27.1808 13.013L26.91 13.2296C26.7656 13.347 26.6392 13.4283 26.6211 13.4102C26.603 13.4012 26.5128 13.0581 26.4225 12.6518C26.3232 12.2456 26.1787 11.8032 26.1065 11.6678C26.0072 11.5053 25.9801 11.4872 26.0072 11.6046C26.1968 12.3449 26.3322 12.9227 26.3773 13.2567L26.4405 13.6449L26.0975 13.4102C25.7634 13.1845 25.7454 13.1484 25.6009 12.2997C25.4565 11.4692 25.0954 10.3226 25.0051 10.4129C24.987 10.4399 25.0502 10.7379 25.1405 11.0809C25.3662 11.8393 25.5197 12.5796 25.5197 12.8685C25.5197 13.0491 25.4745 13.0942 25.303 13.0942C25.1134 13.0942 25.0863 13.0491 25.0322 12.4713C24.7974 9.91632 22.7029 7.05441 20.0125 5.61894C19.2722 5.22171 17.593 4.6078 17.2499 4.6078C16.9881 4.6078 16.9701 4.50849 17.2138 4.29181C17.3944 4.1293 17.4215 4.13833 18.1889 4.41821C18.6222 4.58071 19.4708 4.95989 20.0848 5.24879C20.6896 5.53769 21.2133 5.78145 21.2584 5.78145C21.4931 5.77242 19.4347 4.71613 18.3152 4.27376C17.9812 4.14736 17.6742 4.01194 17.6381 3.97583C17.5479 3.89458 17.6562 3.6147 17.7916 3.6147C17.8909 3.6147 19.3535 4.21056 20.3285 4.64391C20.6264 4.7703 20.7889 4.81544 20.6896 4.73419C20.4278 4.52654 19.2632 3.95777 18.5048 3.65984C18.0895 3.49734 17.8729 3.37094 17.9 3.29872C17.9361 3.20844 18.0263 3.20844 18.3514 3.30775C19.1819 3.55151 20.2653 4.04805 21.0869 4.55363C22.0077 5.11337 22.2696 5.17657 21.5744 4.66196C20.9876 4.22861 19.7597 3.59665 18.9292 3.30775C18.559 3.17233 18.1979 3.04593 18.1347 3.02788C17.9541 2.96468 18.1076 2.78412 18.2972 2.84731C18.3875 2.8744 18.7576 2.98274 19.1278 3.08205ZM11.7067 2.96468C11.7067 3.00079 11.4178 3.12719 11.0657 3.24455C10.2531 3.50637 8.79962 4.22861 8.24891 4.65294C8.00515 4.84253 7.83362 5.00503 7.85167 5.02309C7.86973 5.05017 8.27599 4.8335 8.73643 4.55363C9.56701 4.03902 10.9303 3.42511 11.5081 3.30775C12.0317 3.19038 11.8421 3.46123 11.2372 3.69596C10.5601 3.95777 9.38645 4.53557 9.13366 4.73419C9.03435 4.81544 9.19686 4.7703 9.49479 4.64391C10.849 4.04805 11.6706 3.71401 11.815 3.70498C11.9053 3.70498 12.0136 3.77721 12.0588 3.86749C12.131 4.01194 12.0949 4.04805 11.815 4.15639C10.8039 4.51751 8.49267 5.66408 8.58295 5.75436C8.61003 5.78145 8.94407 5.637 9.33228 5.43838C10.1268 5.02309 11.9956 4.24667 12.1852 4.24667C12.2574 4.24667 12.3748 4.3189 12.456 4.40918C12.6005 4.57168 12.5643 4.58974 11.7789 4.8335C10.0274 5.38421 8.6642 6.2148 7.44541 7.47873C5.9016 9.07671 5.01685 10.792 4.8724 12.4352C4.83629 12.8775 4.78212 13.0942 4.70086 13.0942C4.63767 13.0942 4.5203 13.1213 4.43002 13.1574C4.28557 13.2116 4.28557 13.1574 4.33974 12.6248C4.36682 12.3088 4.50225 11.6858 4.62864 11.2525C4.75503 10.8101 4.83629 10.4399 4.81823 10.4129C4.68281 10.2774 4.12306 12.3629 4.12306 12.9949C4.12306 13.3289 3.6536 13.7894 3.50915 13.6088C3.39179 13.4734 3.48207 12.8053 3.72583 11.9747C3.78903 11.731 3.83417 11.5143 3.81611 11.4962C3.76194 11.433 3.51818 12.1192 3.39179 12.6879C3.32859 12.9859 3.27442 13.2387 3.2654 13.2567C3.22025 13.3109 2.67857 12.9498 2.67857 12.8685C2.67857 12.5616 2.99455 11.5324 3.2654 10.9546C3.43693 10.5844 3.52721 10.3226 3.45499 10.3768C3.25637 10.5483 2.76885 11.6949 2.64246 12.2997C2.53412 12.8414 2.51606 12.8685 2.24522 12.8956C2.08271 12.9137 1.95632 12.9046 1.95632 12.8685C1.95632 12.7782 2.31744 11.6407 2.5612 10.9726C3.69874 7.84888 6.21759 5.11337 9.29617 3.65984C10.3976 3.13621 11.7067 2.75703 11.7067 2.96468ZM13.3769 5.75436C13.2053 7.15372 12.8984 8.20098 12.2484 9.52811C11.1379 11.8122 9.5941 13.4824 7.49055 14.6832C7.10234 14.8998 6.74122 15.0804 6.67802 15.0804C6.60579 15.0804 6.56065 14.963 6.56065 14.8005C6.56065 14.5748 6.68705 14.3852 7.17456 13.8616C7.70722 13.2928 8.44753 12.1553 8.34822 12.056C8.33016 12.0379 8.12252 12.2546 7.88778 12.5435C7.64403 12.8324 7.22873 13.2838 6.95789 13.5546L6.47037 14.0331L6.16342 13.7172L5.85646 13.4012L6.29884 12.8234C7.16554 11.7219 7.82459 10.2233 7.82459 9.41075C7.81556 9.12185 7.76139 9.21213 7.39124 10.1149C7.15651 10.6927 6.82247 11.3789 6.65996 11.6497C6.19953 12.4081 5.54048 13.1845 5.36894 13.1845C5.27866 13.1845 5.20644 13.1664 5.20644 13.1574C5.20644 13.031 5.91063 11.0448 6.10925 10.5934C6.93081 8.76975 8.57392 7.0815 10.4337 6.14257C11.2011 5.75436 11.6164 5.60991 12.4289 5.4113C13.4852 5.16754 13.4491 5.14948 13.3769 5.75436ZM17.3041 5.37518C18.9111 5.67311 20.8431 6.76551 22.0709 8.08361C23.1001 9.17602 23.7321 10.2865 24.346 12.065C24.7162 13.1303 24.7162 13.2657 24.3731 13.2748C24.2377 13.2748 23.5154 12.4622 23.0821 11.8303C22.6939 11.2525 22.1883 10.2684 21.9536 9.61839C21.7459 9.05865 21.6376 8.92323 21.6376 9.22116C21.6376 9.47394 21.8994 10.3136 22.1793 10.9636C22.4321 11.5685 23.1092 12.5796 23.5877 13.0942C23.9939 13.5276 23.9939 13.5366 23.8495 13.7623C23.7592 13.8887 23.6599 13.997 23.6238 13.997C23.5877 13.997 23.3258 13.8435 23.0279 13.654C22.5223 13.3199 22.0077 12.8234 21.4299 12.1011L21.1772 11.7851L21.2313 12.056C21.3667 12.6879 22.5855 14.0783 23.2446 14.3491C23.4883 14.4575 23.5245 14.5026 23.4703 14.7102C23.4432 14.8366 23.4071 14.963 23.389 14.9811C23.371 14.9991 23.0189 14.8276 22.5946 14.6019C20.5723 13.5276 18.8389 11.74 17.8006 9.66353C17.1777 8.41765 16.6721 6.62106 16.6721 5.62797C16.6721 5.29393 16.6992 5.23073 16.8346 5.27588C16.9159 5.29393 17.1326 5.33907 17.3041 5.37518ZM16.311 5.68214C16.311 6.68426 16.8978 8.851 17.4937 10.0427C18.1979 11.4511 19.4076 12.9588 20.5994 13.9067C21.3306 14.4936 22.8474 15.4144 23.1904 15.4867C23.3981 15.5408 23.4974 15.6492 23.7141 16.1096C23.8585 16.4166 24.1293 16.8409 24.3099 17.0575C24.6439 17.4458 24.6439 17.4548 24.5356 17.8701C24.2557 18.9173 23.3529 20.4973 22.3869 21.6438C21.8091 22.3209 21.6556 22.6459 21.8813 22.7272C22.1251 22.8175 22.4682 22.5557 22.9647 21.8966C23.5786 21.0751 24.2557 19.766 24.6259 18.6916C24.7884 18.2222 24.9328 17.8159 24.9419 17.7979C24.9599 17.7798 25.1315 17.8972 25.312 18.0687C25.5016 18.2402 25.7454 18.4388 25.8447 18.5111L26.0343 18.6465L25.9891 24.3071L25.944 29.9768H25.0592H24.1745L24.1113 29.4712C24.0571 29.0198 24.0932 26.8892 24.2106 23.4765L24.2467 22.2577L24.0752 22.9078C23.8224 23.9189 23.7141 25.1287 23.6509 27.6475L23.5967 29.9768H22.7661H21.9265L21.8904 27.2413C21.8723 25.7426 21.8182 24.4606 21.782 24.3974C21.5924 24.0904 21.5383 24.6231 21.4841 27.2051L21.4299 29.9768L17.6291 29.9948C15.5346 29.9948 13.7109 30.0129 13.5574 30.0309C13.413 30.04 12.2754 30.058 11.0296 30.067L8.77254 30.0851L8.71837 27.2864C8.68226 25.7426 8.62809 24.4425 8.59198 24.3793C8.39336 24.0634 8.33919 24.6231 8.29405 27.3044L8.24891 30.1573H7.41832H6.58774L6.53357 27.6475C6.4794 25.2551 6.35301 23.8647 6.09119 22.7543L5.97383 22.2577L5.93771 22.664C5.91966 22.8897 5.95577 23.8196 6.01897 24.7405C6.13633 26.4919 6.11828 29.9948 5.99188 30.1302C5.94674 30.1664 5.55853 30.2205 5.12519 30.2296L4.33071 30.2657L4.27654 24.6321C4.24043 21.5445 4.19529 18.9083 4.16821 18.7819C4.12306 18.5923 4.20432 18.493 4.67378 18.1229C4.97171 17.8791 5.23352 17.6985 5.24255 17.7166C5.25158 17.7347 5.35089 18.0506 5.46825 18.4208C5.76618 19.3778 6.27175 20.4341 6.92178 21.4362C7.5086 22.339 7.90584 22.7543 8.18571 22.7543C8.60101 22.7543 8.49267 22.4564 7.75236 21.5806C6.84052 20.5063 6.20856 19.4139 5.75715 18.1319L5.49534 17.4096L5.81132 16.9944C5.98285 16.7687 6.21759 16.3985 6.33495 16.1728C6.49746 15.8478 6.62385 15.7304 6.88567 15.6311C7.93293 15.2519 9.99133 13.7081 10.9393 12.5886C12.5011 10.7379 13.3949 8.6253 13.6477 6.11549C13.7019 5.59186 13.738 5.5106 13.8644 5.56477C14.6679 5.91687 15.3269 5.89881 15.9047 5.5106C16.2749 5.26685 16.311 5.27588 16.311 5.68214ZM5.44117 13.8616C6.01897 14.2408 6.1273 15.0082 5.70298 15.7756C5.37797 16.3804 4.46613 17.3735 3.99667 17.6534C3.78 17.7798 3.48207 17.8791 3.33762 17.8791C3.03969 17.8791 2.94941 17.7527 2.94941 17.3735C2.94941 17.2291 2.9133 17.1659 2.8501 17.211C2.79593 17.2381 2.77788 17.3645 2.80496 17.4819C2.84107 17.6173 2.82302 17.6985 2.75079 17.6985C2.54315 17.6985 2.31744 17.4006 2.31744 17.1207C2.31744 16.9673 2.2723 16.7777 2.22716 16.7055C2.16397 16.6061 2.13688 16.6603 2.13688 16.9041C2.13688 17.3013 2.09174 17.3194 1.80284 17.0485C1.63131 16.895 1.5952 16.7596 1.5952 16.3624C1.5952 15.8297 1.52297 15.7936 1.42366 16.2721L1.36047 16.561L1.16185 16.236C0.945172 15.8929 0.90906 15.586 1.05351 15.2248C1.13476 14.9901 1.02643 14.8818 0.936144 15.0985C0.90906 15.1616 0.881975 15.0894 0.881975 14.945C0.863919 14.3762 1.51394 13.7262 2.09174 13.7262C2.5612 13.7262 2.96747 14.0873 3.22928 14.7554C3.41887 15.2158 3.59944 15.2248 3.68972 14.7825C3.79805 14.2588 3.99667 13.9519 4.32168 13.7803C4.65572 13.6088 5.10713 13.6449 5.44117 13.8616ZM25.7002 13.7713C26.0704 13.9609 26.3141 14.313 26.3864 14.7734C26.4586 15.279 26.6572 15.2971 26.7836 14.8096C26.8378 14.6109 27.0364 14.2859 27.226 14.0873C27.5149 13.7894 27.6232 13.7262 27.9212 13.7262C28.1107 13.7262 28.4087 13.8074 28.5712 13.9067C28.8962 14.1054 29.2122 14.7012 29.2212 15.1165V15.3693L29.0406 15.1616L28.8601 14.945L28.9504 15.1978C29.0948 15.604 29.0587 15.9832 28.842 16.3353L28.6344 16.6603L28.5802 16.3172C28.4989 15.7846 28.4087 15.8117 28.4087 16.3714C28.4087 16.8048 28.3726 16.9131 28.1649 17.1117L27.9121 17.3374L27.885 16.9763C27.8489 16.4888 27.6864 16.5159 27.6864 17.0214C27.6864 17.3194 27.6322 17.4728 27.4878 17.6083C27.2079 17.8611 27.1447 17.834 27.1357 17.4458L27.1267 17.1117L27.0364 17.4909C26.9642 17.852 26.9281 17.8791 26.6572 17.8791C26.278 17.8791 25.8357 17.5541 25.0773 16.7506C23.8766 15.4596 23.7682 14.322 24.8065 13.7984C25.1856 13.5998 25.3662 13.5998 25.7002 13.7713ZM28.3816 19.0708C28.3455 19.6306 28.3184 22.339 28.3184 25.0835V30.0851L27.4878 30.0129C27.0274 29.9858 26.6392 29.9497 26.6392 29.9407C26.6301 29.9407 26.594 27.801 26.5669 25.1919C26.5308 22.5827 26.4857 20.0549 26.4586 19.5674L26.4044 18.6916H26.7656C27.1357 18.6916 27.7677 18.4569 28.0927 18.2041C28.192 18.1319 28.3094 18.0597 28.3545 18.0597C28.3996 18.0597 28.4087 18.484 28.3816 19.0708ZM3.39179 18.6916C3.81611 18.6916 3.86125 18.7097 3.80708 18.8451C3.78 18.9354 3.72583 21.5355 3.69874 24.6141L3.64458 30.2296L3.31956 30.2837C3.139 30.3108 2.75079 30.3379 2.45287 30.3379H1.91118V24.6682C1.91118 21.5535 1.8841 18.818 1.84798 18.5833L1.78479 18.159L2.34453 18.4298C2.75079 18.6194 3.03969 18.6916 3.39179 18.6916Z" fill="#EE3764"/>
<path id="Vector_2" d="M13.4672 1.23056C13.1963 1.5014 13.0338 1.80836 12.9706 2.17851C12.8803 2.63894 13.0067 2.71117 13.1331 2.27782C13.1963 2.08823 13.3769 1.77225 13.5484 1.5646C13.8373 1.23959 13.8734 1.08611 13.6838 1.08611C13.6477 1.08611 13.5484 1.14931 13.4672 1.23056Z" fill="#EE3764"/>
<path id="Vector_3" d="M21.141 5.20283C21.4841 5.47368 21.6917 5.52784 21.4299 5.29311C21.2945 5.16672 21.132 5.05838 21.0688 5.05838C21.0056 5.05838 21.0417 5.13061 21.141 5.20283Z" fill="#EE3764"/>
<path id="Vector_4" d="M23.9127 6.7649C24.3821 7.25241 24.9599 7.96563 25.2037 8.34481C25.6641 9.08512 25.8447 9.21151 25.5106 8.56149C25.2037 7.9566 24.5085 7.05379 23.8675 6.43086C22.9376 5.5461 22.9737 5.78083 23.9127 6.7649Z" fill="#EE3764"/>
<path id="Vector_5" d="M23.1724 6.66632C23.1724 6.70244 23.38 6.93717 23.6328 7.18093C23.8856 7.43371 24.3099 7.93026 24.5898 8.28235C24.8696 8.64348 25.1134 8.94141 25.1315 8.94141C25.1947 8.94141 24.8606 8.35458 24.5898 7.99346C24.2467 7.53302 23.3349 6.5941 23.2446 6.5941C23.2085 6.5941 23.1724 6.63021 23.1724 6.66632Z" fill="#EE3764"/>
<path id="Vector_6" d="M22.5495 6.97238C22.5495 7.03557 22.7932 7.28836 23.0911 7.52309C23.3891 7.76685 23.8766 8.27242 24.1745 8.6516C24.8787 9.54539 24.96 9.61761 24.6981 9.13009C24.328 8.44396 22.5314 6.63834 22.5495 6.97238Z" fill="#EE3764"/>
<path id="Vector_7" d="M8.39338 5.29358C8.23088 5.43803 8.20379 5.4922 8.32116 5.429C8.61006 5.29358 8.87187 5.06788 8.75451 5.05885C8.69131 5.05885 8.52881 5.16719 8.39338 5.29358Z" fill="#EE3764"/>
<path id="Vector_8" d="M5.95578 6.43161C5.31478 7.05455 4.61962 7.95736 4.31266 8.56225C3.97862 9.21227 4.15919 9.08588 4.62865 8.33654C4.86338 7.94834 5.4502 7.23512 5.91967 6.7476C6.85859 5.78159 6.88567 5.53783 5.95578 6.43161Z" fill="#EE3764"/>
<path id="Vector_9" d="M6.00996 7.1087C5.73009 7.3976 5.38702 7.79484 5.23354 7.99346C4.95367 8.36361 4.62866 8.94141 4.70088 8.94141C4.71894 8.94141 4.94464 8.67056 5.1884 8.3275C5.44119 7.99346 5.87454 7.49691 6.14538 7.22607C6.62387 6.7566 6.74123 6.5941 6.57873 6.5941C6.54262 6.5941 6.2808 6.82883 6.00996 7.1087Z" fill="#EE3764"/>
<path id="Vector_10" d="M6.26276 7.77611C5.75719 8.29071 5.25162 8.88657 5.13425 9.09421C5.01688 9.31089 4.94466 9.48242 4.96272 9.48242C4.9898 9.48242 5.17939 9.24769 5.38704 8.95879C5.59468 8.67892 6.11831 8.11015 6.54263 7.70389C6.96696 7.28859 7.29197 6.92747 7.25585 6.89136C7.21974 6.86427 6.77737 7.25248 6.26276 7.77611Z" fill="#EE3764"/>
<path id="Vector_11" d="M8.13156 23.3398C8.0503 23.5475 8.15864 23.7461 8.35726 23.7461C8.58296 23.7461 8.66422 23.6197 8.59199 23.385C8.52879 23.1773 8.20378 23.1412 8.13156 23.3398Z" fill="#EE3764"/>
<path id="Vector_12" d="M21.6466 23.3227C21.4931 23.5123 21.6195 23.7651 21.8543 23.7289C21.9897 23.7109 22.0438 23.6387 22.0438 23.4762C22.0438 23.2234 21.8091 23.1331 21.6466 23.3227Z" fill="#EE3764"/>
<path id="Vector_13" d="M1.91117 14.0871C1.87506 14.1413 2.01048 14.358 2.2091 14.5746C2.39869 14.7823 2.60633 15.0351 2.6605 15.1253C2.81398 15.4052 2.8862 15.2156 2.76884 14.8545C2.57022 14.2677 2.07368 13.8253 1.91117 14.0871Z" fill="#EE3764"/>
<path id="Vector_14" d="M27.569 14.2682C27.3162 14.5571 27.0905 15.144 27.1898 15.2433C27.2169 15.2794 27.2892 15.2342 27.3343 15.153C27.3885 15.0627 27.5871 14.8099 27.7857 14.5752C27.9753 14.3495 28.1197 14.1238 28.0927 14.0786C27.9933 13.9252 27.7947 13.9974 27.569 14.2682Z" fill="#EE3764"/>
</g>
</svg>
