<svg width="31" height="32" viewBox="0 0 31 32" fill="none" xmlns="http://www.w3.org/2000/svg">
<g id="Black">
<path id="Vector" d="M11.3946 0.186126C11.276 0.355597 11.259 0.923326 11.259 4.71101V9.04101L10.8438 9.09185C9.93715 9.20201 9.13216 9.79516 8.72543 10.6679C8.4119 11.3458 8.4119 12.2949 8.7339 12.9812C8.99658 13.5405 9.49652 14.0574 10.0558 14.3285C10.3862 14.498 10.5896 14.5319 11.259 14.5319C11.9454 14.5319 12.1233 14.498 12.4877 14.32C13.0046 14.0658 13.5469 13.5235 13.8096 12.9897C14.0129 12.583 14.0129 12.5491 14.0384 9.50706C14.0553 7.22766 14.0384 6.39725 13.9621 6.30405C13.8096 6.11763 13.4028 6.15999 13.2588 6.37183C13.1402 6.53283 13.1232 6.97346 13.1232 9.41385C13.1232 12.5491 13.1147 12.6253 12.6063 13.1253C12.0725 13.6676 11.4624 13.8201 10.7421 13.6083C9.35247 13.2015 8.92879 11.5068 9.95409 10.473C10.31 10.1256 10.6659 9.99852 11.3353 9.99852C11.759 9.99852 11.9623 9.96463 12.0555 9.86295C12.1742 9.74432 12.1911 9.22743 12.1911 5.41432C12.1911 1.96558 12.2165 1.10127 12.3013 1.10127C12.3945 1.10127 15.1399 1.83 18.631 2.79599C19.3089 2.97393 20.2749 3.24509 20.7833 3.38066C21.2833 3.52471 21.7154 3.65182 21.7324 3.66876C21.7493 3.68571 21.7663 6.1261 21.7663 9.09185C21.7747 13.8371 21.7832 14.498 21.9018 14.6166C22.0713 14.7776 22.3086 14.7776 22.478 14.6081C22.5967 14.4895 22.6136 13.8455 22.6136 8.77833C22.6136 4.11786 22.5967 3.05019 22.5035 2.97393C22.4357 2.92309 21.4951 2.64346 20.402 2.33841C13.1995 0.381019 11.7844 -0.000292778 11.6573 -0.000292778C11.581 -0.000292778 11.4624 0.0844431 11.3946 0.186126Z" fill="#EE3764"/>
<path id="Vector_2" d="M13.4367 2.34772C13.191 2.40703 13.1232 2.7375 13.1232 3.7967C13.1232 4.88979 13.2164 5.16942 13.5892 5.16942C13.9621 5.16942 14.0553 4.97452 14.0553 4.14411C14.0553 3.72891 14.0807 3.38997 14.1146 3.38997C14.1485 3.38997 15.089 3.64417 16.2075 3.94922C17.3345 4.26274 18.631 4.61864 19.097 4.74574L19.9444 4.97452L19.9698 8.20296L19.9868 11.4399H19.6478C18.8005 11.4399 17.7836 12.1347 17.36 12.999C17.1227 13.4989 17.038 14.4819 17.1905 14.9649C17.4447 15.7699 18.2327 16.5833 19.0123 16.8375C19.9783 17.1595 21.4781 16.7358 21.7832 16.0495C21.8594 15.8885 21.8509 15.8122 21.7238 15.6766C21.5628 15.4987 21.2154 15.4479 21.1307 15.5919C21.0036 15.7953 20.3511 16.041 19.902 16.0495C18.9699 16.0664 18.1904 15.4224 18.0463 14.5242C17.9192 13.6938 18.2497 12.9821 18.9445 12.5668C19.2835 12.372 19.436 12.3381 20.0207 12.3381C20.6562 12.3296 20.707 12.3126 20.8087 12.1177C20.8934 11.9567 20.9189 11.0331 20.9189 8.27922C20.9189 4.94063 20.8934 4.50848 20.7155 4.26274C20.6985 4.2458 13.9621 2.39009 13.7163 2.33924C13.6485 2.3223 13.5214 2.33077 13.4367 2.34772Z" fill="#EE3764"/>
<path id="Vector_3" d="M0.870417 12.881C0.472159 13.0844 0.209478 13.3979 0.0739011 13.8639C0.00611249 14.1012 -0.0108347 16.3806 0.00611249 22.0833L0.0315332 29.9637L0.251846 30.3026C0.548421 30.7433 1.15852 31.0568 1.45509 30.9212C1.57372 30.8704 1.69235 30.7433 1.71777 30.6501C1.76862 30.4467 1.56525 30.0823 1.40425 30.0823C1.33646 30.0823 1.20936 29.9976 1.10768 29.8874L0.921258 29.6926V21.8376C0.921258 14.0758 0.921258 13.9825 1.09073 13.8131C1.2602 13.6436 1.35341 13.6436 4.2429 13.6606L7.21712 13.686L7.39507 14.008C7.66622 14.4825 8.2509 15.1265 8.67458 15.4231C9.24231 15.8128 9.64904 15.7366 9.64904 15.2536C9.64904 15.0756 9.53041 14.9401 9.1491 14.635C8.67458 14.2707 8.03906 13.4741 8.03906 13.2538C8.03906 13.203 7.9628 13.0589 7.86111 12.9318L7.69164 12.7115H4.45474C1.37883 12.7115 1.20089 12.72 0.870417 12.881Z" fill="#EE3764"/>
<path id="Vector_4" d="M23.5203 12.8642C23.4101 12.9828 23.3762 13.1946 23.3762 13.7539C23.3762 15.0927 23.1135 15.8384 22.3933 16.5756C21.9611 17.0162 21.0629 17.5416 20.7325 17.5416C20.6477 17.5416 20.5799 17.567 20.5799 17.6094C20.5799 17.6433 20.1732 17.6433 19.6733 17.6178C18.7581 17.5585 18.5124 17.5839 18.5971 17.7195C18.6225 17.7619 18.5971 17.7958 18.5548 17.7958C18.487 17.7958 18.4615 19.4651 18.4615 23.2443C18.4615 28.4216 18.47 28.7097 18.6141 28.8368C18.809 29.0148 19.0039 29.0233 19.1733 28.8453C19.292 28.7267 19.3089 28.142 19.3089 23.651V18.5838L20.0546 18.533C20.8765 18.4737 21.6052 18.2618 22.2238 17.872C22.4526 17.7365 22.639 17.6348 22.656 17.6433C22.6644 17.6602 22.7746 17.8551 22.9017 18.0754C23.4525 19.0414 24.6642 19.3973 25.6726 18.8889C26.0115 18.7194 26.6131 18.0669 26.5708 17.9314C26.5538 17.8805 26.5877 17.7873 26.6555 17.728C26.7911 17.5839 26.7995 16.906 26.664 16.3722C26.4521 15.5333 25.3421 14.8046 24.5117 14.9656L24.1982 15.0249L24.249 14.6182C24.2829 14.3979 24.3083 14.0844 24.3083 13.9318V13.6437H27.0199C30.2483 13.6437 30.0703 13.5844 30.0703 14.6775C30.0703 15.2283 30.0958 15.3639 30.2398 15.5079C30.4601 15.7282 30.6211 15.7197 30.8414 15.4994C31.0024 15.3384 31.0194 15.2452 30.9855 14.5419C30.9601 13.8725 30.9177 13.7285 30.7143 13.4149C30.5703 13.2031 30.333 12.9913 30.1212 12.8811C29.7822 12.7201 29.6043 12.7116 26.7063 12.7116C23.8592 12.7116 23.6474 12.7201 23.5203 12.8642ZM25.1472 15.9401C25.3167 15.9909 25.52 16.1265 25.6132 16.2451C25.8081 16.5078 26.02 17.2704 25.9013 17.3043C25.859 17.3213 25.8081 17.4314 25.8081 17.5585C25.7997 17.6771 25.7658 17.7619 25.7403 17.7449C25.7065 17.728 25.6302 17.7704 25.5709 17.8466C24.9184 18.6347 23.5457 18.0924 23.5457 17.0501C23.5457 16.1688 24.2659 15.6689 25.1472 15.9401Z" fill="#EE3764"/>
<path id="Vector_5" d="M5.59864 15.0738C4.51402 15.4466 3.92087 16.5821 4.26828 17.6328C4.47165 18.2514 4.73433 18.5649 5.25969 18.853C6.09858 19.3106 7.08998 19.1496 7.7594 18.4548C8.81012 17.3617 8.29323 15.4721 6.81883 15.0399C6.28499 14.8789 6.14942 14.8874 5.59864 15.0738ZM6.8273 16.0144C7.60687 16.4804 7.61534 17.5142 6.85272 18.0311C6.16636 18.4971 5.1919 18.0141 5.09869 17.1752C4.98854 16.2093 6.02231 15.5144 6.8273 16.0144Z" fill="#EE3764"/>
<path id="Vector_6" d="M11.5132 15.3115C10.776 15.3538 10.6828 15.3962 10.6235 15.6843C10.5388 16.0487 10.7336 16.2266 11.2166 16.2266H11.5979V22.9801C11.5979 29.6318 11.5979 29.742 11.4285 29.9114C11.2675 30.0724 11.1488 30.0809 7.14932 30.0809C3.1498 30.0809 3.03117 30.0894 2.87017 30.2504C2.65833 30.4622 2.65833 30.5978 2.85322 30.8351L2.99727 31.0215L7.24253 30.9961L11.4793 30.9706L11.8267 30.7419C12.0301 30.6063 12.2419 30.369 12.3521 30.1487C12.53 29.7759 12.53 29.7335 12.53 22.6496C12.53 15.8623 12.5216 15.5233 12.3775 15.3962C12.2928 15.3115 12.1657 15.2606 12.0979 15.2691C12.0301 15.2776 11.7674 15.2945 11.5132 15.3115Z" fill="#EE3764"/>
<path id="Vector_7" d="M30.4093 16.6673C30.0704 16.7859 30.0704 16.7351 30.0704 23.3445V29.7166L29.8755 29.8946L29.6806 30.081H24.7235C20.4952 30.081 19.7411 30.064 19.597 29.9539C19.3682 29.7844 19.1056 29.8014 18.9276 29.9962C18.7158 30.2335 18.8344 30.5724 19.2242 30.7928C19.5123 30.9707 19.6309 30.9707 24.7405 30.9707H29.9517L30.2568 30.7673C30.4178 30.6572 30.6466 30.4284 30.7567 30.2674L30.9601 29.9623L30.9855 23.4546C31.0025 17.0317 31.0025 16.9469 30.833 16.7775C30.655 16.5995 30.6211 16.5911 30.4093 16.6673Z" fill="#EE3764"/>
<path id="Vector_8" d="M5.81895 20.514C4.48013 20.658 3.39551 21.3105 2.68373 22.4036C2.0228 23.4289 1.8279 24.8609 2.19227 26.0218C2.52274 27.1064 3.39551 28.0978 4.42929 28.5893C5.72575 29.2078 7.42893 29.0892 8.58134 28.3097C9.75917 27.5131 10.4964 26.1404 10.4964 24.7508C10.4879 22.2002 8.34408 20.2598 5.81895 20.514ZM6.86968 21.4461C9.09823 21.9121 10.2422 24.2678 9.22533 26.2675C8.58134 27.5301 7.0222 28.3266 5.69185 28.0554C4.2344 27.7673 3.18367 26.6827 2.92947 25.2168C2.64984 23.556 3.77682 21.8867 5.45459 21.4715C6.00537 21.3359 6.3189 21.3274 6.86968 21.4461Z" fill="#EE3764"/>
<path id="Vector_9" d="M5.62411 23.42C4.82759 23.7759 4.53102 24.8859 5.04791 25.5807C5.47158 26.14 6.2681 26.3433 6.88667 26.0552C7.85266 25.5977 7.97976 24.225 7.1324 23.581C6.77651 23.3098 6.03084 23.2251 5.62411 23.42ZM6.67483 24.3605C6.83583 24.5215 6.82736 24.9706 6.65788 25.1401C6.45452 25.3435 6.01389 25.318 5.819 25.0893C5.60716 24.8181 5.62411 24.6063 5.88679 24.3521C6.11558 24.1148 6.4291 24.1233 6.67483 24.3605Z" fill="#EE3764"/>
<path id="Vector_10" d="M23.3763 20.6932C21.4019 21.388 20.1733 23.3454 20.4868 25.3282C20.9444 28.3194 24.0965 29.8785 26.7911 28.4465C27.3589 28.1499 28.1977 27.2941 28.4943 26.7009C29.4942 24.7351 28.8417 22.3286 26.9775 21.1423C26.2403 20.6762 25.876 20.5661 24.8591 20.5322C24.0542 20.5068 23.8508 20.5237 23.3763 20.6932ZM25.3082 21.4389C26.3251 21.6253 27.2487 22.3371 27.7147 23.2861C27.9774 23.8199 27.9944 23.9047 27.9944 24.7436C27.9944 25.5316 27.9689 25.6926 27.7656 26.1163C27.2911 27.1246 26.342 27.8534 25.215 28.0567C23.8 28.3194 22.3171 27.5144 21.6561 26.1163C21.4104 25.5994 21.385 25.4723 21.385 24.7351C21.385 23.9725 21.4019 23.8962 21.707 23.2861C22.3933 21.888 23.8169 21.1508 25.3082 21.4389Z" fill="#EE3764"/>
<path id="Vector_11" d="M24.6049 23.2677C24.5625 23.2762 24.4185 23.3101 24.2829 23.3355C24.1558 23.3694 23.9016 23.5219 23.7236 23.6829C23.1051 24.2422 23.0712 25.0641 23.6304 25.7081C23.9694 26.0894 24.2998 26.2081 24.8422 26.1657C25.4099 26.1233 25.7997 25.8606 26.0115 25.3861C26.4182 24.4879 25.9607 23.5304 25.0201 23.3186C24.8422 23.2762 24.6557 23.2508 24.6049 23.2677ZM25.1387 24.3778C25.52 24.8862 24.9015 25.5556 24.4015 25.1912C24.0965 24.954 24.0711 24.632 24.3507 24.3523C24.5202 24.1829 24.6218 24.149 24.7998 24.1913C24.9269 24.2168 25.0794 24.3015 25.1387 24.3778Z" fill="#EE3764"/>
</g>
</svg>
