<svg width="31" height="31" viewBox="0 0 31 31" fill="none" xmlns="http://www.w3.org/2000/svg">
<path d="M5.88768 0.38826C5.3447 0.641649 5.21198 0.858839 4.86206 1.98099C4.39148 3.53752 3.48652 4.52694 1.60421 5.54049C-0.181579 6.49372 -0.266042 6.73504 0.337264 9.40165C1.39908 14.1557 3.57098 18.0531 6.35826 20.1405L7.15462 20.7317V22.5779V24.424H5.40503C3.69164 24.424 3.63131 24.436 3.35379 24.7256C3.08834 24.979 3.05214 25.1238 3.05214 25.896C3.05214 26.4028 3.12454 26.8613 3.209 26.9699C3.54685 27.4164 3.80024 27.4405 8.10784 27.4405H12.3431V27.7783C12.3431 28.8402 13.2239 30.095 14.3702 30.6621L15.0579 31H21.453C27.4619 31 27.8842 30.9879 28.4513 30.7707C29.2356 30.4691 30.1044 29.6365 30.4543 28.8522C30.7197 28.2731 30.7439 28.0679 30.7439 26.1012C30.7439 24.4964 30.7077 23.9051 30.575 23.6638C30.4302 23.3863 30.4302 23.2898 30.575 23.0122C30.7077 22.7588 30.7439 21.7936 30.7439 17.7997C30.7439 13.2628 30.7318 12.8526 30.5146 12.2975C30.213 11.5132 29.3804 10.6445 28.5961 10.2945C27.9928 10.017 27.8359 10.005 24.4936 9.96876C21.0065 9.92049 21.0065 9.92049 21.0789 9.6671C21.1151 9.53438 21.2358 8.88281 21.3444 8.2433C21.5495 7.10909 21.5495 7.06082 21.3082 6.61438C21.1151 6.24033 20.8738 6.05934 19.9326 5.57669C19.3052 5.26297 18.533 4.76826 18.2072 4.49074C17.447 3.83917 16.7472 2.76529 16.5662 1.94479C16.3611 1.10016 16.168 0.738178 15.7578 0.460657C15.444 0.243467 15.1062 0.2314 10.8951 0.195202C6.72024 0.17107 6.33412 0.183136 5.88768 0.38826ZM15.2389 1.25702C15.3716 1.32942 15.5164 1.63107 15.6009 2.00512C15.7698 2.72909 16.2163 3.65818 16.6627 4.24942L16.9764 4.65967L16.6748 5.21471C16.2042 6.1076 15.0579 7.19355 14.0444 7.68826C13.5617 7.92958 13.055 8.13471 12.9464 8.13471C12.8257 8.13471 12.4758 7.98991 12.15 7.79686C11.6553 7.5314 11.414 7.47107 10.7141 7.47107C10.0143 7.47107 9.7609 7.5314 9.24206 7.82099L8.62669 8.15884L8.01131 7.95372C6.72024 7.5314 5.36883 6.36099 4.72933 5.10611L4.50007 4.6476L4.98272 3.94777C5.28437 3.53752 5.59809 2.86181 5.77908 2.27057C5.94801 1.71553 6.14107 1.24496 6.22553 1.20876C6.51512 1.10016 15.0097 1.13636 15.2389 1.25702ZM4.30702 6.24033C4.95859 7.21768 5.80322 7.92958 6.99776 8.52082C7.75793 8.90694 7.98718 9.0638 7.93892 9.20859C7.72173 9.78777 7.61313 10.7169 7.6614 11.6942C7.75793 13.3714 8.32503 14.3005 9.60404 14.8314C10.1591 15.0607 11.2571 15.0607 11.8242 14.8314C12.0535 14.7349 12.2707 14.6504 12.2948 14.6504C12.3189 14.6504 12.3431 16.0139 12.3431 17.6669V20.6955L11.7759 20.9489C10.9313 21.323 10.3883 21.2747 9.19379 20.7197C7.76999 20.056 6.7685 19.3562 5.73082 18.2944C3.45032 15.9656 1.7852 12.3216 1.0009 7.97785C0.819909 7.00049 0.844041 6.96429 1.88173 6.46958C2.29197 6.27653 2.87115 5.95074 3.1728 5.74562C3.47445 5.54049 3.73991 5.40776 3.77611 5.45603C3.81231 5.50429 4.05363 5.85421 4.30702 6.24033ZM18.3882 5.79388C18.7502 6.0352 19.3173 6.36099 19.6431 6.50578C20.5601 6.91603 20.6204 7.02462 20.4394 7.98991C20.355 8.43636 20.2343 9.05173 20.1619 9.36545L20.0412 9.94463H18.0383C15.8784 9.94463 14.7442 10.0894 14.2012 10.4152L13.8513 10.6324L13.7186 10.017C13.6462 9.67917 13.5497 9.30512 13.5014 9.19653C13.429 9.0276 13.4893 8.9552 13.7427 8.85868C15.1665 8.32776 16.5059 7.26595 17.2419 6.0714C17.4832 5.68529 17.7004 5.3595 17.7125 5.3595C17.7366 5.3595 18.0383 5.55256 18.3882 5.79388ZM11.4622 8.50876C11.9207 8.67768 12.4637 9.19653 12.6568 9.6671C12.886 10.1859 12.874 11.6701 12.6447 12.1045C12.5482 12.2975 12.4396 12.6716 12.3913 12.9491C12.331 13.299 12.2103 13.5162 11.9931 13.6731C10.8951 14.4574 9.42305 14.1074 8.85594 12.925C8.51809 12.2131 8.49396 10.3669 8.83181 9.64297C9.31446 8.59322 10.4245 8.11057 11.4622 8.50876ZM27.9928 11.0909C28.7288 11.3081 29.4769 12.0683 29.6941 12.8164C29.7907 13.1421 29.8389 14.7107 29.8389 17.8841C29.8389 22.976 29.851 22.9036 29.0788 22.8312C28.753 22.795 28.6926 22.7347 28.6202 22.3848C28.4272 21.4557 27.7153 20.8886 26.6293 20.8283C25.9536 20.78 25.8571 20.7438 25.9295 20.5749C25.9657 20.4663 26.0381 19.9595 26.0743 19.4527C26.1346 18.3668 25.9295 17.5825 25.3383 16.6534C24.928 16.0018 23.7576 15.0727 23.2026 14.9521C22.9974 14.9038 22.8406 14.8314 22.8406 14.7831C22.8406 14.7228 23.0578 14.5297 23.3353 14.3488C23.6007 14.1557 23.8662 13.9144 23.9386 13.7937C24.1437 13.4076 24.0592 12.6957 23.7817 12.394C23.5283 12.1286 23.4559 12.1165 21.5133 12.1165C19.2207 12.1165 19.1363 12.1527 19.0156 13.0818C18.9432 13.5645 18.9673 13.6007 19.5827 14.1798C19.9326 14.5056 20.1981 14.7952 20.174 14.8073C20.1498 14.8193 19.812 14.9883 19.4259 15.1813C18.533 15.6278 17.628 16.6051 17.2781 17.5221C17.0006 18.2582 16.9161 19.5372 17.085 20.3456L17.1816 20.8041H16.6024C15.4802 20.8162 14.5873 21.4798 14.4305 22.4331C14.3702 22.8192 14.3219 22.8554 13.972 22.8554C13.7548 22.8554 13.5135 22.783 13.4411 22.6864C13.3325 22.5658 13.3083 21.1782 13.3325 17.5825L13.3687 12.6474L13.6945 12.1407C14.0685 11.5856 14.4184 11.3202 15.0941 11.0788C15.794 10.8255 27.1482 10.8375 27.9928 11.0909ZM23.0819 13.1663C23.0698 13.2869 22.732 13.6369 22.2976 13.9506L21.5374 14.5177L20.7411 13.9144C19.5707 13.0336 19.631 12.9612 21.5133 12.9612C22.925 12.9612 23.0819 12.9853 23.0819 13.1663ZM23.1422 15.9415C23.7576 16.2673 24.4816 16.9912 24.8074 17.6066C25.1452 18.2582 25.2297 19.7302 24.9763 20.3577C24.7953 20.7921 24.7591 20.8041 24.1799 20.8041C23.8421 20.8041 23.5645 20.7921 23.5645 20.7679C23.5645 20.7559 23.6731 20.5266 23.8059 20.2612C24.1075 19.6699 24.1075 18.8494 23.8179 18.1978C22.8164 15.9897 19.6189 16.3276 19.088 18.7046C18.9432 19.3321 19.0035 19.6699 19.4017 20.599C19.4862 20.7921 19.4259 20.8162 18.8467 20.78L18.2072 20.7438L18.0383 20.2008C17.7969 19.3924 17.9176 18.3064 18.3278 17.5463C18.7381 16.7861 19.5345 16.0621 20.2222 15.8088C20.9462 15.5433 22.5027 15.6157 23.1422 15.9415ZM22.6113 18.1375C23.0095 18.5357 23.0819 18.6805 23.0819 19.1269C23.0819 20.418 21.8874 21.1661 20.8014 20.5869C19.3293 19.8026 19.9326 17.6669 21.6219 17.6669C22.0683 17.6669 22.2131 17.7393 22.6113 18.1375ZM10.0384 22.0711C10.6659 22.2762 10.7262 22.2762 11.3657 22.0711C11.7397 21.9504 12.1138 21.8298 12.1983 21.8056C12.2948 21.7574 12.3431 21.9021 12.3431 22.2762C12.3431 22.5658 12.4275 22.9278 12.5361 23.0726C12.705 23.3139 12.705 23.3621 12.5361 23.6035C12.4275 23.7483 12.3431 24.0017 12.3431 24.1464V24.424H10.2315H8.11991V22.8674V21.2988L8.75941 21.5764C9.09727 21.7332 9.67644 21.9504 10.0384 22.0711ZM27.3533 22.0349C27.5102 22.1917 27.6791 22.4331 27.7274 22.5779L27.7997 22.8554H21.5857C15.3958 22.8554 15.3596 22.8554 15.3596 22.614C15.3596 22.4693 15.4923 22.2279 15.6612 22.0711L15.9508 21.7694H21.5012H27.0516L27.3533 22.0349ZM29.6459 24.0137C29.9234 24.2792 29.9234 27.5129 29.6459 28.3213C29.4166 29.0091 28.5961 29.7934 27.9204 29.9744C27.5826 30.0588 25.471 30.095 21.3082 30.0709L15.1786 30.0347L14.6356 29.7331C14.346 29.5641 13.9358 29.2021 13.7307 28.9126L13.3687 28.3817L13.3325 26.2701C13.3083 24.7739 13.3325 24.1102 13.4411 23.9896C13.5617 23.8448 14.7804 23.8207 21.5254 23.8207C28.572 23.8207 29.4769 23.8448 29.6459 24.0137ZM12.3431 25.9322V26.4752H8.18024H4.01743V25.9322V25.3893H8.18024H12.3431V25.9322Z" fill="#EE3764"/>
<path d="M10.123 9.93239C9.7248 10.3426 9.6886 10.4392 9.79719 10.6564C9.99025 11.0063 10.4246 10.9701 10.8107 10.5719C11.1607 10.2099 11.2331 9.84793 10.9917 9.6066C10.7625 9.37735 10.6177 9.42561 10.123 9.93239Z" fill="#EE3764"/>
<path d="M10.9072 11.6823C10.4366 12.1649 10.2798 12.3942 10.316 12.6114C10.3884 13.1543 10.8589 13.0578 11.5708 12.3459C12.2345 11.6943 12.3431 11.4409 12.0776 11.1755C11.8122 10.91 11.5588 11.0186 10.9072 11.6823Z" fill="#EE3764"/>
</svg>
