<svg width="35" height="35" viewBox="0 0 35 35" fill="none" xmlns="http://www.w3.org/2000/svg">
<g id="Black">
<g id="Vector">
<mask id="path-1-outside-1_567_2280" maskUnits="userSpaceOnUse" x="2.46356" y="0.0625" width="29" height="32" fill="black">
<rect fill="white" x="2.46356" y="0.0625" width="29" height="32"/>
<path d="M10.0997 0.681011C9.7094 0.990978 9.46832 1.54203 9.46832 2.15049V2.62118L8.79098 1.78312C7.89552 0.669531 7.68887 0.566208 7.00006 0.830256C6.19644 1.12874 5.86351 1.70276 5.81759 2.88523L5.77167 3.81513L5.33542 4.01029C5.01397 4.13658 4.8188 4.33174 4.63512 4.68763C4.09555 5.72085 4.40551 7.94803 5.28949 9.46343L5.56502 9.93412L5.03693 10.9214C3.96926 12.919 3.46413 14.9969 3.46413 17.3045C3.45265 18.9691 3.61337 20.0368 4.09555 21.5292C4.27923 22.1147 4.39403 22.6428 4.35959 22.7002C4.32515 22.7691 4.12999 22.815 3.9463 22.815C3.55597 22.815 3.39525 23.079 3.59041 23.389C3.6593 23.5038 3.67078 23.6416 3.60189 23.7449C3.46413 23.963 3.47561 24.7322 3.61337 25.0077C3.79706 25.3292 4.27923 25.5358 5.38134 25.7539L6.36864 25.9491L7.43631 27.0053C11.1789 30.7249 16.5746 32.0107 21.4767 30.3461C22.0507 30.1509 22.3147 30.1164 22.4525 30.1968C22.6936 30.3461 23.015 30.2198 23.015 29.9672C23.015 29.8294 23.3021 29.5998 23.8416 29.3013C26.0918 28.0385 28.0664 26.018 29.2488 23.7564C29.5703 23.1594 29.7425 22.9298 29.9147 22.9298C30.2017 22.9298 30.328 22.6198 30.1443 22.3328C30.041 22.1606 30.0525 21.9655 30.2476 21.357C30.9938 18.9461 31.0053 16.0072 30.2935 13.5389C30.0984 12.8616 30.041 12.5287 30.1328 12.4368C30.328 12.2417 30.2591 12.0235 29.9606 11.9087C29.7769 11.8398 29.5588 11.5528 29.3177 11.0821C28.1697 8.79757 26.1836 6.73112 23.9679 5.47977C23.4743 5.20424 22.9576 4.88279 22.8314 4.76799C22.6936 4.64171 22.5099 4.56135 22.4296 4.57283C22.3377 4.59579 21.9129 4.49246 21.4652 4.34322C20.2483 3.96437 19.1692 3.75773 17.9637 3.68884C17.0453 3.63144 16.7583 3.56256 16.1269 3.26407C15.4725 2.93115 15.2773 2.89671 14.3819 2.89671H13.3831L12.7632 2.15049C11.374 0.474367 10.7771 0.141438 10.0997 0.681011ZM11.6266 2.00124C12.7861 3.33296 13.9112 4.82539 16.8731 9.0157C19.2151 12.3335 19.7661 13.0568 19.9613 13.0338C20.5927 12.942 20.1565 12.1957 16.6779 7.33957C16.1154 6.55891 15.6906 5.8701 15.7365 5.80122C15.8514 5.61753 16.7239 5.25016 17.0683 5.25016C17.3093 5.25016 17.516 5.43385 18.1704 6.24895C19.2495 7.62658 21.8096 11.0821 22.5214 12.1383C23.6694 13.8719 25.7588 17.5915 25.6325 17.7063C25.6096 17.7292 25.1619 17.6259 24.6452 17.4652C24.1172 17.3159 23.2102 17.1323 22.6362 17.0634C21.3619 16.9026 19.1692 17.006 18.8133 17.2471C18.3081 17.58 16.7927 21.7932 16.4254 23.9171C16.2187 25.0536 16.1843 26.9249 16.345 27.4989C16.4368 27.7974 16.4254 27.8663 16.2761 27.8663C16.1843 27.8663 15.3692 27.5563 14.4737 27.189C11.994 26.1558 10.7656 25.8343 7.1493 25.2833C4.32515 24.847 4.07259 24.7437 4.32515 24.0893C4.60068 23.3431 5.80611 22.5739 7.16078 22.2869C8.18253 22.0688 10.4097 22.0803 11.7873 22.3099C12.9813 22.5165 13.2568 22.4821 13.2568 22.1606C13.2568 22.0458 12.2006 20.0482 10.9034 17.7292C9.60608 15.3987 8.54989 13.47 8.54989 13.4356C8.54989 13.2404 9.19279 12.5631 9.56016 12.3794C10.5589 11.8858 10.4212 11.7824 12.0055 14.2622C12.7861 15.4906 13.4979 16.5238 13.5897 16.5582C13.7849 16.6386 14.0604 16.4205 14.0604 16.1794C14.0604 16.0875 13.3831 14.9051 12.568 13.5504C11.7414 12.2072 11.0411 11.0362 11.0067 10.9559C10.9148 10.7148 13.119 9.42899 13.3027 9.62415C13.3257 9.64711 14.0604 10.7837 14.9214 12.1383C16.919 15.2495 16.8501 15.1806 17.206 14.8247C17.3667 14.6755 17.3667 14.6066 17.2175 14.3311C17.1257 14.1474 15.5988 11.7365 13.8193 8.96977C12.0399 6.20303 10.513 3.70033 10.4212 3.4248C10.2375 2.82782 10.226 1.77164 10.3867 1.45019C10.5934 1.05986 10.9148 1.2091 11.6266 2.00124ZM7.82664 1.82904C8.28585 2.33417 9.31907 3.72329 10.5934 5.57161L11.6381 7.08701L10.9837 7.41994C10.6278 7.60362 10.1227 7.91359 9.87013 8.12023C9.43388 8.46464 9.39943 8.47612 9.26167 8.26948C7.0345 5.15832 6.73601 4.65319 6.59825 3.90697C6.42604 2.90819 6.54085 2.18493 6.95414 1.78312C7.12634 1.59943 7.31002 1.46167 7.36743 1.46167C7.42483 1.46167 7.63147 1.63387 7.82664 1.82904ZM15.6103 3.88401C15.8628 3.98733 16.1958 4.1825 16.345 4.30878L16.6205 4.52691L16.2072 4.66467C15.9776 4.74503 15.6562 4.90575 15.4955 5.04352C15.3347 5.1698 15.1855 5.26164 15.1625 5.23868C15.1396 5.21572 14.887 4.85983 14.5885 4.44654C14.1178 3.80365 14.0834 3.70033 14.2556 3.63144C14.5311 3.52812 15.0477 3.61996 15.6103 3.88401ZM19.3643 4.61875C24.3008 5.47977 28.2615 9.11902 29.6392 14.0441C29.9377 15.1002 29.9606 15.3298 29.9606 17.3619C29.9606 19.3939 29.9377 19.6235 29.6392 20.6797C29.467 21.3111 29.0881 22.3213 28.7896 22.9183L28.2615 24.0204L28.1697 23.0676C27.9171 20.3927 26.5165 17.0749 23.7153 12.5975C22.6821 10.9444 19.1232 6.08822 17.8719 4.64171C17.7112 4.45802 17.7226 4.44654 18.0441 4.44654C18.2392 4.44654 18.8362 4.52691 19.3643 4.61875ZM8.25141 8.4302C9.23871 9.95708 10.0423 11.2314 10.0423 11.2658C10.0423 11.3003 9.80124 11.4266 9.50276 11.5643C9.19279 11.7021 8.75654 11.9891 8.52693 12.2302C8.26289 12.4713 8.05624 12.5975 7.99884 12.5401C7.68887 12.1843 5.72575 8.65981 5.47318 8.01691C5.09433 7.01813 5.03693 5.47977 5.38134 4.96316L5.59946 4.63023L6.03571 5.13536C6.2768 5.42237 7.27558 6.90332 8.25141 8.4302ZM12.6139 8.59093L12.7976 8.90089L12.0284 9.26826C11.6036 9.46343 11.0756 9.76191 10.8689 9.92264C10.6623 10.0834 10.4786 10.1867 10.4556 10.1752C10.4441 10.1522 10.2949 9.91116 10.1227 9.64711L9.81272 9.16494L10.3064 8.76313C10.5819 8.545 11.0756 8.23504 11.42 8.07431L12.0514 7.77583L12.2351 8.02839C12.3384 8.16615 12.5106 8.41872 12.6139 8.59093ZM7.34446 12.9764C9.35351 16.4894 12.1088 21.4718 12.0629 21.5292C12.0399 21.5522 11.6151 21.5177 11.133 21.4488C9.28463 21.1848 7.45927 21.3226 5.96683 21.8392C5.53058 21.9999 5.12877 22.0803 5.08285 22.0343C4.93361 21.8851 4.43995 19.9794 4.31367 19.0954C3.96926 16.6501 4.38255 14.09 5.47318 11.7595C5.73723 11.2084 5.97831 10.7607 6.01275 10.7607C6.04719 10.7607 6.65565 11.7595 7.34446 12.9764ZM24.0942 18.0966C25.3685 18.4295 26.1951 18.8313 26.3673 19.1987C26.4821 19.4398 26.4706 19.5087 26.2869 19.635C25.9999 19.8531 26.1492 20.2893 26.5165 20.2893C26.7461 20.2893 26.8265 20.3812 26.9643 20.8748C27.0676 21.1963 27.1709 21.6325 27.2168 21.8506L27.2857 22.241L26.7921 22.0573C26.0803 21.8047 24.8519 21.5866 23.635 21.4948C22.3607 21.3914 22.464 21.2881 21.9818 23.2972C21.5226 25.2373 21.3619 26.569 21.4422 27.8893C21.4767 28.5092 21.4652 29.0143 21.4193 29.0143C21.006 29.0143 19.1921 28.7273 18.4 28.5322C17.2634 28.2566 17.2405 28.2222 17.0338 26.9249C16.7583 25.134 17.5275 21.7014 18.9281 18.5443C19.1347 18.0851 19.2954 17.8785 19.4791 17.8326C19.6284 17.8096 20.5238 17.7981 21.4652 17.8211C22.751 17.844 23.4169 17.9129 24.0942 18.0966ZM25.6555 22.5395C26.0688 22.6313 26.6313 22.815 26.9069 22.9528L27.4005 23.1938L27.3546 23.8482C27.2627 25.1914 26.1492 26.7986 24.5878 27.8319C23.7383 28.4059 22.5214 28.8995 22.3607 28.7388C22.3147 28.6929 22.2459 28.0959 22.2344 27.4071C22.1885 26.1443 22.4181 24.5141 22.8773 22.8839L23.061 22.2065L23.9794 22.2869C24.496 22.3328 25.2422 22.4476 25.6555 22.5395ZM9.12391 26.3739C10.6393 26.6379 12.2121 27.0971 13.9456 27.8089C16.5746 28.8766 17.7226 29.221 20.2598 29.6802L20.7764 29.7835L19.858 30.0016C19.1232 30.1739 18.5377 30.2198 16.9879 30.2083C15.2429 30.1968 14.9214 30.1739 13.8882 29.8868C11.8907 29.3473 10.0538 28.3485 8.41213 26.9135C7.67739 26.282 7.58555 26.0984 8.06772 26.1902C8.23993 26.2246 8.71062 26.305 9.12391 26.3739Z"/>
</mask>
<path d="M10.0997 0.681011C9.7094 0.990978 9.46832 1.54203 9.46832 2.15049V2.62118L8.79098 1.78312C7.89552 0.669531 7.68887 0.566208 7.00006 0.830256C6.19644 1.12874 5.86351 1.70276 5.81759 2.88523L5.77167 3.81513L5.33542 4.01029C5.01397 4.13658 4.8188 4.33174 4.63512 4.68763C4.09555 5.72085 4.40551 7.94803 5.28949 9.46343L5.56502 9.93412L5.03693 10.9214C3.96926 12.919 3.46413 14.9969 3.46413 17.3045C3.45265 18.9691 3.61337 20.0368 4.09555 21.5292C4.27923 22.1147 4.39403 22.6428 4.35959 22.7002C4.32515 22.7691 4.12999 22.815 3.9463 22.815C3.55597 22.815 3.39525 23.079 3.59041 23.389C3.6593 23.5038 3.67078 23.6416 3.60189 23.7449C3.46413 23.963 3.47561 24.7322 3.61337 25.0077C3.79706 25.3292 4.27923 25.5358 5.38134 25.7539L6.36864 25.9491L7.43631 27.0053C11.1789 30.7249 16.5746 32.0107 21.4767 30.3461C22.0507 30.1509 22.3147 30.1164 22.4525 30.1968C22.6936 30.3461 23.015 30.2198 23.015 29.9672C23.015 29.8294 23.3021 29.5998 23.8416 29.3013C26.0918 28.0385 28.0664 26.018 29.2488 23.7564C29.5703 23.1594 29.7425 22.9298 29.9147 22.9298C30.2017 22.9298 30.328 22.6198 30.1443 22.3328C30.041 22.1606 30.0525 21.9655 30.2476 21.357C30.9938 18.9461 31.0053 16.0072 30.2935 13.5389C30.0984 12.8616 30.041 12.5287 30.1328 12.4368C30.328 12.2417 30.2591 12.0235 29.9606 11.9087C29.7769 11.8398 29.5588 11.5528 29.3177 11.0821C28.1697 8.79757 26.1836 6.73112 23.9679 5.47977C23.4743 5.20424 22.9576 4.88279 22.8314 4.76799C22.6936 4.64171 22.5099 4.56135 22.4296 4.57283C22.3377 4.59579 21.9129 4.49246 21.4652 4.34322C20.2483 3.96437 19.1692 3.75773 17.9637 3.68884C17.0453 3.63144 16.7583 3.56256 16.1269 3.26407C15.4725 2.93115 15.2773 2.89671 14.3819 2.89671H13.3831L12.7632 2.15049C11.374 0.474367 10.7771 0.141438 10.0997 0.681011ZM11.6266 2.00124C12.7861 3.33296 13.9112 4.82539 16.8731 9.0157C19.2151 12.3335 19.7661 13.0568 19.9613 13.0338C20.5927 12.942 20.1565 12.1957 16.6779 7.33957C16.1154 6.55891 15.6906 5.8701 15.7365 5.80122C15.8514 5.61753 16.7239 5.25016 17.0683 5.25016C17.3093 5.25016 17.516 5.43385 18.1704 6.24895C19.2495 7.62658 21.8096 11.0821 22.5214 12.1383C23.6694 13.8719 25.7588 17.5915 25.6325 17.7063C25.6096 17.7292 25.1619 17.6259 24.6452 17.4652C24.1172 17.3159 23.2102 17.1323 22.6362 17.0634C21.3619 16.9026 19.1692 17.006 18.8133 17.2471C18.3081 17.58 16.7927 21.7932 16.4254 23.9171C16.2187 25.0536 16.1843 26.9249 16.345 27.4989C16.4368 27.7974 16.4254 27.8663 16.2761 27.8663C16.1843 27.8663 15.3692 27.5563 14.4737 27.189C11.994 26.1558 10.7656 25.8343 7.1493 25.2833C4.32515 24.847 4.07259 24.7437 4.32515 24.0893C4.60068 23.3431 5.80611 22.5739 7.16078 22.2869C8.18253 22.0688 10.4097 22.0803 11.7873 22.3099C12.9813 22.5165 13.2568 22.4821 13.2568 22.1606C13.2568 22.0458 12.2006 20.0482 10.9034 17.7292C9.60608 15.3987 8.54989 13.47 8.54989 13.4356C8.54989 13.2404 9.19279 12.5631 9.56016 12.3794C10.5589 11.8858 10.4212 11.7824 12.0055 14.2622C12.7861 15.4906 13.4979 16.5238 13.5897 16.5582C13.7849 16.6386 14.0604 16.4205 14.0604 16.1794C14.0604 16.0875 13.3831 14.9051 12.568 13.5504C11.7414 12.2072 11.0411 11.0362 11.0067 10.9559C10.9148 10.7148 13.119 9.42899 13.3027 9.62415C13.3257 9.64711 14.0604 10.7837 14.9214 12.1383C16.919 15.2495 16.8501 15.1806 17.206 14.8247C17.3667 14.6755 17.3667 14.6066 17.2175 14.3311C17.1257 14.1474 15.5988 11.7365 13.8193 8.96977C12.0399 6.20303 10.513 3.70033 10.4212 3.4248C10.2375 2.82782 10.226 1.77164 10.3867 1.45019C10.5934 1.05986 10.9148 1.2091 11.6266 2.00124ZM7.82664 1.82904C8.28585 2.33417 9.31907 3.72329 10.5934 5.57161L11.6381 7.08701L10.9837 7.41994C10.6278 7.60362 10.1227 7.91359 9.87013 8.12023C9.43388 8.46464 9.39943 8.47612 9.26167 8.26948C7.0345 5.15832 6.73601 4.65319 6.59825 3.90697C6.42604 2.90819 6.54085 2.18493 6.95414 1.78312C7.12634 1.59943 7.31002 1.46167 7.36743 1.46167C7.42483 1.46167 7.63147 1.63387 7.82664 1.82904ZM15.6103 3.88401C15.8628 3.98733 16.1958 4.1825 16.345 4.30878L16.6205 4.52691L16.2072 4.66467C15.9776 4.74503 15.6562 4.90575 15.4955 5.04352C15.3347 5.1698 15.1855 5.26164 15.1625 5.23868C15.1396 5.21572 14.887 4.85983 14.5885 4.44654C14.1178 3.80365 14.0834 3.70033 14.2556 3.63144C14.5311 3.52812 15.0477 3.61996 15.6103 3.88401ZM19.3643 4.61875C24.3008 5.47977 28.2615 9.11902 29.6392 14.0441C29.9377 15.1002 29.9606 15.3298 29.9606 17.3619C29.9606 19.3939 29.9377 19.6235 29.6392 20.6797C29.467 21.3111 29.0881 22.3213 28.7896 22.9183L28.2615 24.0204L28.1697 23.0676C27.9171 20.3927 26.5165 17.0749 23.7153 12.5975C22.6821 10.9444 19.1232 6.08822 17.8719 4.64171C17.7112 4.45802 17.7226 4.44654 18.0441 4.44654C18.2392 4.44654 18.8362 4.52691 19.3643 4.61875ZM8.25141 8.4302C9.23871 9.95708 10.0423 11.2314 10.0423 11.2658C10.0423 11.3003 9.80124 11.4266 9.50276 11.5643C9.19279 11.7021 8.75654 11.9891 8.52693 12.2302C8.26289 12.4713 8.05624 12.5975 7.99884 12.5401C7.68887 12.1843 5.72575 8.65981 5.47318 8.01691C5.09433 7.01813 5.03693 5.47977 5.38134 4.96316L5.59946 4.63023L6.03571 5.13536C6.2768 5.42237 7.27558 6.90332 8.25141 8.4302ZM12.6139 8.59093L12.7976 8.90089L12.0284 9.26826C11.6036 9.46343 11.0756 9.76191 10.8689 9.92264C10.6623 10.0834 10.4786 10.1867 10.4556 10.1752C10.4441 10.1522 10.2949 9.91116 10.1227 9.64711L9.81272 9.16494L10.3064 8.76313C10.5819 8.545 11.0756 8.23504 11.42 8.07431L12.0514 7.77583L12.2351 8.02839C12.3384 8.16615 12.5106 8.41872 12.6139 8.59093ZM7.34446 12.9764C9.35351 16.4894 12.1088 21.4718 12.0629 21.5292C12.0399 21.5522 11.6151 21.5177 11.133 21.4488C9.28463 21.1848 7.45927 21.3226 5.96683 21.8392C5.53058 21.9999 5.12877 22.0803 5.08285 22.0343C4.93361 21.8851 4.43995 19.9794 4.31367 19.0954C3.96926 16.6501 4.38255 14.09 5.47318 11.7595C5.73723 11.2084 5.97831 10.7607 6.01275 10.7607C6.04719 10.7607 6.65565 11.7595 7.34446 12.9764ZM24.0942 18.0966C25.3685 18.4295 26.1951 18.8313 26.3673 19.1987C26.4821 19.4398 26.4706 19.5087 26.2869 19.635C25.9999 19.8531 26.1492 20.2893 26.5165 20.2893C26.7461 20.2893 26.8265 20.3812 26.9643 20.8748C27.0676 21.1963 27.1709 21.6325 27.2168 21.8506L27.2857 22.241L26.7921 22.0573C26.0803 21.8047 24.8519 21.5866 23.635 21.4948C22.3607 21.3914 22.464 21.2881 21.9818 23.2972C21.5226 25.2373 21.3619 26.569 21.4422 27.8893C21.4767 28.5092 21.4652 29.0143 21.4193 29.0143C21.006 29.0143 19.1921 28.7273 18.4 28.5322C17.2634 28.2566 17.2405 28.2222 17.0338 26.9249C16.7583 25.134 17.5275 21.7014 18.9281 18.5443C19.1347 18.0851 19.2954 17.8785 19.4791 17.8326C19.6284 17.8096 20.5238 17.7981 21.4652 17.8211C22.751 17.844 23.4169 17.9129 24.0942 18.0966ZM25.6555 22.5395C26.0688 22.6313 26.6313 22.815 26.9069 22.9528L27.4005 23.1938L27.3546 23.8482C27.2627 25.1914 26.1492 26.7986 24.5878 27.8319C23.7383 28.4059 22.5214 28.8995 22.3607 28.7388C22.3147 28.6929 22.2459 28.0959 22.2344 27.4071C22.1885 26.1443 22.4181 24.5141 22.8773 22.8839L23.061 22.2065L23.9794 22.2869C24.496 22.3328 25.2422 22.4476 25.6555 22.5395ZM9.12391 26.3739C10.6393 26.6379 12.2121 27.0971 13.9456 27.8089C16.5746 28.8766 17.7226 29.221 20.2598 29.6802L20.7764 29.7835L19.858 30.0016C19.1232 30.1739 18.5377 30.2198 16.9879 30.2083C15.2429 30.1968 14.9214 30.1739 13.8882 29.8868C11.8907 29.3473 10.0538 28.3485 8.41213 26.9135C7.67739 26.282 7.58555 26.0984 8.06772 26.1902C8.23993 26.2246 8.71062 26.305 9.12391 26.3739Z" fill="#EE3764"/>
<path d="M10.0997 0.681011C9.7094 0.990978 9.46832 1.54203 9.46832 2.15049V2.62118L8.79098 1.78312C7.89552 0.669531 7.68887 0.566208 7.00006 0.830256C6.19644 1.12874 5.86351 1.70276 5.81759 2.88523L5.77167 3.81513L5.33542 4.01029C5.01397 4.13658 4.8188 4.33174 4.63512 4.68763C4.09555 5.72085 4.40551 7.94803 5.28949 9.46343L5.56502 9.93412L5.03693 10.9214C3.96926 12.919 3.46413 14.9969 3.46413 17.3045C3.45265 18.9691 3.61337 20.0368 4.09555 21.5292C4.27923 22.1147 4.39403 22.6428 4.35959 22.7002C4.32515 22.7691 4.12999 22.815 3.9463 22.815C3.55597 22.815 3.39525 23.079 3.59041 23.389C3.6593 23.5038 3.67078 23.6416 3.60189 23.7449C3.46413 23.963 3.47561 24.7322 3.61337 25.0077C3.79706 25.3292 4.27923 25.5358 5.38134 25.7539L6.36864 25.9491L7.43631 27.0053C11.1789 30.7249 16.5746 32.0107 21.4767 30.3461C22.0507 30.1509 22.3147 30.1164 22.4525 30.1968C22.6936 30.3461 23.015 30.2198 23.015 29.9672C23.015 29.8294 23.3021 29.5998 23.8416 29.3013C26.0918 28.0385 28.0664 26.018 29.2488 23.7564C29.5703 23.1594 29.7425 22.9298 29.9147 22.9298C30.2017 22.9298 30.328 22.6198 30.1443 22.3328C30.041 22.1606 30.0525 21.9655 30.2476 21.357C30.9938 18.9461 31.0053 16.0072 30.2935 13.5389C30.0984 12.8616 30.041 12.5287 30.1328 12.4368C30.328 12.2417 30.2591 12.0235 29.9606 11.9087C29.7769 11.8398 29.5588 11.5528 29.3177 11.0821C28.1697 8.79757 26.1836 6.73112 23.9679 5.47977C23.4743 5.20424 22.9576 4.88279 22.8314 4.76799C22.6936 4.64171 22.5099 4.56135 22.4296 4.57283C22.3377 4.59579 21.9129 4.49246 21.4652 4.34322C20.2483 3.96437 19.1692 3.75773 17.9637 3.68884C17.0453 3.63144 16.7583 3.56256 16.1269 3.26407C15.4725 2.93115 15.2773 2.89671 14.3819 2.89671H13.3831L12.7632 2.15049C11.374 0.474367 10.7771 0.141438 10.0997 0.681011ZM11.6266 2.00124C12.7861 3.33296 13.9112 4.82539 16.8731 9.0157C19.2151 12.3335 19.7661 13.0568 19.9613 13.0338C20.5927 12.942 20.1565 12.1957 16.6779 7.33957C16.1154 6.55891 15.6906 5.8701 15.7365 5.80122C15.8514 5.61753 16.7239 5.25016 17.0683 5.25016C17.3093 5.25016 17.516 5.43385 18.1704 6.24895C19.2495 7.62658 21.8096 11.0821 22.5214 12.1383C23.6694 13.8719 25.7588 17.5915 25.6325 17.7063C25.6096 17.7292 25.1619 17.6259 24.6452 17.4652C24.1172 17.3159 23.2102 17.1323 22.6362 17.0634C21.3619 16.9026 19.1692 17.006 18.8133 17.2471C18.3081 17.58 16.7927 21.7932 16.4254 23.9171C16.2187 25.0536 16.1843 26.9249 16.345 27.4989C16.4368 27.7974 16.4254 27.8663 16.2761 27.8663C16.1843 27.8663 15.3692 27.5563 14.4737 27.189C11.994 26.1558 10.7656 25.8343 7.1493 25.2833C4.32515 24.847 4.07259 24.7437 4.32515 24.0893C4.60068 23.3431 5.80611 22.5739 7.16078 22.2869C8.18253 22.0688 10.4097 22.0803 11.7873 22.3099C12.9813 22.5165 13.2568 22.4821 13.2568 22.1606C13.2568 22.0458 12.2006 20.0482 10.9034 17.7292C9.60608 15.3987 8.54989 13.47 8.54989 13.4356C8.54989 13.2404 9.19279 12.5631 9.56016 12.3794C10.5589 11.8858 10.4212 11.7824 12.0055 14.2622C12.7861 15.4906 13.4979 16.5238 13.5897 16.5582C13.7849 16.6386 14.0604 16.4205 14.0604 16.1794C14.0604 16.0875 13.3831 14.9051 12.568 13.5504C11.7414 12.2072 11.0411 11.0362 11.0067 10.9559C10.9148 10.7148 13.119 9.42899 13.3027 9.62415C13.3257 9.64711 14.0604 10.7837 14.9214 12.1383C16.919 15.2495 16.8501 15.1806 17.206 14.8247C17.3667 14.6755 17.3667 14.6066 17.2175 14.3311C17.1257 14.1474 15.5988 11.7365 13.8193 8.96977C12.0399 6.20303 10.513 3.70033 10.4212 3.4248C10.2375 2.82782 10.226 1.77164 10.3867 1.45019C10.5934 1.05986 10.9148 1.2091 11.6266 2.00124ZM7.82664 1.82904C8.28585 2.33417 9.31907 3.72329 10.5934 5.57161L11.6381 7.08701L10.9837 7.41994C10.6278 7.60362 10.1227 7.91359 9.87013 8.12023C9.43388 8.46464 9.39943 8.47612 9.26167 8.26948C7.0345 5.15832 6.73601 4.65319 6.59825 3.90697C6.42604 2.90819 6.54085 2.18493 6.95414 1.78312C7.12634 1.59943 7.31002 1.46167 7.36743 1.46167C7.42483 1.46167 7.63147 1.63387 7.82664 1.82904ZM15.6103 3.88401C15.8628 3.98733 16.1958 4.1825 16.345 4.30878L16.6205 4.52691L16.2072 4.66467C15.9776 4.74503 15.6562 4.90575 15.4955 5.04352C15.3347 5.1698 15.1855 5.26164 15.1625 5.23868C15.1396 5.21572 14.887 4.85983 14.5885 4.44654C14.1178 3.80365 14.0834 3.70033 14.2556 3.63144C14.5311 3.52812 15.0477 3.61996 15.6103 3.88401ZM19.3643 4.61875C24.3008 5.47977 28.2615 9.11902 29.6392 14.0441C29.9377 15.1002 29.9606 15.3298 29.9606 17.3619C29.9606 19.3939 29.9377 19.6235 29.6392 20.6797C29.467 21.3111 29.0881 22.3213 28.7896 22.9183L28.2615 24.0204L28.1697 23.0676C27.9171 20.3927 26.5165 17.0749 23.7153 12.5975C22.6821 10.9444 19.1232 6.08822 17.8719 4.64171C17.7112 4.45802 17.7226 4.44654 18.0441 4.44654C18.2392 4.44654 18.8362 4.52691 19.3643 4.61875ZM8.25141 8.4302C9.23871 9.95708 10.0423 11.2314 10.0423 11.2658C10.0423 11.3003 9.80124 11.4266 9.50276 11.5643C9.19279 11.7021 8.75654 11.9891 8.52693 12.2302C8.26289 12.4713 8.05624 12.5975 7.99884 12.5401C7.68887 12.1843 5.72575 8.65981 5.47318 8.01691C5.09433 7.01813 5.03693 5.47977 5.38134 4.96316L5.59946 4.63023L6.03571 5.13536C6.2768 5.42237 7.27558 6.90332 8.25141 8.4302ZM12.6139 8.59093L12.7976 8.90089L12.0284 9.26826C11.6036 9.46343 11.0756 9.76191 10.8689 9.92264C10.6623 10.0834 10.4786 10.1867 10.4556 10.1752C10.4441 10.1522 10.2949 9.91116 10.1227 9.64711L9.81272 9.16494L10.3064 8.76313C10.5819 8.545 11.0756 8.23504 11.42 8.07431L12.0514 7.77583L12.2351 8.02839C12.3384 8.16615 12.5106 8.41872 12.6139 8.59093ZM7.34446 12.9764C9.35351 16.4894 12.1088 21.4718 12.0629 21.5292C12.0399 21.5522 11.6151 21.5177 11.133 21.4488C9.28463 21.1848 7.45927 21.3226 5.96683 21.8392C5.53058 21.9999 5.12877 22.0803 5.08285 22.0343C4.93361 21.8851 4.43995 19.9794 4.31367 19.0954C3.96926 16.6501 4.38255 14.09 5.47318 11.7595C5.73723 11.2084 5.97831 10.7607 6.01275 10.7607C6.04719 10.7607 6.65565 11.7595 7.34446 12.9764ZM24.0942 18.0966C25.3685 18.4295 26.1951 18.8313 26.3673 19.1987C26.4821 19.4398 26.4706 19.5087 26.2869 19.635C25.9999 19.8531 26.1492 20.2893 26.5165 20.2893C26.7461 20.2893 26.8265 20.3812 26.9643 20.8748C27.0676 21.1963 27.1709 21.6325 27.2168 21.8506L27.2857 22.241L26.7921 22.0573C26.0803 21.8047 24.8519 21.5866 23.635 21.4948C22.3607 21.3914 22.464 21.2881 21.9818 23.2972C21.5226 25.2373 21.3619 26.569 21.4422 27.8893C21.4767 28.5092 21.4652 29.0143 21.4193 29.0143C21.006 29.0143 19.1921 28.7273 18.4 28.5322C17.2634 28.2566 17.2405 28.2222 17.0338 26.9249C16.7583 25.134 17.5275 21.7014 18.9281 18.5443C19.1347 18.0851 19.2954 17.8785 19.4791 17.8326C19.6284 17.8096 20.5238 17.7981 21.4652 17.8211C22.751 17.844 23.4169 17.9129 24.0942 18.0966ZM25.6555 22.5395C26.0688 22.6313 26.6313 22.815 26.9069 22.9528L27.4005 23.1938L27.3546 23.8482C27.2627 25.1914 26.1492 26.7986 24.5878 27.8319C23.7383 28.4059 22.5214 28.8995 22.3607 28.7388C22.3147 28.6929 22.2459 28.0959 22.2344 27.4071C22.1885 26.1443 22.4181 24.5141 22.8773 22.8839L23.061 22.2065L23.9794 22.2869C24.496 22.3328 25.2422 22.4476 25.6555 22.5395ZM9.12391 26.3739C10.6393 26.6379 12.2121 27.0971 13.9456 27.8089C16.5746 28.8766 17.7226 29.221 20.2598 29.6802L20.7764 29.7835L19.858 30.0016C19.1232 30.1739 18.5377 30.2198 16.9879 30.2083C15.2429 30.1968 14.9214 30.1739 13.8882 29.8868C11.8907 29.3473 10.0538 28.3485 8.41213 26.9135C7.67739 26.282 7.58555 26.0984 8.06772 26.1902C8.23993 26.2246 8.71062 26.305 9.12391 26.3739Z" stroke="#EE3764" stroke-width="0.4" mask="url(#path-1-outside-1_567_2280)"/>
</g>
<path id="Vector_2" d="M10.7686 8.56173L10.7685 8.56168L10.7712 8.55862C10.8816 8.4344 11.0255 8.3742 11.1744 8.39547C11.3208 8.41639 11.4524 8.51316 11.5497 8.66227L11.5498 8.66218L11.5527 8.66729C11.6013 8.75222 11.6366 8.83857 11.6204 8.9332C11.6048 9.02492 11.5443 9.10134 11.4677 9.17794C11.2547 9.39094 10.9795 9.36005 10.8104 9.21277C10.7268 9.13992 10.6668 9.03707 10.6535 8.91996C10.64 8.80113 10.6754 8.67561 10.7686 8.56173Z" fill="#EE3764" stroke="#EE3764" stroke-width="0.2"/>
<path id="Vector_3" d="M20.8712 18.8938L20.8712 18.8937L20.8739 18.8907C20.9843 18.7664 21.1282 18.7062 21.277 18.7275C21.4234 18.7484 21.5551 18.8452 21.6523 18.9943L21.6525 18.9942L21.6554 18.9993C21.7039 19.0842 21.7393 19.1706 21.7231 19.2652C21.7074 19.3569 21.647 19.4334 21.5704 19.51C21.3574 19.723 21.0822 19.6921 20.9131 19.5448C20.8294 19.4719 20.7695 19.3691 20.7562 19.252C20.7426 19.1332 20.7781 19.0076 20.8712 18.8938Z" fill="#EE3764" stroke="#EE3764" stroke-width="0.2"/>
<path id="Vector_4" d="M22.5928 19.5604C22.4199 19.5884 22.2705 19.5224 22.1873 19.3917C22.1065 19.2647 22.0981 19.0932 22.1632 18.9223C22.1923 18.8377 22.2604 18.78 22.3359 18.748C22.4119 18.7157 22.502 18.7058 22.5922 18.7194C22.7014 18.7325 22.7972 18.7673 22.8619 18.8476C22.925 18.926 22.9428 19.0288 22.9428 19.1399C22.9428 19.251 22.925 19.3539 22.8619 19.4323C22.7973 19.5124 22.7017 19.5473 22.5928 19.5604Z" fill="#EE3764" stroke="#EE3764" stroke-width="0.2"/>
<path id="Vector_5" d="M24.0158 19.773L24.0158 19.773L24.0145 19.7735C23.82 19.8464 23.6437 19.7436 23.5479 19.6026C23.4523 19.4618 23.417 19.2584 23.5122 19.0819C23.5906 18.932 23.7076 18.8315 23.8531 18.821C23.9961 18.8106 24.1305 18.8902 24.2393 19.0181L24.2393 19.0181L24.2399 19.0189C24.3477 19.1482 24.3749 19.3069 24.3303 19.4499C24.2861 19.5917 24.1737 19.7112 24.0158 19.773Z" fill="#EE3764" stroke="#EE3764" stroke-width="0.2"/>
<path id="Vector_6" d="M25.1849 20.0434C25.0217 20.0434 24.8908 19.9601 24.8204 19.8324C24.7513 19.7074 24.7438 19.5477 24.8038 19.3926C24.857 19.2374 25.0108 19.1675 25.1546 19.159C25.302 19.1504 25.4686 19.2017 25.5885 19.3216C25.7251 19.4581 25.7001 19.6512 25.6179 19.7882C25.5346 19.927 25.3758 20.0434 25.1849 20.0434Z" fill="#EE3764" stroke="#EE3764" stroke-width="0.2"/>
<path id="Vector_7" d="M19.7348 19.5695L19.7348 19.5695L19.7358 19.5683C19.8617 19.4203 20.0542 19.3796 20.2172 19.4164C20.3803 19.4533 20.5342 19.5732 20.5651 19.7665C20.5936 19.9447 20.526 20.1123 20.4114 20.2198C20.2965 20.3275 20.1276 20.3797 19.9597 20.3119C19.6514 20.1985 19.5255 19.8237 19.7348 19.5695Z" fill="#EE3764" stroke="#EE3764" stroke-width="0.2"/>
<path id="Vector_8" d="M19.571 21.4789C19.4518 21.4789 19.3409 21.4625 19.262 21.3836C19.1862 21.3077 19.1617 21.1949 19.15 21.0677C19.1416 20.9943 19.1356 20.9297 19.138 20.8773C19.1403 20.8258 19.1513 20.7646 19.1975 20.7184C19.2436 20.6722 19.3049 20.6612 19.3564 20.6589C19.4088 20.6565 19.4733 20.6625 19.5468 20.671C19.6739 20.6826 19.7868 20.7071 19.8627 20.783C19.9415 20.8619 19.958 20.9727 19.958 21.0919C19.958 21.206 19.9461 21.3174 19.8713 21.3922C19.7964 21.4671 19.685 21.4789 19.571 21.4789Z" fill="#EE3764" stroke="#EE3764" stroke-width="0.2"/>
<path id="Vector_9" d="M18.9794 22.7643L19.0429 22.687L18.8918 22.0193C18.9872 21.9181 19.1408 21.8973 19.2702 21.9149C19.404 21.933 19.548 21.9963 19.6372 22.1074C19.8101 22.3185 19.739 22.5714 19.5915 22.7189C19.4438 22.8666 19.1906 22.9377 18.9794 22.7643Z" fill="#EE3764" stroke="#EE3764" stroke-width="0.2"/>
<path id="Vector_10" d="M18.6389 23.503L18.6389 23.503L18.6393 23.5021C18.6709 23.4178 18.7478 23.365 18.8271 23.3368C18.9085 23.3078 19.0074 23.2987 19.1114 23.3115C19.2286 23.3234 19.3359 23.3486 19.4084 23.4256C19.4822 23.504 19.4987 23.613 19.4987 23.7324C19.4987 23.835 19.4798 23.9314 19.4292 24.0083C19.3767 24.088 19.2971 24.1363 19.1988 24.1522C19.0211 24.1894 18.853 24.0992 18.7476 23.9771C18.6417 23.8543 18.5769 23.6736 18.6389 23.503Z" fill="#EE3764" stroke="#EE3764" stroke-width="0.2"/>
<path id="Vector_11" d="M18.5577 25.0819C18.5374 24.9238 18.578 24.7136 18.7612 24.6404C18.7962 24.623 18.8336 24.6058 18.8643 24.5926C18.8802 24.5858 18.8952 24.5797 18.9077 24.5751C18.9138 24.5728 18.9205 24.5705 18.927 24.5686C18.9271 24.5685 18.9272 24.5685 18.9274 24.5685C18.9282 24.5682 18.9296 24.5678 18.9316 24.5673C18.9977 24.54 19.0657 24.5524 19.1195 24.5756C19.1774 24.6006 19.2312 24.6428 19.2762 24.6903C19.3636 24.7826 19.4414 24.9208 19.4414 25.0533C19.4414 25.2281 19.4033 25.38 19.2873 25.4653C19.1717 25.5504 19.0162 25.5417 18.8538 25.4936L18.8538 25.4936L18.8519 25.493C18.6721 25.4358 18.5787 25.2447 18.5577 25.0819Z" fill="#EE3764" stroke="#EE3764" stroke-width="0.2"/>
<path id="Vector_12" d="M19.1743 26.8056C19.014 26.8903 18.8041 26.879 18.6499 26.7182C18.5766 26.6447 18.5207 26.5682 18.5076 26.4741C18.4945 26.3805 18.5269 26.2911 18.5755 26.1999C18.6764 26.0059 18.8704 25.9239 19.0477 25.9479C19.2266 25.9721 19.3882 26.1048 19.4175 26.3251C19.4464 26.5417 19.3335 26.7214 19.1743 26.8056Z" fill="#EE3764" stroke="#EE3764" stroke-width="0.2"/>
<path id="Vector_13" d="M19.034 28.1717C18.8611 28.1997 18.7117 28.1338 18.6285 28.003C18.5477 27.876 18.5393 27.7045 18.6044 27.5336C18.6335 27.449 18.7016 27.3914 18.777 27.3593C18.853 27.327 18.9432 27.3171 19.0334 27.3307C19.1425 27.3438 19.2383 27.3786 19.303 27.4589C19.3662 27.5373 19.384 27.6402 19.384 27.7513C19.384 27.8623 19.3662 27.9652 19.303 28.0436C19.2385 28.1238 19.1429 28.1586 19.034 28.1717Z" fill="#EE3764" stroke="#EE3764" stroke-width="0.2"/>
<path id="Vector_14" d="M23.6366 0.973686L23.6365 0.973604L23.6399 0.969699C23.7798 0.808816 23.9759 0.760968 24.1417 0.813741C24.3089 0.866943 24.4353 1.01987 24.4353 1.23048C24.4353 1.34985 24.4187 1.45885 24.3449 1.53723C24.2725 1.61418 24.1654 1.63943 24.0483 1.65127C23.8463 1.67768 23.6722 1.60422 23.5844 1.46254C23.4954 1.31895 23.5121 1.13274 23.6366 0.973686Z" fill="#EE3764" stroke="#EE3764" stroke-width="0.2"/>
<path id="Vector_15" d="M23.9574 2.29562L23.9574 2.29561L23.958 2.29716C24.0189 2.45684 23.9749 2.62029 23.8773 2.73918C23.7799 2.85777 23.6256 2.93789 23.4513 2.93789C23.292 2.93789 23.1644 2.85278 23.0963 2.72593C23.0293 2.60127 23.0217 2.44179 23.082 2.28642C23.1142 2.19635 23.1864 2.13748 23.2632 2.10278C23.3406 2.06783 23.4309 2.05318 23.5178 2.05483C23.6048 2.05649 23.6949 2.07462 23.7725 2.11151C23.8496 2.14818 23.9222 2.20758 23.9574 2.29562Z" fill="#EE3764" stroke="#EE3764" stroke-width="0.2"/>
<path id="Vector_16" d="M22.6671 3.40118L22.6671 3.40116L22.6688 3.39944C22.7797 3.28857 22.9046 3.21507 23.0409 3.23486C23.1747 3.25427 23.2787 3.35805 23.3635 3.4968C23.4616 3.64517 23.4706 3.81864 23.4075 3.95773C23.3436 4.09873 23.2061 4.20156 23.0266 4.20156C22.6002 4.20156 22.3728 3.71021 22.6671 3.40118Z" fill="#EE3764" stroke="#EE3764" stroke-width="0.2"/>
<path id="Vector_17" d="M33.2299 10.9917C33.1746 10.9364 33.1283 10.8858 33.0945 10.8377C33.0605 10.7893 33.0342 10.7367 33.0282 10.6779C33.0158 10.556 33.0944 10.4591 33.1847 10.3688C33.3215 10.232 33.5115 10.1969 33.6715 10.2396C33.8318 10.2823 33.9743 10.4076 33.9975 10.5992C34.0261 10.8155 33.9133 10.9949 33.7542 11.079C33.5939 11.1638 33.3841 11.1525 33.2299 10.9917Z" fill="#EE3764" stroke="#EE3764" stroke-width="0.2"/>
<path id="Vector_18" d="M1.0109 10.638L1.0109 10.638L1.01153 10.6373C1.12025 10.5093 1.25469 10.4298 1.39774 10.4401C1.54321 10.4507 1.66019 10.5512 1.73856 10.701C1.83379 10.8775 1.79846 11.0809 1.70285 11.2217C1.60712 11.3627 1.43082 11.4656 1.23629 11.3926L1.23629 11.3926L1.23497 11.3921C1.07705 11.3303 0.964712 11.2109 0.920499 11.069C0.875938 10.926 0.903121 10.7673 1.0109 10.638Z" fill="#EE3764" stroke="#EE3764" stroke-width="0.2"/>
<path id="Vector_19" d="M32.0074 10.8682L32.0074 10.8681L32.0092 10.866C32.0534 10.8155 32.1042 10.7677 32.1518 10.7316C32.1755 10.7137 32.2002 10.6972 32.2243 10.6847C32.2456 10.6738 32.2781 10.6596 32.3141 10.6596C32.3876 10.6596 32.4529 10.6966 32.5027 10.7381C32.5542 10.7812 32.6005 10.8384 32.6379 10.9002C32.7095 11.0185 32.7635 11.1795 32.7338 11.3183C32.7173 11.4129 32.6674 11.4889 32.5885 11.5387C32.5124 11.5868 32.4169 11.6059 32.3141 11.6059C32.1192 11.6059 31.9663 11.5094 31.9042 11.3552C31.8432 11.2036 31.8803 11.022 32.0074 10.8682Z" fill="#EE3764" stroke="#EE3764" stroke-width="0.2"/>
<path id="Vector_20" d="M2.61715 11.869C2.44424 11.897 2.29489 11.831 2.21167 11.7002C2.13086 11.5733 2.12244 11.4018 2.1876 11.2309C2.21668 11.1463 2.28479 11.0886 2.36024 11.0566C2.43621 11.0243 2.52634 11.0144 2.61655 11.028C2.72572 11.0411 2.82153 11.0759 2.88622 11.1562C2.94937 11.2346 2.96718 11.3374 2.96718 11.4485C2.96718 11.5596 2.94937 11.6625 2.88622 11.7409C2.82165 11.821 2.72607 11.8559 2.61715 11.869Z" fill="#EE3764" stroke="#EE3764" stroke-width="0.2"/>
<path id="Vector_21" d="M30.648 11.4807L30.648 11.4807L30.6487 11.479C30.7207 11.303 30.8944 11.2317 31.0566 11.2405C31.2188 11.2494 31.3894 11.3372 31.4827 11.5021L31.4829 11.502L31.4862 11.5091C31.5295 11.6019 31.5564 11.6926 31.5418 11.7863C31.5271 11.8809 31.4732 11.9596 31.3974 12.0353C31.3372 12.0956 31.2666 12.143 31.1988 12.1725C31.1366 12.1997 31.0557 12.2208 30.9851 12.1973C30.848 12.1515 30.7416 12.0319 30.681 11.9042C30.6204 11.7763 30.5948 11.6176 30.648 11.4807Z" fill="#EE3764" stroke="#EE3764" stroke-width="0.2"/>
<path id="Vector_22" d="M3.64569 12.3917C3.56959 12.3627 3.51595 12.2995 3.4802 12.2351C3.44338 12.1687 3.4191 12.0899 3.40693 12.0112C3.39474 11.9323 3.39396 11.8488 3.40791 11.7722C3.42162 11.697 3.45131 11.619 3.50824 11.5621C3.62946 11.4409 3.81688 11.45 3.95524 11.5037C4.09537 11.5581 4.23866 11.6778 4.26331 11.8474C4.29174 12.0269 4.21974 12.1944 4.10255 12.3009C3.98522 12.4076 3.81377 12.4599 3.64569 12.3917Z" fill="#EE3764" stroke="#EE3764" stroke-width="0.2"/>
<path id="Vector_23" d="M30.731 22.8743L30.7308 22.8742L30.7346 22.8674C30.8278 22.7024 30.9984 22.6146 31.1606 22.6058C31.3228 22.597 31.4966 22.6682 31.5686 22.8443L31.5686 22.8443L31.5692 22.8459C31.6225 22.9828 31.5969 23.1416 31.5362 23.2694C31.4756 23.3971 31.3693 23.5168 31.2321 23.5625C31.1615 23.586 31.0807 23.5649 31.0185 23.5378C30.9507 23.5082 30.8801 23.4608 30.8198 23.4006C30.7441 23.3248 30.6902 23.2461 30.6755 23.1515C30.6609 23.0579 30.6877 22.9671 30.731 22.8743Z" fill="#EE3764" stroke="#EE3764" stroke-width="0.2"/>
<path id="Vector_24" d="M32.1807 23.9781C32.0385 23.8891 31.9291 23.7849 31.9095 23.6493C31.8894 23.5111 31.9685 23.3857 32.0827 23.2715C32.1969 23.1573 32.3223 23.0782 32.4605 23.0983C32.596 23.118 32.7003 23.2273 32.7892 23.3696C32.9077 23.5591 32.834 23.7703 32.7077 23.8965C32.5814 24.0228 32.3702 24.0965 32.1807 23.9781Z" fill="#EE3764" stroke="#EE3764" stroke-width="0.2"/>
<path id="Vector_25" d="M2.25074 23.4665L2.25071 23.4665L2.25187 23.4645C2.33983 23.3074 2.46028 23.1981 2.60775 23.1815C2.75677 23.1647 2.89303 23.2468 3.0018 23.3809C3.09296 23.4899 3.12633 23.6124 3.11233 23.7289C3.09856 23.8435 3.03985 23.9454 2.95899 24.0192C2.79667 24.1672 2.52668 24.2139 2.31558 24.01L2.31557 24.0101L2.31433 24.0088C2.24046 23.935 2.18327 23.8572 2.17228 23.7583C2.16161 23.6622 2.19722 23.5676 2.25074 23.4665Z" fill="#EE3764" stroke="#EE3764" stroke-width="0.2"/>
<path id="Vector_26" d="M33.194 23.9343L33.194 23.9342L33.195 23.931C33.2582 23.7416 33.448 23.6496 33.6164 23.6362C33.7829 23.6231 33.9847 23.6837 34.0598 23.8674L34.0598 23.8674L34.0609 23.8702C34.1214 24.0316 34.1117 24.1946 34.0315 24.3206C33.9505 24.4479 33.8073 24.5219 33.6343 24.5219C33.4595 24.5219 33.3077 24.4838 33.2223 24.3678C33.1373 24.2522 33.1459 24.0967 33.194 23.9343Z" fill="#EE3764" stroke="#EE3764" stroke-width="0.2"/>
<path id="Vector_27" d="M1.46914 24.6131C1.29623 24.6411 1.14688 24.5752 1.06366 24.4444C0.982853 24.3174 0.974434 24.1459 1.03959 23.975C1.06867 23.8904 1.13678 23.8328 1.21223 23.8007C1.2882 23.7684 1.37833 23.7585 1.46854 23.7721C1.57771 23.7852 1.67352 23.82 1.73821 23.9003C1.80136 23.9787 1.81917 24.0816 1.81917 24.1927C1.81917 24.3038 1.80136 24.4066 1.73821 24.485C1.67364 24.5652 1.57806 24.6 1.46914 24.6131Z" fill="#EE3764" stroke="#EE3764" stroke-width="0.2"/>
<path id="Vector_28" d="M11.4586 31.1047C11.4453 31.0164 11.452 30.9219 11.4762 30.8407C11.4988 30.7649 11.543 30.6805 11.6215 30.6381C11.7204 30.5725 11.8188 30.5185 11.9236 30.5351C12.0289 30.5519 12.1082 30.6352 12.1859 30.7295C12.1859 30.7296 12.186 30.7296 12.186 30.7296L11.4586 31.1047Z" fill="#EE3764" stroke="#EE3764" stroke-width="0.2"/>
<path id="Vector_29" d="M23.4857 30.846L23.4858 30.846L23.4876 30.8478C23.5984 30.9586 23.6719 31.0836 23.6522 31.2199C23.6327 31.354 23.5284 31.4582 23.3891 31.5431C23.2701 31.6177 23.1473 31.6412 23.0352 31.6198C22.9238 31.5985 22.8306 31.5342 22.7686 31.4472C22.6427 31.2706 22.6474 31.0069 22.8525 30.8018C22.9432 30.7112 23.0398 30.633 23.1628 30.6453C23.2216 30.6512 23.2749 30.6769 23.3247 30.7106C23.3745 30.7443 23.4274 30.7905 23.4857 30.846Z" fill="#EE3764" stroke="#EE3764" stroke-width="0.2"/>
<path id="Vector_30" d="M10.9982 31.9797L10.9981 31.9796L11.0008 31.9766C11.1113 31.8524 11.2551 31.7922 11.404 31.8134C11.5504 31.8344 11.682 31.9311 11.7793 32.0802L11.7794 32.0801L11.7823 32.0853C11.8309 32.1702 11.8662 32.2565 11.8501 32.3512C11.8344 32.4429 11.7739 32.5193 11.6973 32.5959C11.4843 32.8089 11.2091 32.778 11.04 32.6307C10.9564 32.5579 10.8964 32.455 10.8831 32.3379C10.8696 32.2191 10.905 32.0936 10.9982 31.9797Z" fill="#EE3764" stroke="#EE3764" stroke-width="0.2"/>
<path id="Vector_31" d="M23.8362 32.8177L23.8362 32.8177L23.8356 32.818C23.6401 32.9354 23.4402 32.8594 23.3271 32.717C23.2159 32.5771 23.1761 32.3624 23.2824 32.169C23.3476 32.0397 23.442 31.9431 23.5716 31.9143C23.6991 31.8859 23.8331 31.9295 23.9644 32.0166C24.1118 32.1078 24.1519 32.2732 24.1219 32.4233C24.0918 32.5736 23.9913 32.7233 23.8362 32.8177Z" fill="#EE3764" stroke="#EE3764" stroke-width="0.2"/>
<path id="Vector_32" d="M11.0438 33.974L11.0439 33.9741L11.0411 33.9751C10.808 34.0606 10.5922 33.9198 10.4821 33.7488C10.3716 33.5773 10.3332 33.3226 10.5112 33.1446C10.5578 33.0981 10.631 33.077 10.6934 33.0676C10.7613 33.0575 10.8405 33.0576 10.9192 33.0707C11.1305 33.1035 11.246 33.3064 11.2734 33.4842C11.3009 33.6621 11.251 33.8912 11.0438 33.974Z" fill="#EE3764" stroke="#EE3764" stroke-width="0.2"/>
<path id="Vector_33" d="M23.7284 33.6808C23.6968 33.5427 23.7148 33.3786 23.828 33.2709C23.9177 33.1754 24.0654 33.1548 24.189 33.1673C24.3185 33.1804 24.4601 33.2329 24.5553 33.3281C24.6455 33.4184 24.7242 33.5152 24.7118 33.6371C24.7058 33.6959 24.6795 33.7485 24.6455 33.7969C24.6115 33.8453 24.5649 33.8961 24.5093 33.9517C24.4352 34.0258 24.3594 34.0808 24.2667 34.0959C24.1747 34.1109 24.0859 34.0831 23.9945 34.0405L23.9945 34.0406L23.9903 34.0383C23.8501 33.9646 23.7607 33.822 23.7284 33.6808Z" fill="#EE3764" stroke="#EE3764" stroke-width="0.2"/>
</g>
</svg>
