<svg width="24" height="24" viewBox="0 0 24 24" fill="none" xmlns="http://www.w3.org/2000/svg">
<path d="M17.9999 10.0002C17.9999 9.73497 17.8945 9.48062 17.707 9.29308C17.5195 9.10554 17.2651 9.00019 16.9999 9.00019H5.4099L7.7099 6.71019C7.8982 6.52188 8.00399 6.26649 8.00399 6.00019C8.00399 5.73388 7.8982 5.47849 7.7099 5.29019C7.52159 5.10188 7.2662 4.99609 6.9999 4.99609C6.73359 4.99609 6.4782 5.10188 6.2899 5.29019L2.2899 9.29019C2.15114 9.43081 2.05714 9.60938 2.01977 9.80337C1.98239 9.99736 2.00332 10.1981 2.0799 10.3802C2.15492 10.5628 2.28231 10.7191 2.44603 10.8295C2.60975 10.9398 2.80247 10.9992 2.9999 11.0002H16.9999C17.2651 11.0002 17.5195 10.8948 17.707 10.7073C17.8945 10.5198 17.9999 10.2654 17.9999 10.0002ZM21.9199 13.6202C21.8449 13.4376 21.7175 13.2812 21.5538 13.1709C21.39 13.0606 21.1973 13.0012 20.9999 13.0002H6.9999C6.73468 13.0002 6.48033 13.1055 6.29279 13.2931C6.10525 13.4806 5.9999 13.735 5.9999 14.0002C5.9999 14.2654 6.10525 14.5198 6.29279 14.7073C6.48033 14.8948 6.73468 15.0002 6.9999 15.0002H18.5899L16.2899 17.2902C16.1962 17.3831 16.1218 17.4937 16.071 17.6156C16.0202 17.7375 15.9941 17.8682 15.9941 18.0002C15.9941 18.1322 16.0202 18.2629 16.071 18.3848C16.1218 18.5066 16.1962 18.6172 16.2899 18.7102C16.3829 18.8039 16.4935 18.8783 16.6153 18.9291C16.7372 18.9798 16.8679 19.006 16.9999 19.006C17.1319 19.006 17.2626 18.9798 17.3845 18.9291C17.5063 18.8783 17.6169 18.8039 17.7099 18.7102L21.7099 14.7102C21.8487 14.5696 21.9426 14.391 21.98 14.197C22.0174 14.003 21.9965 13.8023 21.9199 13.6202Z" fill="#F5A623"/>
</svg>
