<svg width="20" height="22" viewBox="0 0 20 22" fill="none" xmlns="http://www.w3.org/2000/svg">
<path d="M9.51973 18.1703H6.99116H6.17451C4.02643 18.1703 2.27823 18.0426 2.27823 15.92V10.5674H1.04134C0.61935 10.5674 0.240309 10.3142 0.0789738 9.92808C-0.0819262 9.53976 0.00783336 9.09444 0.304478 8.7977L8.52774 0.607737C8.92067 0.215972 9.44415 0 9.99971 0C10.5557 0 11.0792 0.215972 11.4721 0.607737C12.833 1.9632 13.8538 2.97979 14.5343 3.65752C14.5836 3.7067 14.7203 3.84284 14.7497 3.87205C14.7692 3.89152 14.779 3.75728 14.779 3.46932C14.8297 2.7536 15.4209 2.18863 16.1529 2.18863H16.1612C16.9253 2.18863 17.5438 2.80457 17.5438 3.56521V6.42507C17.5438 6.50109 17.5334 6.56718 17.5217 6.63456L19.6953 8.7977C19.9933 9.09444 20.0818 9.53976 19.9204 9.92808C19.7595 10.3142 19.38 10.5674 18.9585 10.5674H17.5438V11.2517C19.0243 12.2372 20 13.9213 20 15.8333C20 18.8709 17.5376 21.3333 14.5 21.3333C12.298 21.3333 10.3983 20.0394 9.51973 18.1703ZM14.5 20.8333C17.2614 20.8333 19.5 18.5948 19.5 15.8333C19.5 13.0719 17.2614 10.8333 14.5 10.8333C11.7386 10.8333 9.49999 13.0719 9.49999 15.8333C9.49999 18.5948 11.7386 20.8333 14.5 20.8333ZM16.5678 16.7509C16.5678 17.1188 16.4359 17.4368 16.1722 17.705C15.9085 17.9732 15.5261 18.1449 15.0253 18.2203V18.5594C15.0253 18.7797 14.8467 18.9583 14.6263 18.9583C14.406 18.9583 14.2274 18.7797 14.2274 18.5594V18.2469C13.8949 18.2247 13.5802 18.1682 13.2832 18.0773C13.0984 18.0208 12.9334 17.9561 12.7881 17.8833C12.6481 17.8131 12.5881 17.6453 12.6517 17.5023C12.6539 17.4975 12.6559 17.4929 12.6578 17.4886L12.8741 17.003C12.9251 16.8883 13.0594 16.8367 13.1741 16.8878C13.1792 16.89 13.1843 16.8925 13.1892 16.8952C13.2008 16.9014 13.2115 16.907 13.2216 16.9121C13.3685 16.9864 13.5287 17.0501 13.7021 17.1033C13.977 17.1875 14.2473 17.2296 14.5133 17.2296C15.0186 17.2296 15.2713 17.1033 15.2713 16.8506C15.2713 16.7176 15.1992 16.619 15.0552 16.5547C14.9111 16.4905 14.6795 16.4229 14.3603 16.3519C14.0102 16.2766 13.7176 16.1957 13.4827 16.1093C13.2478 16.0228 13.0461 15.8843 12.8776 15.6937C12.7092 15.5031 12.625 15.246 12.625 14.9224C12.625 14.5412 12.7624 14.2143 13.0372 13.9417C13.312 13.6691 13.7087 13.5018 14.2274 13.4397V13.1073C14.2274 12.8869 14.406 12.7083 14.6263 12.7083C14.8467 12.7083 15.0253 12.8869 15.0253 13.1073V13.4264C15.2779 13.4486 15.5206 13.4929 15.7533 13.5594C15.9173 13.6063 16.0687 13.663 16.2074 13.7297C16.219 13.7353 16.2321 13.7418 16.2467 13.7494C16.3199 13.787 16.3519 13.8745 16.3203 13.9504L16.0185 14.6777C15.9935 14.7379 15.9245 14.7665 15.8643 14.7415C15.8617 14.7404 15.859 14.7392 15.8565 14.7379C15.8344 14.7268 15.8155 14.7175 15.8 14.7101C15.4164 14.5281 15.0429 14.437 14.6795 14.437C14.418 14.437 14.2274 14.4758 14.1077 14.5534C13.988 14.631 13.9282 14.7318 13.9282 14.8559C13.9282 14.98 13.9991 15.0731 14.1409 15.1352C14.2828 15.1972 14.5111 15.2615 14.8258 15.328C15.1804 15.4034 15.4741 15.4843 15.7068 15.5707C15.9395 15.6571 16.1412 15.7945 16.3118 15.9829C16.4825 16.1713 16.5678 16.4273 16.5678 16.7509Z" fill="#EE3764"/>
</svg>
