<svg width="24" height="24" viewBox="0 0 24 24" fill="none" xmlns="http://www.w3.org/2000/svg">
<path d="M11 12.15L10.1 11.275C9.91667 11.0917 9.68734 11 9.412 11C9.13667 11 8.89933 11.1 8.7 11.3C8.51667 11.4833 8.425 11.7167 8.425 12C8.425 12.2833 8.51667 12.5167 8.7 12.7L11.3 15.3C11.5 15.5 11.7333 15.6 12 15.6C12.2667 15.6 12.5 15.5 12.7 15.3L15.3 12.7C15.4833 12.5167 15.579 12.2873 15.587 12.012C15.595 11.7367 15.4993 11.4993 15.3 11.3C15.1167 11.1167 14.8873 11.0207 14.612 11.012C14.3367 11.0033 14.0993 11.091 13.9 11.275L13 12.15V9C13 8.71667 12.904 8.479 12.712 8.287C12.52 8.095 12.2827 7.99933 12 8C11.7167 8 11.479 8.096 11.287 8.288C11.095 8.48 10.9993 8.71733 11 9V12.15ZM5 21C4.45 21 3.979 20.804 3.587 20.412C3.195 20.02 2.99934 19.5493 3 19V5C3 4.45 3.196 3.979 3.588 3.587C3.98 3.195 4.45067 2.99933 5 3H9.2C9.41667 2.4 9.77934 1.91667 10.288 1.55C10.7967 1.18333 11.3673 1 12 1C12.6333 1 13.2043 1.18333 13.713 1.55C14.2217 1.91667 14.584 2.4 14.8 3H19C19.55 3 20.021 3.196 20.413 3.588C20.805 3.98 21.0007 4.45067 21 5V19C21 19.55 20.804 20.021 20.412 20.413C20.02 20.805 19.5493 21.0007 19 21H5ZM5 19H19V5H5V19ZM12 4.25C12.2167 4.25 12.3957 4.179 12.537 4.037C12.6783 3.895 12.7493 3.716 12.75 3.5C12.75 3.28333 12.679 3.10433 12.537 2.963C12.395 2.82167 12.216 2.75067 12 2.75C11.7833 2.75 11.6043 2.821 11.463 2.963C11.3217 3.105 11.2507 3.284 11.25 3.5C11.25 3.71667 11.321 3.89567 11.463 4.037C11.605 4.17833 11.784 4.24933 12 4.25Z" fill="#FB4D4D"/>
</svg>
