<svg width="23" height="23" viewBox="0 0 23 23" fill="none" xmlns="http://www.w3.org/2000/svg">
<path d="M11.5 1.9165C11.3083 1.9165 11.1167 2.01234 10.925 2.10817L3.35417 6.32484C3.06667 6.5165 2.875 6.804 2.875 7.18734V15.8123C2.875 16.1957 3.06667 16.4832 3.35417 16.6748L10.925 20.8915C11.1167 20.9873 11.3083 21.0832 11.5 21.0832C11.6917 21.0832 11.8833 20.9873 12.075 20.8915L12.9375 20.4123C12.65 19.8373 12.5542 19.1665 12.4583 18.4957V12.0748L18.2083 8.8165V12.4582C18.8792 12.4582 19.55 12.554 20.125 12.7457V7.18734C20.125 6.804 19.9333 6.5165 19.6458 6.32484L12.075 2.10817C11.8833 2.01234 11.6917 1.9165 11.5 1.9165ZM11.5 4.02484L17.25 7.18734L15.3333 8.2415L7.7625 6.03734L11.5 4.02484ZM7.7625 6.03734L15.3333 8.2415L11.5 10.4457L5.75 7.18734L7.7625 6.03734ZM4.79167 8.8165L10.5417 12.0748V18.4957L4.79167 15.2373V8.8165ZM20.4125 15.1415L16.9625 18.5915L15.4292 17.0582L14.375 18.2082L17.0583 21.0832L21.6583 16.4832L20.4125 15.1415Z" fill="#019B3F"/>
</svg>
