<svg width="27" height="29" viewBox="0 0 27 29" fill="none" xmlns="http://www.w3.org/2000/svg">
<mask id="mask0_436_2984" style="mask-type:luminance" maskUnits="userSpaceOnUse" x="8" y="0" width="18" height="19">
<path d="M8.20898 0.290039H25.3095V18.4688H8.20898V0.290039Z" fill="white"/>
</mask>
<g mask="url(#mask0_436_2984)">
<path d="M20.0483 2.2439L23.0651 4.77573C22.5808 5.35441 22.6571 6.21916 23.235 6.70418L15.1712 16.3225C14.5933 15.8353 13.7314 15.9115 13.2442 16.4924L11.7514 15.2392C13.0264 15.6117 14.3602 14.879 14.7327 13.6026C15.0492 12.5142 14.565 11.3518 13.5688 10.8116L11.8552 9.88584L18.1191 2.4109C18.6999 2.8981 19.564 2.82259 20.0483 2.2439ZM18.9054 0.290039L10.6761 10.1066L13.2065 11.4767C14.0073 11.9101 14.3065 12.907 13.8759 13.7093C13.5027 14.4071 12.6844 14.7389 11.9315 14.5029L8.36719 13.3891L14.3849 18.4433L25.1816 5.55989L18.9054 0.290039Z" fill="white"/>
</g>
<mask id="mask1_436_2984" style="mask-type:luminance" maskUnits="userSpaceOnUse" x="20" y="25" width="7" height="4">
<path d="M20.4785 25.5312H26.881V28.8676H20.4785V25.5312Z" fill="white"/>
</mask>
<g mask="url(#mask1_436_2984)">
<path d="M25.7498 26.7445C26.0134 26.7423 26.2261 26.9529 26.2283 27.2143C26.2283 27.2194 26.2283 27.2245 26.2283 27.2295C26.2283 27.4909 26.0185 27.7037 25.7549 27.7037C25.4935 27.7037 25.2808 27.4909 25.2808 27.2295C25.2779 26.9653 25.4855 26.7496 25.7469 26.7445H25.7498ZM21.1712 25.5879C20.8212 25.5879 20.5352 25.8747 20.5352 26.2247V28.2315C20.5352 28.5844 20.8212 28.8683 21.1712 28.8683H26.2436C26.5935 28.8683 26.8803 28.5844 26.8803 28.2315V26.2247C26.8803 25.8747 26.5935 25.5879 26.2436 25.5879H21.1712Z" fill="white"/>
</g>
<mask id="mask2_436_2984" style="mask-type:luminance" maskUnits="userSpaceOnUse" x="0" y="6" width="4" height="7">
<path d="M0.291016 6.01259H3.75149V12.5182H0.291016V6.01259Z" fill="white"/>
</mask>
<g mask="url(#mask2_436_2984)">
<path d="M1.95408 10.837C2.21837 10.8298 2.43619 11.0353 2.44345 11.2966C2.44636 11.3017 2.44636 11.3068 2.44636 11.3119C2.44636 11.5725 2.23362 11.786 1.96933 11.786C1.70867 11.786 1.49593 11.5755 1.49593 11.3119C1.49593 11.0556 1.6985 10.845 1.95408 10.837ZM0.968072 6.08778C0.615926 6.08778 0.332031 6.37168 0.332031 6.72455V11.8013C0.332031 12.1541 0.615926 12.438 0.968072 12.438H2.97349C3.32346 12.438 3.60953 12.1541 3.60953 11.8013V6.72455C3.60953 6.37168 3.32346 6.08778 2.97349 6.08778H0.968072Z" fill="white"/>
</g>
<path d="M20.778 5.34364C20.778 4.9247 20.4382 4.5849 20.02 4.5849C19.6017 4.58272 19.2598 4.92252 19.2598 5.34364C19.2598 5.76186 19.5996 6.10239 20.02 6.10457C20.436 6.10457 20.778 5.76477 20.778 5.34582C20.778 5.34364 20.778 5.34364 20.778 5.34364Z" fill="white"/>
<path d="M12.1232 13.894L8.50806 12.7649C8.10001 12.6379 7.73189 12.4099 7.43565 12.1028L6.5404 11.1763L4.34766 11.7956V6.72909H4.96918L8.99235 5.57173C9.27334 5.48823 9.57249 5.47299 9.85929 5.52599L13.1804 6.1279L10.7669 9.01478H9.92028C9.55724 9.01478 9.26318 9.30884 9.26318 9.67187C9.26318 9.91293 9.39533 10.1337 9.60589 10.2506L12.9037 12.0367C13.3953 12.3032 13.5782 12.9167 13.3118 13.409C13.0809 13.833 12.5842 14.0356 12.1232 13.894Z" fill="white"/>
<mask id="mask3_436_2984" style="mask-type:luminance" maskUnits="userSpaceOnUse" x="8" y="18" width="19" height="7">
<path d="M8.20898 18.0967H26.6106V24.9711H8.20898V18.0967Z" fill="white"/>
</mask>
<g mask="url(#mask3_436_2984)">
<path d="M9.9956 18.3578L12.9892 20.4279C13.5214 20.796 14.1531 20.9913 14.7993 20.9913H18.7666C18.9495 20.9913 19.094 20.8439 19.094 20.6617C19.094 20.4809 18.9495 20.3342 18.7666 20.3342H16.2725C15.7243 20.3313 15.2807 19.8848 15.2836 19.3373C15.2858 18.7913 15.7272 18.3498 16.2725 18.3477H21.5068C23.0787 18.3477 24.4909 19.3141 25.0638 20.7829L26.476 24.414C26.5414 24.5759 26.4608 24.7611 26.296 24.825C26.2604 24.8402 26.2197 24.8475 26.1791 24.8475H20.7669C20.3741 24.2514 19.7148 23.8811 18.9996 23.8528H14.034C13.4227 23.8528 12.8345 23.6349 12.3706 23.2363L8.68503 20.0547C8.23632 19.6669 8.18549 18.9866 8.57322 18.5379C8.93335 18.124 9.54688 18.0456 9.9956 18.3578Z" fill="white"/>
</g>
<path d="M17.0132 10.0033L16.7078 9.71884L17.1776 9.21454C17.3395 9.04083 17.4188 8.88269 17.4155 8.74012C17.414 8.59567 17.361 8.47473 17.2564 8.37729C17.1237 8.25375 16.98 8.19833 16.8251 8.21104C16.6701 8.22014 16.5118 8.31335 16.3501 8.49066L15.7497 9.13505L15.5536 8.95235L17.2162 7.16766L17.4124 7.35037L16.7546 8.0564L16.7449 7.85896C16.9157 7.78428 17.0749 7.7669 17.2226 7.80683C17.3685 7.84501 17.4993 7.91804 17.6151 8.02593C17.7533 8.15469 17.8415 8.29967 17.8797 8.46088C17.9161 8.62034 17.903 8.78607 17.8405 8.95807C17.7779 9.13006 17.6657 9.30291 17.5039 9.47662L17.0132 10.0033ZM18.6032 9.61109L17.3411 9.39298L17.7039 9.00354L18.9686 9.21885L18.6032 9.61109ZM16.1392 9.49785L15.9431 9.31515L17.6057 7.53046L17.8018 7.71317L16.1392 9.49785Z" fill="white"/>
</svg>
