<svg width="130" height="163" viewBox="0 0 130 163" fill="none" xmlns="http://www.w3.org/2000/svg">
<g opacity="0.5">
<path d="M10.7041 0.563629C9.63371 0.904205 8.07675 1.53673 7.24961 1.97462C5.49803 2.89906 2.14082 6.45088 0.875792 8.68903C0.0486551 10.2946 0 13.3599 0 79.6768V149.01L1.11907 151.297C2.57872 154.216 5.49803 157.136 8.41733 158.595L10.7041 159.714L39.9458 159.86C66.2682 159.958 69.3335 159.909 70.0147 159.228C70.9878 158.206 70.9878 156.844 70.0147 155.871C69.3335 155.19 66.025 155.092 40.9676 155.092C14.2559 155.092 12.553 154.995 10.6068 154.168C7.10364 152.562 4.7682 149.108 4.67089 145.458L4.62223 143.902H30.0688C57.1211 143.902 57.7536 143.853 58.0455 141.566C58.4348 138.987 59.1159 139.036 30.8473 139.036H4.62223V80.1634V21.2907H44.7627H84.9031V25.5723C84.9031 30.0973 85.2924 31.0217 87.1413 31.0217C89.3794 31.0217 89.7687 29.5134 89.7687 21.242C89.7687 14.9655 89.574 13.0193 88.7955 10.4893C87.5792 6.49954 84.8545 3.33696 81.108 1.48807L78.3347 0.125732L45.4925 0.0284119C19.8999 -0.0688934 12.2124 0.0770721 10.7041 0.563629ZM77.167 5.23451C81.3513 6.40224 84.3679 10.0514 84.5626 14.0897L84.6599 16.1819L44.6654 16.3279L4.62223 16.4252V14.6249C4.62223 12.2895 6.03323 9.27289 7.88213 7.56996C10.8014 4.79662 10.4122 4.79662 44.2761 4.79662C63.7382 4.74796 76.0966 4.94258 77.167 5.23451Z" fill="#9B9B9B"/>
<path d="M40.4332 33.2112C37.6599 34.1843 35.1784 36.4224 33.7188 39.293L32.3564 41.8231V73.2056C32.3564 95.8789 32.5024 105.172 32.9403 106.534C33.6701 109.016 36.6867 112.422 39.3141 113.687C41.2117 114.611 42.2821 114.708 49.9209 114.708C58.9221 114.708 59.6033 114.562 59.6033 112.47C59.6033 110.232 58.095 109.843 49.8723 109.843C41.4549 109.843 40.0926 109.454 38.1951 106.34C37.2706 104.783 37.222 103.81 37.222 73.8382C37.222 38.8065 37.0273 40.6067 41.1144 38.4659L43.2065 37.3468H79.6492C118.817 37.3468 117.989 37.2982 120.228 39.8282C121.93 41.7258 122.368 43.9639 122.368 50.2891V56.2737L112.54 56.4196C102.858 56.5656 102.614 56.6143 100.133 57.8793C88.1152 64.2531 88.0665 80.6499 100.084 87.0723C102.031 88.0941 102.955 88.1914 112.151 88.4347L122.125 88.678L122.271 95.441C122.32 99.4307 122.612 102.496 122.952 102.885C123.682 103.761 125.531 103.664 126.504 102.739C127.185 102.009 127.234 98.9442 127.137 71.6973C126.991 43.8666 126.942 41.3366 126.115 39.9256C124.752 37.3955 122.368 34.9627 120.228 33.795L118.233 32.7246L80.2817 32.6273C48.8505 32.53 41.9902 32.6273 40.4332 33.2112ZM122.368 72.4272V83.6178L112.735 83.4719L103.101 83.3259L100.717 81.623C93.2726 76.2223 95.0242 64.3018 103.685 61.6744C104.463 61.4798 108.988 61.2365 113.756 61.2365L122.368 61.1878V72.4272Z" fill="#9B9B9B"/>
<path d="M105.047 67.9996C103.442 68.6321 102.42 70.4323 102.42 72.5245C102.42 77.4387 109.183 79.1416 111.421 74.8113C112.589 72.5732 112.346 71.0162 110.497 69.1673C108.794 67.4644 107.188 67.1238 105.047 67.9996Z" fill="#9B9B9B"/>
<path d="M94.6738 156.612C110.932 156.612 124.112 143.432 124.112 127.174C124.112 110.916 110.932 97.7355 94.6738 97.7355C78.4154 97.7355 65.2354 110.916 65.2354 127.174C65.2354 143.432 78.4154 156.612 94.6738 156.612Z" stroke="#9B9B9B" stroke-width="3" stroke-linecap="round" stroke-linejoin="round"/>
<path d="M73.8604 106.361L115.486 147.987" stroke="#9B9B9B" stroke-width="2" stroke-linecap="round" stroke-linejoin="round"/>
</g>
</svg>
