<svg width="33" height="31" viewBox="0 0 33 31" fill="none" xmlns="http://www.w3.org/2000/svg">
<g id="Black">
<path id="Vector" d="M12.1522 1.33589L12.1528 1.33559C13.6836 0.61521 14.6815 0.215202 15.3974 0.110321C15.7569 0.057663 16.0485 0.0788021 16.3024 0.173193C16.5561 0.267527 16.7675 0.433334 16.9692 0.662403C17.0044 0.700356 17.0522 0.769676 17.1096 0.862509C17.168 0.956917 17.2385 1.07896 17.319 1.2244C17.48 1.51535 17.6823 1.90146 17.9105 2.35056C18.3669 3.24885 18.9281 4.40049 19.4734 5.54968C20.0187 6.69888 20.5483 7.846 20.9417 8.73528C21.1383 9.17986 21.3011 9.56038 21.4148 9.84464C21.4716 9.9867 21.5164 10.1053 21.547 10.196C21.5623 10.2414 21.5743 10.2804 21.5825 10.3122C21.5904 10.3428 21.5959 10.3708 21.5959 10.3922C21.5959 10.4278 21.5781 10.4578 21.5554 10.4805C21.5326 10.5033 21.5018 10.5222 21.4665 10.5373C21.3957 10.5676 21.2986 10.5864 21.1855 10.5864C21.1682 10.5864 21.1535 10.58 21.1431 10.5741C21.132 10.5679 21.1214 10.5597 21.1113 10.5508C21.0912 10.5329 21.0687 10.5079 21.0444 10.4776C20.9956 10.4167 20.9348 10.3287 20.8643 10.2181C20.723 9.99662 20.5395 9.68029 20.329 9.29955C19.9078 8.53782 19.3769 7.51548 18.8563 6.47205C18.3357 5.4286 17.8252 4.36349 17.4446 3.51617C17.2544 3.09258 17.0964 2.72291 16.9859 2.43737C16.9307 2.29465 16.8871 2.17232 16.8572 2.07445C16.8279 1.97847 16.81 1.90055 16.81 1.84942C16.81 1.81836 16.7955 1.77629 16.7617 1.72394C16.7284 1.67248 16.6795 1.61574 16.618 1.5565C16.4956 1.43839 16.3281 1.31474 16.1507 1.20818C15.9681 1.11269 15.8021 1.05552 15.5296 1.07976C15.2522 1.10443 14.8636 1.2136 14.2379 1.45892C12.9874 1.94922 10.8088 2.97549 6.71666 4.92239L6.71659 4.92243C5.00479 5.73328 3.76296 6.37227 2.94955 6.85763C2.54262 7.10043 2.24464 7.30378 2.04897 7.47007C1.95108 7.55326 1.88035 7.62589 1.83448 7.68828C1.78798 7.75153 1.77091 7.79901 1.77091 7.83297C1.77091 7.8474 1.77434 7.87247 1.78294 7.91C1.79134 7.94669 1.80401 7.99251 1.82092 8.04723C1.85472 8.15661 1.90474 8.29933 1.96935 8.47155C2.09854 8.81586 2.28522 9.27584 2.5149 9.81851C2.9742 10.9037 3.60476 12.318 4.28946 13.7955C5.56855 16.5338 6.26366 18.0593 6.5665 18.9C6.64231 19.1105 6.69406 19.2794 6.7242 19.4145C6.75418 19.5489 6.7637 19.6536 6.75198 19.7341C6.73994 19.8167 6.70479 19.8768 6.64529 19.9137C6.58895 19.9486 6.51774 19.9582 6.44287 19.9582C6.42382 19.9582 6.40681 19.9514 6.39335 19.944C6.37949 19.9363 6.36586 19.9258 6.35264 19.914C6.32621 19.8903 6.29681 19.8567 6.26494 19.8154C6.20097 19.7326 6.12233 19.6124 6.03157 19.461C5.84983 19.1579 5.61647 18.7246 5.35019 18.2024C4.81749 17.1579 4.15143 15.7547 3.50018 14.3193C2.84892 12.8838 2.21219 11.4154 1.73818 10.2403C1.50121 9.65274 1.3047 9.13803 1.16735 8.73715C1.09869 8.53675 1.04462 8.36422 1.00765 8.22496C0.971061 8.08711 0.95 7.97751 0.95 7.90506C0.95 7.60263 0.993573 7.33924 1.12816 7.08527C1.26243 6.83191 1.48496 6.59232 1.83534 6.33294C2.5343 5.81554 3.75616 5.20959 5.84536 4.25504L5.84545 4.255C7.82822 3.35374 10.6751 2.05643 12.1522 1.33589Z" fill="#EE3764" stroke="#EE3764" stroke-width="0.1"/>
<path id="Vector_2" d="M5.51456 11.9563L5.51472 11.9567C5.9658 12.8949 6.34489 13.7794 6.59783 14.4524C6.72424 14.7887 6.81949 15.0732 6.87642 15.2855C6.90484 15.3915 6.92409 15.4809 6.93266 15.5505C6.93695 15.5852 6.93875 15.6164 6.93729 15.6429C6.93591 15.6683 6.93132 15.695 6.91831 15.7167C6.85613 15.8204 6.75956 15.8762 6.65466 15.8762C6.55165 15.8762 6.44886 15.8225 6.36953 15.7244C6.28287 15.6367 6.16222 15.4484 6.01949 15.1928C5.8745 14.9331 5.70365 14.5983 5.51815 14.2152C5.1471 13.4489 4.71646 12.4872 4.31524 11.5428C3.91404 10.5984 3.54196 9.67047 3.2881 8.97151C3.16124 8.62224 3.06352 8.32908 3.00651 8.11929C2.9781 8.01476 2.95921 7.92884 2.95228 7.86625C2.94886 7.83538 2.94794 7.80686 2.95172 7.78345C2.95495 7.76342 2.96494 7.72771 3.00101 7.71418L3.01857 7.761L3 7.71457C3.13606 7.66015 4.80314 6.87177 7.0433 5.81238C7.73947 5.48315 8.491 5.12775 9.26912 4.76006C10.9096 3.98487 12.4332 3.29974 13.5648 2.81733C14.1305 2.57616 14.5988 2.38546 14.9349 2.25949C15.1028 2.19655 15.2386 2.14945 15.3374 2.12029C15.3866 2.10576 15.4279 2.09531 15.46 2.0897C15.4759 2.08691 15.4909 2.08508 15.5041 2.08483C15.5156 2.08461 15.5329 2.08529 15.5487 2.09318L15.5488 2.09298L15.5528 2.09551C15.5691 2.10569 15.5851 2.12263 15.5996 2.14021C15.6152 2.15895 15.6328 2.18297 15.6521 2.21146C15.691 2.26851 15.7387 2.34615 15.7941 2.44125C15.9048 2.63162 16.0473 2.89458 16.2111 3.20854C16.5386 3.83662 16.9523 4.67071 17.3692 5.54062C18.2016 7.2773 19.0502 9.16343 19.2505 9.83608C19.296 9.96355 19.3261 10.0743 19.3413 10.168C19.3565 10.2614 19.3574 10.3411 19.3416 10.4044C19.3254 10.4691 19.2907 10.52 19.2339 10.5459C19.1793 10.5709 19.1139 10.5682 19.0451 10.5485L19.0451 10.5486L19.043 10.5479C19.0197 10.5401 18.9971 10.5236 18.9763 10.5052C18.9547 10.4859 18.931 10.4607 18.9055 10.4307C18.8546 10.3705 18.7939 10.2874 18.725 10.1848C18.5871 9.97934 18.414 9.69197 18.2178 9.34456C17.8251 8.64952 17.338 7.71134 16.851 6.70135L16.8508 6.70092L15.1419 3.0695L9.81638 5.57144L9.81614 5.57155C8.33862 6.25625 6.96932 6.91388 5.94702 7.42278C5.43583 7.67725 5.01166 7.8944 4.70421 8.05908C4.55044 8.14145 4.42625 8.21049 4.33511 8.26439C4.28952 8.29136 4.2526 8.31429 4.22457 8.33305C4.19626 8.352 4.17953 8.36504 4.1718 8.37263C4.1717 8.37289 4.16884 8.37726 4.16659 8.39053C4.16399 8.40587 4.16309 8.42781 4.16484 8.45719C4.16833 8.51577 4.18183 8.59637 4.2055 8.69748C4.25274 8.89922 4.33875 9.1754 4.45786 9.50576C4.69595 10.1661 5.06466 11.0385 5.51456 11.9563Z" fill="#EE3764" stroke="#EE3764" stroke-width="0.1"/>
<path id="Vector_3" d="M13.3937 11.086L13.3937 11.086L13.3941 11.0855C13.7853 10.4986 14.0447 9.70435 14.1476 8.93931C14.2506 8.17322 14.1955 7.4466 13.9681 6.99114C13.6528 6.41368 13.1314 6.1732 12.6307 6.23363C12.1287 6.29421 11.6384 6.6584 11.3918 7.31009L11.3917 7.31044C11.2831 7.59091 11.1806 7.81666 11.0813 7.98771C10.9827 8.15771 10.8842 8.2788 10.7816 8.34389C10.7295 8.37692 10.6754 8.39613 10.6193 8.39905C10.5632 8.40197 10.5083 8.38837 10.4552 8.36065C10.3506 8.30614 10.2502 8.19587 10.1496 8.04046L10.1496 8.04048L10.1487 8.03903C10.0012 7.79321 9.65697 7.68531 9.27251 7.72066C8.89066 7.75577 8.48971 7.93143 8.24769 8.22532L8.24734 8.22573C7.97008 8.55498 7.89575 8.94668 7.97818 9.35281C8.06091 9.76042 8.3019 10.1828 8.65583 10.5656C9.364 11.3317 10.5136 11.9283 11.7055 11.9283C12.1151 11.9283 12.4402 11.8659 12.7104 11.7308C12.9802 11.596 13.1992 11.3866 13.3937 11.086ZM9.29046 6.88194C9.55184 6.88194 9.86019 6.80323 10.1487 6.67451C10.4371 6.54583 10.701 6.36926 10.8754 6.17755C11.3378 5.65972 12.0651 5.41288 12.7653 5.42661C13.4651 5.44033 14.1494 5.71469 14.5218 6.25424C15.0556 6.99089 15.1801 8.16921 14.9854 9.34165C14.7905 10.5155 14.2736 11.6977 13.5072 12.4461C13.2334 12.7289 12.8 12.8704 12.295 12.9023C11.7884 12.9343 11.2026 12.8566 10.6153 12.6933C9.44257 12.3673 8.24959 11.6959 7.66354 10.8536C7.05934 9.99305 6.98468 9.00194 7.30222 8.22419C7.62007 7.44567 8.33113 6.88194 9.29046 6.88194Z" fill="#EE3764" stroke="#EE3764" stroke-width="0.1"/>
<path id="Vector_4" d="M23.6617 7.81399L23.6617 7.81399L23.6619 7.81338C23.7892 7.4769 23.9277 7.25245 24.0597 7.12887C24.1258 7.067 24.1933 7.02759 24.2596 7.01525C24.328 7.00255 24.3915 7.01937 24.4436 7.06275C24.4941 7.10486 24.5309 7.16939 24.5549 7.24843C24.579 7.32789 24.5911 7.42528 24.59 7.5376C24.5876 7.7619 24.5321 8.05104 24.4049 8.38769C24.3136 8.69742 24.1858 8.97161 24.0569 9.16952C23.9925 9.26853 23.9268 9.34995 23.864 9.40725C23.8033 9.46271 23.7372 9.50313 23.6726 9.50313C23.5569 9.50313 23.4609 9.47412 23.397 9.39949C23.3342 9.32631 23.3116 9.21974 23.3163 9.08641C23.3256 8.8204 23.4458 8.40753 23.6617 7.81399Z" fill="#EE3764" stroke="#EE3764" stroke-width="0.1"/>
<path id="Vector_5" d="M26.6901 8.90656L26.6901 8.90652L26.6921 8.90784C26.7602 8.95325 26.7962 9.02171 26.8042 9.10156C26.8121 9.17962 26.7935 9.26819 26.7557 9.36041C26.68 9.54486 26.5217 9.75764 26.3025 9.95879C26.0659 10.1952 25.8518 10.348 25.6762 10.4273C25.5884 10.4669 25.5083 10.489 25.4386 10.4928C25.3689 10.4965 25.3061 10.4819 25.2588 10.4437C25.1615 10.3653 25.1598 10.2183 25.2225 10.052C25.287 9.88097 25.4268 9.66605 25.6543 9.42027C25.8378 9.21847 26.0406 9.06131 26.2225 8.96803C26.3134 8.92141 26.4008 8.88986 26.4792 8.87752C26.557 8.86527 26.6312 8.8712 26.6901 8.90656Z" fill="#EE3764" stroke="#EE3764" stroke-width="0.1"/>
<path id="Vector_6" d="M27.1452 12.2414C26.9021 12.3044 26.7134 12.3499 26.5749 12.3739C26.5057 12.386 26.4473 12.3929 26.4 12.3937C26.3544 12.3944 26.3118 12.3897 26.2796 12.3718C26.2624 12.3622 26.2474 12.3484 26.2376 12.3296C26.2278 12.311 26.225 12.2911 26.2263 12.272C26.2286 12.236 26.2457 12.197 26.2686 12.1576C26.315 12.0778 26.4008 11.9715 26.5168 11.8377C26.6507 11.6476 26.8848 11.4904 27.1451 11.3808C27.4072 11.2705 27.7021 11.2057 27.962 11.2057C28.1125 11.2057 28.2371 11.2148 28.337 11.2319C28.436 11.2489 28.5142 11.2743 28.569 11.3093C28.625 11.345 28.6614 11.3944 28.6621 11.4567C28.6627 11.5152 28.6311 11.5715 28.5848 11.6227C28.4918 11.7255 28.3147 11.8348 28.0732 11.9402C27.8302 12.0463 27.5166 12.1508 27.1452 12.2414Z" fill="#EE3764" stroke="#EE3764" stroke-width="0.1"/>
<path id="Vector_7" d="M16.2715 13.4045C16.3274 13.2002 16.447 12.953 16.5875 12.7218C16.7285 12.4898 16.8931 12.27 17.0409 12.1221L17.0409 12.1221L17.0427 12.1205C17.2511 11.931 17.5864 11.7936 18.0719 11.7028C18.5583 11.6119 19.2016 11.5668 20.032 11.5668C20.6987 11.5668 21.2165 11.5736 21.6287 11.6058C22.0408 11.6381 22.351 11.6961 22.6015 11.8004C23.1067 12.011 23.357 12.4057 23.717 13.1078C23.8438 13.3523 23.9401 13.5308 24.0622 13.6654C24.1822 13.7976 24.3289 13.8889 24.5599 13.9521C24.7929 14.0158 25.1103 14.0506 25.5704 14.0692C26.0299 14.0877 26.6281 14.09 27.4213 14.09C27.6003 14.09 27.7724 14.0895 27.938 14.0891C28.87 14.0866 29.5935 14.0846 30.1514 14.1694C30.8123 14.2699 31.2527 14.4936 31.5378 14.9892C31.8193 15.4783 31.9454 16.2261 32.0029 17.3613C32.052 18.3321 32.0509 19.5938 32.0496 21.2313C32.0494 21.5117 32.0491 21.8032 32.0491 22.106C32.0491 25.4025 32.0402 27.1003 31.9362 28.041C31.8841 28.5116 31.8078 28.799 31.693 29.0039C31.5774 29.2102 31.4252 29.3282 31.2354 29.4638C31.0561 29.5958 30.814 29.6969 30.4155 29.7753C30.017 29.8538 29.4588 29.9102 28.6449 29.9508C27.0168 30.032 24.357 30.05 19.8878 30.05C14.7885 30.05 12.1639 30.041 10.7288 29.9417C10.0117 29.8921 9.58661 29.8197 9.29676 29.7123C9.0035 29.6037 8.85076 29.4599 8.6775 29.2775L8.67748 29.2775L8.67649 29.2764C8.52021 29.1017 8.39695 28.9252 8.30133 28.6668C8.20623 28.4097 8.13924 28.0736 8.09176 27.5807C7.99685 26.5955 7.97889 24.9707 7.97889 22.07C7.97889 21.8921 7.97883 21.7183 7.97878 21.5482C7.97825 19.781 7.97785 18.4332 8.03754 17.4065C8.10288 16.2828 8.24044 15.5339 8.53562 15.0381C8.83416 14.5366 9.28957 14.3005 9.96724 14.1892C10.5824 14.0882 11.3892 14.0889 12.4411 14.0898C12.5421 14.0899 12.6453 14.09 12.7508 14.09C14.267 14.09 15.099 14.0717 15.5794 13.9739C15.8184 13.9252 15.964 13.8579 16.0627 13.7684C16.1611 13.6793 16.2185 13.5633 16.2715 13.4045ZM16.2715 13.4045C16.2714 13.405 16.2712 13.4055 16.2711 13.4059L16.3193 13.4191L16.2719 13.4033C16.2718 13.4037 16.2716 13.4041 16.2715 13.4045ZM23.053 13.8053L23.0525 13.8043C22.7641 13.2996 22.5825 13.0448 22.2047 12.9074C22.0131 12.8377 21.7685 12.7975 21.43 12.7751C21.0917 12.7527 20.663 12.7482 20.1041 12.7482C19.5453 12.7482 19.1165 12.7527 18.7782 12.7751C18.4397 12.7975 18.1952 12.8377 18.0035 12.9074C17.6257 13.0448 17.4442 13.2996 17.1558 13.8044L17.1552 13.8053L17.1526 13.8096C16.9926 14.0763 16.8686 14.283 16.7212 14.439C16.5707 14.5984 16.3968 14.7042 16.1386 14.774C15.8827 14.8432 15.5433 14.8771 15.0612 14.894C14.5788 14.9109 13.9495 14.9109 13.1124 14.9109H13.1113C12.0668 14.9109 11.2038 14.9469 10.5667 15.0187C10.248 15.0546 9.98716 15.0993 9.78891 15.1525C9.58825 15.2063 9.45998 15.2667 9.39792 15.3288C9.37019 15.3565 9.33939 15.4112 9.30852 15.5018C9.27811 15.5911 9.24936 15.7099 9.22255 15.8604C9.16897 16.1612 9.12405 16.5837 9.08805 17.1395C9.01607 18.2507 8.98002 19.8895 8.98002 22.1421C8.98002 25.1173 8.9891 26.718 9.0789 27.6206C9.12383 28.072 9.18851 28.3426 9.2788 28.5216C9.3673 28.697 9.48199 28.7876 9.63886 28.8748C9.66207 28.8872 9.70361 28.9012 9.76617 28.9158C9.82793 28.9301 9.9067 28.9442 10.0018 28.9579C10.1918 28.9852 10.4443 29.0107 10.7508 29.0344C11.3636 29.0816 12.1895 29.121 13.158 29.1525C15.0947 29.2156 17.5993 29.2471 20.1041 29.2471C22.6089 29.2471 25.1135 29.2156 27.0503 29.1525C28.0187 29.121 28.8446 29.0816 29.4575 29.0344C29.7639 29.0107 30.0164 28.9852 30.2065 28.9579C30.3015 28.9442 30.3803 28.9301 30.4421 28.9158C30.5046 28.9012 30.5461 28.8872 30.5694 28.8748C30.7262 28.7876 30.8409 28.697 30.9294 28.5216C31.0197 28.3426 31.0844 28.072 31.1293 27.6206C31.2191 26.718 31.2282 25.1173 31.2282 22.1421C31.2282 19.8895 31.1922 18.2507 31.1202 17.1395C31.0842 16.5837 31.0393 16.1612 30.9857 15.8604C30.9589 15.7099 30.9301 15.5911 30.8997 15.5018C30.8688 15.4112 30.838 15.3565 30.8103 15.3288C30.7483 15.2667 30.62 15.2063 30.4193 15.1525C30.2211 15.0993 29.9602 15.0546 29.6416 15.0187C29.0044 14.9469 28.1414 14.9109 27.0969 14.9109H27.0958C26.2587 14.9109 25.6295 14.9109 25.147 14.894C24.665 14.8771 24.3255 14.8432 24.0696 14.774C23.8114 14.7042 23.6375 14.5984 23.487 14.439C23.3397 14.283 23.2156 14.0763 23.0556 13.8096L23.053 13.8053Z" fill="#EE3764" stroke="#EE3764" stroke-width="0.1"/>
<path id="Vector_8" d="M17.3077 16.5808L17.3082 16.5806C20.4659 15.1651 23.9196 16.2531 25.447 19.1621C26.1723 20.5221 26.4096 21.8763 26.1638 23.1554C25.918 24.4344 25.1902 25.6332 23.994 26.6844C20.066 30.1396 13.9264 27.1909 13.9264 21.8528C13.9264 20.8496 14.3181 19.7409 14.9346 18.78C15.551 17.8191 16.3957 17.0004 17.3077 16.5808ZM21.9959 17.2134L21.9959 17.2134L21.9949 17.2129C20.9046 16.7482 19.8348 16.6598 18.8331 16.9313C17.831 17.203 16.8931 17.8361 16.0693 18.8211L16.0693 18.8211C14.0523 21.2308 14.6756 24.0128 16.4171 25.6917C18.1588 27.3709 21.0139 27.9415 23.4606 25.9235C24.8887 24.7453 25.6381 22.6734 25.2819 20.9624C25.122 20.2704 24.6589 19.4758 24.0539 18.7813C23.449 18.0867 22.7072 17.4979 21.9959 17.2134Z" fill="#EE3764" stroke="#EE3764" stroke-width="0.1"/>
<path id="Vector_9" d="M23.5342 24.4401L23.5342 24.4401C23.1117 25.083 22.3439 25.593 21.4902 25.8882C20.6362 26.1835 19.6884 26.2665 18.9013 26.0468C17.0926 25.5535 16.1083 23.9732 16.0036 22.3342C15.8989 20.6953 16.673 18.9881 18.3898 18.2392C19.0406 17.9499 19.7662 17.7317 20.0249 17.6947L20.0249 17.6942H20.032C20.2652 17.6942 20.564 17.7592 20.8876 17.8675C21.2121 17.976 21.5649 18.1292 21.907 18.3082C22.589 18.665 23.2379 19.1292 23.5334 19.554L23.5334 19.554L23.534 19.5548C23.9024 20.1075 24.0921 21.0383 24.0966 21.9703C24.1011 22.9026 23.9205 23.8514 23.5342 24.4401ZM22.4104 19.7967L22.4099 19.7962C22.089 19.4396 21.7887 19.2109 21.4329 19.0704C21.0764 18.9295 20.6601 18.8756 20.1041 18.8756C19.1232 18.8756 18.3256 19.1786 17.7734 19.7131C17.2215 20.2474 16.9101 21.0175 16.91 21.9613C16.9279 23.4574 17.6839 24.5289 18.7142 24.9888C19.7448 25.4488 21.0582 25.3005 22.1985 24.3384C22.9096 23.734 23.29 22.9536 23.3298 22.1483C23.3696 21.3429 23.0689 20.5087 22.4104 19.7967Z" fill="#EE3764" stroke="#EE3764" stroke-width="0.1"/>
<path id="Vector_10" d="M21.2119 21.5487L21.2119 21.5487L21.2116 21.5481C21.1062 21.3021 20.948 21.0827 20.7776 20.9254C20.6056 20.7666 20.4281 20.6773 20.2843 20.6773C20.1302 20.6773 19.9852 20.6293 19.8777 20.556C19.7718 20.4838 19.6937 20.3804 19.6937 20.2668C19.6937 20.1305 19.7958 20.0272 19.9286 19.9608C20.0632 19.8935 20.2424 19.8564 20.4285 19.8564C20.6222 19.8564 20.8367 19.9406 21.0467 20.0737C21.2574 20.2073 21.4682 20.393 21.6553 20.603C21.8426 20.8131 22.0074 21.0487 22.1256 21.2829C22.2435 21.5164 22.3168 21.7519 22.3168 21.961C22.3168 22.1624 22.2808 22.3103 22.2083 22.3969C22.1709 22.4416 22.1239 22.4696 22.0697 22.4785C22.0163 22.4873 21.9603 22.477 21.9046 22.4529C21.7942 22.4053 21.6753 22.2997 21.5582 22.1488C21.4404 21.9968 21.3213 21.7949 21.2119 21.5487Z" fill="#EE3764" stroke="#EE3764" stroke-width="0.1"/>
<path id="Vector_11" d="M26.9028 17.6352C26.9028 17.395 26.9489 17.1372 27.0271 16.9072C27.105 16.678 27.2164 16.4718 27.3499 16.3383C27.4816 16.2067 27.6585 16.0953 27.8433 16.0167C28.028 15.9382 28.224 15.8911 28.3946 15.8911C29.739 15.8911 30.3731 17.6439 29.3275 18.5029C28.8962 18.8591 28.2909 18.8942 27.7966 18.7186C27.3032 18.5434 26.9028 18.1509 26.9028 17.6352ZM28.0334 17.8161C28.2634 18.0461 28.567 18.0079 28.7774 17.8354C28.9878 17.6628 29.0929 17.3652 28.9289 17.085C28.8605 16.9828 28.7662 16.8886 28.6679 16.8202C28.568 16.7507 28.47 16.712 28.3946 16.712C28.1504 16.712 27.9589 16.8828 27.8785 17.1111C27.7984 17.3388 27.8326 17.6153 28.0334 17.8161Z" fill="#EE3764" stroke="#EE3764" stroke-width="0.1"/>
</g>
</svg>
