<svg width="93" height="93" viewBox="0 0 93 93" fill="none" xmlns="http://www.w3.org/2000/svg">
<g id="image 27 (traced)" clip-path="url(#clip0_436_5380)">
<g id="Black">
<path id="Vector" d="M0.127344 3.39668C-0.108789 3.61465 -0.0179688 8.08301 0.218164 8.31914C0.381641 8.48261 1.6168 8.53711 4.61387 8.53711C9.06406 8.53711 9.86328 8.64609 10.5172 9.33633C10.7352 9.57246 11.6434 11.3889 12.5152 13.3687L14.1137 16.9834L13.6051 17.5828C13.1328 18.1096 13.0783 18.3094 13.0783 19.4174C13.0783 21.3791 13.9139 22.3418 15.6395 22.3418H16.4568L24.1584 40.1607C28.8811 51.0955 32.0779 58.2703 32.4412 58.7426C33.2586 59.7961 34.7662 60.668 36.0377 60.7951C36.6008 60.8496 37.0549 60.9586 37.0549 61.0131C37.0549 61.0857 35.965 63.6105 34.6572 66.6258L32.2414 72.1295L30.7883 72.184C28.1727 72.293 25.8658 73.4736 24.3037 75.508C23.1957 76.9975 22.6871 78.3598 22.5781 80.2852C22.4146 82.8644 23.1594 84.9896 24.8486 86.8424C29.0082 91.3834 36.3465 90.3299 39.1619 84.7898C39.398 84.3176 39.5978 83.809 39.5978 83.6455C39.5978 83.4094 41.5596 83.373 57.7256 83.373H75.8533L76.0894 84.0633C76.7434 85.8978 78.6506 87.9504 80.5033 88.8223C82.1199 89.567 84.0816 89.8576 85.6982 89.567C87.2058 89.2945 88.8951 88.5316 90.0031 87.6416C93.1637 85.0441 93.9629 80.0309 91.8195 76.3617C90.6207 74.3273 88.0777 72.6562 85.6074 72.2748C81.8838 71.7299 78.1057 73.6916 76.5617 76.9611L76.035 78.1055L57.7619 78.0873H39.507L39.0166 77.0338C38.726 76.4525 38.181 75.617 37.7996 75.1629L37.073 74.3455L39.3254 69.0416L41.5959 63.7377L41.0873 62.7023C39.1982 58.906 38.4172 54.692 38.9621 51.3135C39.1801 49.9148 39.2346 47.5717 39.2527 38.9256C39.2527 31.1514 39.3072 28.0635 39.4707 27.6094C39.616 27.1734 39.9066 26.8646 40.3789 26.6103L41.051 26.2471L41.7412 26.6103C42.8129 27.1916 42.8492 27.4641 42.8492 34.4935L42.8674 40.7238L43.6484 39.6703C44.0844 39.0709 44.8654 38.2172 45.374 37.7449C46.2822 36.8912 48.9342 35.0566 49.243 35.0566C49.3338 35.0566 49.4064 33.5309 49.4246 31.6418C49.4246 27.682 49.5518 27.1371 50.5508 26.6103L51.2228 26.2471L51.9131 26.6103C52.8394 27.1189 53.0211 27.7365 53.0211 30.7699C53.0393 33.2766 53.0393 33.2766 53.457 33.1857C55.782 32.6227 57.5076 32.332 58.4521 32.332H59.5783L59.5965 30.2795C59.5965 27.791 59.8144 27.1008 60.6863 26.6285C61.2676 26.3197 61.4129 26.3016 61.9215 26.5195C62.9387 26.9373 63.1021 27.4096 63.2111 30.116L63.3019 32.55L64.5734 32.8769C66.0266 33.2584 67.8793 33.9305 68.9873 34.4935L69.7502 34.875L69.7683 31.5691C69.7683 27.682 69.8955 27.1371 70.8945 26.6103L71.5666 26.2471L72.2568 26.6103C73.274 27.1553 73.3648 27.5912 73.3648 32.7498L73.383 37.2545L74.9633 39.0164C77.4881 41.85 78.9412 44.284 79.6496 46.9178C79.8676 47.7533 79.9039 46.7906 79.9221 38.0537C79.9402 30.9879 79.9947 28.0635 80.1582 27.6094C80.3035 27.1734 80.5941 26.8646 81.0664 26.6103L81.7385 26.2471L82.4287 26.6103C82.8828 26.8646 83.1734 27.1734 83.3187 27.6094C83.4822 28.0816 83.5367 31.4783 83.5367 40.3424C83.5549 47.0086 83.5004 52.6939 83.4459 53.0209C83.3732 53.3297 83.1189 53.7838 82.8465 54.0562C82.4287 54.474 82.2652 54.5285 81.4478 54.4559L80.5215 54.3832L80.4125 55.6547C80.3398 56.3631 80.0855 57.7617 79.8312 58.7607C79.5769 59.7598 79.3771 60.6316 79.3771 60.7043C79.3771 60.9041 88.5318 60.8859 89.0586 60.6861C89.7488 60.4137 90.8023 59.4146 91.2019 58.6518C91.5289 57.9797 91.5471 57.4166 91.5471 40.1244V22.3055L92.0012 21.9422C92.2555 21.7424 92.5824 21.3428 92.7277 21.0703C93.0365 20.4527 93.091 18.491 92.8004 17.9461C92.31 17.0379 93.981 17.0742 55.8184 17.0742H20.235L18.2732 12.5514C17.2016 10.0629 16.0391 7.62891 15.7121 7.13847C14.4406 5.24941 12.5879 3.99609 10.3719 3.52383C9.11855 3.26953 0.363476 3.14238 0.127344 3.39668ZM31.7328 26.7012C32.6228 27.2279 32.7318 27.9545 32.6592 32.6408L32.6047 36.7277L32.0053 37.2545C31.642 37.5814 31.2242 37.7812 30.8791 37.7812C30.534 37.7812 30.1162 37.5814 29.7529 37.2545L29.1535 36.7277L29.099 32.6408C29.0264 27.9545 29.1353 27.2279 30.0254 26.7012C30.3523 26.5014 30.7338 26.3379 30.8791 26.3379C31.0244 26.3379 31.4059 26.5014 31.7328 26.7012Z" fill="#D3D3D3"/>
<path id="Vector_2" d="M57.3625 36.5098C54.7832 36.9275 52.1131 37.9447 50.1877 39.2525C48.9162 40.1063 46.9545 42.0498 46.0281 43.3576C44.9746 44.8107 43.9029 47.1176 43.3943 49.043C43.0311 50.3326 42.9766 51.0229 42.9766 53.2207C42.9947 56.2904 43.3398 57.8162 44.5023 60.2865C49.5338 70.8035 63.3566 73.2012 71.5486 65.0092C73.7828 62.775 75.2359 60.1594 76.0533 56.8898C76.5256 55.0371 76.4711 50.8594 75.9443 48.9522C75.4721 47.1539 74.3459 44.7926 73.3105 43.3395C72.3842 42.0498 70.4043 40.1063 69.151 39.2525C67.7887 38.3262 65.4092 37.2727 63.7381 36.8731C61.9762 36.4553 58.8701 36.2736 57.3625 36.5098ZM54.3109 45.3375C54.5652 45.501 55.9275 46.7906 57.3625 48.2074L59.9418 50.7686L62.5393 48.2074C63.9561 46.7906 65.3184 45.501 65.5727 45.3375C66.8623 44.4838 68.6605 45.5918 68.6605 47.2447C68.6605 47.7715 68.2973 48.1893 65.7543 50.7686L62.848 53.693L65.2275 56.0361C68.0066 58.7971 68.6605 59.6145 68.6605 60.341C68.6605 61.0857 68.152 61.885 67.4617 62.2119C66.2447 62.7932 66.0994 62.7023 62.7209 59.342L59.9418 56.5811L57.1809 59.342C53.7842 62.7023 53.6389 62.7932 52.4219 62.2119C51.3502 61.7033 50.8961 60.3229 51.5137 59.3965C51.6771 59.1422 52.985 57.7617 54.4199 56.3086L57.0355 53.6748L54.2201 50.8594C51.2049 47.8441 50.9506 47.4264 51.4229 46.3002C51.8588 45.2104 53.3664 44.7199 54.3109 45.3375Z" fill="#D3D3D3"/>
</g>
</g>
<defs>
<clipPath id="clip0_436_5380">
<rect width="93" height="93" fill="white"/>
</clipPath>
</defs>
</svg>
