<svg width="113" height="113" viewBox="0 0 113 113" fill="none" xmlns="http://www.w3.org/2000/svg">
<g clip-path="url(#clip0_108_4132)">
<mask id="mask0_108_4132" style="mask-type:luminance" maskUnits="userSpaceOnUse" x="0" y="0" width="113" height="113">
<path d="M113 0H0V113H113V0Z" fill="white"/>
</mask>
<g mask="url(#mask0_108_4132)">
<g opacity="0.182136">
<path d="M62.2513 29.6923C62.2513 30.6844 61.447 31.4887 60.4549 31.4887C59.4628 31.4887 58.6586 30.6844 58.6586 29.6923C58.6586 28.7002 59.4628 27.896 60.4549 27.896C61.447 27.896 62.2513 28.7002 62.2513 29.6923Z" fill="#EE3764"/>
</g>
<g opacity="0.455151">
<path d="M48.1132 33.93L47.0464 34.5459C46.8532 34.6574 46.6063 34.5912 46.4948 34.3981L44.5685 31.0616C44.4569 30.8685 44.5231 30.6216 44.7162 30.5101L45.7831 29.8941C45.9762 29.7826 46.2231 29.8488 46.3347 30.0419L48.261 33.3784C48.3725 33.5716 48.3063 33.8185 48.1132 33.93Z" fill="#DF443D"/>
</g>
<g opacity="0.455151">
<path d="M30.1281 41.1803L30.3681 41.2617C30.6402 41.3539 30.9403 41.3064 31.1705 41.1345L31.3737 40.983C31.9535 40.5502 32.778 40.9703 32.7688 41.6938L32.7656 41.9472C32.7618 42.2345 32.8997 42.5052 33.1343 42.6712L33.3413 42.8175C33.932 43.2353 33.7873 44.1491 33.0963 44.3639L32.8543 44.4391C32.5799 44.5244 32.3652 44.7393 32.2799 45.0137L32.2046 45.2557C31.9899 45.9466 31.076 46.0913 30.6582 45.5006L30.5118 45.2937C30.3459 45.0591 30.0752 44.9211 29.7879 44.9249L29.5345 44.928C28.811 44.9373 28.3909 44.1129 28.8237 43.533L28.9753 43.3298C29.1471 43.0996 29.1946 42.7995 29.1024 42.5274L29.021 42.2874C28.7886 41.6021 29.4428 40.9479 30.1281 41.1803Z" fill="#EE3764"/>
</g>
<g opacity="0.455151">
<path d="M28.4246 53.9018L28.6941 55.1039C28.7429 55.3215 28.606 55.5375 28.3884 55.5862L24.6291 56.4289C24.4115 56.4777 24.1956 56.3408 24.1467 56.1232L23.8773 54.9211C23.8285 54.7036 23.9654 54.4876 24.183 54.4389L27.9423 53.5962C28.1599 53.5474 28.3759 53.6843 28.4246 53.9018Z" fill="#F05E90"/>
</g>
<g opacity="0.455151">
<path d="M32.2414 69.2807C32.2414 70.2727 31.4371 71.077 30.4451 71.077C29.453 71.077 28.6488 70.2727 28.6488 69.2807C28.6488 68.2886 29.453 67.4844 30.4451 67.4844C31.4371 67.4844 32.2414 68.2886 32.2414 69.2807Z" fill="#F9C033"/>
</g>
<g opacity="0.455151">
<path d="M30.1281 78.1254L30.3681 78.2067C30.6402 78.299 30.9403 78.2515 31.1705 78.0796L31.3737 77.928C31.9535 77.4953 32.778 77.9154 32.7688 78.6389L32.7656 78.8923C32.7618 79.1796 32.8997 79.4503 33.1343 79.6162L33.3413 79.7625C33.932 80.1804 33.7873 81.0942 33.0963 81.309L32.8543 81.3842C32.5799 81.4695 32.3652 81.6844 32.2799 81.9588L32.2046 82.2007C31.9899 82.8917 31.076 83.0364 30.6582 82.4457L30.5118 82.2388C30.3459 82.0041 30.0752 81.8662 29.7879 81.8699L29.5345 81.8732C28.811 81.8824 28.3909 81.058 28.8237 80.4781L28.9753 80.2749C29.1471 80.0446 29.1946 79.7446 29.1024 79.4725L29.021 79.2325C28.7886 78.5472 29.4428 77.893 30.1281 78.1254Z" fill="#4782F9"/>
</g>
<g opacity="0.455151">
<path d="M76.3657 39.4683C75.8213 38.7589 75.9898 37.702 76.7391 37.1271C77.4883 36.5522 78.5529 36.6629 79.0972 37.3724C79.0983 37.3738 79.0992 37.3751 79.1003 37.3764" stroke="#EE3764" stroke-width="2" stroke-linecap="round" stroke-linejoin="round"/>
</g>
<g opacity="0.455151">
<path d="M81.2101 49.2551L81.4501 49.3365C81.7222 49.4288 82.0223 49.3812 82.2525 49.2094L82.4557 49.0578C83.0357 48.6251 83.86 49.0451 83.8508 49.7687L83.8476 50.022C83.8439 50.3093 83.9819 50.5801 84.2164 50.746L84.4233 50.8923C85.0141 51.3101 84.8694 52.2239 84.1784 52.4387L83.9363 52.514C83.6619 52.5992 83.4472 52.8141 83.3619 53.0885L83.2866 53.3305C83.0719 54.0215 82.158 54.1662 81.7402 53.5754L81.5939 53.3685C81.4279 53.1339 81.1573 52.996 80.8699 52.9997L80.6165 53.0029C79.893 53.0121 79.4729 52.1877 79.9057 51.6078L80.0573 51.4047C80.2291 51.1744 80.2767 50.8743 80.1844 50.6022L80.103 50.3623C79.8706 49.677 80.5248 49.0227 81.2101 49.2551Z" fill="#FFBB31"/>
</g>
<g opacity="0.455151">
<path d="M82.8879 70.5435C84.1093 70.7043 84.9747 71.8982 84.8048 73.1881C84.635 74.478 83.4901 75.4072 82.2687 75.2463C82.2663 75.246 82.264 75.2457 82.2617 75.2454" stroke="#DE3E3E" stroke-width="2" stroke-linecap="round" stroke-linejoin="round"/>
</g>
<g opacity="0.455151">
<path d="M79.0395 85.6978L77.9727 86.3137C77.7796 86.4252 77.5326 86.3591 77.4212 86.166L75.4948 82.8295C75.3834 82.6363 75.4495 82.3894 75.6426 82.2779L76.7095 81.662C76.9026 81.5504 77.1495 81.6166 77.261 81.8098L79.1873 85.1463C79.2988 85.3394 79.2326 85.5863 79.0395 85.6978Z" fill="#F05E90"/>
</g>
<g opacity="0.455151">
<path d="M44.0765 87.6443C43.3265 86.6668 43.5587 85.2108 44.5909 84.4188C45.6231 83.6267 47.0897 83.7793 47.8397 84.7567L47.8439 84.7623" stroke="#EE3764" stroke-width="2" stroke-linecap="round" stroke-linejoin="round"/>
</g>
<g opacity="0.2">
<path d="M83.1939 57.7851C83.1939 72.9499 70.9004 85.2435 55.7355 85.2435C40.5706 85.2435 28.277 72.9499 28.277 57.7851C28.277 42.6202 40.5706 30.3267 55.7355 30.3267C70.9004 30.3267 83.1939 42.6202 83.1939 57.7851Z" fill="#EE3764"/>
</g>
<path d="M75.4887 57.7851C75.4887 68.6944 66.6449 77.5383 55.7354 77.5383C44.8261 77.5383 35.9822 68.6944 35.9822 57.7851C35.9822 46.8756 44.8261 38.0319 55.7354 38.0319C66.6449 38.0319 75.4887 46.8756 75.4887 57.7851Z" fill="#EE3764"/>
<path d="M47.0156 57.8185L52.8065 63.6094L64.4554 51.9606" stroke="white" stroke-width="4" stroke-linecap="round" stroke-linejoin="round"/>
</g>
</g>
<defs>
<clipPath id="clip0_108_4132">
<rect width="113" height="113" fill="white"/>
</clipPath>
</defs>
</svg>
