<svg width="25" height="23" viewBox="0 0 25 23" fill="none" xmlns="http://www.w3.org/2000/svg">
<g id="Black">
<path id="Vector" d="M12.9811 1.23043L12.9811 1.23041L12.9829 1.2297C13.5724 0.997469 14.1151 0.887565 14.6264 0.919522C15.1389 0.951554 15.6139 1.12575 16.0676 1.45226C16.2431 1.57509 16.3783 1.66349 16.4941 1.72139C16.6088 1.77875 16.6987 1.80317 16.7836 1.80317C16.8684 1.80317 16.9583 1.77875 17.0731 1.72139C17.1889 1.66348 17.3241 1.57507 17.4997 1.45222C18.0766 1.03769 18.6456 0.850798 19.2342 0.911053C19.8205 0.971062 20.4106 1.27468 21.0345 1.80942C21.4939 2.19813 21.7814 2.50045 21.9494 2.87831C22.1168 3.25511 22.1603 3.69561 22.1603 4.34802C22.1603 6.31529 21.1951 8.31163 19.5228 9.7704C18.8157 10.3892 18.2073 10.8025 17.6284 11.0241C17.0462 11.2469 16.4976 11.2744 15.9151 11.1288C14.3265 10.7317 12.857 9.16246 11.9761 7.4184C11.5343 6.54367 11.2364 5.61737 11.1453 4.75984C11.0543 3.90348 11.1687 3.1059 11.5638 2.49937L11.5638 2.49932L11.5663 2.49583C11.7467 2.24321 11.989 1.97416 12.2399 1.74569C12.4893 1.51855 12.7544 1.32491 12.9811 1.23043ZM17.7379 2.44433L17.737 2.44534C17.5573 2.64303 17.3591 2.8234 17.1818 2.9552C17.0933 3.02103 17.0082 3.07607 16.9319 3.11513C16.8589 3.15252 16.7819 3.18162 16.7132 3.18162C16.6792 3.18162 16.6443 3.17256 16.6132 3.16159C16.5806 3.15013 16.5452 3.13407 16.5082 3.11483C16.4342 3.07633 16.3477 3.02196 16.2553 2.9566C16.0703 2.82571 15.8549 2.64614 15.6575 2.44878C15.4728 2.26406 15.227 2.09413 14.98 1.97063C14.7309 1.84607 14.4921 1.77451 14.3211 1.77451C13.8357 1.77451 13.245 2.13625 12.7679 2.65671C12.2921 3.17573 11.9587 3.8209 11.9587 4.34802C11.9587 5.49297 12.6898 7.00117 13.6609 8.23034C14.1447 8.84272 14.6835 9.3799 15.212 9.76304C15.7431 10.148 16.2519 10.369 16.6781 10.369C16.9038 10.369 17.2352 10.2392 17.6274 10.0029C18.0148 9.7695 18.4462 9.44158 18.8673 9.06634C19.712 8.31351 20.4991 7.38457 20.8072 6.66612C21.5738 4.819 21.3832 3.29448 20.3799 2.49156C19.8049 2.03861 19.334 1.81782 18.9187 1.80967C18.5099 1.80166 18.1312 1.99978 17.7379 2.44433L17.7379 2.44433Z" fill="white" stroke="white" stroke-width="0.2"/>
<path id="Vector_2" d="M12.9047 2.7396L12.904 2.73905L13.8285 3.25752L13.8966 3.3308C13.8965 3.33085 13.8965 3.3309 13.8964 3.33095C13.6561 3.55417 13.4327 3.82055 13.2702 4.06864C13.1889 4.19269 13.1239 4.31052 13.0796 4.41469C13.0345 4.52052 13.0139 4.60502 13.0139 4.66463C13.0139 4.83807 12.9661 4.9843 12.8722 5.07192C12.8242 5.11671 12.765 5.14491 12.6993 5.15017C12.634 5.15539 12.5695 5.13744 12.5107 5.10216L12.5107 5.10219L12.5084 5.10077C12.375 5.01588 12.3107 4.85677 12.2866 4.68394C12.2621 4.50784 12.2758 4.29601 12.3188 4.07396C12.4049 3.62991 12.6128 3.12272 12.9047 2.7396Z" fill="white" stroke="white" stroke-width="0.2"/>
<path id="Vector_3" d="M6.64706 13.9569L6.64708 13.9569L6.64517 13.9585C6.39878 14.1609 6.20323 14.3165 6.05044 14.4267C5.90152 14.5342 5.78133 14.6077 5.68899 14.6329C5.64182 14.6457 5.58348 14.6512 5.53013 14.6219C5.4744 14.5913 5.4503 14.5376 5.44019 14.4911C5.43018 14.4451 5.4304 14.3918 5.43503 14.3369C5.43977 14.2808 5.44977 14.2161 5.46321 14.1445C5.484 14.0304 5.54157 13.904 5.62103 13.7753C5.7013 13.6454 5.80747 13.5076 5.9314 13.3701C6.17892 13.0956 6.50218 12.8172 6.84411 12.6011C7.52405 12.1539 8.20772 11.8925 8.99102 11.8205C9.77278 11.7486 10.6477 11.8659 11.7097 12.1668L11.7098 12.1668L11.7128 12.1677C12.478 12.4112 13.9833 12.6916 15.0343 12.7967L15.0357 12.7969C15.8082 12.8847 16.3234 12.9736 16.6815 13.1251C17.05 13.281 17.2523 13.503 17.4023 13.8406L17.4027 13.8414C17.5144 14.0994 17.6313 14.2766 17.7745 14.386C17.9142 14.4927 18.0895 14.543 18.3369 14.5246C18.5876 14.506 18.9072 14.417 19.3266 14.2485C19.7449 14.0804 20.2561 13.8358 20.8884 13.5109C21.7461 13.0688 22.4597 12.809 23.0071 12.712C23.2808 12.6635 23.5174 12.6549 23.7117 12.6874C23.9062 12.7199 24.065 12.7948 24.1717 12.919C24.3883 13.1713 24.3453 13.5642 24.1153 14.0207C23.8813 14.4854 23.4351 15.0572 22.7632 15.7115C21.5965 16.8604 20.6946 17.5322 19.2964 17.9521C17.9066 18.3695 16.0299 18.5367 12.9192 18.6949C11.4246 18.7828 9.95684 18.8795 8.79703 18.9717C8.21702 19.0179 7.71459 19.0629 7.32459 19.105C6.93153 19.1475 6.66026 19.1865 6.53711 19.2193L6.53718 19.2196L6.52977 19.221C6.24356 19.2746 5.98691 19.2939 5.79784 19.275C5.70433 19.2656 5.61864 19.2462 5.55323 19.2105C5.48551 19.1735 5.42637 19.1103 5.42637 19.0172C5.42637 18.8902 5.5192 18.7905 5.63058 18.7145C5.74666 18.6353 5.91118 18.5622 6.11279 18.4942C6.51736 18.3579 7.09466 18.2348 7.79386 18.1311C9.19369 17.9236 11.0983 17.7915 13.1248 17.7915C17.6868 17.7915 20.1178 17.0546 22.1309 15.1111C22.6209 14.6298 22.9606 14.233 23.1613 13.9333C23.262 13.783 23.3248 13.6613 23.3553 13.5685C23.3874 13.4712 23.3768 13.4282 23.3682 13.414C23.3638 13.4066 23.3451 13.3841 23.264 13.3864C23.1843 13.3887 23.0688 13.4155 22.9145 13.4753C22.6077 13.5944 22.1753 13.8336 21.6238 14.21L21.6233 14.2104C20.8508 14.7314 19.6835 15.1304 18.3757 15.3734C17.066 15.6168 15.6061 15.7053 14.2427 15.5991L14.2427 15.5991L14.2414 15.599C13.5613 15.5371 13.0512 15.4507 12.711 15.3561C12.5418 15.309 12.409 15.2584 12.3175 15.2047C12.272 15.178 12.2314 15.1474 12.2021 15.1118C12.1722 15.0754 12.149 15.0271 12.1546 14.9706C12.1602 14.9148 12.1918 14.872 12.2267 14.8415C12.2615 14.8112 12.3064 14.7868 12.3562 14.7665C12.4561 14.7256 12.5964 14.6929 12.7723 14.6682C13.1257 14.6187 13.6444 14.5991 14.3243 14.6255C14.9031 14.6431 15.454 14.643 15.8722 14.6212C16.0818 14.6103 16.2554 14.5941 16.3817 14.5725C16.445 14.5617 16.4934 14.55 16.5272 14.5382C16.5546 14.5287 16.5639 14.5219 16.565 14.5215L16.5668 14.5191L16.5718 14.514C16.6587 14.4272 16.677 14.3481 16.6623 14.279C16.6464 14.2037 16.5863 14.1171 16.4696 14.0326C16.2368 13.864 15.8199 13.735 15.3058 13.735C14.7305 13.735 13.1379 13.4863 11.8347 13.1693L11.8347 13.1693C10.4637 12.8353 9.54823 12.7081 8.78651 12.8236C8.03026 12.9383 7.41418 13.2944 6.64706 13.9569Z" fill="white" stroke="white" stroke-width="0.2"/>
<path id="Vector_4" d="M1.02934 14.8633L1.03134 14.794L1.09687 14.7716L2.32809 14.3495L2.33828 14.346C2.94529 14.1378 3.41307 13.9775 3.76738 13.9173C4.12476 13.8566 4.40348 13.8917 4.59236 14.121C4.68233 14.2303 4.7449 14.376 4.7901 14.5561C4.8354 14.7365 4.8648 14.9577 4.88423 15.2233C4.92297 15.753 4.92297 16.4748 4.92297 17.4293V17.4342V20.9168V20.9917L4.85106 21.0127L3.40928 21.4347C2.59774 21.6817 1.72517 21.9612 1.48529 22.064L1.4853 22.064L1.48436 22.0644C1.42331 22.0898 1.35735 22.1063 1.29092 22.0977C1.22067 22.0887 1.16149 22.0532 1.11483 21.9967C1.07036 21.9428 1.03775 21.8706 1.01237 21.7846C0.986725 21.6977 0.96664 21.5903 0.950885 21.4609C0.88826 20.9465 0.888675 20.0325 0.923794 18.5223L0.92381 18.5218L1.02934 14.8633ZM2.67908 15.2053L2.67915 15.2054L2.67357 15.2073C2.434 15.2871 2.26794 15.3491 2.14507 15.4359C2.0283 15.5185 1.94672 15.6267 1.88866 15.8109C1.82903 16 1.79528 16.2661 1.7772 16.6604C1.75919 17.0535 1.75697 17.5655 1.75697 18.2432V20.8986L2.61989 20.7137C2.9926 20.6249 3.25774 20.5613 3.45409 20.4704C3.64324 20.3828 3.76218 20.2726 3.84327 20.0892C3.92775 19.8981 3.97347 19.6225 3.99647 19.1981C4.01938 18.7755 4.01941 18.218 4.01941 17.4693C4.01941 16.7149 3.99308 16.0232 3.94944 15.5257C3.92756 15.2763 3.9016 15.079 3.87326 14.9478C3.86123 14.8921 3.84969 14.8528 3.83969 14.8277C3.80713 14.8313 3.76197 14.8396 3.70413 14.8535C3.62492 14.8725 3.52853 14.9003 3.41995 14.935C3.20294 15.0045 2.9414 15.1003 2.67908 15.2053Z" fill="white" stroke="white" stroke-width="0.2"/>
<path id="Vector_5" d="M3.24007 16.5492C3.07945 16.5492 2.92787 16.4992 2.81437 16.4219C2.70419 16.3467 2.6124 16.2323 2.6124 16.0974C2.6124 15.948 2.70069 15.832 2.81701 15.758C2.93271 15.6844 3.08412 15.6456 3.24007 15.6456C3.39602 15.6456 3.54742 15.6844 3.66312 15.758C3.77945 15.832 3.86774 15.948 3.86774 16.0974C3.86774 16.2323 3.77594 16.3467 3.66577 16.4219C3.55227 16.4992 3.40069 16.5492 3.24007 16.5492Z" fill="white" stroke="white" stroke-width="0.2"/>
</g>
</svg>
