<svg width="17" height="17" viewBox="0 0 17 17" fill="none" xmlns="http://www.w3.org/2000/svg">
<g id="shopping-bag">
<path id="Vector" d="M4.25 1.41667L2.125 4.25001V14.1667C2.125 14.5424 2.27426 14.9027 2.53993 15.1684C2.80561 15.4341 3.16594 15.5833 3.54167 15.5833H13.4583C13.8341 15.5833 14.1944 15.4341 14.4601 15.1684C14.7257 14.9027 14.875 14.5424 14.875 14.1667V4.25001L12.75 1.41667H4.25Z" stroke="#EE3764" stroke-width="1.5" stroke-linecap="round" stroke-linejoin="round"/>
<path id="Vector_2" d="M2.125 4.25H14.875" stroke="#EE3764" stroke-width="1.5" stroke-linecap="round" stroke-linejoin="round"/>
<path id="Vector_3" d="M11.3332 7.08333C11.3332 7.83478 11.0347 8.55544 10.5033 9.0868C9.97195 9.61815 9.25128 9.91666 8.49984 9.91666C7.74839 9.91666 7.02772 9.61815 6.49637 9.0868C5.96501 8.55544 5.6665 7.83478 5.6665 7.08333" stroke="#EE3764" stroke-width="1.5" stroke-linecap="round" stroke-linejoin="round"/>
</g>
</svg>
