<svg width="93" height="14" viewBox="0 0 93 14" fill="none" xmlns="http://www.w3.org/2000/svg">
<g id="Group 1000003468">
<path id="Vector" d="M8 1L10.163 4.94953L15 5.58675L11.5 8.65931L12.326 13L8 10.9495L3.674 13L4.5 8.65931L1 5.58675L5.837 4.94953L8 1Z" fill="#FFBB31" stroke="#FFBB31" stroke-linecap="round" stroke-linejoin="round"/>
<path id="Vector_2" d="M27 1L29.163 4.94953L34 5.58675L30.5 8.65931L31.326 13L27 10.9495L22.674 13L23.5 8.65931L20 5.58675L24.837 4.94953L27 1Z" fill="#FFBB31" stroke="#FFBB31" stroke-linecap="round" stroke-linejoin="round"/>
<path id="Vector_3" d="M47 1L49.163 4.94953L54 5.58675L50.5 8.65931L51.326 13L47 10.9495L42.674 13L43.5 8.65931L40 5.58675L44.837 4.94953L47 1Z" fill="#FFBB31" stroke="#FFBB31" stroke-linecap="round" stroke-linejoin="round"/>
<path id="Vector_4" d="M66 1L68.163 4.94953L73 5.58675L69.5 8.65931L70.326 13L66 10.9495L61.674 13L62.5 8.65931L59 5.58675L63.837 4.94953L66 1Z" fill="#FFBB31" stroke="#FFBB31" stroke-linecap="round" stroke-linejoin="round"/>
<path id="Vector_5" d="M85 1L87.163 4.94953L92 5.58675L88.5 8.65931L89.326 13L85 10.9495L80.674 13L81.5 8.65931L78 5.58675L82.837 4.94953L85 1Z" stroke="#FFBB31" stroke-linecap="round" stroke-linejoin="round"/>
</g>
</svg>
