<svg width="32" height="32" viewBox="0 0 32 32" fill="none" xmlns="http://www.w3.org/2000/svg">
<g id="gridicons:stats-up" clip-path="url(#clip0_436_4817)">
<path id="Vector" d="M25.8015 4.41016H7.56771C6.87687 4.41016 6.21432 4.68459 5.72583 5.17309C5.23733 5.66159 4.96289 6.32414 4.96289 7.01498V25.2487C4.96289 25.9396 5.23733 26.6021 5.72583 27.0906C6.21432 27.5791 6.87687 27.8536 7.56771 27.8536H25.8015C26.4923 27.8536 27.1549 27.5791 27.6434 27.0906C28.1319 26.6021 28.4063 25.9396 28.4063 25.2487V7.01498C28.4063 6.32414 28.1319 5.66159 27.6434 5.17309C27.1549 4.68459 26.4923 4.41016 25.8015 4.41016ZM25.8015 25.2487H7.56771V7.01498H25.8015V25.2487ZM12.7774 22.6439H10.1725V16.1319H12.7774V22.6439ZM17.987 22.6439H15.3822V13.527H17.987V22.6439ZM23.1966 22.6439H20.5918V9.6198H23.1966V22.6439Z" fill="white"/>
<line id="Line 140" x1="31.3863" y1="4.0752" x2="31.3863" y2="19.2576" stroke="white" stroke-width="0.8"/>
<line id="Line 141" x1="1.91367" y1="13.8994" x2="1.91367" y2="29.0818" stroke="white" stroke-width="0.8"/>
</g>
<defs>
<clipPath id="clip0_436_4817">
<rect width="31.2579" height="31.2579" fill="white" transform="translate(0.621094 0.50293)"/>
</clipPath>
</defs>
</svg>
