<svg width="31" height="33" viewBox="0 0 31 33" fill="none" xmlns="http://www.w3.org/2000/svg">
<g id="Black">
<path id="Vector" d="M5.325 0.696512C2.1875 1.49651 0 4.32151 0 7.57151C0 9.55901 0.6625 11.1715 2.0625 12.584C3.2875 13.809 5.075 14.634 6.525 14.634C6.8625 14.634 7.1125 14.734 7.4 14.984C7.625 15.184 10.375 17.584 13.5 20.334C16.625 23.0715 19.4375 25.4465 19.7375 25.5965C20.425 25.959 21.3375 25.9715 22.0125 25.6465L22.5 25.409L24.1 27.1465C24.975 28.109 25.7375 29.034 25.8 29.209C25.9625 29.6965 25.675 30.209 25.075 30.509C24.425 30.8215 23.9625 30.8215 23.3125 30.5215C23.0375 30.3965 20.425 28.334 17.5 25.9465C13.925 23.034 11.9125 21.4715 11.3625 21.184C9.05 20.0215 6.2375 19.934 4 20.959C3.1125 21.359 2.875 21.5965 2.875 22.034C2.875 22.284 2.9625 22.434 3.1625 22.5215C3.4125 22.634 3.6 22.584 4.2375 22.2715C5.4375 21.659 6.3625 21.4715 7.75 21.5465C9.9 21.6465 10.775 22.0965 13.875 24.634C14.9375 25.4965 17.25 27.384 19 28.8215C20.75 30.2465 22.475 31.559 22.8125 31.709C25.15 32.809 27.925 30.6715 26.925 28.559C26.8125 28.3215 25.9375 27.2715 25 26.234L23.2875 24.334L23.4 23.8965C23.6875 22.859 23.7875 23.0465 19.125 15.759C13.7 7.28401 14.125 7.99651 14.125 7.27151C14.125 5.17151 12.6625 2.63401 10.825 1.57151C9.2125 0.634012 6.9875 0.284012 5.325 0.696512ZM9 2.12151C10.0875 2.53401 10.075 2.52151 9.8125 3.19651C8.8875 5.62151 4.2125 9.48401 2.125 9.55901L1.5625 9.57151L1.4125 9.00901C1.2125 8.20901 1.225 6.93401 1.45 6.07151C1.95 4.13401 3.5875 2.52151 5.6375 1.94651C6.5375 1.69651 8.1 1.77151 9 2.12151ZM11.45 4.28401C11.05 6.40901 6.45 10.5715 3.675 11.334C2.9125 11.534 2.8625 11.534 2.625 11.3215C2.2625 10.9965 2.3125 10.909 2.9 10.7465C3.55 10.5715 4.825 9.94651 5.75 9.35901C7.7875 8.03401 10.0125 5.72151 10.875 4.02151C11.125 3.53401 11.1625 3.49651 11.3375 3.67151C11.475 3.80901 11.5125 3.98401 11.45 4.28401ZM12.7375 6.35901C13.4875 9.93401 10.7375 13.384 7.1375 13.384C6.25 13.384 5.1125 13.134 4.475 12.809L4.1 12.609L5.0375 12.1965C7.575 11.0965 11.075 8.03401 12.15 5.95901C12.4375 5.39651 12.55 5.47151 12.7375 6.35901ZM14.9 11.534C21.025 21.0465 22.0375 22.6965 22.1 23.259C22.1625 23.959 21.825 24.459 21.2 24.5715C20.625 24.684 20.0875 24.4215 19.1125 23.559C18.6625 23.1465 16.925 21.609 15.25 20.134C13.575 18.659 11.45 16.7715 10.525 15.959L8.85 14.4715L9.6 14.184C11.4 13.509 12.9125 12.0465 13.6125 10.284C13.7125 10.0715 13.7875 9.88401 13.8125 9.88401C13.825 9.88401 14.325 10.634 14.9 11.534Z" fill="#EE3764"/>
<path id="Vector_2" d="M3.06249 4.22227C2.56249 4.95977 2.33749 5.82227 2.41249 6.63477C2.49999 7.58477 2.66249 7.88477 3.11249 7.88477C3.66249 7.88477 3.78749 7.63477 3.68749 6.73477C3.61249 6.00977 3.63749 5.88477 3.98749 5.20977C4.53749 4.17227 4.46249 3.75977 3.72499 3.75977C3.47499 3.75977 3.29999 3.87227 3.06249 4.22227Z" fill="#EE3764"/>
<path id="Vector_3" d="M13.6375 14.9973C13.325 15.2473 13.25 15.3973 13.325 15.5223C13.55 15.8973 16.1625 18.8848 16.25 18.8848C16.475 18.8848 17.1375 18.2098 17.075 18.0598C16.9875 17.8348 14.2375 14.6348 14.1375 14.6348C14.1 14.6348 13.875 14.7973 13.6375 14.9973Z" fill="#EE3764"/>
<path id="Vector_4" d="M24.325 2.14555L24 2.39555V5.05805V7.72055L23.0375 7.78305C20.3 7.94555 18.5875 10.5205 20.4 11.733C21.4375 12.4205 23.5375 12.0705 24.55 11.058C25.225 10.383 25.375 9.87054 25.375 8.09555C25.375 7.20805 25.425 6.50805 25.475 6.53305C25.525 6.54555 26.4875 6.95805 27.6 7.44555L29.625 8.32055V9.07055V9.82055L28.75 9.83305C26.6125 9.85805 24.7625 11.683 25.45 13.083C25.825 13.8205 26.25 14.058 27.2875 14.108C28.8125 14.183 30.2625 13.4455 30.7625 12.333C30.975 11.8705 31 11.458 31 8.43304C31 5.35804 30.975 5.03304 30.7875 4.85804C30.5875 4.68305 25.6625 2.28304 24.9375 2.00805C24.7125 1.92054 24.575 1.95805 24.325 2.14555ZM27.5875 4.68305L29.5625 5.62055L29.6 6.32055C29.625 6.70805 29.5875 7.00805 29.5375 6.98305C29.4875 6.94555 28.525 6.50805 27.4125 6.00805L25.375 5.09554V4.42054C25.375 4.05805 25.425 3.75805 25.5 3.75805C25.5625 3.75805 26.5125 4.17054 27.5875 4.68305ZM23.7125 9.08305C24.05 9.17055 24.1625 9.44555 24 9.77055C23.625 10.458 21.4125 10.9955 21.075 10.483C20.875 10.158 21.5375 9.54555 22.3875 9.24554C23.125 8.99554 23.3 8.97055 23.7125 9.08305ZM29.675 11.408C30.05 12.008 27.85 13.108 26.95 12.758C26.525 12.5955 26.5375 12.3205 27 11.883C27.7375 11.1955 29.3625 10.908 29.675 11.408Z" fill="#EE3764"/>
<path id="Vector_5" d="M8.02502 23.1598C7.91252 23.2723 7.87502 24.0598 7.87502 25.9598V28.6098L6.95002 28.6598C4.46252 28.7848 2.66252 30.9223 3.87502 32.3098C4.36252 32.8598 4.96252 33.0598 5.92502 32.9848C7.55002 32.8473 8.83752 31.8973 9.11252 30.6473C9.18752 30.2848 9.25002 28.9598 9.25002 27.6973C9.25002 26.4223 9.28752 25.3848 9.32502 25.3848C9.37502 25.3848 9.62502 25.5848 9.88752 25.8223C10.6 26.4598 11.25 26.3723 11.25 25.6348C11.25 25.3098 10.8375 24.8598 9.35002 23.5348C8.75002 23.0098 8.30002 22.8848 8.02502 23.1598ZM7.85002 30.3473C7.93752 30.9348 6.52502 31.6848 5.48752 31.6098C3.96252 31.4973 5.56252 29.9723 7.12502 30.0348C7.72502 30.0723 7.81252 30.1098 7.85002 30.3473Z" fill="#EE3764"/>
</g>
</svg>
