<svg width="15" height="15" viewBox="0 0 15 15" fill="none" xmlns="http://www.w3.org/2000/svg">
<g id="Group 1000002971">
<g id="Vector">
<path d="M7.26404 3.20557V7.26409L9.96972 8.61693" fill="#DF443D"/>
<path d="M7.26404 3.20557V7.26409L9.96972 8.61693" stroke="#DF443D" stroke-linecap="round" stroke-linejoin="round"/>
</g>
<path id="Subtract" fill-rule="evenodd" clip-rule="evenodd" d="M1 7.26421C1 3.80458 3.80458 1 7.26421 1C10.7238 1 13.5284 3.80458 13.5284 7.26421C13.5284 7.26422 13.5284 7.26424 13.5284 7.26426H14.5284C14.5284 7.26424 14.5284 7.26422 14.5284 7.26421C14.5284 3.2523 11.2761 0 7.26421 0C3.2523 0 0 3.2523 0 7.26421C0 11.2761 3.2523 14.5284 7.26421 14.5284C8.48546 14.5284 9.63633 14.227 10.6465 13.6946V12.5377C9.67093 13.1647 8.51004 13.5284 7.26421 13.5284C3.80458 13.5284 1 10.7238 1 7.26421Z" fill="#DF443D"/>
<line id="Line 23" x1="12.4992" y1="7.76416" x2="12.4992" y2="12.1755" stroke="#DF443D" stroke-linecap="round"/>
<circle id="Ellipse 1184" cx="12.5065" cy="13.8594" r="0.507315" fill="#DF443D"/>
</g>
</svg>
