<svg width="28" height="27" viewBox="0 0 28 27" fill="none" xmlns="http://www.w3.org/2000/svg">
<g id="solar:wallet-2-outline">
<g id="Group">
<path id="Vector" d="M21.721 13.5783C21.721 13.8743 21.6034 14.1583 21.394 14.3676C21.1847 14.577 20.9007 14.6946 20.6046 14.6946C20.3086 14.6946 20.0246 14.577 19.8153 14.3676C19.6059 14.1583 19.4883 13.8743 19.4883 13.5783C19.4883 13.2822 19.6059 12.9982 19.8153 12.7889C20.0246 12.5795 20.3086 12.4619 20.6046 12.4619C20.9007 12.4619 21.1847 12.5795 21.394 12.7889C21.6034 12.9982 21.721 13.2822 21.721 13.5783Z" fill="white"/>
<path id="Vector_2" fill-rule="evenodd" clip-rule="evenodd" d="M11.6118 3.81055H15.0859C17.1378 3.81055 18.7632 3.81055 20.0347 3.98135C21.3431 4.15773 22.4025 4.52836 23.2386 5.36339C24.2701 6.39602 24.5995 7.77806 24.7189 9.57204C25.363 9.85448 25.8498 10.454 25.9022 11.2131C25.9078 11.2812 25.9078 11.3537 25.9078 11.4207V15.7365C25.9078 15.8035 25.9078 15.8761 25.9034 15.9431C25.8498 16.7022 25.363 17.3028 24.7189 17.5863C24.5995 19.3792 24.2701 20.7612 23.2386 21.7939C22.4025 22.6289 21.3431 22.9995 20.0347 23.1759C18.7621 23.3467 17.1378 23.3467 15.0859 23.3467H11.6118C9.55996 23.3467 7.93455 23.3467 6.66303 23.1759C5.35466 22.9995 4.29524 22.6289 3.4591 21.7939C2.62406 20.9577 2.25344 19.8983 2.07705 18.5899C1.90625 17.3173 1.90625 15.693 1.90625 13.6411V13.5161C1.90625 11.4643 1.90625 9.83885 2.07705 8.56732C2.25344 7.25896 2.62406 6.19954 3.4591 5.36339C4.29524 4.52836 5.35466 4.15773 6.66303 3.98135C7.93567 3.81055 9.55996 3.81055 11.6118 3.81055ZM23.0254 17.7649H20.8619C18.4673 17.7649 16.4177 15.9475 16.4177 13.5786C16.4177 11.2097 18.4673 9.39231 20.8608 9.39231H23.0243C22.897 7.89528 22.6101 7.10379 22.0531 6.54784C21.5808 6.07563 20.9334 5.79207 19.8103 5.64136C18.6638 5.48731 17.1512 5.48508 15.0223 5.48508H11.6732C9.54433 5.48508 8.03279 5.48731 6.88406 5.64136C5.76213 5.79207 5.11465 6.07563 4.64243 6.54784C4.17021 7.02006 3.88666 7.66754 3.73595 8.79059C3.58189 9.9382 3.57966 11.4497 3.57966 13.5786C3.57966 15.7075 3.58189 17.2191 3.73595 18.3678C3.88666 19.4897 4.17021 20.1372 4.64243 20.6094C5.11465 21.0816 5.76213 21.3652 6.88518 21.5159C8.03279 21.67 9.54433 21.6722 11.6732 21.6722H15.0223C17.1512 21.6722 18.6638 21.67 19.8114 21.5159C20.9334 21.3652 21.5808 21.0816 22.0531 20.6094C22.6101 20.0535 22.8981 19.2631 23.0254 17.7649ZM23.8694 11.0668H20.8619C19.2722 11.0668 18.0922 12.2491 18.0922 13.5786C18.0922 14.9082 19.2722 16.0904 20.8608 16.0904H23.895C24.125 16.0759 24.2244 15.9207 24.2322 15.827V11.3303C24.2244 11.2365 24.125 11.0813 23.895 11.068H23.8682L23.8694 11.0668ZM8.32527 9.39231C8.54733 9.39231 8.76029 9.48052 8.91731 9.63754C9.07433 9.79455 9.16254 10.0075 9.16254 10.2296V16.9277C9.16254 17.1497 9.07433 17.3627 8.91731 17.5197C8.76029 17.6767 8.54733 17.7649 8.32527 17.7649C8.10322 17.7649 7.89026 17.6767 7.73324 17.5197C7.57622 17.3627 7.48801 17.1497 7.48801 16.9277V10.2296C7.48801 10.0075 7.57622 9.79455 7.73324 9.63754C7.89026 9.48052 8.10322 9.39231 8.32527 9.39231Z" fill="white"/>
</g>
</g>
</svg>
