<svg width="72" height="66" viewBox="0 0 72 66" fill="none" xmlns="http://www.w3.org/2000/svg">
<g id="Black">
<path id="Vector" d="M15.1852 0.703168C13.693 1.54779 13.0455 2.30795 12.4542 3.80011C12.0601 4.7855 12.0319 7.29121 12.0882 24.2118C12.1727 43.1594 12.1727 43.5254 12.7639 44.6234C13.4678 45.9467 15.157 47.2418 16.7055 47.5796C17.3249 47.7485 28.502 47.8612 42.0441 47.8612C69.0438 47.8612 68.1992 47.9175 70.1137 45.9748C72.0281 44.0885 72 44.2856 72 23.8739C72 11.6269 71.8874 5.20781 71.6903 4.39135C71.2961 2.81472 69.9447 1.18179 68.5089 0.534244C67.4109 0.0274715 66.0595 -0.000682529 41.8752 -0.000682529H16.3958L15.1852 0.703168ZM67.7487 3.26518C69.1564 4.25058 69.1846 4.58842 69.1846 19.4537C69.1846 27.2524 69.072 33.2211 68.9312 33.1648C68.7904 33.1085 65.6935 29.561 62.0335 25.2816C57.4162 19.9042 55.0513 17.3422 54.3474 17.0325C53.1649 16.4694 51.2505 16.582 50.1806 17.2859C49.8146 17.5393 46.9429 20.8051 43.8178 24.5778C40.6927 28.3223 37.9618 31.5881 37.7647 31.7852C37.4268 32.1512 37.0327 31.8697 34.893 29.7581C32.2465 27.1961 31.5145 26.7456 29.7971 26.7456C28.1642 26.7456 26.7283 27.8718 20.647 34.0375C17.5501 37.1345 14.9881 39.6965 14.9318 39.6965C14.8755 39.6965 14.8473 31.8415 14.8473 22.2128V4.72919L15.8045 3.77196L16.7618 2.81472H41.9315C64.7362 2.81472 67.1575 2.87103 67.7487 3.26518ZM53.4746 19.7634C53.6999 19.9605 57.3599 24.1555 61.583 29.1106L69.2409 38.0636L69.1283 40.5693C69.0438 42.9624 69.0157 43.1031 68.1147 43.9759L67.2138 44.905L42.7761 44.9894C29.3466 45.0176 17.9724 44.9894 17.4656 44.905C16.987 44.8205 16.2832 44.5108 15.9172 44.2011L15.2696 43.6662L22.3081 36.6277C27.6011 31.3066 29.5156 29.561 30.0223 29.561C30.5009 29.561 31.599 30.462 33.9076 32.7143C36.8356 35.6142 37.1453 35.8394 37.7928 35.586C38.187 35.4452 41.3403 31.8978 45.1129 27.365C51.9543 19.1722 52.2922 18.8344 53.4746 19.7634Z" fill="#EE3764"/>
<path id="Vector_2" d="M24.1663 9.71296C22.7305 10.5294 22.3363 10.9517 21.6043 12.5284C19.8024 16.2447 22.6741 20.6367 26.9254 20.6367C32.2465 20.6367 34.8367 14.3865 31.064 10.642C29.234 8.84018 26.3623 8.47418 24.1663 9.71296ZM29.0933 12.7817C30.2194 13.9079 30.3602 15.1185 29.5156 16.4981C27.9108 19.1164 23.8566 17.8213 23.8566 14.6681C23.8566 13.2322 25.3769 11.8245 26.9536 11.8245C27.9108 11.8245 28.305 11.9934 29.0933 12.7817Z" fill="#EE3764"/>
<path id="Vector_3" d="M6.45742 23.4524C6.20403 23.7339 0.657686 43.9767 0.0664518 46.6513C-0.299551 48.4532 0.882918 51.0433 2.71293 52.3384C3.2197 52.7044 12.3135 55.2664 27.7982 59.4051C47.1681 64.6136 52.2922 65.8805 53.1086 65.7397C54.995 65.3737 56.7687 64.1913 57.5007 62.7836C57.6977 62.3894 58.4579 59.8274 59.2181 57.0965C60.5131 52.2258 60.5413 52.085 60.0345 51.522C59.4433 50.8744 58.6831 50.79 58.1201 51.353C57.923 51.5783 57.191 53.7743 56.5153 56.2518C55.1639 61.404 54.7134 62.3049 53.3339 62.7554C52.4329 63.0651 51.4194 62.8399 42.4101 60.4186C36.9201 58.9546 26.2497 56.0829 18.6481 54.0558C11.0747 52.0287 4.54294 50.1424 4.14879 49.8609C3.75463 49.5793 3.27601 48.9318 3.07893 48.3969C2.74108 47.4959 2.91001 46.6795 5.80987 35.8965C8.65343 25.2824 8.87866 24.297 8.48451 23.7339C8.03404 23.0301 6.93603 22.8612 6.45742 23.4524Z" fill="#EE3764"/>
</g>
</svg>
