<svg width="18" height="18" viewBox="0 0 18 18" fill="none" xmlns="http://www.w3.org/2000/svg">
<path id="Vector" d="M7.83538 0.0720711C6.30513 0.26564 4.76137 0.904871 3.48765 1.88172C3.08258 2.18783 2.27695 2.98912 1.95739 3.39427C0.445139 5.32997 -0.225474 7.69782 0.0670757 10.0792C0.224602 11.3351 0.652174 12.5866 1.28678 13.649C1.75486 14.4278 2.6145 15.4091 3.33013 15.9898C6.05758 18.1956 9.81122 18.6233 12.9392 17.0882C13.9429 16.593 14.681 16.0528 15.4597 15.2515C16.1888 14.4953 16.6569 13.829 17.1024 12.9062C18.5877 9.82709 18.2096 6.22579 16.1168 3.4843C15.8287 3.10166 15.0726 2.33189 14.672 2.00777C12.7592 0.463713 10.2838 -0.238541 7.83538 0.0720711ZM9.15411 3.26822C9.22162 3.4888 9.53217 4.43865 9.83822 5.38399L10.4008 7.10811L12.6557 7.11711L14.9151 7.13062L13.0923 8.45409C12.0931 9.17886 11.2785 9.78658 11.2785 9.80458C11.2875 9.83609 11.8501 11.5827 12.3046 12.9827C12.4892 13.5499 12.6332 14.0226 12.6242 14.0316C12.6152 14.0451 12.4667 13.9506 12.3001 13.829C11.4585 13.2123 10.7384 12.6901 9.91473 12.0869L9.00108 11.4252L7.62385 12.429C5.64802 13.8695 5.39597 14.0496 5.37797 14.0316C5.36897 14.0226 5.67052 13.0638 6.04858 11.9023C6.7282 9.80008 6.7327 9.78658 6.64268 9.71455C6.58867 9.67404 5.76954 9.07982 4.81538 8.38657L3.08258 7.13062L5.34196 7.11711L7.60134 7.10811L8.11893 5.51904C8.40248 4.65022 8.71303 3.69588 8.80305 3.40327C8.89756 3.11517 8.98758 2.87658 9.00108 2.87658C9.01458 2.87658 9.08209 3.05215 9.15411 3.26822Z" fill="#EE3764"/>
</svg>
