<svg width="18" height="18" viewBox="0 0 18 18" fill="none" xmlns="http://www.w3.org/2000/svg">
<path id="Subtract" fill-rule="evenodd" clip-rule="evenodd" d="M9 18C13.9706 18 18 13.9706 18 9C18 4.02944 13.9706 0 9 0C4.02944 0 0 4.02944 0 9C0 13.9706 4.02944 18 9 18ZM10.902 4.94297C10.9898 4.76719 11.141 4.60371 11.2729 4.54219C11.4012 4.48242 11.5506 4.48242 11.6104 4.54395C11.642 4.57383 11.6543 4.60547 11.6543 4.65469C11.6543 4.74785 11.5928 4.80762 11.4838 4.8252C11.4152 4.83574 11.3871 4.85332 11.3115 4.93066C11.2008 5.04316 11.1252 5.21367 11.0795 5.44746L11.0479 5.60742H10.8844H10.7191L10.7314 5.49668C10.7508 5.33496 10.8211 5.1082 10.902 4.94297ZM10.7754 5.90098C10.3869 5.94492 10.0898 6.28242 10.0898 6.67793C10.0916 7.1666 10.5082 7.52695 10.9898 7.45488C11.6297 7.3582 11.8828 6.55488 11.4117 6.11367C11.2412 5.95547 11.0021 5.87461 10.7754 5.90098ZM5.06426 9.67324C5.06777 9.6627 5.96074 8.91738 7.04883 8.01738C8.8418 6.53379 9.03164 6.38086 9.08789 6.38086C9.14766 6.38086 9.45879 6.40547 9.68555 6.42656L9.7998 6.43711V6.67793C9.7998 6.88535 9.80508 6.93106 9.84199 7.02949C10.0107 7.49004 10.401 7.76953 10.8686 7.76953C11.0549 7.76953 11.1937 7.73613 11.3625 7.65176C11.6051 7.53047 11.8652 7.20703 11.9092 6.97324C11.9162 6.93809 11.9285 6.90469 11.9338 6.89941C11.9531 6.88887 12.201 6.9873 12.4365 7.10156C12.8777 7.31426 13.173 7.55859 13.2996 7.81348C13.3383 7.89082 13.3594 7.95234 13.3488 7.96113C13.34 7.96816 11.482 8.35664 9.21973 8.82422C6.95742 9.2918 5.0959 9.67676 5.08184 9.68203C5.06953 9.6873 5.06074 9.68203 5.06426 9.67324ZM9.04395 9.15645C7.47713 9.48214 6.08659 9.77011 5.31593 9.92971C4.92197 10.0113 4.69 10.0593 4.6793 10.0617L4.62305 10.0758V10.858V11.6402L4.68984 11.6279C4.725 11.6227 6.69375 11.2166 9.06152 10.7262L13.3682 9.83496L13.3734 9.04746C13.3752 8.61504 13.3717 8.26172 13.3646 8.26348C13.3575 8.26348 12.0891 8.52607 10.3529 8.88548L9.04395 9.15645ZM4.62305 11.9426L8.95254 11.0443C11.3326 10.5504 13.3014 10.1461 13.3295 10.1443L13.377 10.1426V10.9213V11.7018L13.2416 11.7299C12.4963 11.8881 4.6793 13.5 4.65469 13.5C4.6248 13.5 4.62305 13.4666 4.62305 12.7213V11.9426Z" fill="#EE3764"/>
</svg>
