<svg width="46" height="46" viewBox="0 0 46 46" fill="none" xmlns="http://www.w3.org/2000/svg">
<g id="camera">
<path id="Vector" d="M44.0834 36.4167C44.0834 37.4333 43.6795 38.4084 42.9607 39.1272C42.2418 39.8461 41.2667 40.25 40.2501 40.25H5.75008C4.73342 40.25 3.75839 39.8461 3.03951 39.1272C2.32062 38.4084 1.91675 37.4333 1.91675 36.4167V15.3333C1.91675 14.3167 2.32062 13.3416 3.03951 12.6228C3.75839 11.9039 4.73342 11.5 5.75008 11.5H13.4167L17.2501 5.75H28.7501L32.5834 11.5H40.2501C41.2667 11.5 42.2418 11.9039 42.9607 12.6228C43.6795 13.3416 44.0834 14.3167 44.0834 15.3333V36.4167Z" stroke="#373434" stroke-width="2" stroke-linecap="round" stroke-linejoin="round"/>
<path id="Vector_2" d="M22.9999 32.5833C27.2341 32.5833 30.6666 29.1508 30.6666 24.9167C30.6666 20.6825 27.2341 17.25 22.9999 17.25C18.7657 17.25 15.3333 20.6825 15.3333 24.9167C15.3333 29.1508 18.7657 32.5833 22.9999 32.5833Z" stroke="#373434" stroke-width="2" stroke-linecap="round" stroke-linejoin="round"/>
</g>
</svg>
