<svg width="26" height="29" viewBox="0 0 26 29" fill="none" xmlns="http://www.w3.org/2000/svg">
<g id="Group 1000003342">
<path id="Vector" d="M14.3582 0.456303C14.7799 0.877924 14.7799 1.04657 14.3372 2.24819C13.6626 3.99792 11.9339 3.63954 11.3437 1.63684C11.1118 0.856843 11.1328 0.772519 11.5755 0.414141C12.2712 -0.155047 13.768 -0.133966 14.3582 0.456303ZM11.955 0.983329C11.7653 1.17306 12.6718 2.75414 12.9669 2.75414C13.1988 2.75414 13.9155 1.46819 13.9155 1.06765C13.9155 0.835762 12.1658 0.772519 11.955 0.983329Z" fill="#EE3764"/>
<path id="Vector_2" d="M15.7896 4.14545C17.4761 4.58815 19.1204 5.60004 20.6804 7.16004C22.3248 8.80436 23.2734 10.6173 23.6318 12.8308L23.8848 14.3276L24.728 14.3908C25.1918 14.433 25.6134 14.5806 25.6766 14.7071C25.7188 14.8546 25.6345 14.9811 25.4869 14.9811C25.3393 14.9811 24.8966 15.3606 24.475 15.8033C23.7794 16.5411 23.5896 16.6465 22.3037 16.773C21.5237 16.8573 20.575 16.8784 20.2167 16.8362C19.5421 16.7308 19.521 16.8152 19.9215 17.7638C20.0269 18.0168 19.7529 18.333 18.8253 19.0076C18.1507 19.4924 16.4642 20.9892 15.0729 22.3384C12.3323 24.9735 10.7091 26.0276 8.2637 26.7022C7.46263 26.913 6.85127 27.2292 6.72479 27.4611C6.5983 27.7141 6.28209 27.8405 5.79722 27.8405C5.18587 27.8405 5.08047 27.9249 5.01722 28.4097L4.95398 29H3.09885C0.843176 29 0.50588 28.5995 2.67723 28.5151L4.21614 28.4519V25.2054V21.9589L2.69831 21.8957C1.72858 21.8535 1.15939 21.7481 1.09615 21.5584C1.03291 21.3687 1.49669 21.3054 2.90912 21.3054C4.51128 21.3054 4.84858 21.3687 5.08047 21.706C5.24911 21.9378 5.73398 22.1487 6.26101 22.2119L7.12533 22.3173L7.56803 21.3054C8.1583 19.9352 8.13722 19.5979 7.35722 18.9233C6.70371 18.3541 6.64046 17.9957 7.041 17.0892C7.14641 16.8152 6.95668 16.7941 5.86047 16.8362C5.14371 16.8784 3.96317 16.8573 3.22533 16.773C1.96047 16.6465 1.85507 16.5833 1.34912 15.8033C1.03291 15.2973 0.674528 14.9811 0.421556 14.9811C0.189665 14.9811 -6.48499e-05 14.8335 -6.48499e-05 14.6649C-6.48499e-05 14.433 0.252907 14.3487 1.01183 14.3487H2.00263L2.27669 12.9784C2.86696 9.81625 4.30047 7.43409 6.51398 5.95842C9.40208 4.04004 12.8805 3.36545 15.7896 4.14545ZM11.1307 4.67247C8.22154 5.26274 5.24911 7.47625 3.98425 9.94274C3.47831 10.9757 2.76155 13.3789 2.74047 14.18C2.74047 14.2643 3.0356 14.3487 3.41506 14.3908C3.77344 14.433 4.11074 14.5806 4.17398 14.7071C4.23723 14.8968 3.92101 14.9811 3.07777 14.9811C1.87615 14.9811 1.53885 15.2762 2.17128 15.7822C2.4875 16.0352 23.0415 16.1827 23.6529 15.9298C23.8637 15.8454 24.0323 15.5925 24.0323 15.3816C24.0323 15.0022 23.7161 14.9811 17.0123 14.9389C12.4799 14.8968 10.0345 14.7914 10.0556 14.6649C10.0978 14.5384 12.4588 14.433 16.4853 14.3908C19.9848 14.3698 22.9361 14.2643 23.0204 14.18C23.2523 13.9481 22.641 11.3341 22.0718 10.2168C20.7015 7.5395 18.2561 5.60004 15.1783 4.73572C13.9556 4.39842 12.5432 4.37734 11.1307 4.67247ZM8.95938 17.2579C9.84478 17.806 10.0345 18.08 10.5826 19.64C10.941 20.6519 11.1729 21.0103 11.5102 21.0524C11.8053 21.0946 12.6907 20.5676 14.0399 19.5557C15.1783 18.7125 16.5486 17.7638 17.0756 17.4476L18.0242 16.8784H13.1756C8.39019 16.8784 8.32695 16.8784 8.95938 17.2579ZM18.0031 17.8481C17.5394 18.0379 16.2113 18.9022 15.0307 19.7454C11.4048 22.3806 10.9199 22.4227 10.0134 20.0406C9.381 18.3962 8.83289 17.7216 8.07398 17.7216C7.44154 17.7216 7.46263 18.08 8.11614 18.6914C8.4956 19.0287 8.64316 19.4081 8.64316 19.9141C8.64316 20.8627 7.77884 22.8022 7.18857 23.1606C6.80911 23.3924 6.74587 23.6033 6.74587 24.8892V26.3649L7.31506 26.2384C10.0978 25.5638 12.3745 24.1935 14.6513 21.7903C15.5788 20.7995 16.9702 19.5135 17.7502 18.9443C19.6053 17.5741 19.6896 17.1525 18.0031 17.8481ZM5.05939 24.8892C5.05939 26.8497 5.08047 26.9973 5.48101 26.9973C5.88155 26.9973 5.90263 26.8497 5.90263 24.8892C5.90263 22.9287 5.88155 22.7811 5.48101 22.7811C5.08047 22.7811 5.05939 22.9287 5.05939 24.8892Z" fill="#EE3764"/>
<path id="Vector_3" d="M17.4165 6.63389C19.377 7.94091 20.6208 9.88037 21.0002 12.2625C21.211 13.5696 20.6629 13.2323 20.2413 11.7987C19.5456 9.50091 18.4916 8.13064 16.4889 6.88686C16.004 6.59172 15.6035 6.23335 15.6035 6.12794C15.6035 5.7274 16.3413 5.93821 17.4165 6.63389Z" fill="#EE3764"/>
<path id="Vector_4" d="M3.07423 27.0174C3.30612 27.4179 2.80017 27.7341 2.42071 27.4179C2.14666 27.186 2.14666 27.1017 2.35747 26.9752C2.73693 26.7223 2.90558 26.7433 3.07423 27.0174Z" fill="#EE3764"/>
</g>
</svg>
