<svg width="53" height="44" viewBox="0 0 53 44" fill="none" xmlns="http://www.w3.org/2000/svg">
<g id="Black">
<path id="Vector" d="M23.7181 0.129784C21.9372 0.518112 22.2451 0.236908 11.064 11.4181C2.78859 19.7068 0.605925 21.9565 0.351503 22.4921C-0.117168 23.4562 -0.117168 25.2773 0.351503 26.2415C0.605925 26.7637 2.19941 28.4375 7.64938 33.9009C15.5231 41.7879 15.2954 41.6005 17.1701 41.6005C19.1251 41.6005 18.4422 42.1897 29.9983 30.5666C37.0819 23.4428 40.4162 20.0014 40.684 19.5328L41.0857 18.8365L41.8088 19.0239C43.0675 19.3587 45.1163 19.6131 46.4955 19.6131C48.9996 19.6131 50.8073 18.9971 51.9053 17.792C53.3649 16.1985 53.3649 14.0024 51.9053 11.7528C51.1688 10.628 49.1335 8.69977 47.6069 7.69547C46.2143 6.78491 43.7638 5.51281 42.3176 4.9504C41.3669 4.58886 41.3669 4.57546 41.2732 3.99967C41.1527 3.12928 40.4564 1.88395 39.7734 1.28138C38.6888 0.317253 38.1398 0.196735 34.5243 0.129784C25.7267 -0.0442924 24.5349 -0.0442924 23.7181 0.129784ZM33.52 6.83847C34.4306 7.38749 34.9528 8.27127 35.0198 9.35591L35.0733 10.1995L35.9705 10.7485C37.189 11.4984 39.3449 12.5429 40.4965 12.9714L41.474 13.3061L41.5008 10.9628L41.541 8.61943L42.8801 9.27557C45.7456 10.6816 48.397 12.8375 49.1067 14.3104C49.5754 15.3013 49.2138 15.6361 47.4596 15.8905C44.42 16.319 38.9164 14.6452 35.2608 12.1947L34.3502 11.5787L33.8146 12.034C32.5157 13.1454 30.5607 12.958 29.3957 11.5787C28.0433 10.012 28.5387 7.64191 30.4 6.69118C31.3775 6.19572 32.5827 6.24929 33.52 6.83847ZM25.4589 16.1182L26.115 16.7743L25.8338 17.1626C25.6865 17.3635 25.4455 17.6581 25.2848 17.792C24.9366 18.1134 24.9366 18.3678 25.2848 18.8766C25.7803 19.6131 26.3427 20.8049 26.2757 20.9923C26.2088 21.1664 24.3475 22.2377 24.2805 22.1439C24.2671 22.1172 24.0663 21.6887 23.8252 21.2066C23.1021 19.6935 21.9907 18.6758 21.0802 18.6758C20.8927 18.6758 20.5579 18.8231 20.3571 18.9971C20.0223 19.2783 19.9821 19.4123 19.9955 20.0416C20.0089 20.5103 20.1696 21.1262 20.491 21.8895C21.7765 24.9961 21.7095 26.4155 20.183 27.9421C19.5804 28.5446 19.259 28.7455 18.6431 28.933C17.6388 29.2142 16.6077 29.1338 15.59 28.6652C14.7196 28.2634 14.6393 28.2768 13.8224 29.107C13.5412 29.415 13.2065 29.6561 13.0994 29.6561C12.8315 29.6561 11.7469 28.5848 11.7469 28.3304C11.7469 28.2367 12.0147 27.8483 12.3495 27.5002C12.6842 27.152 12.9521 26.8039 12.9521 26.7369C12.9521 26.67 12.7646 26.362 12.537 26.0406C11.9745 25.2639 11.305 23.8044 11.3854 23.5767C11.4791 23.3491 13.1663 22.385 13.3672 22.4519C13.4341 22.4787 13.6484 22.8536 13.8224 23.2955C14.8401 25.7996 16.7952 27.0449 17.92 25.9201C18.5092 25.3175 18.469 24.5275 17.7191 22.7197C16.5006 19.7336 16.5943 18.3008 18.1074 16.9618C19.2055 15.9976 20.5311 15.7566 21.9238 16.2788C23.2494 16.7743 23.303 16.7609 24.0261 16.078C24.3742 15.7432 24.6956 15.462 24.7358 15.462C24.776 15.462 25.1107 15.7566 25.4589 16.1182Z" fill="#EE3764"/>
<path id="Vector_2" d="M32.0873 32.9513C24.1869 40.8518 21.6159 43.4897 21.7766 43.5567C21.8971 43.6102 26.5436 43.6504 32.1007 43.6504H42.2106L42.9069 43.329C43.2953 43.1549 43.871 42.7264 44.2192 42.3649C45.3574 41.1463 45.2771 41.8293 45.3574 31.7595C45.3976 26.8452 45.3976 22.828 45.3574 22.828C45.1432 22.828 42.9873 22.5468 42.8132 22.4932C42.6793 22.4531 38.8764 26.1623 32.0873 32.9513Z" fill="#EE3764"/>
</g>
</svg>
