<svg width="17" height="17" viewBox="0 0 17 17" fill="none" xmlns="http://www.w3.org/2000/svg">
<g id="edit-2" clip-path="url(#clip0_52_2086)">
<path id="Vector" d="M12.0417 2.12489C12.2277 1.93885 12.4486 1.79127 12.6917 1.69059C12.9347 1.58991 13.1953 1.53809 13.4584 1.53809C13.7215 1.53809 13.982 1.58991 14.225 1.69059C14.4681 1.79127 14.689 1.93885 14.875 2.12489C15.0611 2.31093 15.2086 2.53179 15.3093 2.77486C15.41 3.01793 15.4618 3.27846 15.4618 3.54156C15.4618 3.80465 15.41 4.06518 15.3093 4.30825C15.2086 4.55132 15.0611 4.77218 14.875 4.95822L5.31252 14.5207L1.41669 15.5832L2.47919 11.6874L12.0417 2.12489Z" stroke="#EF2B7B" stroke-width="2" stroke-linecap="round" stroke-linejoin="round"/>
</g>
<defs>
<clipPath id="clip0_52_2086">
<rect width="17" height="17" fill="white"/>
</clipPath>
</defs>
</svg>
