<svg width="16" height="16" viewBox="0 0 16 16" fill="none" xmlns="http://www.w3.org/2000/svg">
<g id="Group 1000003084">
<path id="Subtract" fill-rule="evenodd" clip-rule="evenodd" d="M9.26316 0H2C0.895431 0 0 0.895431 0 2V14C0 15.1046 0.895431 16 2 16H14C15.1046 16 16 15.1046 16 14V7.57895H15V14C15 14.5523 14.5523 15 14 15H2C1.44772 15 1 14.5523 1 14V2C1 1.44772 1.44772 1 2 1H9.26316V0Z" fill="#EF2B7B"/>
<path id="Arrow 1" d="M15.935 0.842259C15.935 0.566117 15.7112 0.342259 15.435 0.342259L10.935 0.342259C10.6589 0.342259 10.435 0.566117 10.435 0.842259C10.435 1.1184 10.6589 1.34226 10.935 1.34226L14.935 1.34226L14.935 5.34226C14.935 5.6184 15.1589 5.84226 15.435 5.84226C15.7112 5.84226 15.935 5.6184 15.935 5.34226L15.935 0.842259ZM9.05173 7.93265L15.7886 1.19581L15.0815 0.488706L8.34463 7.22555L9.05173 7.93265Z" fill="#EF2B7B"/>
</g>
</svg>
