<svg width="77" height="77" viewBox="0 0 77 77" fill="none" xmlns="http://www.w3.org/2000/svg">
<g id="Group 1000003450">
<g id="Clip path group">
<mask id="mask0_824_5040" style="mask-type:luminance" maskUnits="userSpaceOnUse" x="0" y="0" width="77" height="78">
<g id="f26e1516d3">
<path id="Vector" d="M0 0H76.035V77.0004H0V0Z" fill="white"/>
</g>
</mask>
<g mask="url(#mask0_824_5040)">
<g id="Group">
<path id="Vector_2" d="M76.035 38.5658C76.035 59.7912 59.0046 77.0004 38.0175 77.0004C17.0185 77.0004 0 59.7912 0 38.5658C0 17.3523 17.0185 0.143066 38.0175 0.143066C59.0046 0.143066 76.035 17.3523 76.035 38.5658Z" fill="#FFD400"/>
</g>
</g>
</g>
<path id="Vector_3" d="M54 47C54 51.8464 51.8432 56.1826 48.444 59.1043C45.6425 61.5391 41.9853 63 38 63C34.0029 63 30.3458 61.5391 27.556 59.1043C24.1451 56.1826 22 51.8464 22 47H54Z" fill="#4C2207"/>
<path id="Vector_4" d="M28.6336 33C27.3243 33 26.2673 31.9691 26.2673 30.709C26.2673 29.7927 25.8468 28.9336 25.1381 28.3379C23.9369 27.3414 22.0511 27.3528 20.8859 28.3265C20.1532 28.9336 19.7447 29.7927 19.7447 30.709C19.7447 31.9691 18.6877 33 17.3784 33C16.0691 33 15 31.9691 15 30.709C15 28.4639 16.021 26.3333 17.7868 24.8671C19.2162 23.6644 21.0781 23 23 23C24.9339 23 26.7838 23.6644 28.2372 24.8786C29.991 26.3333 31 28.4639 31 30.709C31 31.9691 29.9429 33 28.6336 33Z" fill="#4C2207"/>
<path id="Vector_5" d="M58.6234 33C57.3151 33 56.2588 31.9691 56.2588 30.709C56.2588 29.7927 55.8387 28.9336 55.1305 28.3379C53.9422 27.3414 52.0458 27.3528 50.8815 28.3265C50.1493 28.9336 49.7412 29.7927 49.7412 30.709C49.7412 31.9691 48.6849 33 47.3766 33C46.0683 33 45 31.9691 45 30.709C45 28.4639 46.0203 26.3333 47.7847 24.8671C49.2131 23.6644 51.0735 23 52.994 23C54.9265 23 56.7749 23.6644 58.2273 24.8786C59.9797 26.3333 61 28.4639 61 30.709C61 31.9691 59.9317 33 58.6234 33Z" fill="#4C2207"/>
</g>
</svg>
