<svg width="278" height="185" viewBox="0 0 278 185" fill="none" xmlns="http://www.w3.org/2000/svg">
<g filter="url(#filter0_d_428_2608)">
<path d="M140.478 19.5107L125.658 20.1442V62.885V105.545H160.037H195.177L195.6 62.885V20.1442L187.633 19.5107C183.473 19.1024 174.662 18.8983 168.047 19.0004C161.433 19.2045 149.03 19.4086 140.478 19.5107ZM138.282 104.218C136.189 104.422 132.701 104.422 130.53 104.218C128.36 104.116 130.065 103.912 134.329 103.912C138.592 103.912 140.375 104.116 138.282 104.218Z" fill="white"/>
</g>
<path d="M118.895 62.0496C116.901 62.1705 116.841 62.1705 117.485 62.4526C118.412 62.8758 119.822 64.3671 120.305 65.4553C120.668 66.2614 120.729 66.8862 120.789 70.2113C120.89 75.0278 120.95 75.5114 121.655 76.6198C122.3 77.6476 123.71 78.8366 124.596 79.1389L125.201 79.3404L125.14 71.9646C125.12 67.9139 125.04 64.4477 124.959 64.2865C124.899 64.1253 124.818 63.8834 124.818 63.7827C124.798 63.6618 124.697 63.5811 124.556 63.5811C124.435 63.5811 124.073 63.3393 123.75 63.0572C123.428 62.775 123.045 62.5937 122.904 62.634C122.743 62.6944 122.683 62.634 122.763 62.4929C122.864 62.3518 122.783 62.3115 122.602 62.3922C122.421 62.4526 122.28 62.4325 122.28 62.3115C122.28 62.1906 122.119 62.1503 121.897 62.2108C121.695 62.2712 121.454 62.2108 121.393 62.0899C121.313 61.9689 121.192 61.8883 121.111 61.9085C121.031 61.9286 120.044 61.9891 118.895 62.0496Z" fill="#EF2B7B"/>
<path d="M194.801 91.9559V103.161L194.358 103.463C194.076 103.664 193.472 103.785 192.847 103.785H191.78L191.739 124.482C191.699 135.888 191.598 145.38 191.518 145.602C191.377 145.924 191.377 145.944 191.558 145.703C191.679 145.541 191.78 145.481 191.78 145.602C191.78 145.884 191.377 146.468 191.377 146.206C191.377 146.086 191.236 146.227 191.095 146.509C190.934 146.791 190.853 147.093 190.913 147.194C190.994 147.295 190.934 147.315 190.813 147.234C190.712 147.174 190.41 147.436 190.168 147.819C189.926 148.222 189.664 148.504 189.604 148.443C189.564 148.383 189.262 148.504 188.979 148.705C188.697 148.907 188.315 149.129 188.154 149.169C187.992 149.229 188.959 149.31 190.309 149.35C191.639 149.391 192.706 149.37 192.646 149.29C192.565 149.149 193.069 149.048 193.734 149.068C193.875 149.088 193.935 148.987 193.855 148.867C193.774 148.746 193.855 148.705 194.056 148.786C194.237 148.846 194.398 148.826 194.439 148.746C194.479 148.645 194.902 148.222 195.406 147.798C195.909 147.355 196.332 146.851 196.373 146.67C196.393 146.489 196.554 146.065 196.715 145.763C196.977 145.279 197.017 141.047 197.017 114.567V83.9352L196.534 82.9276C196.272 82.3633 195.768 81.6579 195.426 81.3355L194.801 80.7309V91.9559Z" fill="#EF2B7B"/>
<path d="M197.32 114.668C197.32 130.911 197.34 137.541 197.36 129.44C197.4 121.318 197.4 108.017 197.36 99.9161C197.34 91.7947 197.32 98.4248 197.32 114.668Z" fill="#EF2B7B"/>
<path d="M85.777 149.471C86.0188 149.511 86.3814 149.511 86.5828 149.471C86.7641 149.411 86.5627 149.37 86.1195 149.391C85.6763 149.391 85.5151 149.431 85.777 149.471Z" fill="#EF2B7B"/>
<path d="M84.8906 62.11C84.8302 62.2108 84.6489 62.2511 84.4877 62.1906C84.3266 62.1302 84.2057 62.1705 84.2057 62.2914C84.2057 62.4123 84.0647 62.4728 83.9035 62.3921C83.7424 62.3317 83.6014 62.3518 83.6014 62.4526C83.6014 62.5937 83.4201 62.6944 82.5941 62.9564C82.3725 63.0169 81.184 64.3268 81.184 64.5082C81.184 64.6089 81.0833 64.6895 80.9624 64.6895C80.8617 64.6895 80.8214 64.7701 80.8818 64.8911C80.9422 64.9918 80.9221 65.0926 80.8214 65.0926C80.5796 65.0926 80.1566 66.2211 80.3177 66.3823C80.3983 66.4428 80.3379 66.7048 80.1969 66.9668C80.0156 67.3094 79.9753 76.4787 80.0357 105.901C80.0962 139.294 80.1566 145.158 80.3782 145.441C80.4185 145.481 80.4386 145.562 80.4588 145.642C80.5998 146.267 80.8415 146.71 81.0228 146.71C81.1437 146.71 81.2041 146.751 81.1437 146.811C81.0228 146.952 82.5135 148.524 82.7956 148.524C82.8963 148.524 82.997 148.625 82.997 148.746C82.997 148.846 83.0977 148.887 83.1985 148.826C83.3193 148.766 83.3999 148.806 83.3999 148.927C83.3999 149.048 83.4805 149.108 83.5812 149.028C83.6819 148.967 83.823 149.008 83.9035 149.108C83.964 149.229 84.1453 149.27 84.3064 149.189C84.4676 149.129 84.6086 149.189 84.6086 149.31C84.6086 149.471 99.1533 149.511 136.139 149.471C186.26 149.431 187.67 149.411 188.415 149.048C189.483 148.524 190.631 147.335 191.195 146.166L191.679 145.199L191.739 124.401L191.78 103.604L192.948 103.523L194.096 103.463L192.948 103.423L191.78 103.382L191.719 94.1525C191.679 89.0942 191.598 84.6204 191.538 84.2173C191.397 83.3507 190.833 82.1819 190.45 81.9602C190.289 81.8796 190.168 81.6579 190.168 81.5169C190.168 81.3557 190.047 81.2146 189.886 81.2146C189.725 81.2146 189.443 81.0131 189.282 80.7712C189.1 80.5294 188.959 80.3883 188.959 80.4689C188.959 80.5697 188.818 80.4891 188.637 80.3279C188.476 80.1465 188.234 80.0457 188.133 80.1062C188.033 80.1868 187.952 80.1264 187.952 80.0054C187.952 79.8644 187.831 79.8039 187.67 79.8644C187.509 79.9248 187.348 79.945 187.307 79.9047C187.207 79.8039 161.099 79.6225 143.089 79.6024C127.779 79.6024 125.906 79.5621 125.624 79.2799C125.442 79.1187 125.301 79.0583 125.301 79.1792C125.301 79.4815 124.133 79.0381 123.327 78.4537C122.34 77.708 121.917 77.2042 121.373 76.0757C120.91 75.1285 120.869 74.7859 120.789 70.836C120.728 68.4984 120.587 66.2614 120.467 65.8584C120.144 64.75 118.855 63.2587 117.727 62.6541L116.74 62.11L100.866 62.0092C90.9744 61.9488 84.9511 61.9891 84.8906 62.11Z" fill="#F05E90"/>
<path d="M144.298 23.3165L132.151 23.3769V31.841V40.305H159.548H186.945V31.8813V23.4374L181.063 23.3165C177.819 23.2359 170.95 23.1955 165.793 23.2157C160.636 23.256 150.966 23.2963 144.298 23.3165ZM142.586 40.043C140.954 40.0833 138.234 40.0833 136.542 40.043C134.85 40.0229 136.18 39.9826 139.504 39.9826C142.827 39.9826 144.217 40.0229 142.586 40.043Z" fill="#B3B3B3"/>
<line x1="138.698" y1="44.5641" x2="187.301" y2="44.5641" stroke="#BCBCBC"/>
<line x1="130" y1="51.5" x2="187" y2="51.5" stroke="#BCBCBC"/>
<line x1="130" y1="59.5" x2="187" y2="59.5" stroke="#BCBCBC"/>
<line x1="130" y1="67.5" x2="187" y2="67.5" stroke="#BCBCBC"/>
<line x1="130" y1="75.5" x2="187" y2="75.5" stroke="#BCBCBC"/>
<ellipse cx="138" cy="164" rx="55" ry="6" fill="#D9D9D9"/>
<defs>
<filter id="filter0_d_428_2608" x="123.658" y="14.9744" width="77.9417" height="94.5705" filterUnits="userSpaceOnUse" color-interpolation-filters="sRGB">
<feFlood flood-opacity="0" result="BackgroundImageFix"/>
<feColorMatrix in="SourceAlpha" type="matrix" values="0 0 0 0 0 0 0 0 0 0 0 0 0 0 0 0 0 0 127 0" result="hardAlpha"/>
<feOffset dx="2"/>
<feGaussianBlur stdDeviation="2"/>
<feComposite in2="hardAlpha" operator="out"/>
<feColorMatrix type="matrix" values="0 0 0 0 0 0 0 0 0 0 0 0 0 0 0 0 0 0 0.25 0"/>
<feBlend mode="normal" in2="BackgroundImageFix" result="effect1_dropShadow_428_2608"/>
<feBlend mode="normal" in="SourceGraphic" in2="effect1_dropShadow_428_2608" result="shape"/>
</filter>
</defs>
</svg>
