<svg width="76" height="77" viewBox="0 0 76 77" fill="none" xmlns="http://www.w3.org/2000/svg">
<g id="Group 1000003451">
<g id="Clip path group">
<mask id="mask0_824_5041" style="mask-type:luminance" maskUnits="userSpaceOnUse" x="0" y="0" width="76" height="77">
<g id="f8edb3ce20">
<path id="Vector" d="M0 0H76V77H0V0Z" fill="white"/>
</g>
</mask>
<g mask="url(#mask0_824_5041)">
<g id="Group">
<path id="Vector_2" d="M75.9286 38.5654C75.9286 59.7907 58.9339 76.9998 37.9643 76.9998C16.9947 76.9998 0 59.7907 0 38.5654C0 17.3519 16.9947 0.142822 37.9643 0.142822C58.9339 0.142822 75.9286 17.3519 75.9286 38.5654Z" fill="#FFD400"/>
</g>
</g>
</g>
<path id="Vector_3" d="M29.0945 30.6895C29.0945 33.8527 26.7737 36.4188 23.9049 36.4188C21.0244 36.4188 18.7036 33.8527 18.7036 30.6895C18.7036 27.5263 21.0244 24.9729 23.9049 24.9729C26.7737 24.9729 29.0945 27.5263 29.0945 30.6895Z" fill="#4C2207"/>
<path id="Vector_4" d="M57.1496 30.6895C57.1496 33.8527 54.8289 36.4188 51.9484 36.4188C49.0795 36.4188 46.7588 33.8527 46.7588 30.6895C46.7588 27.5263 49.0795 24.9729 51.9484 24.9729C54.8289 24.9729 57.1496 27.5263 57.1496 30.6895Z" fill="#4C2207"/>
<path id="Vector_5" d="M38.7204 59.3106C32.5198 59.3106 26.932 56.3974 23.8918 53.8793C22.6421 52.863 22.5099 51.0676 23.5914 49.882C24.6609 48.7077 26.5475 48.5722 27.7972 49.5884C28.2659 49.9723 38.8286 58.3508 47.9012 49.7352C49.0668 48.6286 50.9535 48.6286 52.1191 49.7352C53.2847 50.8418 53.2847 52.6372 52.1191 53.7438C47.8051 57.854 43.1065 59.3106 38.7204 59.3106Z" fill="#4C2207"/>
</g>
</svg>
