<svg width="18" height="22" viewBox="0 0 18 22" fill="none" xmlns="http://www.w3.org/2000/svg">
<g id="Black">
<path id="Vector" d="M8.33413 0.0661411C7.94109 0.167711 7.40673 0.454763 7.11085 0.724148C5.93615 1.78844 5.85666 3.56374 6.92979 4.73844C7.06669 4.89301 7.05786 4.92392 6.86354 4.96808C6.78847 4.98133 6.61624 5.04315 6.48375 5.10056C6.35569 5.15798 6.23203 5.20655 6.20995 5.20655C6.18787 5.20655 6.17021 5.1094 6.17021 4.99016C6.17021 4.28358 5.66235 3.53724 4.95135 3.19278C4.39491 2.9234 3.72365 2.92781 3.14514 3.20162C2.84925 3.34293 2.4783 3.66973 2.2884 3.95236C1.84237 4.63245 1.84679 5.56426 2.30607 6.25318C2.47388 6.50932 2.48271 6.5314 2.41205 6.5314C2.22658 6.5314 1.61715 6.93327 1.32568 7.25124C0.906143 7.71493 0.433614 8.92938 0.212806 10.1306C0.0847372 10.8151 -0.0256668 11.8617 0.00524634 12.0869C0.0582403 12.4844 0.32321 12.8333 0.720664 13.0276C0.985634 13.1601 1.02538 13.1689 1.35659 13.1424L1.70547 13.1203L1.71872 15.0678L1.73197 17.0198L1.83795 17.2362C1.98369 17.5276 2.23982 17.7749 2.54454 17.9163C2.99057 18.1238 3.6265 18.0443 3.94446 17.744L4.04162 17.6557L4.23151 17.7882C4.51856 17.9869 4.92043 18.0752 5.25165 18.0178C5.39738 17.9913 5.58727 17.9339 5.66677 17.8854L5.81691 17.797V18.561C5.81691 18.9806 5.839 19.431 5.86108 19.5591C6.04214 20.513 6.91654 21.1489 7.8616 21.0164C8.17514 20.9678 8.55493 20.8133 8.736 20.6499C8.99655 20.4158 8.97889 20.4202 9.18203 20.5836C9.65456 20.9678 10.1757 21.1091 10.7144 20.9987C11.4519 20.8442 11.9907 20.2966 12.132 19.5591C12.1541 19.431 12.1762 18.9806 12.1762 18.561V17.797L12.3219 17.8809C12.7194 18.115 13.2758 18.0885 13.7086 17.8103L13.9471 17.6601L14.0884 17.7705C14.3313 17.9516 14.5609 18.0267 14.8965 18.0311C15.1748 18.0311 15.2498 18.0134 15.5148 17.8809C15.7312 17.7705 15.8637 17.6645 15.9829 17.5056C16.2788 17.1214 16.2832 17.0728 16.2832 14.9839V13.1203L16.6498 13.1424C16.9942 13.1645 17.0251 13.1601 17.2989 13.0187C17.6301 12.8421 17.8333 12.6036 17.9437 12.2503C18.0188 12.0207 18.0188 11.9721 17.9437 11.292C17.851 10.4662 17.7361 9.80819 17.586 9.26501C17.4403 8.74831 17.0251 7.72377 16.8661 7.49412C16.61 7.12317 16.1419 6.74338 15.7444 6.58881C15.6385 6.54907 15.5501 6.51374 15.5413 6.5049C15.5325 6.50049 15.5943 6.39008 15.6826 6.2576C16.2302 5.43178 16.1463 4.40281 15.4662 3.66531C15.0599 3.23253 14.5212 2.99847 13.8941 2.99847C12.843 2.99847 11.9156 3.85962 11.8317 4.90625C11.8229 5.07407 11.8052 5.20655 11.792 5.20655C11.7831 5.20655 11.6551 5.15798 11.5093 5.09615C11.3592 5.03874 11.1693 4.97691 11.0898 4.95925C11.0059 4.946 10.9397 4.92392 10.9397 4.91067C10.9397 4.89742 11.0324 4.78702 11.1428 4.66336C11.3989 4.36748 11.7081 3.72714 11.7787 3.3341C12.0437 1.87677 11.1207 0.450346 9.67664 0.0838051C9.27035 -0.0221825 8.69184 -0.0265999 8.33413 0.0661411ZM9.61923 0.922876C10.6835 1.28058 11.2355 2.40229 10.8867 3.471C10.5466 4.50438 9.37192 5.06965 8.32529 4.70311C7.45973 4.3984 6.97395 3.65648 7.01811 2.71142C7.03136 2.34488 7.05344 2.26539 7.19917 1.96509C7.46856 1.43073 7.87485 1.07744 8.44453 0.896379C8.72717 0.808056 9.3101 0.821304 9.61923 0.922876ZM4.58039 3.9347C5.03084 4.12901 5.29139 4.51322 5.3223 5.04315C5.33997 5.3567 5.33114 5.40528 5.20307 5.67025C4.97343 6.13836 4.60247 6.368 4.07253 6.37242C3.17163 6.38125 2.54012 5.50244 2.85367 4.6722C3.12747 3.95236 3.87822 3.62998 4.58039 3.9347ZM14.5079 3.96119C14.7685 4.08485 14.9495 4.27033 15.0997 4.55738C15.2498 4.84001 15.2366 5.36995 15.082 5.67467C14.583 6.63739 13.2228 6.61089 12.768 5.6305C12.5516 5.17122 12.6531 4.58829 13.0064 4.22175C13.4127 3.7978 13.9736 3.70506 14.5079 3.96119ZM10.6261 5.69675C11.2532 5.79832 11.8715 6.16928 12.2513 6.67272C12.5736 7.10109 13.0594 8.34644 13.3421 9.47256C13.5584 10.3381 13.8146 12.3387 13.7483 12.6831C13.7042 12.9128 13.4436 13.1777 13.1963 13.244C12.8563 13.3323 12.5339 13.2263 12.3219 12.9481L12.1983 12.7891L12.1762 10.2896C12.1629 8.91613 12.1364 7.75909 12.1188 7.71935C12.0967 7.6796 12.0172 7.61336 11.9377 7.5692C11.7743 7.48088 11.6286 7.49854 11.4652 7.63103L11.3592 7.71493L11.3371 13.6282C11.3106 20.1332 11.3371 19.6209 11.0501 19.9212C10.6084 20.3893 9.83121 20.2657 9.51324 19.6783L9.41609 19.4928L9.394 16.0571L9.37192 12.6169L9.24827 12.5109C9.08929 12.374 8.90381 12.374 8.74483 12.5109L8.62118 12.6169L8.5991 16.0571C8.57701 19.2985 8.5726 19.5017 8.49311 19.6474C8.21931 20.1685 7.66287 20.354 7.1506 20.0934C6.94304 19.9874 6.85913 19.8947 6.74872 19.6474C6.6604 19.4487 6.65599 19.3868 6.65599 13.6149V7.78117L6.55 7.66636C6.39985 7.50296 6.23645 7.47204 6.05539 7.5692C5.9759 7.61336 5.89641 7.6796 5.87432 7.71935C5.85666 7.75909 5.83016 8.91613 5.81691 10.2896L5.79483 12.7891L5.67118 12.9481C5.45921 13.2263 5.13683 13.3323 4.79678 13.244C4.54948 13.1777 4.28892 12.9128 4.24476 12.6831C4.2006 12.4623 4.41258 10.5501 4.55389 9.88768C4.74379 9.00004 5.12799 7.84742 5.4857 7.08784C5.81691 6.39892 6.47492 5.88664 7.25217 5.71441C7.58338 5.63934 10.2022 5.62609 10.6261 5.69675ZM4.32425 7.75468C3.85172 9.00445 3.69716 9.70662 3.45868 11.7248C3.41894 12.0428 3.38803 12.3916 3.38803 12.5021C3.38803 12.7184 3.49843 13.1291 3.59117 13.266C3.68832 13.4029 3.67949 16.7283 3.58675 16.9138C3.44544 17.1832 3.07006 17.298 2.81392 17.1479C2.53571 16.98 2.54896 17.1964 2.54896 13.1556C2.54896 9.15018 2.55779 9.26059 2.30165 9.14135C2.15592 9.07511 2.08526 9.07953 1.93511 9.1546C1.72313 9.26501 1.70988 9.34891 1.70988 10.7488V12.0516L1.58623 12.1885C1.48024 12.3033 1.42725 12.3298 1.26827 12.3298C1.10929 12.3298 1.05629 12.3033 0.950305 12.1885C0.804572 12.0251 0.800155 11.9809 0.892895 11.1905C1.02096 10.1085 1.18436 9.4284 1.52882 8.56725C1.81587 7.86067 2.03668 7.5957 2.54896 7.35281C2.72119 7.27332 2.85367 7.26007 3.58675 7.23799C4.05045 7.22474 4.44349 7.22915 4.46557 7.24682C4.48765 7.26448 4.42582 7.48971 4.32425 7.75468ZM15.4971 7.3793C15.8195 7.52945 16.1463 7.85183 16.292 8.16538C16.6807 8.9912 16.9412 9.94068 17.0737 10.9961C17.1929 11.9456 17.1929 12.0119 17.0516 12.1797C16.9545 12.2945 16.9059 12.3166 16.7469 12.3166C16.6056 12.3166 16.5173 12.2857 16.4289 12.2106L16.3053 12.1046L16.2832 10.7135C16.2611 9.43724 16.2523 9.31358 16.1772 9.23409C16.0712 9.11486 15.8681 9.07069 15.7091 9.13694C15.4353 9.25176 15.4441 9.11486 15.4441 13.1733V16.8652L15.2984 17.0242C15.0246 17.3245 14.5565 17.2494 14.4019 16.8873C14.3534 16.7636 14.3401 16.4192 14.3401 15.0634V13.3853L14.4549 13.138C14.5168 12.9967 14.5786 12.7714 14.5918 12.6345C14.6139 12.3784 14.4417 10.7577 14.318 10.0511C14.19 9.32242 13.8632 8.18305 13.607 7.58245C13.5496 7.44113 13.501 7.30865 13.501 7.28656C13.501 7.22032 13.6379 7.21591 14.4726 7.23799C15.1924 7.26007 15.2631 7.2689 15.4971 7.3793ZM4.99992 14.1007C5.075 14.1007 5.2384 14.0875 5.36647 14.0654L5.60052 14.03L5.58727 15.4432C5.57403 16.799 5.56961 16.8652 5.48129 16.9845C5.26489 17.2759 4.75704 17.2759 4.58039 16.9845C4.49648 16.852 4.49207 16.7548 4.49207 15.4388V14.03L4.68196 14.0654C4.78353 14.0875 4.92927 14.1007 4.99992 14.1007ZM12.9711 14.1007C13.0329 14.1007 13.1742 14.0875 13.2935 14.0698L13.501 14.0389V15.4432C13.4966 16.958 13.4966 16.9756 13.2537 17.1346C13.0859 17.245 12.8563 17.2406 12.6708 17.1302C12.4102 16.9712 12.397 16.8829 12.397 15.3858V14.0345L12.6311 14.0698C12.7547 14.0875 12.9093 14.1007 12.9711 14.1007Z" fill="#EE3764"/>
</g>
</svg>
