<svg width="19" height="19" viewBox="0 0 19 19" fill="none" xmlns="http://www.w3.org/2000/svg">
<g id="heart">
<path id="Vector" d="M16.4983 3.65005C16.094 3.24551 15.6139 2.92461 15.0855 2.70566C14.5571 2.48671 13.9907 2.37402 13.4188 2.37402C12.8468 2.37402 12.2804 2.48671 11.752 2.70566C11.2236 2.92461 10.7435 3.24551 10.3392 3.65005L9.50001 4.48922L8.66085 3.65005C7.84409 2.8333 6.73633 2.37445 5.58126 2.37445C4.42619 2.37445 3.31844 2.8333 2.50168 3.65005C1.68492 4.46681 1.22607 5.57457 1.22607 6.72964C1.22607 7.8847 1.68492 8.99246 2.50168 9.80922L3.34085 10.6484L9.50001 16.8076L15.6592 10.6484L16.4983 9.80922C16.9029 9.40487 17.2238 8.92478 17.4427 8.39637C17.6617 7.86797 17.7744 7.3016 17.7744 6.72964C17.7744 6.15767 17.6617 5.5913 17.4427 5.0629C17.2238 4.53449 16.9029 4.0544 16.4983 3.65005Z" stroke="white" stroke-width="2" stroke-linecap="round" stroke-linejoin="round"/>
</g>
</svg>
