<svg width="84" height="81" viewBox="0 0 84 81" fill="none" xmlns="http://www.w3.org/2000/svg">
<g id="material-symbols:fingerprint">
<path id="Vector" d="M11.3748 32.5688C10.9664 32.2876 10.7179 31.9355 10.6293 31.5125C10.5406 31.0895 10.6724 30.6541 11.0248 30.2063C14.6414 25.4251 19.1774 21.7126 24.6328 19.0688C30.0881 16.4251 35.9063 15.1032 42.0873 15.1032C48.2706 15.1032 54.1039 16.3835 59.5873 18.944C65.0706 21.5045 69.6498 25.2023 73.3248 30.0376C73.6748 30.5438 73.7868 30.9938 73.6608 31.3876C73.5348 31.7813 73.3061 32.1188 72.9748 32.4001C72.6248 32.6813 72.2164 32.8085 71.7498 32.7815C71.2831 32.7545 70.8748 32.5148 70.5248 32.0626C67.3164 27.6751 63.1888 24.3147 58.1418 21.9815C53.0948 19.6482 47.7433 18.4805 42.0873 18.4782C36.4289 18.4782 31.1206 19.646 26.1623 21.9815C21.2039 24.317 17.0914 27.6773 13.8248 32.0626C13.4748 32.5688 13.0664 32.8501 12.5998 32.9063C12.1331 32.9626 11.7248 32.8501 11.3748 32.5688ZM51.9748 74.1657C45.9081 72.7032 40.9498 69.7917 37.0998 65.4312C33.2498 61.0707 31.3248 55.7416 31.3248 49.4438C31.3248 46.6313 32.3748 44.2688 34.4748 42.3563C36.5748 40.4438 39.1123 39.4876 42.0873 39.4876C45.0623 39.4876 47.5998 40.4438 49.6998 42.3563C51.7998 44.2688 52.8498 46.6313 52.8498 49.4438C52.8498 51.3001 53.5789 52.8616 55.0373 54.1283C56.4956 55.3951 58.2164 56.0273 60.1998 56.0251C62.1831 56.0251 63.8748 55.3917 65.2748 54.125C66.6748 52.8582 67.3748 51.2978 67.3748 49.4438C67.3748 42.9188 64.8956 37.4345 59.9373 32.9907C54.9789 28.547 49.0581 26.3251 42.1748 26.3251C35.2914 26.3251 29.3706 28.547 24.4123 32.9907C19.4539 37.4345 16.9748 42.8907 16.9748 49.3595C16.9748 50.7095 17.1066 52.397 17.3703 54.422C17.6339 56.447 18.2604 58.8095 19.2498 61.5095C19.4248 62.0157 19.4108 62.4657 19.2078 62.8595C19.0048 63.2532 18.6688 63.5345 18.1998 63.7032C17.7331 63.872 17.2804 63.8573 16.8418 63.6593C16.4031 63.4613 16.0974 63.1385 15.9248 62.6907C15.0498 60.497 14.4233 58.3167 14.0453 56.15C13.6673 53.9832 13.4771 51.7478 13.4748 49.4438C13.4748 41.9626 16.2899 35.6907 21.9203 30.6282C27.5506 25.5657 34.2729 23.0345 42.0873 23.0345C49.9623 23.0345 56.729 25.5657 62.3873 30.6282C68.0456 35.6907 70.8748 41.9626 70.8748 49.4438C70.8748 52.2563 69.84 54.6042 67.7703 56.4875C65.7006 58.3707 63.1771 59.3135 60.1998 59.3157C57.2248 59.3157 54.6721 58.373 52.5418 56.4875C50.4114 54.602 49.3474 52.2541 49.3498 49.4438C49.3498 47.5876 48.6358 46.0261 47.2078 44.7593C45.7798 43.4926 44.0729 42.8603 42.0873 42.8626C40.1039 42.8626 38.3971 43.496 36.9668 44.7627C35.5364 46.0295 34.8224 47.5898 34.8248 49.4438C34.8248 54.9001 36.5024 59.4563 39.8578 63.1126C43.2131 66.7688 47.5438 69.3282 52.8498 70.7907C53.3748 70.9595 53.7248 71.2407 53.8998 71.6345C54.0748 72.0282 54.1039 72.4501 53.9873 72.9001C53.8706 73.2938 53.6373 73.6313 53.2873 73.9126C52.9373 74.1938 52.4998 74.2782 51.9748 74.1657ZM22.7498 14.9345C22.2831 15.2157 21.8164 15.2866 21.3498 15.1471C20.8831 15.0076 20.5331 14.7117 20.2998 14.2595C20.0664 13.8095 20.0081 13.4022 20.1248 13.0377C20.2414 12.6732 20.5331 12.3492 20.9998 12.0657C24.2664 10.3782 27.6789 9.08447 31.2373 8.18447C34.7956 7.28447 38.4123 6.83447 42.0873 6.83447C45.8206 6.83447 49.4664 7.27097 53.0248 8.14397C56.5831 9.01697 60.0248 10.268 63.3498 11.897C63.8748 12.1782 64.1816 12.5157 64.2703 12.9095C64.3589 13.3032 64.3146 13.697 64.1373 14.0907C63.9623 14.4845 63.6706 14.7938 63.2623 15.0188C62.854 15.2438 62.3581 15.2157 61.7748 14.9345C58.6831 13.4157 55.4888 12.248 52.1918 11.4312C48.8948 10.6145 45.5266 10.2072 42.0873 10.2095C38.7039 10.2095 35.3789 10.5897 32.1123 11.3502C28.8456 12.1107 25.7248 13.3055 22.7498 14.9345ZM33.0748 72.9845C29.6331 69.497 26.9929 65.9386 25.1543 62.3093C23.3156 58.6801 22.3974 54.3916 22.3998 49.4438C22.3998 44.3251 24.3248 40.0073 28.1748 36.4906C32.0248 32.9738 36.6623 31.2166 42.0873 31.2188C47.5123 31.2188 52.1789 32.9772 56.0873 36.494C59.9956 40.0107 61.9498 44.3273 61.9498 49.4438C61.9498 49.9501 61.7888 50.3585 61.4668 50.669C61.1448 50.9795 60.7225 51.1336 60.1998 51.1313C59.7331 51.1313 59.3248 50.9761 58.9748 50.6656C58.6248 50.3551 58.4498 49.9478 58.4498 49.4438C58.4498 45.2251 56.8304 41.6948 53.5918 38.8531C50.3531 36.0113 46.5183 34.5916 42.0873 34.5938C37.6539 34.5938 33.8471 36.0147 30.6668 38.8565C27.4864 41.6982 25.8974 45.2273 25.8998 49.4438C25.8998 54.0001 26.7164 57.8678 28.3498 61.0471C29.9831 64.2263 32.3748 67.418 35.5248 70.622C35.8748 70.9595 36.0498 71.3532 36.0498 71.8032C36.0498 72.2532 35.8748 72.647 35.5248 72.9845C35.1748 73.322 34.7664 73.4907 34.2998 73.4907C33.8331 73.4907 33.4248 73.322 33.0748 72.9845ZM59.4998 67.247C54.3081 67.247 49.8013 65.5595 45.9793 62.1845C42.1573 58.8095 40.2474 54.5626 40.2498 49.4438C40.2498 48.9938 40.4108 48.6001 40.7328 48.2626C41.0548 47.9251 41.4771 47.7563 41.9998 47.7563C42.5248 47.7563 42.9483 47.9251 43.2703 48.2626C43.5923 48.6001 43.7521 48.9938 43.7498 49.4438C43.7498 53.6626 45.3248 57.122 48.4748 59.822C51.6248 62.522 55.2998 63.872 59.4998 63.872C59.8498 63.872 60.3456 63.8438 60.9873 63.7876C61.6289 63.7313 62.2998 63.647 62.9998 63.5345C63.5248 63.422 63.9774 63.4928 64.3578 63.7471C64.7381 64.0013 64.9854 64.3805 65.0998 64.8845C65.2164 65.3345 65.1289 65.7282 64.8373 66.0657C64.5456 66.4032 64.1665 66.6282 63.6998 66.7407C62.6498 67.022 61.7316 67.1772 60.9453 67.2065C60.1589 67.2357 59.6771 67.2492 59.4998 67.247Z" fill="#EE3764"/>
</g>
</svg>
