<svg width="76" height="77" viewBox="0 0 76 77" fill="none" xmlns="http://www.w3.org/2000/svg">
<g id="Group 1000003452">
<g id="Clip path group">
<mask id="mask0_824_5042" style="mask-type:luminance" maskUnits="userSpaceOnUse" x="0" y="0" width="76" height="77">
<g id="9c002d75f9">
<path id="Vector" d="M0 0H76V77H0V0Z" fill="white"/>
</g>
</mask>
<g mask="url(#mask0_824_5042)">
<g id="Group">
<path id="Vector_2" d="M75.8694 38.5656C75.8694 59.791 58.9119 77.0001 37.9882 77.0001C17.0763 77.0001 0.106934 59.791 0.106934 38.5656C0.106934 17.3522 17.0763 0.143066 37.9882 0.143066C58.9119 0.143066 75.8694 17.3522 75.8694 38.5656Z" fill="#FFD400"/>
</g>
</g>
</g>
<path id="Vector_3" d="M28.9861 30.8068C28.9861 33.7743 26.6111 36.1817 23.6898 36.1817C20.7567 36.1817 18.3936 33.7743 18.3936 30.8068C18.3936 27.8393 20.7567 25.4438 23.6898 25.4438C26.6111 25.4438 28.9861 27.8393 28.9861 30.8068Z" fill="#4C2207"/>
<path id="Vector_4" d="M57.5811 30.8068C57.5811 33.7743 55.218 36.1817 52.2967 36.1817C49.3636 36.1817 47.0005 33.7743 47.0005 30.8068C47.0005 27.8393 49.3636 25.4438 52.2967 25.4438C55.218 25.4438 57.5811 27.8393 57.5811 30.8068Z" fill="#4C2207"/>
<path id="Vector_5" d="M49.352 56.9301H26.6232C24.9963 56.9301 23.6782 55.5834 23.6782 53.9269C23.6782 52.2822 24.9963 50.9355 26.6232 50.9355H49.352C50.9788 50.9355 52.297 52.2822 52.297 53.9269C52.297 55.5834 50.9788 56.9301 49.352 56.9301Z" fill="#4C2207"/>
</g>
</svg>
