<svg width="15" height="15" viewBox="0 0 15 15" fill="none" xmlns="http://www.w3.org/2000/svg">
<g id="phone-call" clip-path="url(#clip0_170_785)">
<path id="Vector" d="M13.75 10.5751V12.4501C13.7507 12.6241 13.715 12.7964 13.6453 12.9559C13.5756 13.1154 13.4733 13.2586 13.345 13.3762C13.2168 13.4939 13.0653 13.5835 12.9005 13.6393C12.7356 13.695 12.5608 13.7157 12.3875 13.7001C10.4643 13.4911 8.61686 12.8339 6.99374 11.7813C5.48363 10.8217 4.20332 9.54142 3.24374 8.03131C2.18748 6.40081 1.53014 4.54443 1.32499 2.61256C1.30937 2.43973 1.32991 2.26554 1.3853 2.10108C1.44069 1.93662 1.52972 1.78549 1.64672 1.65732C1.76371 1.52916 1.90612 1.42675 2.06486 1.35664C2.2236 1.28652 2.3952 1.25022 2.56874 1.25006H4.44374C4.74706 1.24708 5.04111 1.35448 5.27109 1.55227C5.50107 1.75005 5.65129 2.02471 5.69374 2.32506C5.77288 2.9251 5.91964 3.51426 6.13124 4.08131C6.21533 4.30501 6.23353 4.54813 6.18368 4.78186C6.13383 5.01559 6.01803 5.23013 5.84999 5.40006L5.05624 6.19381C5.94596 7.75853 7.24152 9.05409 8.80624 9.94381L9.59999 9.15006C9.76992 8.98202 9.98446 8.86622 10.2182 8.81637C10.4519 8.76652 10.695 8.78472 10.9187 8.86881C11.4858 9.0804 12.0749 9.22717 12.675 9.30631C12.9786 9.34914 13.2559 9.50206 13.4541 9.73599C13.6523 9.96992 13.7576 10.2685 13.75 10.5751Z" stroke="#EF2B7B" stroke-linecap="round" stroke-linejoin="round"/>
</g>
<defs>
<clipPath id="clip0_170_785">
<rect width="15" height="15" fill="white"/>
</clipPath>
</defs>
</svg>
