<svg width="18" height="18" viewBox="0 0 18 18" fill="none" xmlns="http://www.w3.org/2000/svg">
<g id="Group 1000003337">
<path id="Subtract" fill-rule="evenodd" clip-rule="evenodd" d="M9 18C13.9706 18 18 13.9706 18 9C18 4.02944 13.9706 0 9 0C4.02944 0 0 4.02944 0 9C0 13.9706 4.02944 18 9 18ZM12.4721 11.8047C12.5971 11.6797 12.6673 11.5101 12.6673 11.3333V7.66667C12.6673 7.48986 12.5971 7.32029 12.4721 7.19526C12.347 7.07024 12.1775 7 12.0007 7H10.6673L10.0007 6H8.00065L7.33398 7H6.00065C5.82384 7 5.65427 7.07024 5.52925 7.19526C5.40422 7.32029 5.33398 7.48986 5.33398 7.66667V11.3333C5.33398 11.5101 5.40422 11.6797 5.52925 11.8047C5.65427 11.9298 5.82384 12 6.00065 12H12.0007C12.1775 12 12.347 11.9298 12.4721 11.8047Z" fill="#EE3764"/>
<path id="Vector" d="M8.99935 10.6667C9.73573 10.6667 10.3327 10.0697 10.3327 9.33333C10.3327 8.59695 9.73573 8 8.99935 8C8.26297 8 7.66602 8.59695 7.66602 9.33333C7.66602 10.0697 8.26297 10.6667 8.99935 10.6667Z" fill="#EE3764"/>
</g>
</svg>
