<svg width="76" height="77" viewBox="0 0 76 77" fill="none" xmlns="http://www.w3.org/2000/svg">
<g id="Group 1000003453">
<g id="Clip path group">
<mask id="mask0_824_5043" style="mask-type:luminance" maskUnits="userSpaceOnUse" x="0" y="0" width="76" height="77">
<g id="08b9979ac9">
<path id="Vector" d="M0 0H76V77H0V0Z" fill="white"/>
</g>
</mask>
<g mask="url(#mask0_824_5043)">
<g id="Group">
<path id="Vector_2" d="M75.8097 38.5654C75.8097 59.7907 58.8522 76.9998 37.9285 76.9998C17.0166 76.9998 0.059082 59.7907 0.059082 38.5654C0.059082 17.3519 17.0166 0.142822 37.9285 0.142822C58.8522 0.142822 75.8097 17.3519 75.8097 38.5654Z" fill="#FFD400"/>
</g>
</g>
</g>
<path id="Vector_3" d="M28.9275 30.8066C28.9275 33.774 26.5525 36.1814 23.6312 36.1814C20.71 36.1814 18.335 33.774 18.335 30.8066C18.335 27.8391 20.71 25.4436 23.6312 25.4436C26.5525 25.4436 28.9275 27.8391 28.9275 30.8066Z" fill="#4C2207"/>
<path id="Vector_4" d="M57.522 30.8066C57.522 33.774 55.1589 36.1814 52.2377 36.1814C49.3045 36.1814 46.9414 33.774 46.9414 30.8066C46.9414 27.8391 49.3045 25.4436 52.2377 25.4436C55.1589 25.4436 57.522 27.8391 57.522 30.8066Z" fill="#4C2207"/>
<path id="Vector_5" d="M49.8755 59.4219C49.1868 59.4219 48.5099 59.1835 47.9518 58.6949C47.5005 58.3135 37.0505 49.4468 28.073 58.5519C26.9212 59.7198 25.0568 59.7198 23.9049 58.5519C22.753 57.3839 22.753 55.489 23.9049 54.3211C34.2124 43.8574 46.6574 49.6494 51.8112 54.1662C53.0343 55.2507 53.1649 57.1456 52.108 58.3969C51.5262 59.0762 50.6949 59.4219 49.8755 59.4219Z" fill="#4C2207"/>
</g>
</svg>
