<svg width="153" height="119" viewBox="0 0 153 119" fill="none" xmlns="http://www.w3.org/2000/svg">
<g id="8307 [Converted]-01 1">
<path id="Vector" d="M90.3111 25.9993C90.3313 25.9416 90.8235 25.1009 91.4578 24.1875C94.4106 19.9339 98.7892 15.8343 103.924 15.9884L103.928 15.9569C101.606 15.7022 99.3313 16.3204 97.3348 17.4224C94.0405 19.1979 90.8312 22.5816 89.0751 25.1824L90.3111 25.9993Z" fill="#F7CC7F"/>
<path id="Vector_2" d="M102.785 18.3422L103.133 15.9503L101.359 14.3081C101.156 14.1212 101.257 13.7833 101.528 13.7369L103.911 13.3281L104.925 11.1337C105.04 10.8838 105.393 10.8749 105.521 11.1183L106.646 13.2579L109.046 13.5441C109.32 13.5768 109.437 13.9088 109.245 14.1058L107.558 15.8372L108.028 18.2083C108.081 18.4784 107.802 18.6926 107.555 18.5706L105.387 17.5008L103.277 18.6801C103.036 18.814 102.746 18.6147 102.785 18.3422Z" fill="#F7CC7F"/>
<path id="Vector_3" d="M56.0609 13.9636L55.7449 15.1357L56.6929 15.9319L56.2454 17.2206L57.5159 17.7579L57.0743 19.2371L58.1835 19.8761L57.9919 21.369L57.4266 21.2964L57.57 20.1802L56.3995 19.506L56.8244 18.084L55.5319 17.5378L56.0258 16.1157L55.1005 15.338L55.3932 14.2516L54.6791 13.8678L54.9487 13.3662L56.0609 13.9636Z" fill="#9BC1F9"/>
<g id="Group">
<g id="Group_2">
<path id="Vector_4" d="M29.3087 86.7884C30.6785 88.3164 30.55 90.6648 29.0224 92.0339C27.4943 93.403 25.1455 93.2745 23.7756 91.7465C22.4058 90.2186 22.5343 87.8701 24.0619 86.501C25.59 85.1319 27.9388 85.2605 29.3087 86.7884Z" fill="#F7CC7F"/>
<path id="Vector_5" d="M25.4556 91.0316C26.1881 91.8485 27.4437 91.9169 28.2608 91.1851C29.0778 90.4532 29.1462 89.1972 28.4137 88.3809L25.4556 91.0316Z" fill="#EFEFEF"/>
</g>
</g>
<g id="Group_3">
<path id="Vector_6" d="M123.306 107.819H34.2698C34.0371 107.819 33.8479 108.007 33.8479 108.241C33.8479 108.473 34.0365 108.663 34.2698 108.663H123.306C123.538 108.663 123.728 108.474 123.728 108.241C123.728 108.007 123.538 107.819 123.306 107.819Z" fill="#184655"/>
</g>
<g id="Group_4">
<path id="Vector_7" d="M25.2651 77.4846L24.2945 76.9343C24.0262 77.3615 23.6995 77.7452 23.3829 78.0338C23.1181 78.2748 22.7116 78.2689 22.454 78.0207L22.423 77.991C22.1392 77.7173 22.1457 77.2585 22.4409 76.9967C22.742 76.7302 23.0336 76.3964 23.2603 75.9965C23.5906 75.414 23.5918 74.8881 23.1829 74.6566C22.7944 74.4365 22.3641 74.6245 21.6798 75.2355C20.692 76.1203 19.7583 76.5767 18.7669 76.0144C17.8677 75.5045 17.522 74.471 17.9272 73.2566L16.9567 72.7062L17.5244 71.7048L18.4235 72.2147C18.6508 71.853 18.874 71.5757 19.087 71.3585C19.3471 71.0937 19.7732 71.0902 20.0409 71.3478C20.3177 71.6144 20.3188 72.0571 20.0427 72.3242C19.8356 72.5241 19.6107 72.7889 19.4066 73.1495C19.0299 73.8135 19.1941 74.1901 19.4804 74.3526C19.8178 74.5436 20.2349 74.3079 21.0544 73.6249C22.1731 72.6526 23.0133 72.4807 23.9327 73.0019C24.842 73.5178 25.2538 74.6019 24.792 75.8924L25.8346 76.4833L25.2651 77.4846Z" fill="#FAE0B2"/>
</g>
<path id="Vector_8" d="M120.739 36.4961L120.096 38.0978L117.404 37.3487L116.176 39.5746L114.07 39.3432L113.953 40.4094L116.769 40.7188L117.933 38.6089L120.734 39.3884L121.701 36.9786L120.739 36.4961Z" fill="#466EB6"/>
<g id="Group_5">
<path id="Vector_9" d="M116.083 93.2226L116.647 91.8238C116.027 91.5405 115.454 91.1716 115.01 90.7992C114.64 90.488 114.575 89.9424 114.862 89.5526L114.896 89.5056C115.212 89.0761 115.829 89.0029 116.232 89.3515C116.643 89.7067 117.142 90.0382 117.719 90.2702C118.558 90.6088 119.263 90.516 119.5 89.9269C119.726 89.3676 119.397 88.8238 118.455 88.0164C117.093 86.8513 116.315 85.6816 116.89 84.2536C117.413 82.9577 118.735 82.3097 120.436 82.6352L120.999 81.2363L122.443 81.8176L121.92 83.1136C122.446 83.3533 122.858 83.602 123.186 83.849C123.588 84.15 123.669 84.7201 123.371 85.1247C123.063 85.5429 122.47 85.6239 122.063 85.3014C121.758 85.0598 121.363 84.8057 120.843 84.5963C119.886 84.2107 119.41 84.4981 119.244 84.9105C119.049 85.3966 119.439 85.9136 120.501 86.8888C122.004 88.2133 122.385 89.3081 121.851 90.6338C121.322 91.9445 119.943 92.6895 118.131 92.3015L117.526 93.8039L116.083 93.2226Z" fill="#96D9C9"/>
</g>
<path id="Vector_10" d="M37.5273 44.8339C37.6701 45.0226 37.6594 45.2861 37.5017 45.4623C37.1922 45.808 36.6864 46.2262 36.0515 46.535C35.1226 46.9872 34.0574 47.1235 33.0529 46.7772C32.4251 46.5606 31.8276 46.1203 31.3789 45.5212L30.8303 45.7883C30.644 45.8794 30.4191 45.8014 30.328 45.6152L30.3209 45.6009C30.2298 45.4147 30.3078 45.1898 30.4941 45.0987L30.9445 44.8792C30.8553 44.731 30.7928 44.64 30.7517 44.5555C30.6833 44.4151 30.6149 44.2389 30.5542 44.0426L30.09 44.2687C29.9037 44.3597 29.6788 44.2818 29.5878 44.0955C29.4967 43.9093 29.5747 43.6844 29.7609 43.5934L30.3239 43.3191C30.1632 42.5967 30.1918 41.8691 30.4084 41.2413C30.7761 40.1739 31.583 39.3635 32.5536 38.8905C33.1195 38.615 33.5962 38.5043 33.986 38.4633C34.2573 38.4347 34.5025 38.6257 34.5406 38.8958L34.5418 38.9042C34.5816 39.1838 34.3841 39.4403 34.1044 39.4777C33.786 39.5206 33.4141 39.6206 32.9916 39.8258C32.3727 40.1275 31.849 40.6261 31.5902 41.3443C31.4456 41.7625 31.4057 42.2522 31.5479 42.7229L34.7143 41.1806C34.9006 41.0896 35.1255 41.1676 35.2166 41.3538C35.3076 41.54 35.2297 41.7649 35.0434 41.856L31.7366 43.4666C31.7979 43.6285 31.8592 43.7897 31.9074 43.8885C31.9692 44.0152 32.0305 44.142 32.1269 44.3038L35.4409 42.6896C35.6313 42.5967 35.861 42.6759 35.9539 42.8663C36.0467 43.0567 35.9676 43.2863 35.7771 43.3792L32.6042 44.925C32.9017 45.2849 33.2701 45.5408 33.6468 45.6705C34.393 45.9162 35.0523 45.8389 35.7557 45.4962C36.1848 45.2873 36.5329 45.0232 36.7929 44.775C37.0048 44.571 37.3487 44.5983 37.5273 44.8339Z" fill="#86B1F2"/>
<path id="Vector_11" d="M27.2914 54.8364L25.6531 55.003L25.0944 52.3963L22.6688 52.3439L21.9315 50.4619L20.9788 50.835L21.9643 53.3524L24.263 53.4018L24.8444 56.1132L27.3098 55.8633L27.2914 54.8364Z" fill="#50BFA5"/>
<g id="Group_6">
<path id="Vector_12" d="M105.396 35.7753L106.425 36.1145C106.425 36.1145 108.056 35.5861 108.216 35.2535C108.377 34.9209 108.422 34.1147 108.654 34.0927C108.886 34.0706 109.335 34.1462 109.442 34.6984C109.519 35.0988 108.932 36.2573 109.024 36.3804C109.081 36.4578 109.667 36.6696 110.097 36.8172C110.381 36.9142 110.585 37.1635 110.628 37.4639V37.4651C110.657 37.668 110.543 37.8662 110.353 37.9393L110.057 38.0536L110.152 38.3594C110.222 38.5867 110.097 38.8312 109.872 38.9068L109.643 38.9836L109.717 39.1698C109.811 39.4096 109.678 39.6815 109.432 39.7529L109.232 39.8112L109.24 39.8648C109.274 40.0873 109.135 40.3015 108.919 40.358L108.72 40.4098L105.981 39.506C105.724 39.4215 105.487 39.284 105.286 39.1026L104.376 38.6224C104.279 38.5706 104.234 38.454 104.27 38.3475L105.114 35.9187C105.154 35.8009 105.28 35.7372 105.396 35.7753Z" fill="#FAE0B2"/>
</g>
<path id="Vector_13" d="M42.6914 39.0389C42.6688 38.9747 42.1195 38.0358 41.4108 37.0159C38.114 32.2672 33.2261 27.6905 27.4937 27.8624L27.4896 27.8273C30.0811 27.5429 32.6209 28.2331 34.8501 29.463C38.5276 31.4455 42.1112 35.2226 44.0714 38.1262L42.6914 39.0389Z" fill="#F7CC7F"/>
<path id="Vector_14" d="M28.7654 30.4908L28.3774 27.8204L30.3578 25.9872C30.5833 25.7784 30.4715 25.4017 30.1686 25.3494L27.5086 24.893L26.3767 22.4434C26.2476 22.1643 25.8549 22.1542 25.712 22.4261L24.4558 24.8145L21.7756 25.134C21.4703 25.1703 21.3394 25.541 21.5537 25.7611L23.4371 27.6937L22.9128 30.3408C22.8533 30.6425 23.1651 30.8817 23.4406 30.7454L25.8608 29.5513L28.2167 30.868C28.4857 31.0179 28.8094 30.7948 28.7654 30.4908Z" fill="#F7CC7F"/>
<g id="Group_7">
<path id="Vector_15" d="M118.428 76.8205L118.614 76.1874C119.597 76.0036 120.443 75.3408 120.721 74.3911C120.811 74.0871 120.872 73.8306 120.918 73.4867L119.601 73.1077L119.835 72.3098L121.024 72.6519C121.072 72.2539 121.14 71.738 121.285 71.2442C121.723 69.7501 123.045 69.0736 124.464 69.4818C124.87 69.5984 125.182 69.7495 125.414 69.9042C125.625 70.0447 125.68 70.3291 125.541 70.5397C125.402 70.7515 125.118 70.8122 124.9 70.6795C124.72 70.5694 124.489 70.4635 124.201 70.3802C123.203 70.0934 122.593 70.6593 122.33 71.5583C122.17 72.1028 122.127 72.53 122.086 72.9572L123.927 73.4873L123.693 74.2852L121.954 73.7848C121.851 74.2769 121.736 74.7654 121.487 75.1878C121.187 75.6918 120.746 76.0595 120.204 76.3011L120.196 76.3267L123.556 77.2941C123.805 77.3655 123.948 77.6232 123.875 77.8689L123.866 77.9022C123.794 78.148 123.534 78.2896 123.285 78.2182L118.428 76.8205Z" fill="#F7CC7F"/>
</g>
<path id="Vector_16" d="M17.4334 39.5735L18.0588 38.5174L17.5429 37.4036C17.4839 37.2768 17.5964 37.1376 17.7327 37.1679L18.9306 37.4363L19.8309 36.6015C19.9333 36.5063 20.1005 36.57 20.1136 36.7092L20.2284 37.9313L21.3008 38.5293C21.4227 38.5977 21.4138 38.7762 21.2853 38.8316L20.1582 39.3183L19.9208 40.5225C19.894 40.66 19.7208 40.7064 19.6286 40.6017L18.8169 39.6806L17.5982 39.827C17.4601 39.8436 17.362 39.6937 17.4334 39.5735Z" fill="#466EB6"/>
<path id="Vector_17" d="M132.933 56.5413L131.433 56.4199L131.229 57.8075L129.745 57.7533L129.386 59.0558L128.269 59.1968L128.341 59.762L129.834 59.5734L130.174 58.3394L131.718 58.3953L131.919 57.031L133.279 57.1405L132.933 56.5413Z" fill="#F48C7F"/>
<path id="Vector_18" d="M52.625 22.8582L52.5333 21.3558L51.1307 21.3487L50.9754 19.8725L49.6353 19.7005L49.3384 18.6152L48.7885 18.7658L49.186 20.2176L50.4559 20.3806L50.6178 21.9157L51.9972 21.9228L52.0805 23.2842L52.625 22.8582Z" fill="#F48C7F"/>
<path id="Vector_19" d="M20.1059 67.1973L21.2395 67.6298L22.1279 66.7683L23.3651 67.343L24.028 66.1334L25.4556 66.7225L26.2036 65.6836L27.6693 66.0257L27.5401 66.5803L26.444 66.3244L25.6543 67.4204L24.2821 66.8545L23.6085 68.085L22.2434 67.4501L21.3758 68.2915L20.3248 67.8904L19.8708 68.5622L19.3983 68.2433L20.1059 67.1973Z" fill="#F7CC7F"/>
<path id="Vector_20" d="M88.5176 19.4219L88.4444 20.3358L86.9603 20.3798L86.6883 21.7031L85.5833 21.9179L85.6922 22.4766L87.1697 22.1898L87.428 20.9361L88.971 20.8903L89.0817 19.5147L88.5176 19.4219Z" fill="#50BFA5"/>
<g id="Group_8">
<path id="Vector_21" d="M118.618 19.5721C120.33 21.2137 120.386 23.9316 118.744 25.6434C117.103 27.3547 114.384 27.4118 112.672 25.7702C110.961 24.1286 110.904 21.4106 112.546 19.6988C114.188 17.987 116.906 17.9305 118.618 19.5721Z" fill="#FFF3D9"/>
<path id="Vector_22" d="M118.544 23.1615L116.717 23.7231L116.144 25.5468C116.097 25.6944 115.902 25.7241 115.814 25.598L114.715 24.0337L112.803 24.0522C112.649 24.054 112.56 23.8772 112.653 23.7541L113.8 22.2255L113.192 20.4131C113.143 20.2668 113.283 20.1276 113.429 20.1775L115.238 20.7969L116.773 19.6587C116.898 19.5665 117.073 19.6569 117.071 19.8116L117.041 21.7227L118.598 22.8312C118.724 22.9211 118.692 23.1162 118.544 23.1615Z" fill="#FED333"/>
</g>
<path id="Vector_23" d="M130.786 41.7034L131.793 41.6427C131.902 41.6361 131.959 41.4951 131.89 41.4041L131.248 40.5645L131.525 39.4959C131.555 39.3805 131.452 39.2793 131.35 39.3257L130.413 39.7506L129.577 39.1508C129.486 39.086 129.365 39.1645 129.372 39.2835L129.434 40.3854L128.641 41.0834C128.555 41.1589 128.584 41.3083 128.689 41.3362L129.665 41.5921L130.011 42.6232C130.049 42.7351 130.187 42.7488 130.246 42.6464L130.786 41.7034Z" fill="#F47458"/>
<path id="Vector_24" d="M54.0883 60.3109C54.0883 60.3109 55.8937 56.8379 56.1734 55.5634C56.4537 54.2884 57.3945 47.8731 57.3415 47.4548C57.2416 46.6658 56.2049 46.1547 56.3948 45.8037C56.584 45.4526 57.5659 45.3431 57.9003 45.3735C58.2347 45.4038 58.9072 45.5984 59.1946 45.8358C59.4826 46.0732 58.8709 53.7671 58.6888 55.4236C58.5061 57.0801 56.2639 62.181 56.2639 62.181L54.0883 60.3109Z" fill="#F7A491"/>
<path id="Vector_25" d="M59.5177 45.6919C59.4778 45.7169 59.3261 45.7615 59.2904 45.7942L59.0131 45.8817C59.0131 45.8817 59.726 45.8633 60.1473 46.3155C60.1473 46.3155 59.9473 45.9561 59.5177 45.6919Z" fill="#F47257"/>
<path id="Vector_26" d="M93.6424 47.0859C93.922 46.8729 94.0643 46.3379 94.125 45.9922L94.266 45.5377C94.1589 45.4877 92.0363 45.0855 91.3924 45.0391C91.3204 45.2402 91.2811 45.4109 91.296 45.5216C91.3674 46.0523 91.8827 49.5027 91.8827 49.5027L93.7209 49.6241C93.7209 49.6241 93.4138 47.5779 93.6424 47.0859Z" fill="#F7A491"/>
<path id="Vector_27" d="M93.6864 45.6379C93.6864 45.6379 93.3073 45.8099 92.8854 46.318C92.8854 46.318 91.8755 45.6034 91.922 45.3934C91.9833 45.1155 93.0229 45.6843 93.0229 45.6843L93.6864 45.6379Z" fill="#F47458"/>
<path id="Vector_28" d="M102.652 96.0889C102.652 96.0889 105.126 97.8721 105.515 98.404C106.076 99.1704 101.325 100.603 101.843 99.7059C101.963 99.4994 102.304 98.8056 102.319 98.7372C102.399 98.3719 101.391 97.3884 101.391 97.3884L102.652 96.0889Z" fill="#F7A491"/>
<path id="Vector_29" d="M100.558 101.205L102.238 98.8326C102.238 98.8326 103.287 98.5886 104.363 97.3784C104.363 97.3784 105.33 97.7473 105.926 98.5476C105.926 98.5476 104.801 99.7596 103.069 101.123C103.069 101.123 102.042 102.033 100.623 102.512C99.2028 102.991 100.558 101.205 100.558 101.205Z" fill="#F7CC7F"/>
<path id="Vector_30" d="M122.849 52.0969C122.849 52.0969 122.21 53.1518 122.138 53.0875C122.083 53.0382 122.465 52.4824 122.737 51.8089C122.806 51.6357 122.875 51.4644 122.936 51.3067C123.097 50.8926 122.898 50.6784 122.662 51.0854C122.579 51.2294 122.446 51.4709 122.376 51.6572C122.299 51.8577 122.166 52.0183 122.076 52.1772C121.899 52.4931 121.773 52.7258 121.764 52.7115C121.753 52.6931 121.676 52.7311 121.744 52.5449C121.827 52.3212 122.104 51.8839 122.2 51.5459C122.255 51.3543 122.393 50.9604 122.393 50.9604C122.393 50.9604 122.494 50.3273 122.46 50.3101C122.276 50.2143 122.089 50.629 122.047 50.8985C121.935 51.058 121.801 51.4763 121.801 51.4763C121.801 51.4763 121.347 52.2641 121.238 52.2022C121.193 52.176 121.415 51.6595 121.557 51.1205C121.689 50.6195 121.743 50.0935 121.651 50.0536C121.495 49.9864 121.291 50.5278 121.291 50.5278C121.291 50.5278 121.168 50.9146 121.118 51.0401C121.059 51.1871 120.849 51.6143 120.849 51.6143C120.849 51.6143 120.03 53.059 119.933 52.9917C119.835 52.9239 119.678 52.6556 119.697 52.5485C119.716 52.4414 119.851 52.2623 119.87 52.1552C119.889 52.0481 119.826 51.8934 119.7 51.8624C119.575 51.8309 119.289 52.3152 119.289 52.3152C119.289 52.3152 119.06 52.7109 119.054 53.0263C119.033 54.1205 119.212 54.077 119.205 54.2174C119.197 54.3834 117.93 56.2107 117.93 56.2107C117.93 56.2107 117.922 56.2208 117.906 56.2387L119.41 57.3329C119.911 56.5171 120.301 55.8781 120.415 55.6782C120.415 55.6782 121.17 55.0326 121.631 54.6119C122.092 54.1913 122.352 53.5856 122.464 53.4469C122.481 53.4267 122.83 52.943 123.108 52.2343C123.347 51.6238 122.849 52.0969 122.849 52.0969Z" fill="#F8A492"/>
<path id="Vector_31" d="M106.436 77.7629L106.044 79.6979L96.2089 88.6431L103.249 95.767L101.348 97.7097C101.348 97.7097 90.9496 90.0753 90.5753 89.0751C89.9981 87.5346 98.0293 77.3315 98.0293 77.3315L106.436 77.7629Z" fill="#B75742"/>
<path id="Vector_32" d="M113.678 101.438C113.678 101.438 116.152 103.222 116.541 103.754C117.102 104.52 112.35 105.953 112.869 105.055C112.988 104.849 113.33 104.155 113.345 104.087C113.424 103.721 112.416 102.738 112.416 102.738L113.678 101.438Z" fill="#F7A491"/>
<path id="Vector_33" d="M111.582 106.564L113.261 104.191C113.261 104.191 114.377 103.991 115.454 102.78C115.454 102.78 116.354 103.106 116.949 103.906C116.949 103.906 115.824 105.118 114.092 106.481C114.092 106.481 113.066 107.391 111.646 107.87C110.227 108.35 111.582 106.564 111.582 106.564Z" fill="#F7CC7F"/>
<path id="Vector_34" d="M106.099 78.6596L106.253 91.373L114.065 101.173L112.227 103.216C112.227 103.216 102.552 95.1738 101.492 92.8658C100.834 91.4342 98.4399 77.895 98.4399 77.895L106.099 78.6596Z" fill="#F47458"/>
<path id="Vector_35" d="M98.1655 77.6574C98.9653 75.8522 98.8731 62.9109 101.987 59.8794C103.082 60.0644 103.863 60.168 104.046 60.2162C104.209 61.5496 104.387 66.4417 104.497 70.925C104.57 73.9119 104.495 77.0445 104.863 78.6957C105.09 79.7191 97.4348 79.3067 98.1655 77.6574Z" fill="#FAE0B2"/>
<path id="Vector_36" d="M84.9822 67.3034C83.163 67.4081 82.3966 67.6967 81.8366 67.5902C81.2772 67.4837 79.7848 66.9506 79.8116 66.3913C81.8104 65.9914 85.3011 66.6108 85.3011 66.6108C85.0613 67.777 84.9822 67.3034 84.9822 67.3034Z" fill="#F7A491"/>
<path id="Vector_37" d="M100.658 60.2921C100.658 60.2921 99.8507 64.259 98.9099 64.9408C97.9691 65.6227 93.1996 68.0206 92.9062 68.0033C91.4632 67.9194 84.5638 67.638 84.5638 67.638L84.7769 65.4258L92.5527 64.7939C92.5527 64.7939 98.1833 61.1025 98.9415 60.5212C99.4747 60.1868 100.658 60.2921 100.658 60.2921Z" fill="#466EB6"/>
<path id="Vector_38" d="M97.8525 78.5227C97.1527 78.5227 96.8944 78.4263 96.4285 78.2859C96.4285 78.2859 96.1226 73.0922 97.6133 65.3899C98.175 62.4869 98.1905 60.7239 99.3384 60.2777C100.374 59.8748 101.641 59.8213 101.986 59.8796C98.9361 68.5071 98.9254 75.1479 98.494 77.0739C98.2774 78.0396 98.0887 78.5287 97.8525 78.5227Z" fill="#466EB6"/>
<path id="Vector_39" d="M102.308 58.5767L101.988 59.8803C101.988 59.8803 101.915 61.015 102.442 61.1173C103.078 61.2405 104.022 60.2897 104.022 60.2897L104.569 56.6138L102.308 58.5767Z" fill="#F7A491"/>
<path id="Vector_40" d="M102.308 58.5767L101.988 59.8803C101.988 59.8803 101.915 61.015 102.442 61.1173C103.078 61.2405 104.022 60.2897 104.022 60.2897L104.569 56.6138L102.308 58.5767Z" fill="#F7A491"/>
<path id="Vector_41" d="M104.563 56.6299L102.308 58.5761L102.069 59.5501C102.931 59.3431 104.16 58.3947 104.563 56.6299Z" fill="#F47458"/>
<path id="Vector_42" d="M102.3 53.2476C101.755 53.2458 101.263 53.6242 101.072 54.1686C100.913 54.6196 100.709 55.2884 100.58 56.056C100.341 57.4697 101.146 58.7638 101.847 58.8667C102.547 58.9703 104.216 58.5062 104.585 56.5034C104.743 55.6448 104.952 54.5191 104.245 53.9276C103.697 53.4677 102.927 53.2493 102.3 53.2476Z" fill="#F7A491"/>
<path id="Vector_43" d="M104.358 58.0296C104.358 58.0296 106.827 55.8293 106.935 54.1098C107.043 52.3908 105.455 51.4698 104.097 51.4216C103.484 51.4001 103.069 51.4275 102.436 51.5072C101.075 51.6786 100.194 52.2819 100.504 53.3958C100.921 54.8922 103.744 53.6296 104.322 54.0943C104.798 54.4775 104.026 55.3991 104.488 55.7508C104.923 56.081 104.702 55.9692 104.558 56.5981C104.413 57.227 104.358 58.0296 104.358 58.0296Z" fill="#13375B"/>
<path id="Vector_44" d="M105.31 56.0359C105.249 56.4477 104.997 56.7517 104.748 56.7154C104.498 56.6785 104.345 56.315 104.407 55.9026C104.468 55.4909 104.72 55.1868 104.969 55.2237C105.218 55.2606 105.371 55.6242 105.31 56.0359Z" fill="#F7A491"/>
<path id="Vector_45" d="M94.0649 44.9441C93.8435 44.5568 93.5127 44.9548 93.7269 45.4588C93.7376 45.4838 93.7275 45.5219 93.7281 45.5183C93.6727 45.6504 93.1592 46.0604 93.1592 46.0604C93.1592 46.0604 93.5704 47.2111 93.8019 46.9088C94.0333 46.606 94.2089 45.6254 94.2089 45.6254L94.0649 44.9441Z" fill="#F7A491"/>
<path id="Vector_46" d="M120.096 56.7184L118.415 55.0542C118.415 55.0542 115.219 59.6393 113.599 60.4348C112.024 61.2083 106.777 60.9268 106.593 60.8846C105.964 60.7412 104.031 60.2123 104.031 60.2123C104.031 60.2123 102.41 74.1257 104.522 78.9631C105.211 80.541 109.496 79.495 109.496 79.495C109.496 79.495 108.174 73.7015 108.103 72.9435C108.035 72.2182 107.668 66.4722 107.727 66.4139C107.881 66.2592 113.731 64.9847 115.334 63.7668C117.027 62.4798 120.096 56.7184 120.096 56.7184Z" fill="#466EB6"/>
<g id="Group_9">
<g id="Group_10">
<path id="Vector_47" d="M38.4407 69.3441C41.325 72.3495 43.8583 69.6869 43.7327 69.7315C43.8315 69.6892 44.464 69.6922 44.8764 69.6761C46.5944 69.6089 48.1589 68.3779 48.842 66.7464C51.4133 66.4096 53.0944 64.0344 52.3417 61.978C53.4783 60.5637 53.1278 58.3051 52.0524 56.8587C51.8019 54.4888 48.7051 54.0871 46.5736 54.9178C45.4929 55.3384 44.5729 56.2488 44.0993 57.3519C42.0445 57.3025 40.2902 58.8138 39.8326 60.9177C36.6364 61.8085 35.4974 66.2769 38.4407 69.3441Z" fill="#3F0000"/>
<path id="Vector_48" d="M56.9707 98.4668C56.6702 100.09 56.1585 101.518 56.0882 101.686C56.0543 101.767 55.7324 102.062 55.6955 102.144C55.8681 104.123 57.1296 105.299 58.3138 106.137C58.0568 105.139 57.4849 103.994 57.5587 103.772C57.6765 103.418 58.1341 101.806 59.1089 99.7776C58.124 99.6669 57.7729 99.0683 56.9707 98.4668Z" fill="#F7A491"/>
<path id="Vector_49" d="M53.3646 74.9194L46.5212 79.5914C46.5212 79.5914 49.8543 81.7554 50.9968 82.8442C52.1394 83.9331 58.2538 88.8722 58.3537 89.1215C58.4275 89.3065 57.7866 91.6485 56.3162 99.1472C56.9666 99.8119 58.3984 100.463 59.2463 100.678C61.0244 96.6774 63.0322 88.3539 62.8073 87.4382C62.4568 86.0174 53.3646 74.9194 53.3646 74.9194Z" fill="#355389"/>
<path id="Vector_50" d="M36.0372 84.3221C36.2383 84.5178 37.5737 87.1192 38.0818 88.5115C38.8257 88.0432 39.2756 87.4851 40.1069 87.1704C39.4511 86.2213 38.1723 83.9389 38.0676 83.3957C37.8182 82.1069 37.5254 81.9165 37.5254 81.9165C37.5254 81.9165 33.2034 83.3784 32.9154 83.7884C32.6274 84.1971 35.2291 83.5343 36.0372 84.3221Z" fill="#F7A491"/>
<path id="Vector_51" d="M38.1176 83.6814C38.4526 83.682 38.0884 82.1671 38.0117 81.8178C37.9254 81.4251 37.6975 81.3073 37.6409 81.2936C37.4874 81.2555 32.6846 82.8805 31.8729 83.4642C31.8181 83.5035 31.7193 83.6284 31.7045 83.657C31.2599 84.4858 35.2196 84.6435 35.7897 84.2811C36.2967 83.9586 36.6091 83.6772 38.1176 83.6814Z" fill="#3C8F7C"/>
<path id="Vector_52" d="M54.6077 76.3805C54.6077 76.3805 48.8105 74.0981 48.7349 74.3408C48.1345 76.274 46.2671 75.6504 45.1579 79.0556C44.6937 80.4818 44.3278 84.2458 44.0148 87.0375C43.7993 88.9558 43.4988 90.4933 43.4988 90.4933C43.4988 90.4933 42.1569 88.509 39.6302 85.6625C39.4344 85.4417 37.3945 87.3814 37.3945 87.3814C41.4178 95.3586 44.3528 96.4867 44.9942 96.2696C47.9018 95.2866 51.7555 81.9152 51.7495 81.9164C52.2232 80.9953 54.6077 76.3805 54.6077 76.3805Z" fill="#466EB6"/>
<path id="Vector_53" d="M45.6608 62.8647C45.6608 62.8647 38.74 62.8558 37.2583 62.7701C35.917 62.6927 30.5982 62.8284 30.3899 62.804C30.1822 62.7802 28.807 60.452 28.5785 60.7019C28.35 60.9518 29.3438 61.8562 29.0361 62.0912C28.7291 62.3256 25.4276 61.8002 25.4716 62.0442C25.5537 62.5006 27.4794 62.4428 27.4776 62.663C27.4758 62.8831 25.4621 62.5392 25.3252 62.9052C25.1889 63.2711 27.2622 63.0545 27.3449 63.2175C27.4276 63.3806 25.4216 63.6798 25.6269 64.0202C25.7382 64.2052 27.4044 63.7114 27.3961 63.9637C27.3878 64.2153 26.1726 64.7889 26.3214 64.9894C26.4701 65.19 27.2753 64.3736 27.9804 64.3635C28.6856 64.3534 29.1908 63.9857 30.3167 64.2945C30.8725 64.4468 35.116 64.9656 38.7019 65.2721C42.3777 65.5862 45.3912 65.6862 45.3912 65.6862L45.6608 62.8647Z" fill="#F7A491"/>
<path id="Vector_54" d="M55.9228 69.0164C56.0145 67.9055 55.7961 65.7903 55.7461 65.4214C56.0823 64.2671 56.7976 61.805 57.0547 61.3212C57.0547 61.3212 55.8496 59.0061 54.616 59.0216C54.616 59.0216 53.3563 61.8609 52.3821 62.3684C52.3678 62.3649 52.0376 62.5154 51.8924 62.5148C50.9521 62.5083 47.6655 62.4083 47.0526 62.3976L47.3978 67.0588C48.6926 70.4926 48.4564 73.5312 48.2285 74.5891C48.1011 75.1782 53.8079 76.9453 54.6851 76.3813C54.719 76.3599 55.7372 71.2625 55.9228 69.0164Z" fill="#50BFA5"/>
<path id="Vector_55" d="M48.7218 62.574C48.1154 62.2843 43.7291 62.4294 43.7291 62.4294C43.7291 62.4294 43.1162 65.4836 43.6113 66.2178C43.6113 66.2178 47.5335 66.8015 47.4216 67.1234L48.7218 62.574Z" fill="#50BFA5"/>
<path id="Vector_56" d="M49.4865 60.4376C49.4865 60.4376 49.9423 62.0417 50.0251 62.7349C50.1078 63.4281 51.164 65.5879 52.6023 65.2791C54.0406 64.9703 52.5398 62.9539 52.2584 62.3184C51.9769 61.6835 51.2152 59.1167 51.2152 59.1167L49.4865 60.4376Z" fill="#F7A491"/>
<path id="Vector_57" d="M51.5348 60.1693C51.3539 59.5844 51.2152 59.1167 51.2152 59.1167L49.4865 60.4376C49.4865 60.4376 49.5704 60.7327 49.6728 61.1242C50.5868 61.248 51.2116 60.8113 51.5348 60.1693Z" fill="#F47257"/>
<path id="Vector_58" d="M48.2333 55.6335C48.2333 55.6335 47.4793 56.0661 47.2151 56.9836C46.9509 57.9011 47.3014 60.2543 49.2729 60.7945C51.2444 61.3348 52.0673 59.4558 51.6419 58.0022C51.2158 56.5486 50.3089 54.7131 48.2333 55.6335Z" fill="#F7A491"/>
<path id="Vector_59" d="M51.8781 57.4329C51.8454 57.8256 51.6335 58.1285 51.405 58.1094C51.1765 58.0904 51.0176 57.7566 51.0504 57.3639C51.0831 56.9712 51.2949 56.6683 51.5234 56.6874C51.7519 56.707 51.9108 57.0408 51.8781 57.4329Z" fill="#F7A491"/>
<path id="Vector_60" d="M56.0734 101.735C55.9496 101.423 54.6976 102.416 54.4018 102.617C54.0698 102.844 54.0448 103.099 54.0531 103.156C54.0745 103.309 57.2606 107.232 58.1919 107.774C58.2799 107.825 58.465 107.827 58.5198 107.806C59.0375 107.606 58.1948 104.396 57.5153 103.762C57.0761 103.353 56.631 103.136 56.0734 101.735Z" fill="#3C8F7C"/>
<path id="Vector_61" d="M48.4612 55.5107C48.4612 55.5107 48.1434 58.146 47.3002 58.6327C46.457 59.1194 46.8295 60.2809 46.8295 60.2809C46.8295 60.2809 46.0184 57.5831 46.6783 56.7031C47.3383 55.8243 48.4612 55.5107 48.4612 55.5107Z" fill="#3F0000"/>
<path id="Vector_62" d="M47.8096 59.0039C48.0453 59.343 48.05 59.747 47.8209 59.9065C47.5918 60.0659 47.2145 59.9196 46.9789 59.5804C46.7432 59.2413 46.7385 58.8373 46.9676 58.6778C47.1973 58.5183 47.574 58.6647 47.8096 59.0039Z" fill="#F7A491"/>
</g>
</g>
<g id="Group_11">
<g id="Group_12">
<g id="Group_13">
<path id="Vector_63" d="M83.532 34.1309C82.4561 34.3428 78.1585 40.1012 78.1585 40.1012L78.0067 40.4998C78.0067 40.4998 85.7826 39.6353 86.064 39.3027C86.8251 38.4054 84.4163 33.9572 83.532 34.1309ZM78.2132 40.2237C79.6319 38.4102 82.8649 35.7624 83.5635 35.2001C84.1872 35.8368 85.1274 37.7146 85.2512 38.5631C84.358 38.7469 80.4816 39.9494 78.2132 40.2237Z" fill="white"/>
</g>
<g id="Group_14">
<path id="Vector_64" d="M73.1158 35.1138C71.0003 33.734 70.4195 33.7447 69.803 34.094C69.1865 34.4432 66.9139 37.7038 67.9297 38.7207C68.9455 39.7376 77.0034 40.4629 77.0034 40.4629L77.1849 39.9702C77.1855 39.9702 75.2307 36.4936 73.1158 35.1138ZM69.3299 38.3625C68.8604 37.8942 70.0297 35.9421 70.5629 35.5267C70.6986 35.45 76.1203 38.8992 76.8767 40.0773C73.8507 39.7495 69.7673 38.751 69.3299 38.3625Z" fill="white"/>
</g>
<path id="Vector_65" d="M77.0683 41.9915H77.5217C77.971 41.9915 78.3352 41.6273 78.3352 41.1781V39.8441C78.3352 39.3949 77.971 39.0308 77.5217 39.0308H77.0683C76.619 39.0308 76.2548 39.3949 76.2548 39.8441V41.1781C76.2542 41.6273 76.619 41.9915 77.0683 41.9915Z" fill="white"/>
<path id="Vector_66" d="M94.2576 40.5241L57.3945 40.4141C56.4138 40.4111 55.661 41.284 55.808 42.2544L56.3787 46.0154L58.2264 46.0118L59.3398 64.9394C59.3993 65.9521 60.2378 66.7428 61.2518 66.7428H90.6747L91.8988 45.9416L93.6394 45.9381L94.2576 40.5241Z" fill="#E0E0E0"/>
<path id="Vector_67" d="M57.6176 46.4582L57.626 46.0036C57.2731 45.8656 56.8571 45.9102 56.6506 45.8543L56.1561 45.4902C56.052 45.4449 55.9062 45.5586 55.9068 45.6716C55.908 45.7811 56.0466 45.9989 56.1169 46.0548C56.1169 46.0548 57.0005 46.7831 57.3118 47.0038C57.4659 47.1133 57.9497 47.409 57.9497 47.409L58.2318 46.8813L57.6176 46.4582Z" fill="#F7A491"/>
<path id="Vector_68" d="M91.3043 66.7426H68.7199L67.5107 40.916H94.3433L93.218 64.9469C93.171 65.9512 92.3284 66.7426 91.3043 66.7426Z" fill="#EFEFEF"/>
<path id="Vector_69" d="M95.4514 45.9507L66.3224 46.028L65.6577 40.4243L94.1928 40.5338C95.13 40.5374 95.8632 41.3424 95.7799 42.2754L95.4514 45.9507Z" fill="#EFEFEF"/>
<path id="Vector_70" d="M66.3224 46.028L94.1053 45.9507L67.2031 47.4191L66.3224 46.028Z" fill="#E0E0E0"/>
<path id="Vector_71" d="M78.0257 40.4678H77.2527V46.0025H78.0257V40.4678Z" fill="white"/>
<path id="Vector_72" d="M80.4614 45.9761H79.495V66.7814H80.4614V45.9761Z" fill="white"/>
</g>
<g id="Group_15">
<path id="Vector_73" d="M57.1368 29.6132C59.7093 30.6116 61.8284 31.2834 63.9421 31.845C64.6389 32.0301 65.7928 32.5573 66.4343 32.0878C66.7675 31.8438 66.9073 31.4767 66.7116 31.0858C66.3521 30.37 65.2423 30.3189 64.5395 30.132C62.3991 29.562 60.0045 28.8153 57.6277 27.9204C57.182 27.7526 56.6607 28.0894 56.5358 28.5214C56.3929 29.0122 56.6917 29.4406 57.1368 29.6132Z" fill="#DEF0F8"/>
</g>
<g id="Group_16">
<path id="Vector_74" d="M73.6062 25.66C72.8468 19.8475 72.8968 19.8326 72.5743 19.284C72.244 18.7217 71.3401 18.7985 71.1616 19.4494C70.9854 20.0926 71.0259 19.9897 71.8471 26.1027C71.9126 26.5888 72.5112 26.8708 72.948 26.7608C73.4699 26.6299 73.6704 26.1479 73.6062 25.66Z" fill="#DEF0F8"/>
</g>
<g id="Group_17">
<path id="Vector_75" d="M82.9536 26.4067C83.529 25.6309 84.0146 24.802 84.4115 23.9214C84.7804 23.1033 85.4565 21.8984 84.8227 21.0874C84.6864 20.9137 84.3663 20.8304 84.1604 20.9012C83.3005 21.1975 83.1368 22.403 82.7935 23.1569C82.4186 23.9785 81.9556 24.761 81.4468 25.5065C81.1796 25.898 81.3599 26.477 81.7497 26.7102C82.1901 26.9726 82.6703 26.7887 82.9536 26.4067Z" fill="#DEF0F8"/>
</g>
<g id="Group_18">
<path id="Vector_76" d="M95.8935 30.8248C96.1536 30.4678 95.9352 30.0049 95.6299 29.777C95.0003 29.3075 93.8905 29.7407 93.2038 29.9299C92.404 30.1507 91.6328 30.4488 90.8794 30.7939C90.4444 30.9932 90.3248 31.6096 90.5456 32.0005C90.8044 32.4581 91.3091 32.5188 91.7518 32.3343C94.6445 31.1294 95.2514 31.706 95.8935 30.8248Z" fill="#DEF0F8"/>
</g>
</g>
</g>
</svg>
