<svg width="136" height="80" viewBox="0 0 136 80" fill="none" xmlns="http://www.w3.org/2000/svg">
<g id="Component 100">
<g id="Mask group">
<mask id="mask0_504_8058" style="mask-type:alpha" maskUnits="userSpaceOnUse" x="48" y="5" width="22" height="36">
<rect id="Rectangle 6992" x="48.4892" y="8.35339" width="12" height="34" transform="rotate(-16.2243 48.4892 8.35339)" fill="#D9D9D9"/>
</mask>
<g mask="url(#mask0_504_8058)">
<path id="Vector 7" d="M54 8.99998L56.5 6.99998C56.8535 12.0473 59.5265 27.4907 62.5 36L61.4638 39.1951C58.5753 35.9737 55.5067 19.197 54 8.99998Z" fill="#EE3764"/>
</g>
</g>
<g id="Mask group_2">
<mask id="mask1_504_8058" style="mask-type:alpha" maskUnits="userSpaceOnUse" x="85" y="39" width="28" height="41">
<rect id="Rectangle 6993" x="85" y="43.7703" width="7.92371" height="41.0973" transform="rotate(-29.717 85 43.7703)" fill="#D9D9D9"/>
</mask>
<g mask="url(#mask1_504_8058)">
<path id="Vector 8" d="M87.2964 44.5597L89.2468 42.0208C90.7948 46.8379 102.081 63.4463 107 71L105.5 76.5C101.926 74.0612 91.1934 54.1024 87.2964 44.5597Z" fill="#EE3764"/>
</g>
</g>
<g id="Mask group_3">
<mask id="mask2_504_8058" style="mask-type:alpha" maskUnits="userSpaceOnUse" x="29" y="43" width="29" height="37">
<rect id="Rectangle 6991" x="29" y="48.5174" width="10.164" height="37" transform="rotate(-32.8769 29 48.5174)" fill="#D9D9D9"/>
</mask>
<g mask="url(#mask2_504_8058)">
<path id="Vector 6" d="M35.5 46L37 43.5C38.6 48.3 50.5 48.5 55.5 56L52.5 76.5C48.9 74.1 39.5 55.5 35.5 46Z" fill="#EE3764"/>
</g>
</g>
<path id="Vector" d="M0 0.433586C0 1.09264 0.815144 6.97208 1.30076 9.8511C3.0698 20.1358 5.89679 30.5419 9.62564 40.4971C10.2674 42.2141 10.9091 43.827 11.0478 44.0872L11.2906 44.5728H14.0135H16.7365L17.1527 43.7056C17.6557 42.665 18.6269 41.7458 19.841 41.1735C20.9163 40.6705 22.5812 40.6185 23.8126 41.0347C24.8706 41.3989 26.2581 42.6477 26.8477 43.775C27.2466 44.5381 27.316 44.8676 27.316 46.1337C27.316 47.3998 27.2466 47.7293 26.8477 48.4924C26.2581 49.6197 24.8706 50.8685 23.8126 51.2327C22.5812 51.6489 20.9163 51.5969 19.841 51.0939C18.6269 50.5216 17.6557 49.6024 17.1527 48.5618L16.7365 47.6946H14.7073C13.5279 47.6946 12.6608 47.764 12.6608 47.8681C12.6608 48.1109 15.1756 53.6261 16.3549 55.9328C21.8701 66.7725 32.2936 74.1955 45.0931 76.4155C48.1802 76.9531 52.863 77.1959 52.6202 76.8144C52.5335 76.6756 51.5102 75.1494 50.3308 73.3977C44.0005 63.9975 38.4679 53.4527 34.2707 42.8731C31.5478 35.9878 29.5533 29.7788 27.6629 22.217C26.4488 17.2915 26.0499 16.0948 24.8532 13.8575C23.1709 10.6489 19.7889 6.95474 16.6324 4.85618C12.0884 1.85575 6.15694 0.0173416 1.00592 0C0.0520305 0 0 0.0173416 0 0.433586Z" fill="#EE3764"/>
<path id="Vector_2" d="M56.1929 7.75253C56.1929 8.03002 56.3837 9.60828 56.6265 11.2733C58.8465 26.6396 63.165 40.6185 70.1545 55.1003C71.7674 58.4302 72.9121 60.4074 74.4036 62.4192C75.4616 63.8414 78.5834 67.1887 79.121 67.4835C79.4159 67.6396 79.4332 67.3968 79.4332 61.448V55.239L78.4793 54.7361C75.9472 53.418 74.8545 50.3482 76.0166 47.816C77.959 43.5842 83.8385 43.4975 85.885 47.6599C86.4573 48.8393 86.5094 50.591 86.0238 51.9091C85.5902 53.0884 84.3761 54.3892 83.2835 54.8748L82.5551 55.2043V62.6794V70.1544L83.9946 71.0563C89.8914 74.7331 98.4937 77.2132 104.46 76.9704L105.83 76.9184L104.859 75.583C92.0073 57.6845 83.3182 36.9763 79.8842 16.1294C79.4853 13.7187 78.7395 8.08205 78.7395 7.50972C78.7395 7.31894 76.6409 7.28426 67.4662 7.28426H56.1929V7.75253Z" fill="#EE3764"/>
<path id="Vector_3" d="M20.9509 42.3875C19.1646 42.8731 18.1413 44.2259 18.1413 46.1337C18.1413 48.7699 20.2572 50.5043 22.8587 49.9493C24.5757 49.5677 25.8245 47.9721 25.8418 46.1684C25.8418 43.5322 23.5004 41.7111 20.9509 42.3875Z" fill="#EE3764"/>
<path id="Vector_4" d="M80.1269 46.1684C77.5947 46.602 76.2419 49.7411 77.6294 51.9785C77.9416 52.4641 78.4792 53.0017 78.9649 53.3139C80.6645 54.3545 82.9885 53.8689 84.1853 52.2386C84.6882 51.5275 84.7229 51.3888 84.7229 49.984C84.7229 48.6312 84.6709 48.4057 84.2546 47.7813C83.3354 46.4459 81.8439 45.8735 80.1269 46.1684Z" fill="#EE3764"/>
<g id="Silver">
<path id="Vector_5" d="M133.458 1.50897C125.619 1.97724 118.456 4.09315 112.282 7.75263C107.027 10.8745 102.795 14.8461 99.6732 19.5982C97.644 22.7027 93.707 30.9062 91.0014 37.7395C89.0243 42.7171 89.0937 42.006 90.3597 44.9371C92.8572 50.7298 96.8115 58.361 100.384 64.2577C102.067 67.0327 106.056 73.1029 106.281 73.259C106.368 73.311 106.611 72.1143 106.819 70.6228C108.883 56.5399 113.652 41.2603 120.191 27.7844L122.081 23.9341H118.872H115.681L115.265 24.7839C114.71 25.8592 113.305 27.1253 112.265 27.4722C109.68 28.3567 106.801 27.16 105.639 24.7493C104.946 23.3097 104.842 22.4599 105.171 21.1765C105.639 19.3207 106.593 18.1934 108.38 17.3783C110.894 16.2163 114.068 17.4303 115.334 20.0492L115.716 20.8123H119.722H123.746L124.422 19.5462C126.59 15.5399 131.499 7.78732 134.638 3.4341C135.366 2.41083 135.973 1.54366 135.973 1.49162C135.973 1.38757 135.21 1.38757 133.458 1.50897Z" fill="#F05E90"/>
<path id="Vector_6" d="M53.0538 10.6664C48.3191 17.8986 42.8559 28.8077 38.572 39.578L36.9244 43.6884L38.4333 47.2091C40.3931 51.8572 44.5902 60.3208 46.9663 64.4486C48.9261 67.8652 51.8571 72.496 52.0653 72.496C52.1173 72.496 52.256 71.9236 52.3774 71.2299C54.1638 59.9219 56.3491 51.5797 59.6964 43.1854L61.2573 39.2832L60.1994 35.9879C57.8927 28.7036 56.4705 22.7028 55.1524 14.6554C54.7708 12.262 54.3893 10.0073 54.3199 9.62578L54.1812 8.93204L53.0538 10.6664Z" fill="#F05E90"/>
<path id="Vector_7" d="M109.524 18.5403C107.669 18.9912 106.593 20.396 106.576 22.3732C106.576 23.3098 106.663 23.6393 107.062 24.333C107.79 25.5644 108.692 26.0847 110.218 26.1541C111.207 26.2061 111.606 26.1541 112.143 25.8766C115.265 24.2636 114.935 19.6329 111.623 18.6444C110.704 18.3669 110.339 18.3495 109.524 18.5403Z" fill="#F05E90"/>
</g>
</g>
</svg>
