<svg width="21" height="21" viewBox="0 0 21 21" fill="none" xmlns="http://www.w3.org/2000/svg">
<g id="Black">
<path id="Vector" d="M5.30875 2.28201C2.50987 3.53529 0.174671 4.60041 0.117551 4.64745L0.0167506 4.73145L0.0066706 6.76425C0.0033106 8.05785 0.0100306 8.82729 0.0335506 8.88441C0.120911 9.11289 0.440111 9.16329 0.614831 8.97177L0.705551 8.87097V6.99609V5.12457L5.50363 2.97753C8.14123 1.79481 10.3454 0.806968 10.4025 0.780087C10.5033 0.733047 10.5638 0.759928 15.3988 2.92713L20.2943 5.12121V6.94569C20.2943 8.99193 20.291 8.96505 20.5161 9.05913C20.674 9.12633 20.8084 9.09609 20.9159 8.96505L20.9999 8.86425V6.83817C20.9999 5.36649 20.9899 4.78521 20.9596 4.72137C20.9361 4.67097 20.8521 4.60377 20.7513 4.55337C20.6572 4.50969 18.3355 3.46473 15.5903 2.23497C12.4823 0.843927 10.5638 0.000567436 10.4999 0.000567436C10.4395 0.000567436 8.31931 0.934648 5.30875 2.28201Z" fill="#EE3764"/>
<path id="Vector_2" d="M17.3519 8.08233C17.2948 8.11257 17.2309 8.16969 17.2074 8.21001C17.1301 8.35785 16.4648 10.4007 16.4648 10.4914C16.4648 10.6326 16.532 10.7468 16.6496 10.8039C16.737 10.8442 16.8815 10.8543 17.3015 10.8543H17.8424V11.3751V11.8959H17.4728C17.1133 11.8959 17.1032 11.8993 16.9957 11.9934C16.9016 12.0774 16.8848 12.1143 16.8848 12.2454C16.8848 12.3663 16.905 12.4167 16.9789 12.4906L17.0696 12.5847L18.1516 12.5948C19.2872 12.6049 19.3746 12.5948 19.472 12.4537C19.4989 12.4167 19.5224 12.3193 19.5224 12.2386C19.5224 12.121 19.5023 12.074 19.425 11.9934C19.3276 11.8959 19.3208 11.8959 18.9378 11.8959H18.548V11.3785V10.8577L19.1495 10.8476C19.7341 10.8375 19.7543 10.8342 19.8383 10.7569C20.0063 10.599 19.9962 10.5486 19.593 9.33225C19.304 8.46873 19.1965 8.18985 19.1327 8.12937C19.0487 8.04873 19.0386 8.04873 18.2524 8.03865C17.5837 8.03193 17.4392 8.03865 17.3519 8.08233ZM18.884 9.44985L19.1125 10.1487H18.2087C17.7114 10.1487 17.3048 10.1454 17.3048 10.1386C17.3048 10.1286 17.7282 8.85513 17.7584 8.77785C17.7685 8.74761 17.8794 8.73753 18.2154 8.74425L18.6556 8.75433L18.884 9.44985Z" fill="#EE3764"/>
<path id="Vector_3" d="M1.98912 9.2064C1.77072 9.31728 1.62288 9.46176 1.50528 9.68688C1.428 9.828 1.428 9.83472 1.41792 11.5786L1.40784 13.3258L1.2432 13.3694C0.863523 13.4669 0.420003 13.8331 0.218403 14.2128C-0.0033571 14.6429 2.90657e-06 14.5522 2.90657e-06 17.8147V20.7648L0.0974429 20.8723L0.194883 20.9832L0.997923 20.9933C1.49184 21 1.83792 20.9899 1.89168 20.9698C1.94208 20.9496 2.01264 20.8858 2.0496 20.8253C2.11008 20.7245 2.1168 20.6539 2.1168 20.1499V19.5888H7.35504H12.5966L12.6067 20.197L12.6168 20.8051L12.7277 20.9026L12.8352 21H13.6248C14.0549 21 14.448 20.9866 14.495 20.9664C14.5421 20.9496 14.6126 20.8858 14.6496 20.8253C14.7168 20.7178 14.7168 20.6539 14.7168 17.8248C14.7168 14.6563 14.7168 14.6698 14.5152 14.2565C14.317 13.8566 13.9037 13.4971 13.5005 13.3795L13.309 13.3224L13.2989 11.592L13.2888 9.8616L13.2082 9.69696C13.1107 9.49536 12.9226 9.30384 12.7277 9.19968L12.5832 9.1224L7.38864 9.11232L2.19744 9.1056L1.98912 9.2064ZM12.311 9.8112C12.3816 9.828 12.4723 9.87168 12.5126 9.912C12.5832 9.9792 12.5832 10.0061 12.5933 11.6458L12.6034 13.309L12.2573 13.2989L11.9112 13.2888L11.8944 12.432L11.8776 11.5752L11.7802 11.3971C11.6693 11.1955 11.5248 11.0578 11.3131 10.9469C11.1754 10.8696 11.1485 10.8696 9.86496 10.8595C8.37648 10.8494 8.35296 10.8528 8.06736 11.1082C7.96992 11.1955 7.85904 11.34 7.80528 11.4509L7.7112 11.6424L7.70112 12.4757L7.68768 13.309L7.34832 13.2989L7.0056 13.2888L6.9888 12.432C6.972 11.6155 6.96864 11.5685 6.89472 11.424C6.7872 11.219 6.636 11.0678 6.4344 10.9603L6.2664 10.8696H4.9056C3.55152 10.8696 3.5448 10.8696 3.40032 10.9469C3.06768 11.125 2.87952 11.3837 2.8224 11.7499C2.80224 11.8574 2.7888 12.2506 2.7888 12.6235V13.3056H2.4528H2.1168V11.6626V10.0162L2.19408 9.9288C2.2344 9.8784 2.32176 9.828 2.3856 9.8112C2.54688 9.77424 12.1464 9.77088 12.311 9.8112ZM6.18912 11.6558L6.3 11.7533V12.5227V13.2888H4.9056H3.5112V12.5227V11.7533L3.62208 11.6558L3.7296 11.5584H4.9056H6.0816L6.18912 11.6558ZM11.088 11.6525C11.2123 11.7802 11.2291 11.9011 11.2157 12.6672L11.2056 13.2888H9.8112H8.4168V12.5227V11.7533L8.52768 11.6558L8.6352 11.5584H9.81456H10.9939L11.088 11.6525ZM13.3157 14.0582C13.5374 14.1422 13.8163 14.4077 13.9138 14.6227C13.991 14.7941 13.9944 14.831 14.0045 15.7987L14.0146 16.8H7.3584H0.702243L0.712323 15.7819C0.722403 14.7907 0.725763 14.7638 0.803043 14.616C0.903843 14.4245 1.12224 14.1926 1.28688 14.1086C1.35744 14.0717 1.50192 14.028 1.60608 14.0146C1.71024 13.9978 4.35456 13.9877 7.476 13.991C12.9226 13.9944 13.1611 13.9978 13.3157 14.0582ZM14.0112 18.9V20.2944H13.6584H13.3056V19.7064V19.1184L13.2082 19.0109L13.1107 18.9H7.3584H1.60608L1.50864 19.0109L1.4112 19.1184V19.7064V20.2944H1.0584H0.705603V18.9V17.5056H7.3584H14.0112V18.9Z" fill="#EE3764"/>
<path id="Vector_4" d="M15.526 13.3917L15.4219 13.479V16.3686V19.2582L15.5193 19.3557C15.6571 19.4934 15.8587 19.4934 15.9964 19.3557L16.0939 19.2582V18.0285V16.7987H18.1939H20.2905L20.3006 18.0285L20.3107 19.2582L20.4216 19.3557C20.5828 19.5001 20.7979 19.48 20.939 19.3053C20.9928 19.2381 20.9995 19.0331 20.9995 16.3686V13.4992L20.902 13.4017L20.8046 13.3043H18.2174H15.6302L15.526 13.3917ZM20.2939 15.0347V16.0931L18.204 16.0864L16.1107 16.0763L16.1006 15.0683C16.0972 14.5139 16.1006 14.0435 16.1107 14.02C16.1208 13.9864 16.5643 13.9763 18.2107 13.9763H20.2939V15.0347Z" fill="#EE3764"/>
<path id="Vector_5" d="M17.4379 14.72C17.3069 14.7704 17.2363 14.8847 17.2363 15.046C17.2363 15.1636 17.2565 15.2106 17.3338 15.2912L17.4312 15.3887H18.2006C18.876 15.3887 18.9768 15.382 19.0373 15.3282C19.212 15.1871 19.2322 14.972 19.0877 14.8108L18.9902 14.6999L18.2544 14.6932C17.821 14.6898 17.4883 14.6999 17.4379 14.72Z" fill="#EE3764"/>
</g>
</svg>
