<svg width="76" height="77" viewBox="0 0 76 77" fill="none" xmlns="http://www.w3.org/2000/svg">
<g id="Group 1000003454">
<g id="Clip path group">
<mask id="mask0_824_5044" style="mask-type:luminance" maskUnits="userSpaceOnUse" x="0" y="0" width="76" height="77">
<g id="fb5b4d09b0">
<path id="Vector" d="M0 0H76V77H0V0Z" fill="white"/>
</g>
</mask>
<g mask="url(#mask0_824_5044)">
<g id="Group">
<path id="Vector_2" d="M75.9993 38.5654C75.9993 59.7907 59.0391 76.9998 38.1121 76.9998C17.197 76.9998 0.236816 59.7907 0.236816 38.5654C0.236816 17.3519 17.197 0.142822 38.1121 0.142822C59.0391 0.142822 75.9993 17.3519 75.9993 38.5654Z" fill="#FFD400"/>
</g>
</g>
</g>
<path id="Vector_3" d="M26.8766 26.5054C26.164 25.8022 25.012 25.8022 24.2994 26.5054L22.114 28.6625L19.9168 26.5054C19.2042 25.8022 18.0521 25.8022 17.3395 26.5054C16.6388 27.1966 16.6388 28.3288 17.3395 29.02L19.5367 31.1771L17.3395 33.3342C16.6388 34.0254 16.6388 35.1576 17.3395 35.8488C17.6958 36.1944 18.1709 36.3732 18.6341 36.3732C19.0973 36.3732 19.5605 36.1944 19.9168 35.8488L22.114 33.6917L24.2994 35.8488C24.6557 36.1944 25.1189 36.3732 25.5821 36.3732C26.0453 36.3732 26.5203 36.1944 26.8766 35.8488C27.5774 35.1576 27.5774 34.0254 26.8766 33.3342L24.6794 31.1771L26.8766 29.02C27.5774 28.3288 27.5774 27.1966 26.8766 26.5054Z" fill="#4C2207"/>
<path id="Vector_4" d="M56.6994 31.1771L58.8847 29.02C59.5973 28.3288 59.5973 27.1966 58.8847 26.5054C58.184 25.8022 57.0319 25.8022 56.3193 26.5054L54.1221 28.6625L51.9368 26.5054C51.2242 25.8022 50.0721 25.8022 49.3714 26.5054C48.6588 27.1966 48.6588 28.3288 49.3714 29.02L51.5567 31.1771L49.3714 33.3342C48.6588 34.0254 48.6588 35.1576 49.3714 35.8488C49.7158 36.1944 50.179 36.3732 50.6541 36.3732C51.1173 36.3732 51.5805 36.1944 51.9368 35.8488L54.1221 33.6917L56.3193 35.8488C56.6756 36.1944 57.1388 36.3732 57.602 36.3732C58.0652 36.3732 58.5403 36.1944 58.8847 35.8488C59.5973 35.1576 59.5973 34.0254 58.8847 33.3342L56.6994 31.1771Z" fill="#4C2207"/>
<path id="Vector_5" d="M53.5164 54.1183C53.5164 56.0132 52.8276 57.7532 51.7111 59.1476C51.5092 59.3978 51.3073 59.6243 51.0817 59.8507C49.5852 61.3166 47.5186 62.2342 45.2501 62.2342H30.986C28.3731 62.2342 26.0215 61.0186 24.525 59.1476C23.3967 57.7532 22.7197 56.0132 22.7197 54.1183C22.7197 51.8897 23.658 49.8518 25.1545 48.3859C26.6391 46.9081 28.7175 45.9905 30.986 45.9905H45.2501C49.799 45.9905 53.5164 49.6492 53.5164 54.1183Z" fill="#4C2207"/>
</g>
</svg>
